<svg xmlns:dc="http://purl.org/dc/elements/1.1/" xmlns:cc="http://creativecommons.org/ns#" xmlns:rdf="http://www.w3.org/1999/02/22-rdf-syntax-ns#" xmlns:svg="http://www.w3.org/2000/svg" xmlns="http://www.w3.org/2000/svg" xmlns:sodipodi="http://sodipodi.sourceforge.net/DTD/sodipodi-0.dtd" xmlns:inkscape="http://www.inkscape.org/namespaces/inkscape" version="1.1" x="0px" y="0px" viewBox="0 0 100 125"><g transform="translate(0,-952.36218)"><path style="text-indent:0;text-transform:none;direction:ltr;block-progression:tb;baseline-shift:baseline;color:#000000;enable-background:accumulate;" d="m 79.468997,959.36835 a 2.0002,2.0002 0 0 0 -1.1876,0.5625 l -45.25,45.24995 a 2.0002,2.0002 0 0 0 -0.5937,1.2188 l -1.4063,12.7187 a 2.0002,2.0002 0 0 0 2.2188,2.2188 l 12.7188,-1.4375 a 2.0002,2.0002 0 0 0 1.1874,-0.5625 l 45.25,-45.25 a 2.0002,2.0002 0 0 0 0,-2.84375 l -11.3124,-11.3125 a 2.0002,2.0002 0 0 0 -1.625,-0.5625 z m 0.2187,4.8125 8.5,8.5 -2.8125,2.8125 -8.5,-8.5 2.8125,-2.8125 z m -70.6874994,5.1875 c -1.1731,0.0362 -1.9754,1.09908 -2,2 l 0,71.99995 c 10e-5,1.0472 0.9528,1.9999 2,2 l 71.9999994,0 c 1.0472,-1e-4 1.9999,-0.9528 2,-2 l 0,-43 c 0.015,-1.05657 -0.9433,-2.03117 -2,-2.03117 -1.0567,0 -2.0149,0.9746 -2,2.03117 l 0,41 -67.999999,0 0,-67.99995 40.999999,0 c 1.0566,0.0149 2.0312,-0.94327 2.0312,-2 0,-1.05673 -0.9746,-2.01494 -2.0312,-2 l -42.9999994,0 z m 65.0311994,0.46875 8.5,8.5 -36.0624,36.0625 -8.5,-8.5 36.0624,-36.0625 z m -37.9374,39.8437 6.5624,6.5625 -7.375,0.8125 0.8126,-7.375 z" fill-opacity="1" stroke="none" marker="none" visibility="visible" display="inline" overflow="visible"/></g></svg>