<svg xmlns="http://www.w3.org/2000/svg" xmlns:xlink="http://www.w3.org/1999/xlink" version="1.1" x="0px" y="0px" viewBox="0 0 100 125" style="enable-background:new 0 0 100 100;" xml:space="preserve"><path d="M79.4,54.9l-8.7-8.7L62.4,55c-0.6,0.6-0.5,1.5,0.1,2.1c0.3,0.3,0.7,0.4,1,0.4c0.4,0,0.8-0.2,1.1-0.5l4.7-4.9v5.6  c0,5-4,9-9,9h-6.7c-0.8,0-1.5,0.2-2.2,0.5v-4.5v-3.1V28.2l5,5c0.3,0.3,0.7,0.4,1.1,0.4c0.4,0,0.8-0.1,1.1-0.4c0.6-0.6,0.6-1.5,0-2.1  l-8.6-8.7l-8.3,8.8c-0.6,0.6-0.5,1.5,0.1,2.1c0.6,0.6,1.5,0.5,2.1-0.1l4.7-4.9v26.6c-0.7-0.3-1.4-0.5-2.2-0.5H34.7c-3.3,0-6-2.7-6-6  v-6.3l4.7,5c0.3,0.3,0.7,0.5,1.1,0.5c0.4,0,0.7-0.1,1-0.4c0.6-0.6,0.6-1.5,0.1-2.1l-8.3-8.8L18.6,45c-0.6,0.6-0.6,1.5,0,2.1  c0.6,0.6,1.5,0.6,2.1,0l5-5v6.3c0,5,4,9,9,9h11.5c1.2,0,2.2,1,2.2,2.2v3.1v9.2v1.6v2.6c0,0.8,0.7,1.5,1.5,1.5s1.5-0.7,1.5-1.5v-2.6  v-1.6c0-1.2,1-2.2,2.2-2.2h6.7c6.6,0,12-5.4,12-12V52l5,5c0.6,0.6,1.5,0.6,2.1,0C80,56.5,80,55.5,79.4,54.9z"/></svg>