<svg xmlns="http://www.w3.org/2000/svg" xmlns:xlink="http://www.w3.org/1999/xlink" version="1.1" x="0px" y="0px" viewBox="0 0 65 81.25" enable-background="new 0 0 65 65" xml:space="preserve"><g><path d="M12.4,12.9c4.4-4.5,10.2-7.4,16.4-8.2c0.5,1.6,1.9,2.9,3.7,2.9c2.1,0,3.9-1.7,3.9-3.9s-1.7-3.9-3.9-3.9   c-2,0-3.6,1.5-3.8,3.4C22.1,4,15.9,7.1,11.3,11.8L12.4,12.9z M32.5,1.3c1.3,0,2.4,1.1,2.4,2.4c0,1.3-1.1,2.4-2.4,2.4   c-1.3,0-2.4-1.1-2.4-2.4C30.1,2.3,31.2,1.3,32.5,1.3z"/><path d="M4.1,40.9l1.4-0.4c-0.8-2.6-1.1-5.2-1.1-7.9c0-3.7,0.7-7.4,2.1-10.8c0.3,0.1,0.7,0.1,1,0.1c1.4,0,2.7-0.7,3.4-1.9   c1.1-1.9,0.4-4.2-1.4-5.3c-0.6-0.3-1.3-0.5-2-0.5c-1.4,0-2.7,0.7-3.4,1.9C3.7,16.9,3.5,18,3.8,19C4,19.8,4.5,20.5,5.2,21   c-1.5,3.6-2.3,7.5-2.3,11.5C2.9,35.3,3.3,38.2,4.1,40.9z M5.5,16.8c0.4-0.7,1.2-1.2,2.1-1.2c0.4,0,0.8,0.1,1.2,0.3   c1.1,0.7,1.5,2.1,0.9,3.3C9,20.3,7.5,20.7,6.4,20c-0.6-0.3-0.9-0.8-1.1-1.5C5.1,18,5.2,17.3,5.5,16.8z"/><path d="M10.1,49.5c0.5-0.5,0.8-1,1-1.7c0.3-1,0.1-2-0.4-2.9c-0.7-1.2-2-2-3.4-2c-0.7,0-1.3,0.2-1.9,0.5C3.6,44.4,3,46.8,4,48.7   c0.7,1.2,2,2,3.4,2c0.5,0,1-0.1,1.5-0.3c3.9,5.1,9.3,8.9,15.5,10.6l0.4-1.4C19,57.9,13.8,54.3,10.1,49.5z M5.3,47.9   c-0.6-1.1-0.2-2.6,0.9-3.3c0.4-0.2,0.8-0.3,1.2-0.3c0.9,0,1.7,0.5,2.1,1.2c0.3,0.6,0.4,1.2,0.2,1.8c-0.2,0.6-0.6,1.1-1.1,1.4   C7.5,49.5,6,49,5.3,47.9z"/><path d="M52.4,52.3c-4.4,4.4-10.1,7.2-16.2,8c-0.2-0.6-0.5-1.2-1-1.7c-0.7-0.7-1.7-1.2-2.8-1.2c-2.1,0-3.9,1.7-3.9,3.8   c0,2.1,1.7,3.9,3.8,3.9h0c2,0,3.6-1.5,3.8-3.4c6.5-0.8,12.5-3.8,17.2-8.5L52.4,52.3z M32.5,63.8v0.7V63.8c-1.3,0-2.4-1.1-2.4-2.4   c0-1.3,1.1-2.4,2.4-2.4c0.6,0,1.2,0.3,1.7,0.7c0.4,0.5,0.7,1.1,0.7,1.7C34.9,62.7,33.8,63.8,32.5,63.8z"/><path d="M55,15.7c-1.2,1.2-1.6,3.1-0.7,4.7c0.7,1.2,2,2,3.4,2c0.7,0,1.3-0.2,1.9-0.5c1.9-1,2.6-3.4,1.5-5.3c-0.7-1.2-2-2-3.4-2   c-0.5,0-1,0.1-1.4,0.3c-4.1-5.5-10-9.5-16.6-11.1l-0.4,1.5C45.6,6.8,51.2,10.5,55,15.7z M59.8,17.3c0.6,1.1,0.2,2.6-0.9,3.2   c-1.1,0.6-2.6,0.2-3.2-0.9c-0.6-1.1-0.2-2.6,0.9-3.2c0.4-0.2,0.8-0.3,1.2-0.3C58.6,16.1,59.4,16.6,59.8,17.3z"/><path d="M59.7,44.2c1.6-3.7,2.4-7.6,2.4-11.7c0-2.5-0.3-5.1-1-7.5l-1.5,0.4c0.6,2.3,0.9,4.7,0.9,7.1c0,3.8-0.8,7.5-2.3,11   c-0.3-0.1-0.7-0.1-1.1-0.1c-1.4,0-2.6,0.7-3.3,1.9c-1.1,1.8-0.5,4.2,1.3,5.3c0.6,0.4,1.3,0.5,2,0.5c1.4,0,2.6-0.7,3.3-1.9   c0.5-0.9,0.7-1.9,0.4-2.9C60.9,45.5,60.4,44.8,59.7,44.2z M59.3,48.5c-0.6,1.1-2.2,1.5-3.3,0.8c-1.1-0.7-1.5-2.1-0.8-3.3   c0.4-0.7,1.2-1.2,2.1-1.2c0.4,0,0.8,0.1,1.2,0.3c0.5,0.3,0.9,0.8,1.1,1.5C59.8,47.3,59.7,47.9,59.3,48.5z"/><path d="M35.6,53.1c1.3,0,2.3-0.9,2.6-2.2c0-0.3,0.1-0.6,0.1-1.1c0,0,0,0,0,0h1.4v-1.5h-1.3c0-0.1,0.2-0.9,0.2-1.3h2.4v-1.5H39   c0.8-3.5,2.1-6.8,3.8-9.7c0.1-0.2,0.2-0.3,0.3-0.5c1.2-2,1.7-4.3,1.6-6.7c-0.3-6.2-5.2-11.2-11.4-11.6c-7.2-0.5-13.1,5.2-13.1,12.3   c0,1.4,0.2,2.7,0.7,4.1l1.1,2.1c0.2,0.3,0.3,0.5,0.5,0.8l0.1,0.1c1.6,2.8,2.7,5.9,3.5,9.1h-2.2V47h2.5c0,0,0,0,0,0   c0.1,0.3,0.1,0.8,0.2,1.3h-1.3v1.5h1.5c0,0.2,0,0.3,0,0.5l0.1,0.8l0,0.2c0.4,1,1.4,1.7,2.5,1.7H35.6z M23.7,35.5L23.7,35.5   L23.7,35.5c-0.2-0.3-0.3-0.6-0.5-0.8l-1-2c-0.4-1.1-0.6-2.3-0.6-3.6c0-6.2,5.2-11.2,11.5-10.8c5.4,0.4,9.7,4.7,10,10.2   c0.1,2.1-0.4,4.1-1.3,5.8l-0.1,0.1c-0.1,0.2-0.2,0.3-0.3,0.5c-1.8,3.1-3.2,6.7-4.1,10.5h-10C26.7,41.9,25.4,38.6,23.7,35.5z    M27.8,47h9.3c-0.1,0.3-0.2,1.1-0.2,1.3H28C27.9,47.8,27.8,47.4,27.8,47z M28.2,50.9l-0.1-0.7c0-0.1,0-0.2,0-0.4h8.7   c0,0.4-0.1,0.7-0.1,0.9c-0.1,0.5-0.6,0.9-1.1,0.9h-6.3C28.8,51.6,28.4,51.3,28.2,50.9z"/><rect x="42" y="39.2" transform="matrix(-0.6986 -0.7155 0.7155 -0.6986 44.717 98.7841)" width="2.3" height="1.5"/><rect x="46.1" y="32.4" transform="matrix(-0.9628 -0.27 0.27 -0.9628 83.672 77.873)" width="2.3" height="1.5"/><rect x="46.2" y="24.5" transform="matrix(0.9689 -0.2474 0.2474 0.9689 -4.7851 12.4857)" width="2.3" height="1.5"/><rect x="42.3" y="17.6" transform="matrix(-0.7153 0.6989 -0.6989 -0.7153 87.3276 1.2093)" width="2.3" height="1.5"/><rect x="35.9" y="13.2" transform="matrix(-0.9628 -0.2702 0.2702 -0.9628 68.0037 38.0906)" width="1.5" height="2.3"/><rect x="28" y="13.1" transform="matrix(-0.9689 0.2474 -0.2474 -0.9689 60.0872 20.9913)" width="1.5" height="2.3"/><rect x="21.1" y="17" transform="matrix(-0.7155 0.6986 -0.6986 -0.7155 50.1352 15.8628)" width="1.5" height="2.3"/><rect x="17.1" y="23.8" transform="matrix(0.2702 -0.9628 0.9628 0.2702 -11.0108 35.3425)" width="1.5" height="2.3"/><rect x="17" y="31.7" transform="matrix(-0.2474 -0.9689 0.9689 -0.2474 -9.7166 58.1181)" width="1.5" height="2.3"/><rect x="20.4" y="39" transform="matrix(0.7144 -0.6997 0.6997 0.7144 -21.6486 26.4288)" width="2.3" height="1.5"/></g></svg>