<?xml version="1.0" encoding="UTF-8"?>
<svg width="312px" height="252px" viewBox="0 0 312 252" version="1.1" xmlns="http://www.w3.org/2000/svg" xmlns:xlink="http://www.w3.org/1999/xlink">
    <!-- Generator: Sketch 52.5 (67469) - http://www.bohemiancoding.com/sketch -->
    <title>graphic_details_03</title>
    <desc>Created with Sketch.</desc>
    <defs>
        <filter x="-12.5%" y="-23.3%" width="125.0%" height="146.7%" filterUnits="objectBoundingBox" id="filter-1">
            <feOffset dx="0" dy="30" in="SourceAlpha" result="shadowOffsetOuter1"></feOffset>
            <feGaussianBlur stdDeviation="20" in="shadowOffsetOuter1" result="shadowBlurOuter1"></feGaussianBlur>
            <feColorMatrix values="0 0 0 0 0.816479449   0 0 0 0 0.868195105   0 0 0 0 0.894052934  0 0 0 1 0" type="matrix" in="shadowBlurOuter1" result="shadowMatrixOuter1"></feColorMatrix>
            <feMerge>
                <feMergeNode in="shadowMatrixOuter1"></feMergeNode>
                <feMergeNode in="SourceGraphic"></feMergeNode>
            </feMerge>
        </filter>
        <linearGradient x1="50.0293705%" y1="99.988739%" x2="50.0293705%" y2="-0.000174493934%" id="linearGradient-2">
            <stop stop-color="#808080" stop-opacity="0.25" offset="0%"></stop>
            <stop stop-color="#808080" stop-opacity="0.12" offset="54%"></stop>
            <stop stop-color="#808080" stop-opacity="0.1" offset="100%"></stop>
        </linearGradient>
        <linearGradient x1="50%" y1="100%" x2="50%" y2="0%" id="linearGradient-3">
            <stop stop-color="#808080" stop-opacity="0.25" offset="0%"></stop>
            <stop stop-color="#808080" stop-opacity="0.12" offset="54%"></stop>
            <stop stop-color="#808080" stop-opacity="0.1" offset="100%"></stop>
        </linearGradient>
        <linearGradient x1="4.32548939e-14%" y1="50%" x2="100%" y2="50%" id="linearGradient-4">
            <stop stop-color="#808080" stop-opacity="0.25" offset="0%"></stop>
            <stop stop-color="#808080" stop-opacity="0.12" offset="54%"></stop>
            <stop stop-color="#808080" stop-opacity="0.1" offset="100%"></stop>
        </linearGradient>
        <linearGradient x1="0.00381898033%" y1="50%" x2="100.003819%" y2="50%" id="linearGradient-5">
            <stop stop-color="#808080" stop-opacity="0.25" offset="0%"></stop>
            <stop stop-color="#808080" stop-opacity="0.12" offset="54%"></stop>
            <stop stop-color="#808080" stop-opacity="0.1" offset="100%"></stop>
        </linearGradient>
        <linearGradient x1="4.34167797e-14%" y1="49.987556%" x2="100%" y2="49.987556%" id="linearGradient-6">
            <stop stop-color="#808080" stop-opacity="0.25" offset="0%"></stop>
            <stop stop-color="#808080" stop-opacity="0.12" offset="54%"></stop>
            <stop stop-color="#808080" stop-opacity="0.1" offset="100%"></stop>
        </linearGradient>
        <linearGradient x1="0%" y1="50.0032742%" x2="100%" y2="50.0032742%" id="linearGradient-7">
            <stop stop-color="#808080" stop-opacity="0.25" offset="0%"></stop>
            <stop stop-color="#808080" stop-opacity="0.12" offset="54%"></stop>
            <stop stop-color="#808080" stop-opacity="0.1" offset="100%"></stop>
        </linearGradient>
    </defs>
    <g id="•-Homepage" stroke="none" stroke-width="1" fill="none" fill-rule="evenodd">
        <g id="homepage_template-01" transform="translate(-936.000000, -834.000000)">
            <g id="basic-details" transform="translate(0.000000, 688.000000)">
                <g id="Group-6">
                    <g id="Group-5" transform="translate(184.000000, 0.000000)">
                        <g id="Group-3" filter="url(#filter-1)" transform="translate(0.000000, 113.000000)">
                            <g id="Rectangle-4" transform="translate(742.000000, 0.000000)">
                                <g id="graphic_details_03" transform="translate(46.000000, 39.000000)">
                                    <path d="M100.810485,12.2703924 C92.8712621,9.03638526 84.4813592,6.32889417 75.9163107,6.67348395 C63.3143689,7.17003567 51.2442718,14.7595719 45.3149515,25.9041617 C40.2912621,35.3450654 39.6718447,46.412604 37.5081553,56.8894174 C34.8425243,69.7997622 29.7376699,82.0680143 24.2825243,94.0665874 C21.3520388,100.502497 18.2613592,107.094649 17.7807767,114.15981 C17.112233,123.966706 21.7920388,133.741498 29.128932,140.271581 C36.4658252,146.801665 46.2163107,150.236861 55.9924272,150.988109 C61.1976699,151.388347 66.6357282,151.018074 71.26,148.590963 C76.1512621,146.022592 79.7161165,141.380262 84.6266019,138.850416 C89.1782524,136.496076 94.5009709,136.17503 99.6100971,136.481094 C106.302096,136.882341 112.896301,138.28628 119.17301,140.646136 C126.313398,143.334364 132.953981,147.225446 140.079417,149.950059 C147.204854,152.674673 155.165437,154.196433 162.448932,151.921284 C169.283883,149.780975 174.696311,144.601427 179.572621,139.346968 C187.576318,130.722447 194.876142,121.467988 201.401748,111.672771 C205.799612,105.072057 209.892039,98.1074911 211.837864,90.4130797 C215.554369,75.7048751 210.438835,59.108918 199.088544,49.0623068 C189.690485,40.7407848 177.06932,37.1279429 164.717282,34.9362663 C153.454563,32.9372176 140.431845,32.8130797 130.064078,27.6035672 C120.174757,22.6273484 111.178252,16.4953627 100.810485,12.2703924 Z" id="Path" fill="#2B3DA2" opacity="0.1"></path>
                                    <path d="M184.079417,25.9555291 C181.02932,26.0775268 180.875534,33.9688466 181.065631,34.3134364 C181.255728,34.6580262 180.373592,38.2195006 180.373592,38.2195006 C180.373592,38.2195006 178.989515,43.6195006 179.149709,44.6233056 C179.309903,45.6271106 178.404272,46.2841855 178.404272,46.2841855 C177.050097,46.8192628 175.352039,48.544352 174.901359,49.0173603 L174.788155,49.1393579 C174.788155,49.1393579 173.476699,49.9954816 173.246019,50.3336504 C173.01534,50.6718193 172.39165,50.4021403 172.39165,50.4021403 C172.39165,50.4021403 170.618835,50.2309156 170.388155,50.2994055 C170.230097,50.3464923 169.98233,50.0554102 169.841359,49.8713436 C169.775146,49.783591 169.732427,49.7172414 169.732427,49.7172414 L169.679029,48.1248514 C169.612273,48.0738139 169.540742,48.0293735 169.465437,47.9921522 C169.501748,47.8123662 169.546602,47.6261593 169.602136,47.4356718 C170.399055,47.046126 171.071516,46.4412249 171.543689,45.6891795 C171.594951,45.6078478 171.641942,45.5243757 171.686796,45.4409037 C171.804858,45.5230069 171.947035,45.5629587 172.090485,45.5543401 C172.153594,45.5560752 172.216685,45.5503278 172.278447,45.5372176 C172.477529,45.4833396 172.663575,45.3893972 172.825243,45.2611177 C173.266165,44.9630115 173.617661,44.5501165 173.841942,44.0668252 C173.881289,43.9745755 173.913424,43.8794022 173.938058,43.7821641 C173.906019,43.8356718 173.871845,43.8891795 173.83767,43.940547 C174.007083,43.4835754 173.965624,42.9748601 173.724466,42.5514863 C173.557864,42.2818074 173.297282,42.0634958 173.190485,41.7638526 C173.011068,41.248038 173.35068,40.7151011 173.56,40.2099881 C173.762463,39.7504475 173.828462,39.2421727 173.750097,38.7460166 C173.665466,38.2437073 173.380057,37.7977101 172.959806,37.5110583 C172.120388,36.9652794 170.981942,37.2649227 170.010097,37.0016647 C169.662986,36.8887864 169.324004,36.7521999 168.995534,36.5928656 C168.496446,36.3770848 167.975931,36.2149418 167.442718,36.1091558 C166.915146,36.0042806 166.276505,35.9935791 165.947573,36.4066587 C165.855805,36.5377936 165.774393,36.6759063 165.704078,36.8197384 C165.490046,37.1672218 165.146302,37.4145789 164.74932,37.5067776 C164.555568,37.5436448 164.359107,37.5644051 164.161942,37.5688466 C164.179539,37.4884706 164.179539,37.4052274 164.161942,37.3248514 C163.914175,36.5115339 164.623301,35.9079667 165.546019,35.5441141 C166.468738,35.1802616 169.978058,32.4107015 170.386019,31.7536266 C170.793981,31.0965517 173.649709,29.035434 173.649709,29.035434 C173.649709,29.035434 177.921553,27.824019 179.322718,23.4107015 C180.723883,18.9973841 172.620194,26.4927467 171.804272,26.7174792 C170.98835,26.9422117 169.82,27.7876338 169.82,27.7876338 L164.623301,30.7990488 C163.632633,31.3592388 162.694685,32.0082682 161.820971,32.7381688 C160.562913,33.8275862 159.766214,35.6789536 159.766214,35.6789536 C159.766214,35.6789536 159.268544,36.4922711 158.54233,37.6694411 C158.141782,38.3403006 157.60113,38.91638 156.957476,39.3581451 L156.980971,39.3153389 C156.923301,39.3859691 155.135534,41.6482759 154.977476,42.6370987 C154.819417,43.6259215 154.091068,47.6561237 154.091068,47.6561237 C154.091068,47.6561237 153.450291,50.8216409 153.010291,51.4444709 C153.010291,51.4444709 152.653592,53.2615933 152.442136,53.5055886 C152.23068,53.7495838 151.374175,56.3243757 151.519417,56.5854935 C151.519417,56.5854935 150.703495,58.368371 150.846602,59.0425684 L149.374951,62.5740785 C149.374951,62.5740785 148.576117,64.3205707 148.629515,65.3414982 C148.655146,65.8359096 148.676505,66.4116528 148.691456,66.8825208 C148.691456,66.9574316 148.691456,67.0280618 148.691456,67.0965517 C148.691456,67.1714625 148.691456,67.2442331 148.691456,67.3105826 C148.612427,67.4432818 148.409515,67.7814507 148.198058,68.1902497 C147.894757,68.7852556 147.572233,69.5279429 147.591456,69.9859691 C147.625631,70.7907253 147.627767,72.7555291 147.258252,73.4768133 L147.14932,73.4340071 C147.019781,73.6491709 146.94633,73.8935279 146.935728,74.1445898 L146.961359,74.1574316 C146.961359,74.2195006 146.942136,74.2837099 146.935728,74.3521998 C146.846019,75.1719382 146.976311,76.3127229 146.771262,76.5631391 C146.487184,76.9098692 146.628155,84.5935791 146.628155,84.5935791 C146.628155,84.5935791 146.166796,89.4028537 147.089515,92.450654 L147.019029,94.8370987 C147.019029,94.8370987 146.982718,97.0865636 147.089515,97.4054697 C147.196311,97.7243757 147.232621,100.001665 147.232621,100.001665 L147.764466,103.809275 C147.764466,103.809275 147.053204,109.692985 147.65767,111.146254 C148.007868,111.948007 148.224339,112.80193 148.298447,113.67396 C148.606144,113.843535 148.935166,113.970951 149.276699,114.052794 L149.276699,114.266825 L149.137864,117.845422 L149.137864,118.042331 C149.137864,118.042331 149.120777,118.136504 149.107961,118.292747 C149.107961,118.320571 149.107961,118.350535 149.107961,118.380499 C149.106911,118.389028 149.106911,118.397654 149.107961,118.406183 C149.107961,118.429727 149.107961,118.45541 149.107961,118.481094 C149.106897,118.500342 149.106897,118.519634 149.107961,118.538882 C149.109025,118.555988 149.109025,118.573144 149.107961,118.59025 L149.107961,118.633056 C149.107961,118.720809 149.107961,118.814982 149.107961,118.913436 C149.107961,118.951962 149.107961,118.992628 149.107961,119.033294 C149.107961,119.07396 149.107961,119.056837 149.107961,119.067539 L149.107961,119.121046 C149.107961,119.14459 149.107961,119.168133 149.107961,119.191677 L149.107961,119.225922 C149.107961,119.262307 149.118641,119.296552 149.125049,119.332937 C149.12402,119.341467 149.12402,119.35009 149.125049,119.358621 C149.125049,119.399287 149.14,119.437812 149.148544,119.476338 C149.148544,119.514863 149.165631,119.553389 149.176311,119.591914 C149.17731,119.596136 149.17731,119.600534 149.176311,119.604756 C149.176311,119.624019 149.18699,119.645422 149.193398,119.664685 C149.19219,119.67392 149.19219,119.683274 149.193398,119.692509 C149.193398,119.716052 149.20835,119.739596 149.214757,119.765279 L149.214757,119.782402 C149.236117,119.842331 149.257476,119.902259 149.283107,119.962188 C149.282303,119.968584 149.282303,119.975055 149.283107,119.981451 C149.283107,120.002854 149.30233,120.026397 149.31301,120.0478 L149.325825,120.077765 L149.353592,120.135553 L149.37068,120.167658 L149.400583,120.221165 L149.419806,120.25327 C149.419806,120.270392 149.439029,120.287515 149.449709,120.304637 C149.460388,120.32176 149.46466,120.32604 149.471068,120.338882 L149.503107,120.388109 L149.526602,120.420214 L149.560777,120.469441 L149.586408,120.501546 L149.624854,120.548633 L149.650485,120.578597 L149.69534,120.629964 L149.718835,120.655648 L149.791456,120.726278 C149.798225,120.734503 149.806137,120.741711 149.814951,120.747681 C149.831714,120.765185 149.849548,120.781626 149.86835,120.796908 L149.902524,120.824732 L149.949515,120.863258 L149.990097,120.893222 L150.037087,120.927467 L150.081942,120.957432 L150.128932,120.987396 L150.178058,121.01522 L150.227184,121.045184 L150.278447,121.070868 L150.331845,121.096552 L150.385243,121.122235 L150.438641,121.145779 L150.496311,121.169322 L150.553981,121.190725 L150.613786,121.212128 L150.677864,121.231391 L150.778252,121.261356 L150.861553,121.282759 L150.927767,121.2956 L150.996117,121.310583 L151.068738,121.310583 L151.139223,121.321284 L151.213981,121.321284 L151.288738,121.321284 L151.365631,121.321284 L151.44466,121.321284 L151.523689,121.321284 L151.861165,121.321284 L151.959417,121.321284 L152.040583,121.321284 L152.155922,121.310583 L152.226408,121.310583 L152.420777,121.28918 C152.420777,121.28918 154.840777,121.650892 154.919806,120.692033 C154.919806,120.642806 154.919806,120.591439 154.930485,120.537931 L154.930485,120.415933 C154.929423,120.40097 154.929423,120.38595 154.930485,120.370987 C154.930485,120.3239 154.930485,120.272533 154.930485,120.221165 L154.930485,120.197622 C154.930485,120.144114 154.930485,120.090606 154.930485,120.034958 L154.930485,119.919382 C154.930485,119.825208 154.930485,119.728894 154.930485,119.63258 C154.930485,119.596195 154.930485,119.56195 154.930485,119.525565 C154.930485,119.427111 154.930485,119.330797 154.930485,119.234483 L154.930485,119.219501 C154.930485,119.195957 154.930485,119.176694 154.930485,119.153151 C154.915534,118.678002 154.892039,118.237099 154.877087,117.990963 C154.877087,117.860404 154.864272,117.776932 154.864272,117.776932 C154.864272,117.776932 154.039806,116.531272 154.174369,116.064685 C154.308932,115.598098 154.279029,114.014269 154.279029,114.014269 C154.279029,114.014269 153.958641,113.254459 153.742913,112.582402 C153.725825,112.531034 153.710874,112.479667 153.695922,112.43044 C153.874884,112.225262 154.043135,112.010944 154.2,111.788347 C154.506486,110.138399 154.296092,108.433843 153.59767,106.908442 C153.515825,106.851485 153.467121,106.757877 153.467379,106.658026 C153.466329,106.649497 153.466329,106.640871 153.467379,106.632342 L153.879612,101.579073 L153.629709,98.6382878 C153.629709,98.6382878 153.452427,96.6285375 153.843301,95.7638526 L154.622913,88.1507729 L155.72932,83.7224732 C155.72932,83.7224732 156.083883,83.5491082 156.370097,84.3816885 C156.656311,85.2142687 157.361165,88.9833532 157.361165,88.9833532 L159.069903,95.2137931 C159.069903,95.2137931 159.353981,97.4290131 159.601748,97.7414982 C159.849515,98.0539834 159.85165,99.4366231 159.85165,99.4366231 C159.85165,99.4366231 160.383495,100.545303 160.31301,101.029013 C160.242524,101.512723 160.31301,102.829013 160.488155,103.278478 C160.663301,103.727943 160.738058,106.917004 160.738058,106.917004 C160.533957,107.959937 160.558005,109.034819 160.808544,110.067539 C161.235728,111.659929 160.985825,113.667539 160.985825,113.667539 C161.030825,113.737012 161.079301,113.804161 161.131068,113.868728 C161.113981,113.915815 161.094757,113.962901 161.07767,114.005707 C160.966602,114.294649 160.879029,114.497979 160.879029,114.497979 C160.879029,114.497979 160.853398,116.081807 160.985825,116.548395 C161.118252,117.014982 160.293786,118.260642 160.293786,118.260642 C160.293786,118.260642 160.293786,118.337693 160.280971,118.474673 C160.266019,118.720809 160.242524,119.159572 160.227573,119.636861 C160.227573,119.658264 160.227573,119.679667 160.227573,119.70321 L160.227573,119.720333 L160.227573,120.007134 C160.227573,120.04352 160.227573,120.079905 160.227573,120.11629 C160.227573,120.212604 160.227573,120.308918 160.227573,120.403092 C160.227573,120.420214 160.227573,120.439477 160.227573,120.456599 C160.227573,120.473722 160.227573,120.484423 160.227573,120.497265 L160.227573,120.516528 C160.227573,120.572176 160.227573,120.627824 160.227573,120.681332 L160.227573,120.704875 C160.227573,120.756243 160.227573,120.80761 160.227573,120.856837 C160.226567,120.870374 160.226567,120.883966 160.227573,120.897503 C160.227573,120.938169 160.227573,120.980975 160.227573,121.021641 C160.227573,121.062307 160.227573,121.126516 160.238252,121.175743 C160.319417,122.134602 162.739417,121.772889 162.739417,121.772889 L162.933786,121.796433 L163.002136,121.796433 L163.119612,121.796433 L163.198641,121.796433 L163.299029,121.796433 L163.632233,121.796433 L163.711262,121.796433 L163.790291,121.796433 L163.867184,121.796433 L163.941942,121.796433 L164.014563,121.796433 L164.087184,121.783591 L164.15767,121.772889 L164.226019,121.757907 L164.294369,121.745065 L164.37767,121.723662 L164.478058,121.693698 L164.54,121.674435 L164.599806,121.653032 C164.619485,121.647197 164.638751,121.640047 164.657476,121.631629 L164.715146,121.608086 L164.77068,121.584542 L164.824078,121.560999 L164.877476,121.533175 L164.926602,121.507491 L164.977864,121.479667 L165.024854,121.449703 L165.073981,121.419738 L165.116699,121.389774 L165.163689,121.355529 C165.178076,121.346766 165.191657,121.336738 165.204272,121.325565 C165.220829,121.314641 165.236537,121.302478 165.251262,121.28918 L165.287573,121.259215 L165.340971,121.212128 L165.364466,121.188585 L165.437087,121.117955 L165.458447,121.092271 L165.505437,121.043044 L165.528932,121.010939 C165.543581,120.996251 165.557145,120.980514 165.569515,120.963853 L165.59301,120.931748 L165.62932,120.882521 L165.65068,120.850416 L165.684854,120.801189 C165.691198,120.789306 165.698333,120.777865 165.706214,120.766944 C165.706214,120.749822 165.725437,120.732699 165.736117,120.715577 L165.75534,120.683472 C165.75534,120.664209 165.774563,120.647087 165.783107,120.629964 C165.789628,120.619725 165.795341,120.608991 165.800194,120.59786 C165.800194,120.578597 165.819417,120.559334 165.827961,120.540071 L165.842913,120.510107 C165.842913,120.488704 165.862136,120.467301 165.872816,120.443757 L165.872816,120.424495 C165.896311,120.364566 165.919806,120.304637 165.939029,120.244709 L165.939029,120.227586 C165.939029,120.204043 165.953981,120.180499 165.962524,120.156956 C165.961579,120.14699 165.961579,120.136957 165.962524,120.126992 C165.962524,120.107729 165.962524,120.086326 165.979612,120.067063 L165.979612,120.056361 C165.980611,120.052139 165.980611,120.047742 165.979612,120.04352 C165.979612,120.004994 166.000971,119.966468 166.009515,119.930083 C166.009515,119.891558 166.026602,119.853032 166.03301,119.814507 L166.03301,119.786683 C166.03301,119.750297 166.045825,119.716052 166.050097,119.681807 C166.054369,119.647562 166.050097,119.658264 166.050097,119.645422 C166.050097,119.63258 166.050097,119.598335 166.050097,119.574792 C166.050097,119.551249 166.050097,119.538407 166.050097,119.521284 C166.050097,119.504162 166.050097,119.499881 166.050097,119.487039 C166.050097,119.474197 166.050097,119.407848 166.050097,119.367182 C166.050097,119.268728 166.050097,119.174554 166.050097,119.086801 L166.050097,118.992628 C166.049033,118.97338 166.049033,118.954087 166.050097,118.934839 C166.050097,118.909156 166.050097,118.885612 166.050097,118.859929 C166.049047,118.8514 166.049047,118.842774 166.050097,118.834245 C166.050097,118.804281 166.050097,118.774316 166.050097,118.748633 C166.037282,118.59239 166.02233,118.498216 166.02233,118.498216 L166.02233,118.303448 L165.887767,114.840428 L165.887767,114.626397 C166.086408,114.515101 166.28932,114.388823 166.500777,114.241141 C166.500777,114.241141 166.464466,112.267776 167.032621,111.473722 C167.600777,110.679667 166.748544,108.599287 166.748544,108.599287 L166.393981,101.157432 L166.534951,97.732937 C166.25347,97.2249017 166.10641,96.6531386 166.107767,96.0720571 C166.051601,95.3296365 165.858981,94.6040124 165.539612,93.9317479 C165.539612,93.9317479 165.185049,92.7545779 165.612233,92.4078478 C166.039417,92.0611177 165.150874,84.4887039 165.150874,84.4887039 C165.150874,84.4887039 165.364466,78.9560048 164.958641,75.6706302 L164.958641,75.6171225 L165.071845,75.5657551 C165.03767,75.302497 165.001359,75.0563615 164.960777,74.8273484 L164.841165,74.8637337 C164.790985,74.573503 164.719596,74.2873583 164.627573,74.00761 L164.059417,71.3942925 C164.059417,71.3942925 164.046602,71.2573127 164.03165,71.058264 C164.012427,70.82283 163.991068,70.5039239 163.986796,70.2235434 C163.984977,70.1053922 163.997892,69.9874758 164.025243,69.8725327 L163.99534,69.846849 C163.998066,69.7852325 164.008104,69.7241605 164.025243,69.6649227 L163.901359,69.5600476 C163.901359,69.5600476 163.884272,69.4423306 163.871456,69.2625446 C163.843689,68.8644471 163.828738,68.1709869 164.025243,67.7793103 C164.30932,67.2078478 167.229126,65.0439952 167.229126,65.0439952 L168.865243,61.7629013 C168.865243,61.7629013 170.497087,59.4599287 171.738058,59.0104637 C172.979029,58.5609988 176.845049,55.9840666 176.845049,55.9840666 C176.845049,55.9840666 178.192816,54.5992866 178.299612,54.2718193 L178.344466,54.2033294 L178.370097,54.2033294 L178.370097,54.1583829 L182.001165,48.7070155 C183.453592,47.5298454 183.50699,45.0214031 183.50699,45.0214031 L183.885049,39.2896552 L183.761165,35.8994055 L183.936311,33.9731272 C183.936311,33.9731272 187.127379,25.8356718 184.079417,25.9555291 Z M163.279806,40.7878716 C162.885301,41.4802092 162.6777,42.2636313 162.677476,43.0608799 C162.677476,43.0994055 162.677476,43.137931 162.677476,43.1764566 C162.677476,43.2149822 162.677476,43.2385256 162.677476,43.2684899 C162.677554,43.9804698 162.843582,44.6825907 163.16233,45.3189061 C163.001029,45.4999802 162.880795,45.713925 162.809903,45.9460166 C162.630485,45.7191439 162.105049,45.0256837 162.075146,44.5655172 C162.038835,44.0133175 161.50699,43.6323424 161.50699,43.6323424 C161.50699,43.6323424 161.408738,42.583591 161.541165,42.403805 L161.560388,42.3866825 C161.560388,42.3866825 161.57534,42.3609988 161.605243,42.3181926 C161.756893,42.0891795 162.267379,41.3165279 162.794951,40.4368609 C162.882662,40.474485 162.973411,40.5045579 163.066214,40.5267539 L163.390874,40.6080856 L163.279806,40.7878716 Z" id="Shape" fill="url(#linearGradient-2)" fill-rule="nonzero"></path>
                                    <path d="M173.626214,40.2099881 C173.658252,40.1372176 173.683883,40.0601665 173.709515,39.9831153 C173.627938,40.1534794 173.556613,40.3285845 173.495922,40.5074911 C173.540777,40.4068966 173.585631,40.3084423 173.626214,40.2099881 Z" id="Path" fill="url(#linearGradient-3)"></path>
                                    <path d="M164.228155,45.2996433 C164.228155,45.2996433 163.559612,48.4929845 162.327184,48.9060642 C161.094757,49.3191439 163.82233,52.9726516 163.82233,52.9726516 L169.476117,52.6623068 L169.578641,51.4787158 C169.578641,51.4787158 168.51068,49.1093936 170.298447,46.2263971 C172.086214,43.3434007 164.228155,45.2996433 164.228155,45.2996433 Z" id="Path" fill="#F4BD87"></path>
                                    <path d="M155.361942,120.696314 C155.285049,121.648751 152.946214,121.28918 152.946214,121.28918 C149.067379,121.828537 149.708155,118.018787 149.708155,118.018787 L149.708155,117.824019 L149.842718,114.271106 L149.881165,113.280143 C149.881165,113.280143 154.15301,111.3239 154.044078,111.734839 C154.003495,111.888942 154.093204,112.259215 154.217087,112.659453 C154.43068,113.325089 154.736117,114.078478 154.736117,114.078478 C154.736117,114.078478 154.761748,115.649465 154.633592,116.111772 C154.505437,116.574078 155.302136,117.811177 155.302136,117.811177 C155.302136,117.811177 155.302136,117.888228 155.314951,118.025208 C155.378164,118.914099 155.39385,119.805743 155.361942,120.696314 Z" id="Path" fill="#B77983"></path>
                                    <path d="M162.839806,121.725803 C162.839806,121.725803 160.500971,122.087515 160.424078,121.132937 C160.388562,120.240358 160.40211,119.346497 160.46466,118.45541 C160.46466,118.326992 160.47534,118.241379 160.47534,118.241379 C160.47534,118.241379 161.272039,117.004281 161.143883,116.541974 C161.015728,116.079667 161.041359,114.50654 161.041359,114.50654 C161.041359,114.50654 161.12466,114.307491 161.233592,114.02069 C161.462136,113.419263 161.806019,112.443282 161.735534,112.165042 C161.63301,111.751962 165.898447,113.708205 165.898447,113.708205 L165.941165,114.816885 L166.071456,118.252081 L166.071456,118.446849 C166.071456,118.446849 166.720777,122.267301 162.839806,121.725803 Z" id="Path" fill="#B77983"></path>
                                    <path d="M178.874175,24.168371 C177.515728,28.5453032 173.393398,29.748157 173.393398,29.748157 C173.393398,29.748157 170.633786,31.7985731 170.240777,32.4406659 C169.847767,33.0827586 166.455922,35.8394768 165.563107,36.2011891 C164.670291,36.5629013 163.988932,37.1621879 164.228155,37.9669441 C164.441748,38.713912 162.105049,42.36956 161.752621,42.9131986 L161.709903,42.9816885 L160.97301,43.7543401 L158.471845,45.0235434 L156.434175,44.3707491 L156.175728,41.9179548 L157.256505,39.9916766 C157.881597,39.5502296 158.404023,38.9785423 158.787961,38.3158145 C159.49068,37.1472057 159.971262,36.3424495 159.971262,36.3424495 C159.971262,36.3424495 160.74233,34.5060642 161.95767,33.4230678 C162.798512,32.6987006 163.704446,32.0538586 164.663883,31.4967895 L169.685437,28.5003567 C169.685437,28.5003567 170.81534,27.6592152 171.607767,27.4302021 C172.400194,27.2011891 180.22835,19.7914388 178.874175,24.168371 Z" id="Path" fill="#F4BD87"></path>
                                    <path d="M158.471845,43.4461356 L161.812427,42.7762188 C161.776234,42.8137363 161.754966,42.8632106 161.752621,42.9153389 L161.709903,42.9838288 L160.97301,43.7564804 L158.471845,45.0256837 L156.434175,44.3728894 L156.175728,41.9200951 L157.256505,39.9938169 C156.233398,42.134126 157.230874,43.6537455 157.230874,43.6537455 L158.471845,43.4461356 Z" id="Path" fill="#000000" opacity="0.05"></path>
                                    <path d="M178.00699,54.5029727 C177.997844,54.5253283 177.989999,54.5481967 177.983495,54.5714625 C177.951796,54.6479663 177.910141,54.7199338 177.859612,54.7854935 L176.511845,55.4447087 L174.454951,55.6587396 L173.38699,53.0668252 L174.098252,50.226635 L174.491262,49.6958383 L174.600194,49.575981 C174.640777,50.0896552 174.847961,52.7693222 174.835146,53.5740785 C174.818058,54.4665874 175.475922,54.5372176 175.475922,54.5372176 L178.00699,54.5029727 Z" id="Path" fill="#000000" opacity="0.05"></path>
                                    <path d="M177.904466,54.6998811 C177.89532,54.7222368 177.887475,54.7451051 177.880971,54.768371 C177.778447,55.093698 176.47767,56.4677765 176.47767,56.4677765 C176.47767,56.4677765 172.741942,59.0254459 171.543689,59.4642093 C170.345437,59.9029727 168.76699,62.1931034 168.76699,62.1931034 L167.19068,65.4527943 C167.19068,65.4527943 164.364854,67.5931034 164.091456,68.1667063 C163.901359,68.5562426 163.916311,69.2368609 163.944078,69.639239 C163.944078,69.8168847 163.969709,69.9346017 163.969709,69.9346017 L163.136699,70.8057075 L162.472427,71.4991677 L161.536893,72.4751486 L160.013981,72.2611177 L155.267961,71.5055886 L154.358058,70.9919144 L149.306602,68.1410226 C149.306602,68.1410226 149.306602,67.9633769 149.293786,67.6915577 C149.293786,67.5717004 149.293786,67.4347206 149.280971,67.2827586 C149.266019,66.8204518 149.24466,66.2447087 149.221165,65.7545779 C149.169903,64.7422117 149.940971,63.0085612 149.940971,63.0085612 L151.361359,59.5048751 C151.22466,58.8370987 152.012816,57.067063 152.012816,57.067063 C151.876117,56.8102259 152.698447,54.2525565 152.903495,54.0128419 C153.108544,53.7731272 153.452427,51.9688466 153.452427,51.9688466 C153.879612,51.3524376 154.496893,48.2104637 154.496893,48.2104637 C154.496893,48.2104637 155.199612,44.2273484 155.351262,43.2321046 C155.502913,42.2368609 157.230874,40.0066587 157.286408,39.9381688 C156.053981,42.2026159 157.132621,43.850654 157.132621,43.850654 L158.367184,43.6366231 L161.709903,42.9838288 C161.556117,43.0865636 161.658641,44.2187872 161.658641,44.2187872 C161.954622,44.4443587 162.150857,44.7769538 162.205437,45.145541 C162.237476,45.6485137 162.846214,46.4297265 162.959417,46.5688466 L162.976505,46.5881094 C163.063483,46.1045523 163.357855,45.6836047 163.781748,45.4366231 L164.552816,46.4682521 L164.811262,47.7032105 C164.811262,47.7032105 164.740777,47.8765755 164.296505,48.219025 C163.852233,48.5614744 164.484466,49.4539834 164.484466,49.4539834 C164.698058,49.8156956 164.76,51.1533888 164.76,51.1533888 C165.326019,50.6568371 166.214563,50.6568371 166.214563,50.6568371 C166.576388,50.2928981 166.872025,49.8684517 167.088155,49.4026159 C167.124688,49.2481253 167.229913,49.1189585 167.373651,49.0521605 C167.517389,48.9853626 167.68376,48.9883133 167.825049,49.0601665 C168.083007,48.8356348 168.364451,48.6397268 168.664466,48.4758621 C169.076699,48.2618312 169.555146,48.689893 169.555146,48.689893 L169.606408,50.2715815 C169.606408,50.2715815 169.64699,50.3357907 169.713204,50.4235434 C169.847767,50.6118906 170.089126,50.9008323 170.240777,50.8516052 C170.454369,50.7831153 172.175922,50.9543401 172.175922,50.9543401 C172.175922,50.9543401 172.776117,51.2111772 172.998252,50.8858502 C173.220388,50.5605232 174.493398,49.7022592 174.493398,49.7022592 C174.493398,49.7022592 174.739029,52.8891795 174.739029,53.7795482 C174.739029,54.6699168 175.379806,54.7426873 175.379806,54.7426873 L177.904466,54.6998811 Z" id="Path" fill="#5DE480"></path>
                                    <path d="M177.942913,54.6998811 L177.898058,54.6998811 C177.979223,54.4858502 177.942913,54.6998811 177.942913,54.6998811 Z" id="Path"></path>
                                    <ellipse id="Oval" fill="#4B4442" cx="163.886408" cy="52.6130797" rx="1" ry="1"></ellipse>
                                    <ellipse id="Oval" fill="#4B4442" cx="161.641553" cy="57.094887" rx="1" ry="1"></ellipse>
                                    <ellipse id="Oval" fill="#4B4442" cx="157.22233" cy="66.689893" rx="1" ry="1"></ellipse>
                                    <ellipse id="Oval" fill="#4B4442" cx="159.311262" cy="61.8485137" rx="1" ry="1"></ellipse>
                                    <path d="M154.234175,112.659453 C152.627961,114.572889 150.893592,114.540785 149.859806,114.271106 L149.898252,113.280143 C149.898252,113.280143 154.170097,111.3239 154.061165,111.734839 C154.020583,111.888942 154.101748,112.259215 154.234175,112.659453 Z" id="Path" fill="#000000" opacity="0.05"></path>
                                    <path d="M165.941165,114.825446 C163.213592,116.404994 161.613786,114.553627 161.242136,114.029251 C161.47068,113.427824 161.814563,112.451843 161.744078,112.173603 C161.641553,111.760523 165.90699,113.716766 165.90699,113.716766 L165.941165,114.825446 Z" id="Path" fill="#000000" opacity="0.05"></path>
                                    <path d="M167.036893,111.495125 C166.490097,112.284899 166.522136,114.241141 166.522136,114.241141 C162.993592,116.781688 161.143883,113.691082 161.143883,113.691082 C161.143883,113.691082 161.383107,111.700595 160.97301,110.121046 C160.729988,109.095989 160.706692,108.030938 160.90466,106.996195 C160.90466,106.996195 160.836311,103.837099 160.663301,103.391914 C160.490291,102.94673 160.424078,101.641141 160.492427,101.159572 C160.560777,100.678002 160.048155,99.5821641 160.048155,99.5821641 C160.048155,99.5821641 160.048155,98.2080856 159.806796,97.8998811 C159.565437,97.5916766 159.294175,95.3914388 159.294175,95.3914388 L157.65165,89.2123662 C157.65165,89.2123662 156.966019,85.4711058 156.692621,84.6470868 C156.419223,83.8230678 156.07534,83.9942925 156.07534,83.9942925 L155.088544,88.4225922 L154.334563,95.9757432 C153.956505,96.8318668 154.120971,98.826635 154.120971,98.826635 L154.360194,101.743876 L153.962913,106.75648 C153.961863,106.765009 153.961863,106.773635 153.962913,106.782164 C153.962229,106.880008 154.008271,106.972282 154.086796,107.03044 C154.76076,108.549357 154.961031,110.236879 154.661359,111.871819 C152.05767,115.649465 148.905049,113.691082 148.905049,113.691082 C148.836304,112.82855 148.628565,111.982875 148.289903,111.18692 C147.706796,109.744352 148.392427,103.909869 148.392427,103.909869 L147.87767,100.132224 C147.87767,100.132224 147.843495,97.8656361 147.740971,97.5638526 C147.638447,97.262069 147.672621,95.0233056 147.672621,95.0233056 L147.740971,92.6539834 C146.850291,89.6318668 147.294563,84.8611177 147.294563,84.8611177 C147.294563,84.8611177 147.157864,77.2394768 147.433398,76.894887 C147.632039,76.6466112 147.506019,75.5165279 147.591456,74.7010702 C147.600521,74.4535259 147.66942,74.2118865 147.792233,73.9969084 L147.826408,73.9626635 C148.272816,73.412604 148.272816,71.2166468 148.236505,70.3562426 C148.219417,69.902497 148.529126,69.1662307 148.823883,68.5755054 C149.037476,68.1602854 149.231845,67.8178359 149.304466,67.693698 L149.334369,67.6444709 C149.334369,67.6444709 151.286602,68.1260404 156.459806,70.5980975 C157.386188,71.0575752 158.379763,71.3660861 159.403107,71.5120095 C159.912322,71.580192 160.427776,71.5880941 160.938835,71.5355529 C161.718608,71.4604042 162.472472,71.2149317 163.147379,70.816409 C163.504184,70.6124982 163.826442,70.3531504 164.102136,70.048038 C164.03165,70.262069 164.074369,70.9940547 164.102136,71.4306778 C164.114951,71.6297265 164.129903,71.764566 164.129903,71.764566 L164.700194,74.3115339 C164.79308,74.6135744 164.864457,74.9218399 164.913786,75.2340071 C164.954369,75.4608799 164.988544,75.7070155 165.020583,75.9681332 C165.42,79.2256837 165.206408,84.7155767 165.206408,84.7155767 C165.206408,84.7155767 166.060777,92.2344828 165.652816,92.5769322 C165.244854,92.9193817 165.58233,94.0879905 165.58233,94.0879905 C165.892456,94.757953 166.078457,95.478828 166.131262,96.2154578 C166.128336,96.7907816 166.27011,97.3575714 166.543495,97.8634958 L166.40466,101.262307 L166.763495,108.635672 C166.763495,108.635672 167.585825,110.705351 167.036893,111.495125 Z" id="Path" fill="#8499F0"></path>
                                    <path d="M163.019223,99.0663496 C163.019223,99.0663496 165.614369,97.5681332 166.180388,98.2423306 C166.746408,98.9165279 163.019223,99.0663496 163.019223,99.0663496 Z" id="Path" fill="#000000" opacity="0.05"></path>
                                    <path d="M164.58699,99.8903686 C164.58699,99.8903686 164.159806,100.1044 165.101748,100.378359 C166.043689,100.652319 164.58699,99.8903686 164.58699,99.8903686 Z" id="Path" fill="#000000" opacity="0.05"></path>
                                    <path d="M148.894369,95.7702735 C148.806796,95.7959572 151.053786,97.289893 153.082913,96.0527943 C153.074369,96.0527943 149.400583,95.6161712 148.894369,95.7702735 Z" id="Path" fill="#000000" opacity="0.05"></path>
                                    <path d="M152.971845,98.6275862 C152.971845,98.6275862 152.356699,99.8390012 151.096505,100.018787 C149.836311,100.198573 152.971845,98.6275862 152.971845,98.6275862 Z" id="Path" fill="#000000" opacity="0.05"></path>
                                    <path d="M161.220777,101.255886 C161.220777,101.255886 164.176893,105.964566 163.610874,107.075386 C163.044854,108.186207 161.220777,101.255886 161.220777,101.255886 Z" id="Path" fill="#000000" opacity="0.05"></path>
                                    <path d="M156.235534,72.6977408 L155.927961,81.9160523 C155.927961,81.9160523 157.752039,81.8390012 158.063883,78.8019025 C158.375728,75.7648038 158.604272,73.2906064 158.604272,73.2906064 L156.235534,72.6977408 Z" id="Path" fill="#000000" opacity="0.05"></path>
                                    <path d="M156.13301,72.4922711 L155.825437,81.7105826 C155.825437,81.7105826 157.649515,81.6335315 157.961359,78.5942925 C158.273204,75.5550535 158.506019,73.0851367 158.506019,73.0851367 L156.13301,72.4922711 Z" id="Path" fill="#8499F0"></path>
                                    <path d="M152.433592,72.9053508 C152.433592,72.9053508 150.993981,76.7728894 147.700388,74.9001189 C147.709112,74.6525205 147.778034,74.4108007 147.901165,74.1959572 C148.802524,74.5747919 150.891456,75.129132 151.745825,72.6206897 L152.433592,72.9053508 Z" id="Path" fill="#000000" opacity="0.05"></path>
                                    <path d="M152.331068,72.4922711 C152.331068,72.4922711 150.891456,76.3598098 147.597864,74.4870392 C147.606929,74.239495 147.675828,73.9978556 147.798641,73.7828775 C148.7,74.1638526 150.788932,74.7160523 151.643301,72.2097503 L152.331068,72.4922711 Z" id="Path" fill="#000000" opacity="0.05"></path>
                                    <path d="M152.331068,72.6977408 C152.331068,72.6977408 150.891456,76.5652794 147.597864,74.6925089 C147.606929,74.4449646 147.675828,74.2033253 147.798641,73.9883472 C148.7,74.3693222 150.788932,74.921522 151.643301,72.41522 L152.331068,72.6977408 Z" id="Path" fill="#8499F0"></path>
                                    <path d="M164.93301,76.1736029 C161.314757,77.898692 159.98835,73.8321046 159.98835,73.8321046 L160.842718,73.8577883 C160.992233,76.458264 163.852233,75.7583829 164.832621,75.4394768 C164.866796,75.6749108 164.900971,75.9124851 164.93301,76.1736029 Z" id="Path" fill="#000000" opacity="0.05"></path>
                                    <path d="M165.138058,75.8653983 C161.521942,77.5883472 160.193398,73.5217598 160.193398,73.5217598 L161.047767,73.5474435 C161.197282,76.1479191 164.057282,75.4501784 165.03767,75.1312723 C165.071845,75.3581451 165.106019,75.6042806 165.138058,75.8653983 Z" id="Path" fill="#000000" opacity="0.05"></path>
                                    <path d="M165.035534,75.9681332 C161.419417,77.691082 160.090874,73.6244946 160.090874,73.6244946 L160.945243,73.6501784 C161.094757,76.2527943 163.954757,75.5529132 164.935146,75.2340071 C164.96932,75.4608799 165.003495,75.7070155 165.035534,75.9681332 Z" id="Path" fill="#8499F0"></path>
                                    <path d="M152.331068,72.6977408 C152.331068,72.6977408 150.891456,76.5652794 147.597864,74.6925089 C147.606929,74.4449646 147.675828,74.2033253 147.798641,73.9883472 C148.7,74.3693222 150.788932,74.921522 151.643301,72.41522 L152.331068,72.6977408 Z" id="Path" fill="#FFFFFF" opacity="0.1"></path>
                                    <path d="M165.035534,75.9681332 C161.419417,77.691082 160.090874,73.6244946 160.090874,73.6244946 L160.945243,73.6501784 C161.094757,76.2527943 163.954757,75.5529132 164.935146,75.2340071 C164.96932,75.4608799 165.003495,75.7070155 165.035534,75.9681332 Z" id="Path" fill="#FFFFFF" opacity="0.1"></path>
                                    <path d="M155.387573,119.97931 C155.387573,120.242568 155.387573,120.488704 155.361942,120.692033 C155.285049,121.644471 152.946214,121.284899 152.946214,121.284899 C150.810291,121.582402 150.041359,120.555054 149.787184,119.572652 C149.707299,119.253555 149.66783,118.925649 149.669709,118.596671 C149.668325,118.400514 149.681174,118.204516 149.708155,118.010226 L149.708155,117.815458 C150.168438,117.676341 150.667682,117.778487 151.036699,118.087277 C151.987184,118.859929 153.247379,118.267063 153.247379,118.267063 C153.247379,118.267063 154.172233,118.344114 154.528932,118.652319 C154.729709,118.825684 155.060777,118.408323 155.312816,118.010226 C155.327767,118.267063 155.351262,118.73151 155.366214,119.228062 C155.383301,119.482759 155.387573,119.739596 155.387573,119.97931 Z" id="Path" fill="#000000" opacity="0.05"></path>
                                    <path d="M151.636893,119.923662 C151.636893,119.923662 150.996117,120.552913 149.787184,119.581213 C149.707299,119.262117 149.66783,118.93421 149.669709,118.605232 C150.28699,119.0761 151.431845,119.923662 151.636893,119.923662 Z" id="Path" fill="#000000" opacity="0.05"></path>
                                    <path d="M155.387573,119.97931 C155.282186,120.060763 155.147914,120.094999 155.016492,120.073929 C154.885071,120.052858 154.768162,119.97835 154.693398,119.868014 C154.942586,119.678019 155.171621,119.462857 155.376893,119.225922 C155.383301,119.482759 155.387573,119.739596 155.387573,119.97931 Z" id="Path" fill="#000000" opacity="0.05"></path>
                                    <path d="M160.400583,120.420214 C160.400583,120.685612 160.400583,120.931748 160.424078,121.132937 C160.500971,122.087515 162.839806,121.725803 162.839806,121.725803 C164.975728,122.025446 165.74466,120.998098 165.998835,120.013555 C166.124727,119.502615 166.151555,118.972207 166.077864,118.45113 L166.077864,118.256361 C165.616792,118.119636 165.118055,118.221513 164.747184,118.528181 C163.796699,119.300832 162.538641,118.707967 162.538641,118.707967 C162.538641,118.707967 161.613786,118.787158 161.257087,119.095363 C161.056311,119.268728 160.725243,118.851367 160.47534,118.45327 C160.460388,118.710107 160.434757,119.174554 160.419806,119.671106 C160.402718,119.921522 160.398447,120.178359 160.400583,120.420214 Z" id="Path" fill="#000000" opacity="0.05"></path>
                                    <path d="M164.151262,120.360285 C164.151262,120.360285 164.792039,120.989536 165.998835,120.017836 C166.079418,119.699555 166.119606,119.372358 166.118447,119.043995 C165.499029,119.512723 164.354175,120.360285 164.151262,120.360285 Z" id="Path" fill="#000000" opacity="0.05"></path>
                                    <path d="M160.400583,120.420214 C160.50562,120.501571 160.639565,120.535764 160.770645,120.514683 C160.901726,120.493602 161.018266,120.419126 161.092621,120.308918 C160.843197,120.119203 160.614134,119.904015 160.409126,119.666825 C160.402718,119.921522 160.398447,120.178359 160.400583,120.420214 Z" id="Path" fill="#000000" opacity="0.05"></path>
                                    <path d="M157.581165,54.6998811 C157.581165,54.6998811 154.291845,63.7983353 155.558447,64.5881094 C156.825049,65.3778835 157.581165,54.6998811 157.581165,54.6998811 Z" id="Path" fill="#000000" opacity="0.05"></path>
                                    <path d="M159.979806,51.8917955 C159.979806,51.8917955 159.360388,54.913912 159.670097,55.1878716 C159.979806,55.4618312 159.979806,51.8917955 159.979806,51.8917955 Z" id="Path" fill="#000000" opacity="0.05"></path>
                                    <path d="M166.622524,58.9312723 C166.622524,58.9312723 162.579223,62.7067776 162.852621,63.0171225 C163.126019,63.3274673 166.622524,58.9312723 166.622524,58.9312723 Z" id="Path" fill="#000000" opacity="0.05"></path>
                                    <path d="M169.713204,50.6204518 C168.181748,51.0891795 164.601942,52.1850178 164.561359,52.1764566 L164.76,51.3588585 C165.326019,50.8623068 166.214563,50.8623068 166.214563,50.8623068 C166.576388,50.4983678 166.872025,50.0739214 167.088155,49.6080856 C167.124688,49.453595 167.229913,49.3244281 167.373651,49.2576302 C167.517389,49.1908322 167.68376,49.193783 167.825049,49.2656361 C168.083598,49.0418656 168.364957,48.8460162 168.664466,48.6813317 C169.076699,48.4673008 169.555146,48.8953627 169.555146,48.8953627 L169.606408,50.4749108 C169.606408,50.4749108 169.64699,50.5326992 169.713204,50.6204518 Z" id="Path" fill="#000000" opacity="0.05"></path>
                                    <path d="M169.713204,50.4192628 C168.181748,50.8879905 164.601942,51.9838288 164.561359,51.9731272 L164.76,51.1576694 C165.326019,50.6611177 166.214563,50.6611177 166.214563,50.6611177 C166.576388,50.2971788 166.872025,49.8727323 167.088155,49.4068966 C167.124688,49.2524059 167.229913,49.1232391 167.373651,49.0564411 C167.517389,48.9896432 167.68376,48.9925939 167.825049,49.0644471 C168.083007,48.8399154 168.364451,48.6440074 168.664466,48.4801427 C169.076699,48.2661118 169.555146,48.6941736 169.555146,48.6941736 L169.606408,50.2758621 C169.606408,50.2758621 169.64699,50.3272295 169.713204,50.4192628 Z" id="Path" fill="#2CCC56"></path>
                                    <path d="M164.381942,49.5631391 C164.595534,49.9248514 164.65534,51.2625446 164.65534,51.2625446 L164.059417,51.7376932 L162.927379,48.4673008 L162.876117,46.7678954 L162.854757,46.6715815 L162.871845,46.6908442 C162.958305,46.2076188 163.2529,45.7871359 163.677087,45.5414982 L164.448155,46.5709869 L164.706602,47.8059453 C164.706602,47.8059453 164.636117,47.9793103 164.191845,48.3217598 C163.747573,48.6642093 164.381942,49.5631391 164.381942,49.5631391 Z" id="Path" fill="#000000" opacity="0.05"></path>
                                    <path d="M164.486602,49.4539834 C164.700194,49.8156956 164.762136,51.1533888 164.762136,51.1533888 L164.166214,51.6349584 L163.034175,48.364566 L162.982913,46.6651605 L162.959417,46.5688466 L162.976505,46.5881094 C163.063483,46.1045523 163.357855,45.6836047 163.781748,45.4366231 L164.552816,46.4682521 L164.811262,47.7032105 C164.811262,47.7032105 164.740777,47.8765755 164.296505,48.219025 C163.852233,48.5614744 164.486602,49.4539834 164.486602,49.4539834 Z" id="Path" fill="#2CCC56"></path>
                                    <path d="M172.039223,43.8592152 C172.038044,46.4180964 169.967165,48.4916319 167.413528,48.490844 C164.859892,48.4900562 162.790287,46.4152432 162.79068,43.8563618 C162.791073,41.2974804 164.861315,39.2233059 167.414951,39.2233056 C168.644903,39.2129237 169.827459,39.6980835 170.696996,40.5698086 C171.566533,41.4415338 172.050152,42.6267429 172.039223,43.8592152 Z" id="Path" fill="#000000" opacity="0.05"></path>
                                    <path d="M172.039223,43.6516052 C172.040087,45.5270449 170.913216,47.2182579 169.184252,47.9363575 C167.455288,48.6544572 165.46487,48.2579644 164.141452,46.9318282 C162.818034,45.6056919 162.422353,43.6111857 163.138981,41.8786708 C163.855609,40.146156 165.543356,39.0169703 167.414951,39.0178359 C168.643477,39.0109552 169.823672,39.4969446 170.692384,40.367441 C171.561097,41.2379373 172.04609,42.4205567 172.039223,43.6516052 Z" id="Path" fill="#F4BD87"></path>
                                    <path d="M172.039223,43.6516052 C172.040704,44.5010189 171.807859,45.3343151 171.366408,46.059453 C171.298058,45.9374554 171.257476,45.796195 171.189126,45.6720571 C171.09301,45.498692 170.870874,45.353151 170.706408,45.4580262 C170.637536,45.5143745 170.585139,45.5883245 170.554757,45.6720571 C170.420194,45.9567182 170.180971,46.2413793 169.86699,46.2349584 C169.587487,46.2049693 169.355051,46.0060585 169.281748,45.734126 C169.215822,45.4666378 169.204201,45.1886035 169.247573,44.9165279 C169.294563,44.3600476 169.303107,43.7179548 168.890874,43.3434007 C168.624777,43.1483699 168.320508,43.0119697 167.998058,42.9431629 C167.684078,42.8404281 167.357282,42.6777646 167.229126,42.3738407 C167.143689,42.1598098 167.165049,41.932937 167.088155,41.7317479 C166.926813,41.4046234 166.616998,41.1763737 166.257282,41.1196195 C165.84901,41.4574412 165.331939,41.6347172 164.802718,41.6183115 C164.317746,41.6068348 163.836473,41.5305367 163.37165,41.3914388 C164.397094,39.5477272 166.53596,38.630869 168.574827,39.1610162 C170.613695,39.6911633 172.037802,41.5344669 172.039223,43.6451843 L172.039223,43.6516052 Z" id="Path" fill="#000000" opacity="0.05"></path>
                                    <path d="M167.088155,41.5305589 C167.165049,41.7445898 167.143689,41.9757432 167.229126,42.1726516 C167.355146,42.4765755 167.684078,42.639239 167.998058,42.7419738 C168.320218,42.8105034 168.624402,42.9461359 168.890874,43.1400713 C169.303107,43.5167658 169.294563,44.1588585 169.247573,44.7153389 C169.204201,44.9874144 169.215822,45.2654488 169.281748,45.532937 C169.356109,45.804198 169.587983,46.0026289 169.86699,46.0337693 C170.180971,46.0337693 170.420194,45.7555291 170.554757,45.470868 C170.585327,45.3872342 170.637691,45.3133303 170.706408,45.2568371 C170.870874,45.1476813 171.09301,45.2932224 171.189126,45.470868 C171.256392,45.6562269 171.34913,45.8312785 171.46466,45.9909631 C171.61909,46.1244298 171.829492,46.1725287 172.026408,46.1193817 C172.219621,46.0664764 172.399437,45.9731012 172.553981,45.8454221 C172.981993,45.5468752 173.321482,45.1379127 173.536505,44.6618312 C173.74874,44.1798045 173.72586,43.6263985 173.474563,43.1636147 C173.314369,42.8939358 173.060194,42.6777646 172.959806,42.3802616 C172.78466,41.8687277 173.113592,41.3422117 173.316505,40.8413793 C173.510966,40.383368 173.573848,39.8800213 173.498058,39.3881094 C173.418524,38.8932987 173.143729,38.4513348 172.735534,38.1617122 C171.923883,37.620214 170.826019,37.917717 169.886214,37.6565993 C169.549973,37.5459989 169.222295,37.4107955 168.905825,37.2520809 C168.426195,37.0386046 167.924885,36.8778559 167.41068,36.7726516 C166.900194,36.6699168 166.282913,36.6570749 165.960388,37.065874 C165.872173,37.1969277 165.793646,37.3342743 165.725437,37.4768133 C165.521879,37.8189396 165.189207,38.0643257 164.802718,38.1574316 C164.527184,38.2237812 164.238835,38.2066587 163.94835,38.2473246 C163.661312,38.2673035 163.399224,38.417939 163.237087,38.6561237 C163.096117,38.9129608 163.155922,39.2254459 163.190097,39.5122473 C163.224272,39.7990488 163.207184,40.1414982 162.976505,40.3191439 C162.867573,40.4026159 162.718058,40.4432818 162.651845,40.5609988 C162.589339,40.7030013 162.630631,40.8693922 162.752233,40.9655172 C162.872326,41.0565772 163.012052,41.1181537 163.160194,41.1453032 C163.691368,41.3115047 164.242333,41.4058001 164.798447,41.4256837 C165.360515,41.4439852 165.907575,41.2420635 166.323495,40.8627824 C166.287184,40.8991677 166.052233,40.8841855 166.009515,40.8820452 C166.423883,40.9269917 166.932233,41.1110583 167.088155,41.5305589 Z" id="Path" fill="#7C4DFF"></path>
                                    <g id="Group" opacity="0.05" transform="translate(162.679612, 38.311534)" fill="#000000">
                                        <path d="M10.1370874,7.0137931 C9.98210139,7.14128136 9.80248408,7.23528226 9.60951456,7.28989298 C9.41289772,7.34094361 9.20379662,7.29215977 9.04990291,7.15933413 C8.93326325,7.00000184 8.83977486,6.82489156 8.77223301,6.639239 C8.6761165,6.46587396 8.45398058,6.32033294 8.28951456,6.42520809 C8.22167376,6.48251479 8.16948862,6.55616594 8.13786408,6.639239 C8.00543689,6.92390012 7.76407767,7.20856124 7.45009709,7.20214031 C7.17090304,7.17248494 6.93893697,6.97324852 6.86699029,6.70130797 C6.80035394,6.43396401 6.78800599,6.15592839 6.83067961,5.88370987 C6.87980583,5.32722949 6.88621359,4.68727705 6.4761165,4.31058264 C6.20919236,4.11561485 5.90424205,3.97923579 5.58116505,3.91034483 C5.26932039,3.80760999 4.94038835,3.64494649 4.81223301,3.34102259 C4.72679612,3.12699168 4.74815534,2.90011891 4.67126214,2.69892985 C4.54524272,2.35862069 4.18854369,2.17241379 3.84038835,2.08680143 C3.43070559,2.42231806 2.91478565,2.59995861 2.38582524,2.58763377 C1.82972779,2.56597373 1.2789028,2.47098255 0.747572816,2.30511296 C0.599887713,2.27770958 0.460371815,2.21695773 0.33961165,2.1274673 C0.314716137,2.10436326 0.292504184,2.07851576 0.273398058,2.05041617 C0.179031538,2.09088541 0.0966478627,2.15501131 0.0341747573,2.23662307 C-0.0283313474,2.37862554 0.0129614783,2.54501646 0.134563107,2.6411415 C0.254655798,2.73220144 0.394382005,2.79377791 0.542524272,2.82092747 C1.07369858,2.98712892 1.62466321,3.08142436 2.1807767,3.10130797 C2.70900305,3.11543832 3.22462825,2.93839799 3.63320388,2.60261593 C3.98135922,2.6882283 4.34019417,2.87229489 4.46621359,3.21260404 C4.5431068,3.42663496 4.52174757,3.65778835 4.60718447,3.85469679 C4.73533981,4.15862069 5.06213592,4.32128419 5.3761165,4.42401902 C5.69827658,4.49254863 6.0024602,4.62818106 6.26893204,4.82211653 C6.68116505,5.19881094 6.67262136,5.84090369 6.62563107,6.39738407 C6.58225898,6.66945959 6.59388053,6.94749394 6.65980583,7.21498216 C6.73416686,7.48624318 6.96604133,7.68467408 7.24504854,7.71581451 C7.55902913,7.71581451 7.79825243,7.43757432 7.93281553,7.1529132 C7.96338476,7.06927937 8.01574895,6.99537551 8.08446602,6.93888228 C8.24893204,6.82972652 8.47106796,6.97526754 8.56718447,7.1529132 C8.63432436,7.33874556 8.72784237,7.51391132 8.84485437,7.67300832 C8.99844785,7.80645315 9.20822494,7.85459237 9.40446602,7.80142687 C9.59767955,7.74852155 9.77749506,7.65514642 9.93203883,7.5274673 C10.3600517,7.22892034 10.6995402,6.8199579 10.9145631,6.34387634 C10.9525216,6.25226096 10.9832312,6.15779613 11.0064078,6.06135553 C10.7877071,6.43730477 10.4913066,6.76204459 10.1370874,7.0137931 Z" id="Path"></path>
                                        <path d="M10.5642718,2.81450654 C10.6091262,2.71605232 10.6518447,2.6175981 10.6924272,2.52128419 C10.7330097,2.42497027 10.7479612,2.37146254 10.7714563,2.29441141 C10.6928662,2.46381091 10.6236988,2.63744182 10.5642718,2.81450654 Z" id="Path"></path>
                                        <path d="M0.576699029,1.46825208 C0.790291262,1.2863258 0.805242718,0.960998811 0.771067961,0.680618312 C0.745885332,0.516984044 0.732323757,0.351765202 0.730485437,0.186206897 C0.684943313,0.230772419 0.645446264,0.281144634 0.613009709,0.336028537 C0.472038835,0.592865636 0.53184466,0.905350773 0.566019417,1.1921522 C0.577196571,1.28373089 0.580768704,1.37608122 0.576699029,1.46825208 Z" id="Path"></path>
                                    </g>
                                    <path d="M164.097864,71.6425684 C163.700583,71.6703924 163.143107,71.7003567 162.472427,71.7239001 C162.006796,71.7388823 161.485631,71.7495838 160.928155,71.7495838 C160.441165,71.7495838 159.926408,71.7495838 159.392427,71.7260404 C157.703474,71.6823466 156.020381,71.5084682 154.358058,71.2059453 C152.138835,70.7778835 150.086214,70.0394768 148.80466,68.7895363 C149.018252,68.3743163 149.212621,68.0297265 149.285243,67.9077289 C149.285243,67.7878716 149.285243,67.6487515 149.272427,67.4989298 C151.525825,68.5690844 158.550874,71.5419738 163.935534,69.8532699 C163.935534,70.0309156 163.961165,70.1486326 163.961165,70.1486326 L164.082913,70.2513674 C164.020971,70.4739596 164.059417,71.2059453 164.097864,71.6425684 Z" id="Path" fill="#000000" opacity="0.05"></path>
                                    <path d="M164.097864,71.4370987 C163.700583,71.4649227 163.143107,71.494887 162.472427,71.5162901 C162.006796,71.5334126 161.485631,71.5419738 160.928155,71.5419738 C160.441165,71.5419738 159.926408,71.5419738 159.392427,71.5184304 C157.703527,71.4754772 156.020432,71.3023141 154.358058,71.0004756 C152.138835,70.5724138 150.086214,69.8318668 148.80466,68.5819263 C149.018252,68.1667063 149.212621,67.8242568 149.285243,67.7001189 C149.285243,67.5802616 149.285243,67.4432818 149.272427,67.2913199 C151.525825,68.3614744 158.550874,71.3365042 163.935534,69.6563615 C163.935534,69.8340071 163.961165,69.9517241 163.961165,69.9517241 L164.082913,70.054459 C164.020971,70.2684899 164.059417,71.0004756 164.097864,71.4370987 Z" id="Path" fill="#4B4442"></path>
                                    <path d="M57.4918447,165.11201 C56.9742086,164.487626 56.7369249,163.676726 56.8361165,162.871106 L66.2640777,85.56956 L67.0458252,79.1486326 C67.2270526,77.6711328 68.4737002,76.5574694 69.9592233,76.5460166 L97.5745631,76.3619501 C98.3689353,76.3570708 99.1278677,76.0317948 99.6800605,75.4595404 C100.232253,74.887286 100.531162,74.1162885 100.50932,73.3205707 L100.498641,73.0273484 C100.471427,72.2248181 100.770524,71.4456021 101.327416,70.8681987 C101.884308,70.2907952 102.651274,69.964683 103.452621,69.964566 L132.471262,69.964566 C134.100201,69.9645622 135.421709,71.2859116 135.425243,72.9181926 C135.425077,73.0513004 135.416516,73.1842646 135.399612,73.3162901 C135.288354,74.1493957 135.535801,74.9906146 136.080212,75.6300605 C136.624624,76.2695065 137.41466,76.646876 138.253204,76.6680143 L166.122718,77.3807372 C166.980216,77.4018668 167.786134,77.7957105 168.330726,78.4597678 C168.875317,79.123825 169.104718,79.9924136 168.959223,80.8394768 L155.026602,162.385256 L154.763883,163.926278 C154.698945,164.319972 154.553508,164.695969 154.336699,165.030678 L57.4918447,165.11201 Z" id="Path" fill="#951515"></path>
                                    <g id="Group" opacity="0.5" transform="translate(109.281553, 52.865636)" fill="url(#linearGradient-4)">
                                        <polygon id="Rectangle" transform="translate(23.181198, 28.125267) rotate(-55.360000) translate(-23.181198, -28.125267) " points="-4.91880538 19.5643966 51.2976872 19.5104759 51.2812009 36.6861378 -4.93529159 36.7400585"></polygon>
                                    </g>
                                    <polygon id="Rectangle" fill="#F9FAFB" transform="translate(132.566895, 81.066022) rotate(34.640000) translate(-132.566895, -81.066022) " points="124.375658 53.3263836 140.704934 53.3420574 140.758132 108.80566 124.428857 108.789986"></polygon>
                                    <polygon id="Rectangle" fill="#F7B643" transform="translate(144.004613, 63.785055) rotate(34.804012) translate(-144.004613, -63.785055) " points="138.234948 58.0112675 149.763188 58.0223567 149.774278 69.5588419 138.246037 69.5477527"></polygon>
                                    <polygon id="Rectangle" fill="#F7B643" opacity="0.5" transform="translate(136.619176, 75.214852) rotate(34.640000) translate(-136.619176, -75.214852) " points="130.84175 69.4332341 142.385522 69.4443145 142.396602 80.996469 130.852831 80.9853886"></polygon>
                                    <polygon id="Rectangle" fill="#F7B643" opacity="0.3" transform="translate(128.700329, 86.697337) rotate(34.640000) translate(-128.700329, -86.697337) " points="122.922903 80.9157192 134.466675 80.9267995 134.477755 92.478954 122.933984 92.4678736"></polygon>
                                    <g id="Group" opacity="0.5" transform="translate(106.291262, 50.083234)" fill="url(#linearGradient-5)">
                                        <polygon id="Rectangle" transform="translate(16.292746, 29.432171) rotate(-73.710000) translate(-16.292746, -29.432171) " points="-11.7199874 20.8641115 44.31497 20.8331843 44.3054787 38.0002298 -11.7294787 38.031157"></polygon>
                                    </g>
                                    <polygon id="Rectangle" fill="#F9FAFB" transform="translate(122.719489, 79.556439) rotate(16.290000) translate(-122.719489, -79.556439) " points="114.543692 51.9110823 130.864776 51.9201059 130.895287 107.201796 114.574203 107.192772"></polygon>
                                    <polygon id="Rectangle" fill="#FFA644" transform="translate(128.601335, 59.428726) rotate(16.290000) translate(-128.601335, -59.428726) " points="122.829155 53.6465634 134.367136 53.6529425 134.373515 65.2108881 122.835534 65.204509"></polygon>
                                    <polygon id="Rectangle" fill="#FFA644" opacity="0.5" transform="translate(124.694268, 72.824268) rotate(16.290000) translate(-124.694268, -72.824268) " points="118.922088 67.0421052 130.460068 67.0484843 130.466447 78.6064299 118.928467 78.6000508"></polygon>
                                    <polygon id="Rectangle" fill="#FFA644" opacity="0.3" transform="translate(120.787799, 86.217755) rotate(16.290000) translate(-120.787799, -86.217755) " points="115.015619 80.4355926 126.5536 80.4419718 126.559979 91.9999173 115.021999 91.9935382"></polygon>
                                    <g id="Group" opacity="0.5" transform="translate(106.504854, 50.939358)" fill="url(#linearGradient-6)">
                                        <polygon id="Rectangle" transform="translate(10.823967, 28.823291) rotate(-85.400000) translate(-10.823967, -28.823291) " points="-17.1962517 20.2456327 38.8470047 20.23645 38.8441866 37.4009486 -17.1990698 37.4101313"></polygon>
                                    </g>
                                    <polygon id="Rectangle" fill="#F9FAFB" transform="translate(117.451555, 79.776435) rotate(4.600000) translate(-117.451555, -79.776435) " points="109.287694 52.1301567 125.606357 52.1328359 125.615416 107.422713 109.296754 107.420034"></polygon>
                                    <polygon id="Rectangle" fill="#FFA644" transform="translate(119.133102, 58.873185) rotate(4.600000) translate(-119.133102, -58.873185) " points="113.36402 53.0924095 124.900289 53.0943036 124.902183 64.6539609 113.365914 64.6520669"></polygon>
                                    <polygon id="Rectangle" fill="#FFA644" opacity="0.5" transform="translate(118.014886, 72.781175) rotate(4.600000) translate(-118.014886, -72.781175) " points="112.245805 67.0003993 123.782073 67.0022934 123.783967 78.5619507 112.247699 78.5600567"></polygon>
                                    <polygon id="Rectangle" fill="#FFA644" opacity="0.3" transform="translate(116.898628, 86.693610) rotate(4.600000) translate(-116.898628, -86.693610) " points="111.129547 80.9128345 122.665816 80.9147285 122.66771 92.4743859 111.131441 92.4724918"></polygon>
                                    <g id="Group" opacity="0.5" transform="translate(103.514563, 52.437574)" fill="url(#linearGradient-3)">
                                        <polygon id="Rectangle" transform="translate(9.965384, 28.593572) rotate(-2.610000) translate(-9.965384, -28.593572) " points="1.38582444 0.572495624 18.5501694 0.570891982 18.544944 56.614649 1.38059903 56.6162527"></polygon>
                                    </g>
                                    <polygon id="Rectangle" fill="#FFFFFF" transform="translate(113.620480, 81.024721) rotate(-2.610000) translate(-113.620480, -81.024721) " points="105.4638 53.3802973 121.782316 53.3787727 121.777161 108.669144 105.458645 108.670669"></polygon>
                                    <polygon id="Rectangle" fill="#FFA644" transform="translate(112.668280, 60.072039) rotate(-2.610000) translate(-112.668280, -60.072039) " points="106.900736 54.2926979 118.436902 54.2916201 118.435824 65.8513807 106.899658 65.8524585"></polygon>
                                    <polygon id="Rectangle" fill="#FFA644" opacity="0.5" transform="translate(113.785947, 73.551350) rotate(-2.862405) translate(-113.785947, -73.551350) " points="108.011245 67.7648455 119.561832 67.7636623 119.560648 79.3378537 108.010062 79.3390368"></polygon>
                                    <polygon id="Rectangle" fill="#FFA644" opacity="0.3" transform="translate(113.936163, 87.954880) rotate(-2.610000) translate(-113.936163, -87.954880) " points="108.168619 82.1755382 119.704785 82.1744604 119.703707 93.734221 108.167541 93.7352988"></polygon>
                                    <path d="M111.135534,126.644233 L96.6368932,132.264685 L75.4464078,140.472771 C74.6454369,138.974554 73.4664078,136.949822 72.0075728,134.533413 C66.9881553,126.199049 58.6836893,113.235196 51.2891262,101.842331 C42.9590291,89.0004756 35.7887379,78.1640904 35.7887379,78.1640904 L40.9790291,76.665874 L83.3770874,64.3312723 L111.135534,126.644233 Z" id="Path" fill="#E6ECF8"></path>
                                    <path d="M111.135534,126.644233 L96.6368932,132.264685 C88.5375507,133.955556 80.272394,134.716702 72.001165,134.533413 C66.9817476,126.199049 58.6772816,113.235196 51.2827184,101.842331 L40.981165,76.6573127 L83.3770874,64.3312723 L111.135534,126.644233 Z" id="Path" fill="#000000" opacity="0.1"></path>
                                    <path d="M121.921942,123.146968 C121.921942,123.146968 99.3986408,136.498216 65.7706796,133.47824 L38.9627184,67.98478 L51.8102913,65.7717004 L96.2246602,58.1286564 L121.428544,121.873484 L121.921942,123.146968 Z" id="Path" fill="#FFA644"></path>
                                    <path d="M121.42,121.882045 C116.116505,122.143163 109.98,122.117479 103.807184,121.379073 C97.1260194,120.591439 90.4064078,118.969084 84.6458252,115.994055 C79.8293204,113.509156 75.7112621,110.805945 72.1207767,107.563377 C62.7803883,99.145541 57.0005825,87.1041617 51.8102913,65.7802616 L96.2246602,58.1372176 L121.42,121.882045 Z" id="Path" fill="#000000" opacity="0.1"></path>
                                    <path d="M137.943495,118.219976 C137.943495,118.219976 121.340971,121.477527 104.441553,119.472057 C97.7603883,118.684423 91.0407767,117.062069 85.2801942,114.087039 C80.4636893,111.60214 76.347767,108.89893 72.7551456,105.656361 C61.195534,95.2351962 55.091068,79.2642093 48.7965049,47.0118906 C48.7965049,47.0118906 76.3968932,53.6875149 103.689709,39.0649227 C103.681165,39.0756243 112.880583,96.6028537 137.943495,118.219976 Z" id="Path" fill="#F9FAFB"></path>
                                    <path d="M104.441553,119.472057 C97.7603883,118.684423 91.0407767,117.062069 85.2801942,114.087039 C80.4636893,111.60214 76.347767,108.89893 72.7551456,105.656361 C82.5974757,104.855886 84.0114563,99.4644471 84.0114563,99.4644471 C91.307767,111.067063 104.441553,119.472057 104.441553,119.472057 Z" id="Path" fill="#000000" opacity="0.1"></path>
                                    <path d="M63.0730097,58.8520809 C63.0730097,58.8520809 85.5172816,57.5807372 91.7840777,52.732937 L92.7345631,55.7935791 C92.7345631,55.7935791 77.9048544,62.349346 63.0730097,62.4285375 L63.0730097,58.8520809 Z" id="Path" fill="#FFA644"></path>
                                    <path d="M63.0730097,73.9626635 C63.0730097,73.9626635 84.8038835,72.7705113 101.222718,64.8235434 L101.778058,66.094887 C101.778058,66.094887 88.748932,73.7165279 63.0730097,75.7112961 L63.0730097,73.9626635 Z" id="Path" fill="#FFA644" opacity="0.3"></path>
                                    <path d="M64.8223301,79.850654 C64.8223301,79.850654 86.5532039,78.6585018 102.969903,70.7115339 L103.525243,71.9828775 C103.525243,71.9828775 90.4961165,79.6023781 64.8223301,81.5992866 L64.8223301,79.850654 Z" id="Path" fill="#FFA644" opacity="0.3"></path>
                                    <path d="M66.5695146,85.7472057 C66.5695146,85.7472057 88.3003883,84.5550535 104.719223,76.6080856 L105.272427,77.8794293 C105.272427,77.8794293 92.243301,85.5010702 66.5695146,87.4958383 L66.5695146,85.7472057 Z" id="Path" fill="#FFA644" opacity="0.3"></path>
                                    <path d="M68.318835,91.6437574 C68.318835,91.6437574 90.0497087,90.4516052 106.466408,82.5046373 L107.021748,83.775981 C107.021748,83.775981 93.9926214,91.3976219 68.318835,93.39239 L68.318835,91.6437574 Z" id="Path" fill="#FFA644" opacity="0.3"></path>
                                    <path d="M70.0660194,97.5424495 C70.0660194,97.5424495 91.7968932,96.3502973 108.215728,88.4033294 L108.768932,89.674673 C108.768932,89.674673 95.7398058,97.2941736 70.0660194,99.291082 L70.0660194,97.5424495 Z" id="Path" fill="#FFA644" opacity="0.3"></path>
                                    <path d="M222.863495,170.756005 C222.863495,170.756005 213.832816,170.210226 214.896505,176.551962 C214.896505,176.551962 214.682913,177.671344 215.699612,178.180737 C215.699612,178.180737 215.714563,177.709869 216.624466,177.870392 C216.948951,177.925083 217.278778,177.940889 217.60699,177.917479 C218.049855,177.887741 218.470773,177.713314 218.805243,177.420927 C218.805243,177.420927 221.344854,176.370036 222.33165,172.213555 C222.33165,172.213555 223.062136,171.306064 223.032233,171.072771 L221.50932,171.714863 C221.50932,171.714863 222.030485,172.817122 221.620388,173.731034 C221.620388,173.731034 221.571262,171.755529 221.278641,171.804756 C221.218835,171.804756 220.486214,172.185731 220.486214,172.185731 C220.486214,172.185731 221.381165,174.11201 220.699806,175.49893 C220.699806,175.49893 220.956117,173.133888 220.2,172.324851 L219.132039,172.951962 C219.132039,172.951962 220.178641,174.933888 219.469515,176.551962 C219.469515,176.551962 219.651068,174.071344 218.905631,173.103924 L217.933786,173.863734 C217.933786,173.863734 218.918447,175.817836 218.318252,177.15981 C218.318252,177.15981 218.239223,174.270392 217.72233,174.052081 C217.72233,174.052081 216.867961,174.803329 216.744078,175.122235 C216.744078,175.122235 217.416893,176.53912 216.998252,177.288228 C216.998252,177.288228 216.741942,175.36195 216.532621,175.36195 C216.532621,175.36195 215.678252,176.646136 215.597087,177.502259 C215.597087,177.502259 215.633398,176.200951 216.327573,175.231391 C215.838534,175.324967 215.387279,175.559239 215.028932,175.905589 C215.028932,175.905589 215.161359,175.002378 216.536893,174.925327 C216.536893,174.925327 217.237476,173.957907 217.423301,173.897979 C217.423301,173.897979 216.056311,173.784542 215.227573,174.152675 C215.227573,174.152675 215.958058,173.296552 217.67534,173.688228 L218.634369,172.904875 C218.634369,172.904875 216.833786,172.656599 216.071262,172.930559 C216.071262,172.930559 216.949126,172.17717 218.892816,172.716528 L219.937282,172.091558 C219.937282,172.091558 218.403689,171.75981 217.489515,171.877527 C217.489515,171.877527 218.452816,171.355291 220.244854,171.920333 L220.990291,171.584304 C220.990291,171.584304 219.866796,171.370273 219.537864,171.327467 C219.208932,171.284661 219.189709,171.203329 219.189709,171.203329 C219.901986,171.082959 220.633661,171.164505 221.302136,171.438763 C221.302136,171.438763 222.889126,170.856599 222.863495,170.756005 Z" id="Path" fill="#B8E986"></path>
                                    <ellipse id="Oval" fill="#B8E986" opacity="0.346865699" cx="216.643689" cy="178.732937" rx="6.39067961" ry="1.08299643"></ellipse>
                                    <ellipse id="Oval" fill="#D2D5E5" cx="171.81068" cy="174.689893" rx="21.7864078" ry="1.97764566"></ellipse>
                                    <path d="M227.069126,149.821641 C227.069126,149.821641 221.979223,149.513436 222.583689,153.089893 C222.519794,153.461437 222.701679,153.832 223.034369,154.008086 C223.034369,154.008086 223.045049,153.742687 223.55767,153.83258 C223.740439,153.862747 223.926104,153.871367 224.110874,153.858264 C224.360197,153.842096 224.597326,153.744343 224.785825,153.580024 C224.785825,153.580024 226.216893,152.987158 226.774369,150.64352 C226.774369,150.64352 227.186602,150.131986 227.169515,150.001427 L226.315146,150.36742 C226.315146,150.36742 226.607767,150.99025 226.377087,151.506064 C226.377087,151.506064 226.34932,150.390963 226.184854,150.416647 C226.15068,150.416647 225.738447,150.630678 225.738447,150.630678 C225.738447,150.630678 226.242524,151.700832 225.86233,152.499168 C225.86233,152.499168 226.007573,151.165755 225.580388,150.707729 L224.975922,151.06302 C224.975922,151.06302 225.565437,152.180262 225.166019,153.092033 C225.166019,153.092033 225.268544,151.692271 224.847767,151.148633 L224.300971,151.576694 C224.300971,151.576694 224.854175,152.678954 224.514563,153.434483 C224.514563,153.434483 224.469709,151.805707 224.179223,151.68371 C223.971764,151.859989 223.786048,152.060456 223.626019,152.280856 C223.626019,152.280856 224.006214,153.081332 223.771262,153.502973 C223.771262,153.502973 223.626019,152.417836 223.508544,152.413555 C223.508544,152.413555 223.030097,153.130559 222.980971,153.62283 C223.004155,153.166048 223.146278,152.723308 223.393204,152.338644 C223.116956,152.390778 222.862149,152.523282 222.660583,152.71962 C222.660583,152.71962 222.73534,152.210226 223.514951,152.16742 C223.514951,152.16742 223.910097,151.621641 224.014757,151.587396 C224.014757,151.587396 223.243689,151.523187 222.775922,151.730797 C222.775922,151.730797 223.188155,151.251367 224.155728,151.469679 L224.698252,151.026635 C224.698252,151.026635 223.681553,150.887515 223.252233,151.041617 C223.252233,151.041617 223.747767,150.613555 224.843495,150.92604 L225.43301,150.572889 C224.979461,150.473399 224.514868,150.433823 224.051068,150.455172 C224.051068,150.455172 224.595728,150.15981 225.603883,150.478716 L226.031068,150.290369 C226.031068,150.290369 225.390291,150.16409 225.210874,150.144828 C225.031456,150.125565 225.014369,150.074197 225.014369,150.074197 C225.416255,150.007212 225.828804,150.053145 226.206214,150.206897 C226.206214,150.206897 227.086214,149.877289 227.069126,149.821641 Z" id="Path" fill="#B8E986"></path>
                                    <ellipse id="Oval" fill="#B8E986" opacity="0.346865699" cx="223.566214" cy="154.31843" rx="3.60330097" ry="1"></ellipse>
                                    <path d="M197.020971,152.925089 C197.020971,152.925089 190.873786,152.552675 191.6,156.869679 C191.522629,157.31846 191.742543,157.766104 192.14466,157.978359 C192.14466,157.978359 192.14466,157.657313 192.785437,157.764328 C193.006209,157.801713 193.230652,157.812492 193.453981,157.796433 C193.755577,157.776306 194.042235,157.657497 194.269903,157.458264 C194.269903,157.458264 195.997864,156.743401 196.67068,153.913912 C196.67068,153.913912 197.16835,153.297503 197.14699,153.13698 L196.098252,153.582164 C196.098252,153.582164 196.452816,154.331272 196.17301,154.954102 C196.17301,154.954102 196.138835,153.609988 195.940194,153.639952 C195.899612,153.639952 195.401942,153.90107 195.401942,153.90107 C195.401942,153.90107 196.01068,155.206659 195.551456,156.156956 C195.551456,156.156956 195.726602,154.547444 195.211845,153.995244 L194.481359,154.423306 C194.481359,154.423306 195.192621,155.773841 194.709903,156.87396 C194.709903,156.87396 194.833786,155.185256 194.327573,154.51962 L193.665437,155.037574 C193.665437,155.037574 194.336117,156.366706 193.926019,157.280618 C193.926019,157.280618 193.874757,155.313674 193.52233,155.165993 C193.52233,155.165993 192.943495,155.677527 192.855922,155.887277 C192.855922,155.887277 193.31301,156.852556 193.028932,157.36195 C193.028932,157.36195 192.853786,156.052081 192.71068,156.04566 C192.71068,156.04566 192.136117,156.914625 192.069903,157.507491 C192.098691,156.957756 192.27024,156.425082 192.567573,155.962188 C192.234921,156.025759 191.928201,156.18576 191.685437,156.422354 C191.685437,156.422354 191.775146,155.808086 192.71068,155.754578 C192.71068,155.754578 193.18699,155.095363 193.315146,155.056837 C193.315146,155.056837 192.383883,154.977646 191.82,155.228062 C191.82,155.228062 192.315534,154.650178 193.483883,154.913436 L194.137476,154.378359 C194.137476,154.378359 192.913592,154.211415 192.392427,154.395482 C192.392427,154.395482 192.990485,153.883948 194.314757,154.258502 L195.026019,153.83044 C195.026019,153.83044 193.981553,153.605707 193.357864,153.687039 C193.357864,153.687039 194.015728,153.331748 195.233204,153.717004 L195.741553,153.48799 C195.741553,153.48799 194.976893,153.338169 194.752621,153.314625 C194.52835,153.291082 194.51767,153.229013 194.51767,153.229013 C195.0022,153.146709 195.500038,153.201561 195.955146,153.387396 C195.955146,153.387396 197.040194,152.991439 197.020971,152.925089 Z" id="Path" fill="#B8E986"></path>
                                    <ellipse id="Oval" fill="#B8E986" opacity="0.346865699" cx="192.787573" cy="158.355054" rx="4.35087379" ry="1"></ellipse>
                                    <polygon id="Rectangle" fill="url(#linearGradient-7)" transform="translate(203.330793, 27.688879) rotate(-71.990000) translate(-203.330793, -27.688879) " points="185.089741 -4.92418739 221.611241 -4.94620169 221.571845 60.3019461 185.050346 60.3239603"></polygon>
                                    <polygon id="Rectangle" fill="#F6F7F9" transform="translate(203.330463, 27.689897) rotate(-71.990000) translate(-203.330463, -27.689897) " points="185.340576 -4.47255313 221.359201 -4.49426431 221.32035 59.8523472 185.301725 59.8740584"></polygon>
                                    <g id="Group" transform="translate(178.058252, 12.841855)" fill="#FF5C10">
                                        <ellipse id="Oval" cx="6.82213592" cy="6.71414982" rx="6.69825243" ry="6.71200951"></ellipse>
                                    </g>
                                    <g id="Group" transform="translate(200.699029, 16.480380)" fill="#FFA644">
                                        <polygon id="Rectangle" transform="translate(14.367713, 5.513781) rotate(-71.990000) translate(-14.367713, -5.513781) " points="13.4574424 -9.08008299 15.2956077 -9.08119099 15.2779842 20.1076455 13.4398188 20.1087535"></polygon>
                                    </g>
                                    <g id="Group" opacity="0.5" transform="translate(199.417476, 20.975030)" fill="#FFA644">
                                        <polygon id="Rectangle" transform="translate(7.394978, 3.259058) rotate(-71.990000) translate(-7.394978, -3.259058) " points="6.48038418 -4.17485729 8.31854952 -4.17596529 8.30957199 10.6929728 6.47140665 10.6940808"></polygon>
                                    </g>
                                    <g id="Group" opacity="0.5" transform="translate(197.922330, 25.469679)" fill="#FFA644">
                                        <polygon id="Rectangle" transform="translate(11.805475, 4.646752) rotate(-71.990000) translate(-11.805475, -4.646752) " points="10.8936521 -7.37709284 12.7318174 -7.37820085 12.7172973 16.6705975 10.879132 16.6717055"></polygon>
                                    </g>
                                    <g id="Group" opacity="0.5" transform="translate(196.427184, 29.964328)" fill="#FFA644">
                                        <polygon id="Rectangle" transform="translate(14.298204, 5.407065) rotate(-71.990000) translate(-14.298204, -5.407065) " points="13.3879336 -9.18679874 15.2260989 -9.18790674 15.2084754 20.0009297 13.37031 20.0020377"></polygon>
                                    </g>
                                    <g id="Group" transform="translate(213.941748, 42.806183)" fill="#FFA644">
                                        <polygon id="Rectangle" transform="translate(4.467109, 3.089512) rotate(-71.990000) translate(-4.467109, -3.089512) " points="2.69236895 -0.948171184 6.24672591 -0.950313666 6.24184889 7.12719424 2.68749193 7.12933673"></polygon>
                                    </g>
                                    <path d="M178.67767,96.8639715 L174.920583,94.3191439 C174.920583,94.3191439 168.954951,92.1039239 167.297476,95.5369798 C165.64,98.9700357 174.478447,97.1978597 174.478447,97.1978597 L178.235534,99.2996433 L178.67767,96.8639715 Z" id="Path" fill="#F4BD87"></path>
                                    <polygon id="Rectangle" fill="#F9FAFB" transform="translate(171.161188, 117.990235) rotate(-57.264774) translate(-171.161188, -117.990235) " points="153.193406 90.0189794 189.181234 89.9854071 189.12897 145.961492 153.141143 145.995064"></polygon>
                                    <polygon id="Rectangle" fill="#B7B6CC" transform="translate(148.624751, 112.209133) rotate(-57.570000) translate(-148.624751, -112.209133) " points="143.53493 111.017036 153.716796 111.007584 153.714572 113.40123 143.532706 113.410682"></polygon>
                                    <polygon id="Rectangle" fill="#B7B6CC" transform="translate(158.255979, 108.754505) rotate(-57.570000) translate(-158.255979, -108.754505) " points="147.076197 107.66744 169.4378 107.646682 169.435761 109.84157 147.074158 109.862328"></polygon>
                                    <polygon id="Rectangle" fill="#B7B6CC" transform="translate(162.211214, 111.270389) rotate(-57.570000) translate(-162.211214, -111.270389) " points="151.031432 110.183324 173.393036 110.162566 173.390996 112.357454 151.029393 112.378211"></polygon>
                                    <polygon id="Rectangle" fill="#B7B6CC" transform="translate(166.165305, 113.790219) rotate(-57.570000) translate(-166.165305, -113.790219) " points="154.985523 112.703154 177.347126 112.682396 177.345087 114.877284 154.983483 114.898042"></polygon>
                                    <polygon id="Rectangle" fill="#B7B6CC" transform="translate(170.294303, 117.490623) rotate(-57.264774) translate(-170.294303, -117.490623) " points="159.130299 116.405121 181.460353 116.38429 181.458307 118.576125 159.128253 118.596956"></polygon>
                                    <polygon id="Rectangle" fill="#FFFFFF" transform="translate(174.074297, 118.824940) rotate(-57.570000) translate(-174.074297, -118.824940) " points="162.894515 117.737875 185.256119 117.717117 185.254079 119.912005 162.892476 119.932763"></polygon>
                                    <polygon id="Rectangle" fill="#FFFFFF" transform="translate(178.029533, 121.340823) rotate(-57.570000) translate(-178.029533, -121.340823) " points="166.849751 120.253758 189.211354 120.233 189.209315 122.427888 166.847712 122.448646"></polygon>
                                    <polygon id="Rectangle" fill="#B7B6CC" transform="translate(191.711980, 118.574524) rotate(-57.570000) translate(-191.711980, -118.574524) " points="188.819466 115.684533 194.609868 115.679158 194.604493 121.464515 188.814091 121.46989"></polygon>
                                    <path d="M189.790874,174.480143 C187.977476,174.037099 185.181553,173.390725 183.759029,173.247325 C181.54835,173.033294 181.54835,170.250892 183.096893,170.589061 C183.934175,170.770987 184.677476,170.297979 185.179417,169.829251 C185.331796,169.682447 185.474492,169.525875 185.606602,169.360523 C185.789237,169.137973 186.041257,168.983435 186.322136,168.92176 C187.150874,168.741974 188.885243,168.468014 189.933981,169.039477 C190.179173,169.192166 190.37732,169.409983 190.506408,169.668728 C190.982718,170.524851 191.230485,171.948157 191.360777,173.093222 C191.405291,173.507764 191.246196,173.918159 190.934093,174.193885 C190.621989,174.469611 190.195726,174.576346 189.790874,174.480143 Z" id="Path" fill="#BEBED0"></path>
                                    <path d="M161.838058,175.586683 C160.026796,175.143639 157.230874,174.497265 155.80835,174.353864 C153.59767,174.139834 153.59767,171.357432 155.144078,171.697741 C156.156505,171.911772 157.027961,171.181926 157.508544,170.65113 C157.56835,170.58692 157.621748,170.524851 157.666602,170.467063 C157.850312,170.248888 158.101331,170.098269 158.38,170.039001 C159.208738,169.857075 160.943107,169.583115 161.993981,170.156718 C162.305825,170.323662 162.553592,170.691795 162.752233,171.169084 C163.108932,172.025208 163.305437,173.223781 163.414369,174.214744 C163.45427,174.628214 163.292117,175.035487 162.979142,175.307884 C162.666167,175.58028 162.241032,175.684153 161.838058,175.586683 Z" id="Path" fill="#BEBED0"></path>
                                    <path d="M162.752233,171.160523 C160.114369,173.885137 157.852427,171.109156 157.508544,170.65113 C157.56835,170.58692 157.621748,170.524851 157.666602,170.467063 C157.850312,170.248888 158.101331,170.098269 158.38,170.039001 C159.208738,169.857075 160.943107,169.583115 161.993981,170.156718 C162.305825,170.315101 162.564272,170.683234 162.752233,171.160523 Z" id="Path" fill="#000000" opacity="0.1"></path>
                                    <path d="M190.517087,169.668728 C189.374369,170.449941 185.527573,170.257313 185.527573,170.257313 C185.400805,170.123724 185.284414,169.98062 185.179417,169.829251 C185.331796,169.682447 185.474492,169.525875 185.606602,169.360523 C185.789237,169.137973 186.041257,168.983435 186.322136,168.92176 C187.150874,168.741974 188.885243,168.468014 189.933981,169.039477 C190.183112,169.190627 190.385089,169.408588 190.517087,169.668728 Z" id="Path" fill="#000000" opacity="0.1"></path>
                                    <path d="M190.72,169.150773 C189.94466,170.148157 185.527573,169.925565 185.527573,169.925565 C185.527573,169.925565 184.201165,168.596433 183.647961,165.719857 C183.094757,162.843282 178.344466,153.652794 178.344466,153.652794 C177.240194,152.212366 176.355922,149.556243 176.355922,149.556243 L174.478447,137.48918 C174.478447,137.48918 165.42,149.444946 165.531068,151.991914 C165.642136,154.538882 163.540388,164.619738 163.540388,164.619738 C162.767184,165.94887 162.767184,170.826635 162.767184,170.826635 C159.896505,173.823068 157.465825,170.272295 157.465825,170.272295 C156.912621,167.947919 157.796893,160.309156 157.796893,160.309156 C157.796893,160.309156 159.123301,153.888228 159.232233,149.902973 C159.341165,145.917717 160.669709,144.922473 160.669709,144.922473 C161.701478,140.814678 163.458561,136.925064 165.857864,133.437574 C166.524272,132.480856 166.966408,131.969322 166.966408,131.969322 L184.863301,134.073246 C184.520114,134.834234 184.262226,135.631021 184.094369,136.448989 C182.930291,141.457313 182.543689,150.457313 182.543689,150.457313 C186.631845,153.113436 187.847184,160.302735 187.847184,160.302735 C187.847184,162.175505 190.72,169.150773 190.72,169.150773 Z" id="Path" fill="#5C5C8E"></path>
                                    <g id="Group" opacity="0.05" transform="translate(159.689320, 131.843044)" fill="#000000">
                                        <path d="M13.804466,7.12080856 L13.5737864,5.64613555 C13.5737864,5.64613555 4.51533981,17.6019025 4.62640777,20.1488704 C4.73747573,22.6958383 2.63786408,32.7766944 2.63786408,32.7766944 C1.86252427,34.1058264 1.86252427,38.983591 1.86252427,38.983591 C1.39995895,39.5066583 0.801868236,39.8911412 0.134563107,40.0944114 C1.0038835,40.3234245 2.0568932,40.1543401 3.18893204,38.983591 C3.18893204,38.983591 3.18893204,34.1122473 3.96213592,32.7766944 C3.96213592,32.7766944 6.06174757,22.7022592 5.95067961,20.1488704 C5.86524272,18.1562426 11.3951456,10.3954816 13.804466,7.12080856 Z" id="Path"></path>
                                        <path d="M28.2667961,28.4511296 C28.2667961,28.4511296 27.0514563,21.2554102 22.9654369,18.6057075 C22.9654369,18.6057075 23.3520388,9.60570749 24.5139806,4.59738407 C24.6824384,3.77930738 24.9410463,2.98250886 25.2850485,2.2216409 L7.38815534,0.121997622 C7.38815534,0.121997622 7.34543689,0.169084423 7.26854369,0.263258026 L23.9586408,2.22592152 C23.6154534,2.98690945 23.3575658,3.78369607 23.1897087,4.60166468 C22.0256311,9.60998811 21.6390291,18.6099881 21.6390291,18.6099881 C25.7271845,21.2661118 26.9425243,28.4554102 26.9425243,28.4554102 C26.9425243,30.336742 29.8153398,37.3120095 29.8153398,37.3120095 C29.3582524,37.8984542 27.636699,38.063258 26.2974757,38.0996433 C27.3654369,38.1274673 30.498835,38.1381688 31.1396117,37.3120095 C31.1396117,37.3077289 28.2667961,30.3324614 28.2667961,28.4511296 Z" id="Path"></path>
                                    </g>
                                    <path d="M163.651456,130.404756 C163.517698,130.731699 163.341767,131.039671 163.128155,131.320809 C162.463883,132.217598 161.081942,133.403329 158.55301,133.078002 C158.174011,133.02933 157.848333,132.784863 157.695181,132.434082 C157.542029,132.083301 157.583888,131.677706 157.805437,131.365755 C158.617327,130.179166 159.782845,129.280196 161.13534,128.797384 C161.592947,128.646046 162.066889,128.54977 162.547184,128.510583 L163.651456,130.404756 Z" id="Path" fill="#F4BD87"></path>
                                    <path d="M186.984272,99.443044 L178.124466,96.196195 C178.124466,96.196195 175.582718,97.525327 176.578058,99.4066587 L185.205049,104.832342 L186.984272,99.443044 Z" id="Path" fill="#42383C"></path>
                                    <path d="M187.018447,99.4794293 L178.156505,96.2325803 C178.156505,96.2325803 175.614757,97.5595719 176.610097,99.443044 L185.226408,104.866587 L187.018447,99.4794293 Z" id="Path" fill="#BD10E0" opacity="0.686495536"></path>
                                    <path d="M187.293981,94.0922711 C187.293981,94.0922711 187.182913,99.2953627 189.50466,101.067539 C191.826408,102.839715 182.763689,103.834958 182.763689,103.834958 C182.763689,103.834958 184.201165,98.5205707 182.763689,95.753151 C181.326214,92.9857313 187.293981,94.0922711 187.293981,94.0922711 Z" id="Path" fill="#F4BD87"></path>
                                    <path d="M184.863301,134.058264 C184.520114,134.819252 184.262226,135.616039 184.094369,136.434007 C173.414757,138.069203 165.971068,133.61522 165.971068,133.61522 C165.930485,133.551011 165.892039,133.486801 165.857864,133.422592 C166.524272,132.465874 166.966408,131.95434 166.966408,131.95434 L184.863301,134.058264 Z" id="Path" fill="#000000" opacity="0.1"></path>
                                    <path d="M163.651456,130.404756 C163.517698,130.731699 163.341767,131.039671 163.128155,131.320809 C162.105049,131.149584 161.28699,129.180499 161.13534,128.808086 C161.592947,128.656748 162.066889,128.560471 162.547184,128.521284 L163.651456,130.404756 Z" id="Path" fill="#000000" opacity="0.1"></path>
                                    <path d="M188.178252,98.7431629 L184.201165,100.181451 L182.543689,102.396671 C182.543689,102.396671 179.126214,103.50321 178.67767,103.50321 C178.229126,103.50321 177.020194,103.946254 176.24699,105.71629 C175.473786,107.486326 172.712039,116.126754 170.281359,117.562901 C167.85068,118.999049 161.442913,128.63258 161.442913,128.63258 C161.442913,128.63258 162.547184,131.629013 163.873592,131.179548 L166.966408,128.63258 C166.966408,128.63258 164.535728,131.068252 165.971068,133.283472 C165.971068,133.283472 175.03165,138.707015 187.516117,135.385256 L187.625049,132.065636 L188.178252,134.72176 L194.372427,130.8478 C194.372427,130.8478 193.819223,123.701308 192.821748,120.064923 C192.408573,118.535766 192.560267,116.908539 193.248932,115.482521 C194.85301,112.132937 197.328544,106.538169 197.027379,104.498454 C196.67068,102.094887 195.318641,101.050416 194.797476,100.735791 C194.679307,100.66361 194.546448,100.618989 194.408738,100.605232 L192.386019,100.404043 L188.178252,98.7431629 Z" id="Path" fill="#BD10E0"></path>
                                    <path d="M181.383883,109.86849 C181.383883,109.86849 179.173204,120.163377 176.742524,121.824257 C174.311845,123.485137 167.795146,128.799524 167.57301,129.685612" id="Path" fill="#000000" opacity="0.05"></path>
                                    <path d="M180.388544,109.536742 C180.388544,109.536742 178.18,119.831629 175.74932,121.492509 C173.318641,123.153389 166.799806,128.467776 166.579806,129.351724" id="Path" fill="#9013FE"></path>
                                    <path d="M182.488155,102.341023 C182.488155,102.341023 190.111262,99.7940547 192.313398,100.457551" id="Path" fill="#000000" opacity="0.1"></path>
                                    <g id="Group" opacity="0.05" transform="translate(187.669903, 98.668252)" fill="#000000">
                                        <path d="M5.56834951,16.816409 C7.17242718,13.4668252 9.64796117,7.87205707 9.34679612,5.83234245 C8.99009709,3.42877527 7.63805825,2.3843044 7.1168932,2.06967895 C6.99872436,1.99749789 6.8658658,1.95287692 6.72815534,1.9391201 L5.87378641,1.85350773 C5.96434516,1.87427017 6.05091845,1.90969353 6.13009709,1.95838288 C6.64699029,2.27514863 8.00330097,3.31747919 8.35786408,5.72318668 C8.65902913,7.760761 6.18349515,13.3576694 4.5815534,16.7072533 C3.89303729,18.1325505 3.74133881,19.759058 4.15436893,21.2875149 C5.15398058,24.9260404 5.70718447,32.0703924 5.70718447,32.0703924 L0.380194175,35.4071344 L0.514757282,36.0492271 L6.70893204,32.1752675 C6.70893204,32.1752675 6.15572816,25.0287753 5.15825243,21.39239 C4.74137116,19.8672742 4.88696519,18.2426941 5.56834951,16.816409 Z" id="Path"></path>
                                        <polygon id="Path" points="3.71223301 1.62449465 4.66912621 1.72080856 0.508349515 0.0749108205 0.134563107 0.209750297"></polygon>
                                    </g>
                                    <path d="M180.388544,120.274673 C180.388544,120.274673 183.806019,118.393341 184.918835,118.836385 C186.03165,119.279429 190.111262,118.725089 190.111262,118.725089" id="Path" fill="#000000" opacity="0.05"></path>
                                    <path d="M186.913786,95.4770511 C186.787767,94.3662307 187.300388,94.5353151 187.300388,94.5353151 C187.300388,94.5353151 181.334757,93.4287753 182.770097,96.196195 C183.132023,96.9587933 183.338259,97.786162 183.376699,98.6297265 L183.434369,98.6297265 C185.091845,98.6318668 186.059417,96.7740785 186.913786,95.4770511 Z" id="Path" fill="#000000" opacity="0.05"></path>
                                    <ellipse id="Oval" fill="#F4BD87" cx="183.427961" cy="93.4287753" rx="4.75029126" ry="4.76004756"></ellipse>
                                    <path d="M188.622524,94.8370987 C189.049709,93.8889417 189.367961,92.8615933 189.316699,91.8214031 C189.265437,90.7812128 188.799806,89.7260404 187.936893,89.1438763 C187.492621,88.8442331 186.967184,88.6837099 186.503689,88.4097503 C186.142718,88.1957194 185.824466,87.9153389 185.480583,87.6756243 C183.767951,86.5059414 181.562039,86.3426887 179.696505,87.2475624 C178.825049,87.6756243 178.081748,88.3412604 177.259417,88.8656361 C176.437087,89.3900119 175.467379,89.79239 174.504078,89.6382878 C174.337476,90.0984542 174.745437,90.5521998 175.119223,90.8689655 C175.830485,91.4661118 176.635728,92.0611177 177.562718,92.0803805 C177.921553,92.0803805 178.299612,92.0118906 178.63068,92.1617122 C178.850035,92.283074 179.036323,92.4565157 179.173204,92.6668252 C179.619249,93.2612029 179.997525,93.9037256 180.300971,94.5824019 C180.393811,94.8741882 180.568867,95.1328514 180.805049,95.3272295 C181.232233,95.6011891 181.785437,95.372176 182.300194,95.3529132 C183.086214,95.3208086 183.79534,95.8173603 184.376311,96.348157 C184.957282,96.8789536 185.512621,97.4868014 186.247379,97.7671819 C186.796311,97.9812128 187.894175,97.968371 188.169709,97.3112961 C188.274369,97.0630202 188.071456,96.5322235 188.114175,96.2282996 C188.21701,95.7427794 188.388171,95.2743641 188.622524,94.8370987 Z" id="Path" fill="#000000" opacity="0.1"></path>
                                    <path d="M188.720777,94.7236623 C189.147961,93.7755054 189.46835,92.748157 189.414951,91.710107 C189.361553,90.6720571 188.900194,89.612604 188.037282,89.0325803 C187.590874,88.7307967 187.065437,88.5702735 186.604078,88.2963139 C186.243107,88.082283 185.924854,87.8040428 185.580971,87.5621879 C183.868339,86.392505 181.662428,86.2292523 179.796893,87.134126 C178.925437,87.5621879 178.182136,88.2256837 177.359806,88.7500595 C176.537476,89.2744352 175.567767,89.6789536 174.604466,89.5227111 C174.437864,89.9850178 174.843689,90.4387634 175.219612,90.7533888 C175.930874,91.3505351 176.736117,91.945541 177.663107,91.9669441 C178.021942,91.9669441 178.4,91.8963139 178.731068,92.0482759 C178.951319,92.1683946 179.137883,92.3420936 179.273592,92.5533888 C179.71963,93.1466122 180.097242,93.7885082 180.399223,94.4668252 C180.492872,94.7587635 180.668649,95.0173973 180.905437,95.2116528 C181.332621,95.4856124 181.885825,95.2565993 182.400583,95.2373365 C183.186602,95.2073722 183.895728,95.7039239 184.474563,96.2347206 C185.053398,96.7655172 185.610874,97.3712247 186.347767,97.6516052 C186.896699,97.8656361 187.994563,97.8527943 188.270097,97.1957194 C188.376893,96.9474435 188.173981,96.4166468 188.216699,96.1127229 C188.318323,95.6281451 188.48804,95.1604649 188.720777,94.7236623 Z" id="Path" fill="#F0E932"></path>
                                    <path d="M154.332427,165.017836 C153.934095,165.345414 153.433734,165.522643 152.918447,165.518668 L57.4918447,165.11201 C56.9742086,164.487626 56.7369249,163.676726 56.8361165,162.871106 L66.2640777,85.56956 L72.1763107,85.5053508 C73.1931584,85.4951116 74.0886258,86.1742495 74.3549515,87.1576694 L75.4592233,91.2413793 C75.7282757,92.2357755 76.6398632,92.9177783 77.667767,92.893698 L101.263301,92.3265161 C102.476299,92.2974569 103.444424,91.3035894 103.444078,90.0877527 L103.444078,87.3824019 C103.443997,86.1559281 104.428742,85.157709 105.652621,85.1436385 L138.34932,84.7904875 C139.428777,84.7804459 140.361008,85.5452384 140.564272,86.60761 L155.024466,162.374554 L155.118447,162.862545 C155.274659,163.671374 154.972276,164.500518 154.332427,165.017836 Z" id="Path" fill="#000000" opacity="0.1"></path>
                                    <path d="M137.281359,85.8627824 L104.58466,86.2159334 C103.360777,86.2288307 102.375083,87.2260919 102.373981,88.4525565 L102.373981,91.1600476 C102.373197,92.3742409 101.40667,93.3664902 100.19534,93.3966706 L76.6019417,93.9638526 C75.5730021,93.9897121 74.6598274,93.3071819 74.3912621,92.3115339 L73.2827184,88.2299643 C73.0168531,87.2453199 72.1198297,86.5656682 71.1019417,86.5776457 L39.5864078,86.9179548 C38.9329144,86.9243682 38.3150549,87.2174474 37.8958707,87.7198544 C37.4766864,88.2222614 37.2982937,88.8835183 37.407767,89.529132 L50.0866019,164.302973 C50.2683244,165.376098 51.1939684,166.162751 52.2801942,166.167182 L151.844078,166.595244 C152.511258,166.597499 153.14453,166.300849 153.570675,165.786438 C153.996819,165.272026 154.171235,164.593691 154.046214,163.93698 L139.496311,87.6799049 C139.293835,86.6170632 138.36112,85.8518738 137.281359,85.8627824 Z" id="Path" fill="#FF5C10"></path>
                                    <path d="M183.329709,34.6580262 L183.158835,36.5629013 L183.282718,39.9317479 L182.921748,45.6142687 C182.921748,45.6142687 182.870485,48.1034483 181.467184,49.2699168 L177.885243,54.7812128 L177.863883,54.7919144 L176.516117,55.4511296 L174.459223,55.6651605 L173.391262,53.0732461 L174.098252,50.226635 L174.491262,49.6958383 L174.600194,49.575981 C175.027379,49.105113 176.676311,47.3950059 177.985631,46.862069 C177.985631,46.862069 178.859223,46.2199762 178.705437,45.2140309 C178.55165,44.2080856 179.884466,38.8615933 179.884466,38.8615933 C179.884466,38.8615933 180.738835,35.3258026 180.55301,34.9812128 C180.367184,34.6366231 180.518835,26.8095125 183.466408,26.6896552 C186.413981,26.5697979 183.329709,34.6580262 183.329709,34.6580262 Z" id="Path" fill="#F4BD87"></path>
                                    <ellipse id="Oval" fill="#E8EAF4" cx="5.24932039" cy="27.3338882" rx="4.62" ry="4.6294887"></ellipse>
                                    <ellipse id="Oval" fill="#E8EAF4" cx="227.404466" cy="64.329132" rx="4.62" ry="4.6294887"></ellipse>
                                    <ellipse id="Oval" fill="#E8EAF4" cx="144.355534" cy="12.6321046" rx="4.62" ry="4.6294887"></ellipse>
                                    <ellipse id="Oval" fill="#E8EAF4" cx="14.4893204" cy="52.8741974" rx="7.74271845" ry="7.75862069"></ellipse>
                                </g>
                            </g>
                        </g>
                    </g>
                </g>
            </g>
        </g>
    </g>
</svg>