<?xml version="1.0" encoding="UTF-8"?>
<svg width="318px" height="253px" viewBox="0 0 318 253" version="1.1" xmlns="http://www.w3.org/2000/svg" xmlns:xlink="http://www.w3.org/1999/xlink">
    <!-- Generator: Sketch 52.5 (67469) - http://www.bohemiancoding.com/sketch -->
    <title>graphic_details_02</title>
    <desc>Created with Sketch.</desc>
    <defs>
        <filter x="-12.5%" y="-23.3%" width="125.0%" height="146.7%" filterUnits="objectBoundingBox" id="filter-1">
            <feOffset dx="0" dy="30" in="SourceAlpha" result="shadowOffsetOuter1"></feOffset>
            <feGaussianBlur stdDeviation="20" in="shadowOffsetOuter1" result="shadowBlurOuter1"></feGaussianBlur>
            <feColorMatrix values="0 0 0 0 0.816479449   0 0 0 0 0.868195105   0 0 0 0 0.894052934  0 0 0 1 0" type="matrix" in="shadowBlurOuter1" result="shadowMatrixOuter1"></feColorMatrix>
            <feMerge>
                <feMergeNode in="shadowMatrixOuter1"></feMergeNode>
                <feMergeNode in="SourceGraphic"></feMergeNode>
            </feMerge>
        </filter>
        <linearGradient x1="50%" y1="100%" x2="50%" y2="0%" id="linearGradient-2">
            <stop stop-color="#808080" stop-opacity="0.25" offset="0%"></stop>
            <stop stop-color="#808080" stop-opacity="0.12" offset="54%"></stop>
            <stop stop-color="#808080" stop-opacity="0.1" offset="100%"></stop>
        </linearGradient>
        <linearGradient x1="49.9975244%" y1="100%" x2="49.9975244%" y2="0%" id="linearGradient-3">
            <stop stop-color="#808080" stop-opacity="0.25" offset="0%"></stop>
            <stop stop-color="#808080" stop-opacity="0.12" offset="54%"></stop>
            <stop stop-color="#808080" stop-opacity="0.1" offset="100%"></stop>
        </linearGradient>
    </defs>
    <g id="•-Homepage" stroke="none" stroke-width="1" fill="none" fill-rule="evenodd">
        <g id="homepage_template-01" transform="translate(-561.000000, -836.000000)">
            <g id="basic-details" transform="translate(0.000000, 688.000000)">
                <g id="Group-6">
                    <g id="Group-5" transform="translate(184.000000, 0.000000)">
                        <g id="Group-3" filter="url(#filter-1)" transform="translate(0.000000, 113.000000)">
                            <g id="Rectangle-3" transform="translate(371.000000, 0.000000)">
                                <g id="graphic_details_02" transform="translate(43.000000, 39.000000)">
                                    <path d="M6.7422977,112.990798 C3.81722278,113.465765 0.148691309,114.824899 0.182817183,117.984032 C0.19988012,119.586739 1.26509491,120.95318 2.30105894,122.124763 C6.70432377,127.13837 11.7278151,131.572045 17.2506294,135.31908 C19.8880719,137.104465 22.722957,138.811908 24.4755644,141.571583 C26.2281718,144.331258 26.6693706,147.843572 26.8083117,151.185386 C27.1500807,159.097522 26.2167761,167.013114 24.0441159,174.629229 C32.6316484,176.263599 42.2088312,177.695805 49.3655145,172.534506 C53.6507493,169.443572 56.549011,164.265223 61.3241958,162.121786 C64.5125275,160.689581 68.1225574,160.816238 71.5985215,160.998917 C88.0520679,161.864411 104.464988,163.488227 120.837283,165.870365 C127.694146,166.869012 134.682637,167.999188 141.466374,166.708254 C148.25011,165.417321 154.924156,161.205954 157.425095,154.37862 C157.81023,153.326387 158.156364,152.152368 159.019261,151.51908 C159.799281,150.953992 160.820619,150.966171 161.768831,151.000271 L219.071049,152.968336 C222.210629,153.075507 225.4599,153.163194 228.333786,151.87226 C231.11992,150.622733 233.262537,148.218674 235.324715,145.863329 C240.041399,140.490122 245.113966,133.879567 243.726993,126.587009 C242.617902,120.741272 237.6599,116.656563 232.743337,113.797023 C227.826773,110.937483 222.403197,108.596752 218.790729,104.024899 C213.294026,97.0660352 213.510969,87.1063599 213.16971,78.0771313 C212.858716,69.9011681 211.851615,61.7665099 210.159321,53.7612991 C208.66997,46.7244926 206.595604,39.6779432 202.717443,33.7347767 C198.839281,27.7916103 192.908691,23.0322057 186.200519,22.1602165 C177.43992,21.0202977 168.633007,26.4811908 160.062537,24.1623816 C152.822977,22.2138024 147.840599,15.2890392 141.841758,10.4906631 C131.187173,1.96562923 117.205315,0.180243572 103.986414,0.0170500677 C89.9704296,-0.160757781 75.5839361,1.25683356 63.0914286,7.83328823 C60.2297303,9.33856563 57.4314086,11.1604871 55.4496703,13.8202977 C52.4124675,17.9001353 51.6763237,23.3805142 49.6897103,28.1496617 C41.6823177,47.3529093 15.6394006,51.4936401 7.18593407,70.4922869 C4.18529471,77.231935 4.21454545,85.0920162 6.40103896,92.17023 C8.75328671,99.7867388 15.3737063,103.993234 17.998961,110.633018 C15.1738262,112.450068 10.1670729,112.433018 6.7422977,112.990798 Z" id="Path" fill="#2B3DA2" opacity="0.1"></path>
                                    <g id="Group" transform="translate(210.117882, 36.048714)">
                                        <path d="M5.74045954,54.2971583 C5.74045954,54.2971583 6.91048951,38.7645467 15.6954645,30.3247632 C19.4028635,26.8086448 21.8687723,22.1856685 22.722957,17.1499323 C23.1063774,14.7560658 23.2695633,12.332138 23.2104695,9.90852503" id="Path" stroke="#535461" stroke-width="0.5"></path>
                                        <path d="M28.7242358,4.55723951 C28.0758442,6.26224628 23.0934665,10.0644114 23.0934665,10.0644114 C23.0934665,10.0644114 21.8746853,3.92395129 22.5182018,2.21163735 C23.1664109,0.498508346 25.0817018,-0.365176174 26.7961239,0.282543978 C28.5105459,0.930264131 29.3748824,2.84411051 28.7266733,4.55723951 L28.7242358,4.55723951 Z" id="Path" fill="#B8E986"></path>
                                        <path d="M30.2647752,15.9832206 C28.79005,17.0695535 22.5425774,17.5469553 22.5425774,17.5469553 C22.5425774,17.5469553 24.8558242,11.7280108 26.3305495,10.6416779 C27.2850089,9.93942621 28.5418955,9.79933288 29.6277521,10.2741698 C30.7136087,10.7490066 31.4634679,11.7666347 31.594865,12.9437232 C31.7262621,14.1208118 31.2192347,15.2785332 30.2647752,15.9807848 L30.2647752,15.9832206 Z" id="Path" fill="#B8E986"></path>
                                        <path d="M23.9051748,32.1125846 C22.0818781,32.3050068 16.4486713,29.567253 16.4486713,29.567253 C16.4486713,29.567253 21.3847353,25.711502 23.2055944,25.5166441 C25.0283879,25.323606 26.6626604,26.6436693 26.8558442,28.465088 C27.049028,30.2865066 25.7279683,31.9195465 23.9051748,32.1125846 Z" id="Path" fill="#B8E986"></path>
                                        <path d="M16.3438561,43.2341001 C14.5790609,43.7212449 8.56315684,41.9845737 8.56315684,41.9845737 C8.56315684,41.9845737 12.7752647,37.3566982 14.5400599,36.8525034 C15.6808829,36.5305292 16.9069476,36.8411755 17.7564073,37.6674249 C18.605867,38.4936743 18.9496686,39.7099998 18.6583054,40.8582234 C18.3669422,42.0064469 17.4846791,42.912126 16.3438561,43.2341001 Z" id="Path" fill="#B8E986"></path>
                                        <path d="M15.9002198,15.4181326 C16.6778022,17.0768606 21.9380619,20.4771313 21.9380619,20.4771313 C21.9380619,20.4771313 22.6863936,14.2611637 21.9088112,12.6024357 C21.4054557,11.5299138 20.3677206,10.807197 19.1865105,10.7065259 C18.0053005,10.6058548 16.8600694,11.1425236 16.1822148,12.1143743 C15.5043602,13.0862251 15.3968643,14.3456107 15.9002198,15.4181326 Z" id="Path" fill="#B8E986"></path>
                                        <path d="M7.22005994,28.5369418 C8.45834166,29.8863329 14.4961838,31.5596752 14.4961838,31.5596752 C14.4961838,31.5596752 13.3480919,25.4046008 12.1098102,24.0552097 C10.8712799,22.7052883 8.7720992,22.6142307 7.42115884,23.8518268 C6.07021848,25.0894229 5.9790921,27.1870204 7.21762238,28.5369418 L7.22005994,28.5369418 Z" id="Path" fill="#6BA431"></path>
                                        <path d="M0.536263736,42.4424899 C1.52835165,43.9818674 7.19812188,46.6489851 7.19812188,46.6489851 C7.19812188,46.6489851 7.10793207,40.3891746 6.11584416,38.8546685 C5.12300055,37.3150721 3.06911027,36.8712343 1.52835174,37.863329 C-0.0124067907,38.8554237 -0.456579712,40.9077648 0.536263736,42.4473613 L0.536263736,42.4424899 Z" id="Path" fill="#FFA644"></path>
                                    </g>
                                    <polygon id="Path" fill="url(#linearGradient-2)" points="40.0101499 21.3929635 40.0101499 30.1542625 40.0101499 133.679838 220.584775 133.679838 220.584775 30.1542625 220.584775 21.3929635"></polygon>
                                    <rect id="Rectangle" fill="#F6F7F9" x="41.9187612" y="22.579161" width="176.75984" height="8.57618403"></rect>
                                    <g id="Group" transform="translate(41.682318, 22.408660)" fill="#FF5C10">
                                        <rect id="Rectangle" x="0.236443556" y="0.170500677" width="176.75984" height="8.57618403"></rect>
                                    </g>
                                    <rect id="Rectangle" fill="#FFFFFF" x="41.9187612" y="31.1553451" width="176.75984" height="101.338295"></rect>
                                    <ellipse id="Oval" fill="#F6F7F9" cx="46.1576823" cy="26.814885" rx="1.90861139" ry="1.90717185"></ellipse>
                                    <ellipse id="Oval" fill="#F6F7F9" cx="51.2424376" cy="26.814885" rx="1.90861139" ry="1.90717185"></ellipse>
                                    <ellipse id="Oval" fill="#F6F7F9" cx="56.3296304" cy="26.814885" rx="1.90861139" ry="1.90717185"></ellipse>
                                    <g id="Group" opacity="0.2" transform="translate(48.019980, 43.599459)" fill="#FF5C10">
                                        <rect id="Rectangle" x="0.0438761239" y="0.158322057" width="90.9235165" height="6.56427605"></rect>
                                    </g>
                                    <g id="Group" opacity="0.2" transform="translate(162.097902, 43.599459)" fill="#FF5C10">
                                        <rect id="Rectangle" x="0.202317682" y="0.158322057" width="47.686034" height="6.56427605"></rect>
                                    </g>
                                    <g id="Group" opacity="0.2" transform="translate(65.570430, 75.507442)" fill="#FF5C10">
                                        <rect id="Rectangle" x="0.19012987" y="30.3028417" width="6.35716284" height="20.9667118"></rect>
                                        <rect id="Rectangle" x="12.4827572" y="15.264682" width="6.35716284" height="36.0024357"></rect>
                                        <rect id="Rectangle" x="24.7753846" y="0.228958051" width="6.35716284" height="51.0381597"></rect>
                                        <rect id="Rectangle" x="37.068012" y="5.10040595" width="6.35716284" height="46.1691475"></rect>
                                        <rect id="Rectangle" x="49.3606394" y="19.500406" width="6.35716284" height="31.7667118"></rect>
                                    </g>
                                    <g id="Group" opacity="0.2" transform="translate(162.097902, 64.546685)" fill="#FF5C10">
                                        <rect id="Rectangle" x="0.0975024975" y="0.177807848" width="47.686034" height="58.5572395"></rect>
                                    </g>
                                    <path d="M218.91992,85.8982409 C218.91992,85.8982409 216.418981,87.3401894 217.189251,89.3594046 C217.189251,89.3594046 219.787692,90.1290934 220.845594,92.0508796 C221.903497,93.9726658 230.081518,100.894993 230.081518,100.894993 L236.053546,97.9161028 C236.053546,97.9161028 233.979181,95.1491204 227.417263,93.2151556 C227.417263,93.2151556 223.548851,89.0744249 222.200879,88.3023004 C220.852907,87.5301759 218.91992,85.8982409 218.91992,85.8982409 Z" id="Path" fill="#FFFB93" opacity="0.913490513"></path>
                                    <path d="M3.80747253,156.816779 C3.80747253,156.816779 -10.2475125,165.290663 15.6613387,178.336401 C15.6613387,178.336401 21.3701099,167.745873 15.0592607,159.111231 C12.5231136,155.627798 7.78069666,154.589836 4.01954046,156.694993 L3.80747253,156.816779 Z" id="Path" fill="#B8E986"></path>
                                    <path d="M3.96835165,156.636536 C3.96835165,156.636536 15.9977223,165.831394 15.6686513,178.333965" id="Path" stroke="#535461" stroke-width="0.5"></path>
                                    <path d="M16.3414186,178.489851 C16.3414186,178.489851 11.9367433,163.536942 17.1604396,152.549391 C19.3839916,147.950436 20.0545682,142.754823 19.0714885,137.742625 C18.5857286,135.367074 17.8832128,133.040982 16.9727473,130.793505" id="Path" stroke="#535461" stroke-width="0.5"></path>
                                    <path d="M20.2342058,123.834641 C20.2342058,125.666306 16.9166833,130.976184 16.9166833,130.976184 C16.9166833,130.976184 13.5991608,125.666306 13.5991608,123.834641 C13.5991608,122.003134 15.0850119,120.518403 16.9179021,120.518403 C18.7507923,120.518403 20.2366434,122.003134 20.2366434,123.834641 L20.2342058,123.834641 Z" id="Path" fill="#FFA644"></path>
                                    <path d="M25.7187213,133.986739 C24.7217582,135.523681 19.0495504,138.17862 19.0495504,138.17862 C19.0495504,138.17862 19.1519281,131.918809 20.1488911,130.384303 C20.7933254,129.390099 21.9196091,128.814959 23.103482,128.875533 C24.2873549,128.936106 25.3489585,129.623191 25.8883971,130.677969 C26.4278357,131.732746 26.3631556,132.994971 25.7187213,133.989175 L25.7187213,133.986739 Z" id="Path" fill="#FFA644"></path>
                                    <path d="M25.4798402,151.31935 C23.8442358,152.145061 17.6040759,151.562923 17.6040759,151.562923 C17.6040759,151.562923 20.8557842,146.20433 22.4913886,145.385927 C24.1277294,144.561311 26.1232333,145.218344 26.9484714,146.853451 C27.7737094,148.488557 27.1161809,150.482556 25.4798402,151.307172 L25.4798402,151.31935 Z" id="Path" fill="#FFA644"></path>
                                    <path d="M22.3426973,164.394317 C20.8801598,165.483085 14.6229371,165.975101 14.6229371,165.975101 C14.6229371,165.975101 16.9215584,160.151286 18.3962837,159.062517 C19.3494369,158.35809 20.6062779,158.21529 21.6933668,158.687909 C22.7804557,159.160527 23.5326378,160.176762 23.6665735,161.353808 C23.8005093,162.530854 23.2958505,163.689889 22.3426973,164.394317 Z" id="Path" fill="#FFA644"></path>
                                    <path d="M12.082997,138.534235 C13.3968432,139.810555 19.5224376,141.133153 19.5224376,141.133153 C19.5224376,141.133153 18.0233367,135.043843 16.7070529,133.777267 C15.8566609,132.950576 14.6294993,132.640019 13.4878281,132.96258 C12.3461568,133.28514 11.4634229,134.191813 11.1721437,135.341064 C10.8808645,136.490315 11.2252922,137.707545 12.0756843,138.534235 L12.082997,138.534235 Z" id="Path" fill="#FFA644"></path>
                                    <path d="M8.60703297,153.871989 C10.2426374,154.6977 16.4827972,154.115562 16.4827972,154.115562 C16.4827972,154.115562 13.2310889,148.756969 11.5954845,147.938566 C9.9591437,147.11395 7.96363971,147.770983 7.1384016,149.406089 C6.31316349,151.041196 6.97069215,153.035195 8.60703297,153.859811 L8.60703297,153.871989 Z" id="Path" fill="#FFA644"></path>
                                    <path d="M7.27856144,169.241407 C8.7410989,170.330176 14.9983217,170.822192 14.9983217,170.822192 C14.9983217,170.822192 12.6997003,164.998376 11.224975,163.909608 C9.75152786,162.820657 7.67362816,163.131453 6.58385614,164.603789 C5.49408412,166.076125 5.80511428,168.152457 7.27856144,169.241407 Z" id="Path" fill="#FFA644"></path>
                                    <path d="M20.2342058,123.834641 C20.2342058,125.666306 16.9166833,130.976184 16.9166833,130.976184 C16.9166833,130.976184 13.5991608,125.666306 13.5991608,123.834641 C13.5991608,122.003134 15.0850119,120.518403 16.9179021,120.518403 C18.7507923,120.518403 20.2366434,122.003134 20.2366434,123.834641 L20.2342058,123.834641 Z" id="Path" fill="#6BA431"></path>
                                    <path d="M25.7187213,133.986739 C24.7217582,135.523681 19.0495504,138.17862 19.0495504,138.17862 C19.0495504,138.17862 19.1519281,131.918809 20.1488911,130.384303 C20.7933254,129.390099 21.9196091,128.814959 23.103482,128.875533 C24.2873549,128.936106 25.3489585,129.623191 25.8883971,130.677969 C26.4278357,131.732746 26.3631556,132.994971 25.7187213,133.989175 L25.7187213,133.986739 Z" id="Path" fill="#6BA431"></path>
                                    <path d="M25.4798402,151.31935 C23.8442358,152.145061 17.6040759,151.562923 17.6040759,151.562923 C17.6040759,151.562923 20.8557842,146.20433 22.4913886,145.385927 C24.1277294,144.561311 26.1232333,145.218344 26.9484714,146.853451 C27.7737094,148.488557 27.1161809,150.482556 25.4798402,151.307172 L25.4798402,151.31935 Z" id="Path" fill="#6BA431"></path>
                                    <path d="M22.3426973,164.394317 C20.8801598,165.483085 14.6229371,165.975101 14.6229371,165.975101 C14.6229371,165.975101 16.9215584,160.151286 18.3962837,159.062517 C19.3494369,158.35809 20.6062779,158.21529 21.6933668,158.687909 C22.7804557,159.160527 23.5326378,160.176762 23.6665735,161.353808 C23.8005093,162.530854 23.2958505,163.689889 22.3426973,164.394317 Z" id="Path" fill="#6BA431"></path>
                                    <path d="M12.082997,138.534235 C13.3968432,139.810555 19.5224376,141.133153 19.5224376,141.133153 C19.5224376,141.133153 18.0233367,135.043843 16.7070529,133.777267 C15.8566609,132.950576 14.6294993,132.640019 13.4878281,132.96258 C12.3461568,133.28514 11.4634229,134.191813 11.1721437,135.341064 C10.8808645,136.490315 11.2252922,137.707545 12.0756843,138.534235 L12.082997,138.534235 Z" id="Path" fill="#6BA431"></path>
                                    <path d="M8.60703297,153.871989 C10.2426374,154.6977 16.4827972,154.115562 16.4827972,154.115562 C16.4827972,154.115562 13.2310889,148.756969 11.5954845,147.938566 C9.9591437,147.11395 7.96363971,147.770983 7.1384016,149.406089 C6.31316349,151.041196 6.97069215,153.035195 8.60703297,153.859811 L8.60703297,153.871989 Z" id="Path" fill="#6BA431"></path>
                                    <path d="M7.27856144,169.241407 C8.7410989,170.330176 14.9983217,170.822192 14.9983217,170.822192 C14.9983217,170.822192 12.6997003,164.998376 11.224975,163.909608 C9.75152786,162.820657 7.67362816,163.131453 6.58385614,164.603789 C5.49408412,166.076125 5.80511428,168.152457 7.27856144,169.241407 Z" id="Path" fill="#6BA431"></path>
                                    <path d="M26.5328671,178.774831 C26.5328671,178.774831 22.1281918,163.831664 27.3592008,152.834371 C29.5827528,148.235416 30.2533294,143.039803 29.2702498,138.027605 C28.7844898,135.652054 28.0819741,133.325961 27.1715085,131.078484" id="Path" stroke="#535461" stroke-width="0.5"></path>
                                    <path d="M30.4256543,124.126928 C30.4256543,125.958593 27.1081319,131.268471 27.1081319,131.268471 C27.1081319,131.268471 23.7906094,125.958593 23.7906094,124.126928 C23.7906094,122.295421 25.2764605,120.81069 27.1093506,120.81069 C28.9422408,120.81069 30.4280919,122.295421 30.4280919,124.126928 L30.4256543,124.126928 Z" id="Path" fill="#B8E986"></path>
                                    <path d="M35.9126074,134.269283 C34.9156444,135.806225 29.2434366,138.461164 29.2434366,138.461164 C29.2434366,138.461164 29.3458142,132.201353 30.3427772,130.666847 C31.3389864,129.129941 33.3934224,128.69101 34.9314885,129.686468 C36.4695546,130.681926 36.9088165,132.734812 35.9126074,134.271719 L35.9126074,134.269283 Z" id="Path" fill="#B8E986"></path>
                                    <path d="M35.6712887,151.601894 C34.0356843,152.427605 27.7955245,151.845467 27.7955245,151.845467 C27.7955245,151.845467 31.0472328,146.486874 32.6828372,145.668471 C33.7435412,145.135038 35.00847,145.207578 36.0011372,145.858765 C36.9938043,146.509953 37.5633999,147.640857 37.495363,148.825477 C37.427326,150.010097 36.7319928,151.068462 35.6712887,151.601894 Z" id="Path" fill="#B8E986"></path>
                                    <path d="M32.5341459,164.679296 C31.0716084,165.768065 24.8143856,166.260081 24.8143856,166.260081 C24.8143856,166.260081 27.113007,160.436265 28.5877323,159.347497 C29.5408855,158.643069 30.7977264,158.500269 31.8848154,158.972888 C32.9719043,159.445507 33.7240865,160.461742 33.8580222,161.638788 C33.9919579,162.815834 33.4872991,163.974869 32.5341459,164.679296 Z" id="Path" fill="#B8E986"></path>
                                    <path d="M22.2793207,138.816779 C23.5931668,140.093099 29.7187612,141.415697 29.7187612,141.415697 C29.7187612,141.415697 28.2196603,135.326387 26.9033766,134.059811 C26.0529846,133.23312 24.825823,132.922563 23.6841518,133.245124 C22.5424805,133.567684 21.6597466,134.474358 21.3684674,135.623608 C21.0771882,136.772859 21.421616,137.990089 22.272008,138.816779 L22.2793207,138.816779 Z" id="Path" fill="#B8E986"></path>
                                    <path d="M18.7984815,154.154533 C20.4340859,154.980244 26.6742458,154.398106 26.6742458,154.398106 C26.6742458,154.398106 23.4225375,149.039513 21.7869331,148.22111 C20.1505923,147.396494 18.1550883,148.053527 17.3298501,149.688633 C16.504612,151.32374 17.1621407,153.317739 18.7984815,154.142355 L18.7984815,154.154533 Z" id="Path" fill="#B8E986"></path>
                                    <path d="M17.47001,169.526387 C18.9325475,170.615156 25.1897702,171.107172 25.1897702,171.107172 C25.1897702,171.107172 22.8911489,165.283356 21.4164236,164.194587 C19.9429764,163.105637 17.8650767,163.416433 16.7753047,164.888769 C15.6855327,166.361104 15.9965628,168.437437 17.47001,169.526387 Z" id="Path" fill="#B8E986"></path>
                                    <rect id="Rectangle" fill="#E5E7F1" opacity="0.313941592" x="5.98177822" y="178.253586" width="232.2997" height="1.70500677"></rect>
                                    <rect id="Rectangle" fill="url(#linearGradient-3)" x="170.197922" y="83.0167794" width="49.2314486" height="60.4546685"></rect>
                                    <rect id="Rectangle" fill="#FFA241" x="170.970629" y="83.9667118" width="47.686034" height="58.5572395"></rect>
                                    <rect id="Rectangle" fill="#FFFFFF" x="174.173586" y="89.1060893" width="9.75024975" height="9.74289581"></rect>
                                    <rect id="Rectangle" fill="#FFFFFF" x="179.048711" y="104.694723" width="34.6133866" height="1.94857916"></rect>
                                    <rect id="Rectangle" fill="#FFFFFF" x="179.048711" y="108.835453" width="34.6133866" height="1.94857916"></rect>
                                    <rect id="Rectangle" fill="#FFFFFF" x="179.048711" y="112.976184" width="34.6133866" height="1.94857916"></rect>
                                    <rect id="Rectangle" fill="#FFFFFF" x="179.048711" y="117.116915" width="34.6133866" height="1.94857916"></rect>
                                    <rect id="Rectangle" fill="#FFFFFF" x="179.048711" y="121.257645" width="34.6133866" height="1.94857916"></rect>
                                    <rect id="Rectangle" fill="#FFFFFF" x="179.048711" y="125.398376" width="34.6133866" height="1.94857916"></rect>
                                    <rect id="Rectangle" fill="#FFFFFF" x="179.048711" y="129.539107" width="34.6133866" height="1.94857916"></rect>
                                    <path d="M233.286913,166.67659 C233.286913,166.67659 233.574545,170.905007 234.057183,171.38728 C234.53982,171.869553 229.728072,172.156969 229.728072,172.156969 L230.400839,166.67659 L233.286913,166.67659 Z" id="Path" fill="#FFB9B9"></path>
                                    <path d="M233.286913,166.67659 C233.286913,166.67659 233.574545,170.905007 234.057183,171.38728 C234.53982,171.869553 229.728072,172.156969 229.728072,172.156969 L230.400839,166.67659 L233.286913,166.67659 Z" id="Path" fill="#000000" opacity="0.05"></path>
                                    <path d="M234.347253,169.945332 C234.347253,169.945332 233.674486,169.945332 231.268611,171.194858 C231.268611,171.194858 229.633007,170.907442 228.96024,168.598376 C228.96024,168.598376 226.9395,172.05954 225.593966,172.251962 C224.248432,172.444384 221.64999,172.636806 223.380659,174.943437 C225.111329,177.250068 235.31009,176.192963 235.31009,176.192963 C235.31009,176.192963 235.595285,170.617591 234.347253,169.945332 Z" id="Path" fill="#E4E2F3"></path>
                                    <path d="M234.347253,169.945332 C234.347253,169.945332 233.674486,169.945332 231.268611,171.194858 C231.268611,171.194858 229.633007,170.907442 228.96024,168.598376 C228.96024,168.598376 226.9395,172.05954 225.593966,172.251962 C224.248432,172.444384 221.64999,172.636806 223.380659,174.943437 C225.111329,177.250068 235.31009,176.192963 235.31009,176.192963 C235.31009,176.192963 235.595285,170.617591 234.347253,169.945332 Z" id="Path" fill="#000000" opacity="0.05"></path>
                                    <path d="M232.901778,173.214073 L232.229011,175.040866 L227.804835,173.79134 L228.048591,171.979161 L228.10953,171.540731 L228.277722,170.322869 C228.277722,170.322869 232.029131,169.360758 232.029131,169.835724 C232.078848,170.232145 232.160363,170.623934 232.272887,171.007307 C232.426454,171.599188 232.619021,172.271448 232.7604,172.712314 C232.843277,173.021651 232.901778,173.214073 232.901778,173.214073 Z" id="Path" fill="#FFB9B9"></path>
                                    <path d="M230.486154,148.143166 C229.996366,148.969215 229.996366,149.996414 230.486154,150.822463 C230.675321,151.169606 230.907947,151.491271 231.178422,151.779702 C233.294226,154.086333 233.871928,159.276861 233.871928,159.276861 L233.871928,167.638701 L232.428891,167.748309 L230.120519,167.926116 L226.656743,153.699053 C226.656743,153.699053 224.636004,143.317997 225.598841,141.491204 C226.561678,139.664411 227.427013,128.226252 227.427013,128.226252 L228.226533,127.400541 L230.120519,125.439783 L235.605035,125.439783 C236.043867,125.753942 236.408329,126.160535 236.672687,126.630853 C237.594086,128.15318 238.42042,131.319621 235.895105,137.165359 C231.951129,146.296888 230.795724,147.738836 230.795724,147.738836 C230.677319,147.861271 230.573443,147.996944 230.486154,148.143166 Z" id="Path" fill="#4C4C78"></path>
                                    <path d="M230.517842,148.101759 C230.028055,148.927808 230.028055,149.955007 230.517842,150.781055 C230.70701,151.128198 230.939636,151.449864 231.21011,151.738295 C233.325914,154.044926 233.903616,159.235453 233.903616,159.235453 L233.903616,167.597294 L232.460579,167.706901 L230.152208,167.884709 L226.688432,153.657645 C226.688432,153.657645 224.667692,143.27659 225.630529,141.449797 C226.593367,139.623004 227.458701,128.184844 227.458701,128.184844 L228.258222,127.359134 L230.152208,125.398376 L235.636723,125.398376 C236.075555,125.712535 236.440017,126.119128 236.704376,126.589445 C237.625774,128.111773 238.452108,131.278214 235.926793,137.123951 C231.982817,146.25548 230.827413,147.697429 230.827413,147.697429 C230.709008,147.819863 230.605131,147.955537 230.517842,148.101759 Z" id="Path" fill="#F8E71C" opacity="0.860965402"></path>
                                    <path d="M232.282637,171.019486 L228.116843,171.540731 L228.285035,170.322869 C228.285035,170.322869 232.036444,169.360758 232.036444,169.835724 C232.086313,170.236319 232.168648,170.632206 232.282637,171.019486 Z" id="Path" fill="#000000" opacity="0.1"></path>
                                    <path d="M230.203397,135.820839 C230.203397,135.820839 230.447153,143.388633 230.481279,148.143166 C230.481279,149.219756 230.481279,150.150203 230.481279,150.822463 C230.486785,151.175639 230.46068,151.5286 230.403277,151.877131 C230.115644,152.741813 230.690909,154.663599 230.690909,154.663599 C232.134417,158.462496 232.725228,162.531858 232.421578,166.584032 L232.421578,170.812449 L227.804835,171.389716 C227.804835,171.389716 228.575105,170.812449 226.456863,165.237077 C225.466445,162.536208 224.963819,159.681069 224.972388,156.804601 C224.96123,155.659555 224.732085,154.527093 224.297183,153.467659 C224.164902,153.11048 224.082867,152.736684 224.053427,152.356969 C223.860859,150.435183 222.995524,148.031123 222.995524,148.031123 C222.995524,148.031123 220.687153,141.211096 220.109451,136.208119 C219.842663,133.828677 219.887732,131.424621 220.243516,129.056834 C220.328373,128.455396 220.443901,127.858679 220.58965,127.269012 C220.58965,127.269012 229.993766,121.355074 233.545295,125.442219 C233.887309,125.842378 234.158517,126.297894 234.347253,126.789175 C234.54219,127.274197 234.693908,127.775465 234.800639,128.287145 C235.904855,133.706631 230.203397,135.820839 230.203397,135.820839 Z" id="Path" fill="#F8E71C"></path>
                                    <ellipse id="Oval" fill="#FFB9B9" cx="229.918202" cy="88.8162382" rx="4.90681319" ry="4.90311231"></ellipse>
                                    <path d="M227.224695,91.8901218 C227.224695,91.8901218 229.245435,97.5604871 227.224695,100.541813 C225.203956,103.523139 233.66961,102.561028 233.66961,102.561028 L236.940819,98.6200271 C236.940819,98.6200271 233.091908,98.6200271 232.899341,91.8901218 C232.706773,85.1602165 227.224695,91.8901218 227.224695,91.8901218 Z" id="Path" fill="#FFB9B9"></path>
                                    <path d="M236.940819,127.746414 C236.243652,127.987242 235.526703,128.166548 234.798202,128.282273 C233.601359,128.467388 232.187572,128.474696 231.361239,127.746414 C230.873726,127.315291 229.654945,127.259269 228.214346,127.400541 C225.16008,127.692828 221.028412,128.830311 220.238641,129.054398 C220.323498,128.45296 220.439026,127.856243 220.584775,127.266576 C220.584775,127.266576 229.988891,121.352639 233.54042,125.439783 L235.592847,125.439783 C236.031679,125.753942 236.396141,126.160535 236.6605,126.630853 C236.838442,127.39567 236.940819,127.746414 236.940819,127.746414 Z" id="Path" fill="#000000" opacity="0.1"></path>
                                    <path d="M232.901778,173.214073 L232.229011,175.040866 L227.804835,173.79134 L228.048591,171.979161 C228.809111,173.659811 230.105894,173.888769 230.105894,173.888769 C230.950715,173.42174 231.836871,173.033626 232.753087,172.729364 C232.843277,173.021651 232.901778,173.214073 232.901778,173.214073 Z" id="Path" fill="#000000" opacity="0.1"></path>
                                    <path d="M233.189411,172.734235 C233.189411,172.734235 232.516643,172.734235 230.110769,173.983762 C230.110769,173.983762 228.475165,173.696346 227.802398,171.38728 C227.802398,171.38728 225.781658,174.848444 224.436124,175.040866 C223.090589,175.233288 220.492148,175.42571 222.222817,177.732341 C223.953487,180.038972 234.152248,178.981867 234.152248,178.981867 C234.152248,178.981867 234.43988,173.406495 233.189411,172.734235 Z" id="Path" fill="#E4E2F3"></path>
                                    <path d="M210.366513,89.7539919 C210.366513,89.7539919 210.554206,86.0102842 214.490869,86.3756428 C214.711791,86.3980426 214.907421,86.52793 215.013685,86.722762 C215.119949,86.9175941 215.123156,87.1522728 215.022258,87.3499323 L214.215425,88.8673884 L210.366513,89.7539919 Z" id="Path" fill="#FFB9B9"></path>
                                    <path d="M233.094346,99.7721245 C233.094346,99.7721245 228.3801,99.0024357 227.12963,98.0427605 C227.12963,98.0427605 226.166793,99.8695535 224.436124,98.9074425 C222.705455,97.9453315 218.663976,98.0427605 218.663976,98.0427605 C216.520372,96.7306447 215.047377,94.5583279 214.622498,92.082544 C214.622498,92.082544 213.94973,89.5834912 214.134985,88.9161028 C214.134985,88.9161028 211.634046,86.3196211 210.383576,89.7807848 C210.871089,92.1848444 211.248911,91.9924222 211.153846,93.9215156 L212.691948,98.1499323 C212.691948,98.1499323 212.787013,99.5918809 215.578022,101.513667 C218.369031,103.435453 221.542737,106.416779 221.542737,106.416779 C221.542737,106.416779 219.858382,107.330176 220.484835,111.512314 C221.25023,116.627334 220.0997,123.912585 220.0997,123.912585 L220.0997,128.623275 C220.0997,128.623275 229.720759,125.836806 231.353926,127.276319 C232.987093,128.715832 236.933506,127.276319 236.933506,127.276319 C236.933506,127.276319 236.445994,125.641949 235.778102,121.700947 C235.11021,117.759946 235.873167,113.906631 235.873167,113.906631 C235.873167,113.906631 238.374106,107.274154 239.52951,104.582679 C240.684915,101.891204 238.664176,98.249797 236.643437,96.8930988 C234.622697,95.5364005 233.871928,96.3548038 233.871928,96.3548038 C233.871928,96.3548038 237.423457,98.9074425 233.094346,99.7721245 Z" id="Path" fill="#FFFB93"></path>
                                    <path d="M220.733467,113.658187 C220.733467,113.658187 221.501299,113.473072 225.347772,112.895805 C229.194246,112.318539 235.929231,113.665494 235.929231,113.665494" id="Path" fill="#000000" opacity="0.05"></path>
                                    <path d="M224.058302,85.6400541 C226.252108,85.6863329 227.875524,88.3899865 226.902937,90.3410014 C226.476364,91.1983762 225.65003,91.9534506 225.735345,92.9058187 C225.774346,93.3393775 226.005914,93.7315291 226.105854,94.1553451 C226.566553,96.1039242 224.233806,97.9282815 224.767632,99.8525034 C224.949863,100.368496 225.233275,100.842978 225.601279,101.248173 L229.652507,106.348579 C229.898515,106.629275 230.10217,106.944375 230.257023,107.283897 C230.411427,107.767287 230.471018,108.275911 230.432527,108.781867 C230.413027,111.217591 230.571469,113.831123 232.00963,115.806495 C233.737862,118.17889 237.26014,119.031394 239.880519,117.708796 C239.251628,116.756428 238.595924,115.640866 238.905495,114.542355 C239.263816,113.2977 240.682478,112.722869 241.501499,111.71935 C242.491149,110.501488 242.515524,108.772124 242.232767,107.235183 C241.95001,105.698241 241.382058,104.195399 241.36987,102.631664 C241.35037,100.091204 242.652028,97.1391069 240.938422,95.2635995 C240.545974,94.834912 240.024336,94.5182679 239.731828,94.0165088 C239.511407,93.581073 239.407291,93.0961241 239.42957,92.6086604 C239.402757,89.64682 240.974985,86.6338295 240.031648,83.8254398 C239.851827,83.2005494 239.472651,82.6514577 238.951808,82.261705 C237.616024,81.3629229 235.763477,82.234912 234.218062,81.7745602 C233.486793,81.5626522 232.884715,81.070636 232.170509,80.8294993 C230.244835,80.179161 228.462977,81.4847091 227.132068,82.7366712 C226.57872,83.2197964 225.991384,83.6626121 225.374585,84.061705 C225.46965,84.0105548 223.205155,85.6230041 224.058302,85.6400541 Z" id="Path" fill="#000000" opacity="0.1"></path>
                                    <path d="M224.302058,85.6400541 C226.495864,85.6863329 228.119281,88.3899865 227.146693,90.3410014 C226.72012,91.1983762 225.893786,91.9534506 225.979101,92.9058187 C226.018102,93.3393775 226.24967,93.7315291 226.34961,94.1553451 C226.81031,96.1039242 224.477562,97.9282815 225.011389,99.8525034 C225.193619,100.368496 225.477032,100.842978 225.845035,101.248173 L229.896264,106.348579 C230.142271,106.629275 230.345926,106.944375 230.500779,107.283897 C230.655183,107.767287 230.714774,108.275911 230.676284,108.781867 C230.656783,111.217591 230.815225,113.831123 232.253387,115.806495 C233.981618,118.17889 237.503896,119.031394 240.124276,117.708796 C239.495385,116.756428 238.83968,115.640866 239.149251,114.542355 C239.507572,113.2977 240.926234,112.722869 241.745255,111.71935 C242.734905,110.501488 242.759281,108.772124 242.476523,107.235183 C242.193766,105.698241 241.625814,104.195399 241.613626,102.631664 C241.594126,100.091204 242.895784,97.1391069 241.182178,95.2635995 C240.78973,94.834912 240.268092,94.5182679 239.975584,94.0165088 C239.755163,93.581073 239.651047,93.0961241 239.673327,92.6086604 C239.646513,89.64682 241.218741,86.6338295 240.275405,83.8254398 C240.095583,83.2005494 239.716407,82.6514577 239.195564,82.261705 C237.85978,81.3629229 236.007233,82.234912 234.461818,81.7745602 C233.730549,81.5626522 233.128472,81.070636 232.414266,80.8294993 C230.488591,80.179161 228.706733,81.4847091 227.375824,82.7366712 C226.822477,83.2197964 226.23514,83.6626121 225.618342,84.061705 C225.713407,84.0105548 223.448911,85.6230041 224.302058,85.6400541 Z" id="Path" fill="#D0021B"></path>
                                    <path d="M133.602797,172.02544 L133.073846,173.613532 L134.794765,175.333153 L140.488911,176.655751 L144.593766,176.258728 L144.328072,174.797294 C144.167489,174.160064 143.664319,173.665732 143.023976,173.516103 C141.337183,173.11908 138.1196,172.217862 137.441958,170.961028 L133.602797,172.02544 Z" id="Path" fill="#DB8B8B"></path>
                                    <path d="M133.602797,172.02544 L133.073846,173.613532 L134.794765,175.333153 L140.488911,176.655751 L144.593766,176.258728 L144.328072,174.797294 C144.167489,174.160064 143.664319,173.665732 143.023976,173.516103 C141.337183,173.11908 138.1196,172.217862 137.441958,170.961028 L133.602797,172.02544 Z" id="Path" fill="#FFD2C6" opacity="0.725093006"></path>
                                    <path d="M143.27017,175.864141 L142.475524,174.804601 L143.27017,173.586739 C143.27017,173.586739 145.654106,174.54885 146.712008,174.414885 C147.76991,174.28092 148.301299,176.134506 146.314685,176.665494 C144.328072,177.196482 133.071409,176.665494 133.071409,176.665494 C133.071409,176.665494 131.084795,175.739919 133.071409,173.226252 L134.792328,174.54885 C134.792328,174.54885 137.717403,176.136942 139.162877,175.871448 L143.27017,175.864141 Z" id="Path" fill="#474463"></path>
                                    <path d="M146.838761,178.112314 L142.733906,178.509337 L137.044635,177.176996 L135.323716,175.471989 L135.465095,175.050609 L135.662537,174.461164 L135.855105,173.883897 L139.694266,172.824357 C139.888878,173.141368 140.155208,173.408332 140.471848,173.603789 C141.71988,174.456292 143.96,175.065223 145.273846,175.379432 C145.329239,175.392285 145.383783,175.408554 145.437163,175.428146 C146.0028,175.617816 146.432775,176.082353 146.577942,176.660622 L146.838761,178.112314 Z" id="Path" fill="#FFD2C6"></path>
                                    <path d="M146.838761,178.112314 L142.733906,178.509337 L137.044635,177.176996 L135.323716,175.471989 L135.465095,175.050609 L137.047073,176.268471 C137.047073,176.268471 139.972148,177.856563 141.417622,177.591069 L145.522478,177.591069 L144.727832,176.531529 L145.442038,175.430582 C146.007675,175.620251 146.43765,176.084788 146.582817,176.663058 L146.838761,178.112314 Z" id="Path" fill="#000000" opacity="0.1"></path>
                                    <path d="M145.52004,177.715291 L144.725395,176.655751 L145.52004,175.437889 C145.52004,175.437889 147.903976,176.4 148.961878,176.266035 C150.01978,176.13207 150.551169,177.985656 148.564555,178.516644 C146.577942,179.047632 135.321279,178.516644 135.321279,178.516644 C135.321279,178.516644 133.334665,177.591069 135.321279,175.077402 L137.042198,176.4 C137.042198,176.4 139.967273,177.988092 141.412747,177.722598 L145.52004,177.715291 Z" id="Path" fill="#474463"></path>
                                    <path d="M142.207393,100.968065 C142.207393,100.968065 135.85023,101.630582 136.778941,98.9829499 C137.0376,98.2327072 137.104631,97.429788 136.973946,96.6470907 C136.809014,95.6762347 136.4247,94.755743 135.85023,93.9556157 L141.81007,94.8811908 C141.453275,95.4778566 141.181703,96.1214319 141.003237,96.7932341 C140.293906,99.6016238 142.207393,100.968065 142.207393,100.968065 Z" id="Path" fill="#DB8B8B"></path>
                                    <path d="M131.35049,131.141813 C131.35049,131.141813 131.482118,136.831664 132.813027,139.610825 L133.078721,147.682815 C133.078721,147.682815 132.681399,155.092287 131.886753,156.54885 C131.092108,158.005413 133.607672,170.31069 133.607672,170.31069 L133.607672,172.427334 C133.607672,172.427334 137.839281,174.010555 139.038561,172.159405 L137.846593,156.412449 L138.375544,134.57862 L131.35049,131.141813 Z" id="Path" fill="#474463"></path>
                                    <path d="M131.35049,131.141813 C131.35049,131.141813 131.482118,136.831664 132.813027,139.610825 L133.078721,147.682815 C133.078721,147.682815 132.681399,155.092287 131.886753,156.54885 C131.092108,158.005413 133.607672,170.31069 133.607672,170.31069 L133.607672,172.427334 C133.607672,172.427334 137.839281,174.010555 139.038561,172.159405 L137.846593,156.412449 L138.375544,134.57862 L131.35049,131.141813 Z" id="Path" fill="#870FA0"></path>
                                    <path d="M128.703297,112.873884 L127.908651,114.990528 L127.245634,119.48931 C127.064372,120.760748 127.508238,122.041453 128.437602,122.928552 C130.026893,124.516644 132.145135,127.824357 132.145135,127.824357 L134.660699,120.273613 C134.660699,120.273613 132.145135,119.87659 132.542458,118.156969 C132.93978,116.437348 132.808152,113.261164 132.808152,113.261164 L128.703297,112.873884 Z" id="Path" fill="#CBCDDA"></path>
                                    <path d="M128.703297,112.630311 L127.908651,114.746955 L127.245634,119.245737 C127.064372,120.517175 127.508238,121.797881 128.437602,122.68498 C130.026893,124.273072 132.145135,127.580785 132.145135,127.580785 L134.660699,120.030041 C134.660699,120.030041 132.145135,119.633018 132.542458,117.913396 C132.93978,116.193775 132.808152,113.017591 132.808152,113.017591 L128.703297,112.630311 Z" id="Path" fill="#47CBAE"></path>
                                    <path d="M140.471848,173.598917 C138.765554,176.278214 136.130549,174.755886 135.6601,174.453857 L135.852667,173.87659 L139.691828,172.81705 C139.886831,173.135226 140.154042,173.40307 140.471848,173.598917 Z" id="Path" fill="#000000" opacity="0.1"></path>
                                    <path d="M145.785734,136.298241 C145.654106,138.151827 143.401798,144.898782 143.401798,144.898782 L141.814945,150.452233 C140.676647,154.379222 140.089279,158.445071 140.06965,162.533424 C140.06965,163.887686 139.945335,165.285792 139.562637,166.335589 C138.502298,169.258457 140.622977,173.216509 140.622977,173.216509 C138.767992,176.524222 135.591848,174.276049 135.591848,174.276049 L135.591848,172.159405 C135.591848,172.159405 133.076284,160.648173 133.736863,158.397564 C134.397443,156.146955 134.663137,150.060081 134.663137,150.060081 L134.663137,139.077402 C132.541603,136.965003 131.251555,134.160335 131.028731,131.175913 C130.997043,130.742355 130.972667,130.286874 130.955604,129.814344 C130.848352,126.828146 132.891029,123.328011 133.688112,122.08092 C133.880679,121.77889 134.00012,121.610825 134.00012,121.610825 L145.70042,126.238701 L145.727233,126.238701 L145.727233,126.691746 L145.727233,127.692828 L145.785734,136.298241 Z" id="Path" fill="#BD10E0"></path>
                                    <path d="M141.812507,94.8811908 C141.455713,95.4778566 141.184141,96.1214319 141.005674,96.7932341 C139.6979,97.2900117 138.244673,97.2373027 136.976384,96.6470907 C136.811452,95.6762347 136.427138,94.755743 135.852667,93.9556157 L141.812507,94.8811908 Z" id="Path" fill="#000000" opacity="0.1"></path>
                                    <ellipse id="Oval" fill="#FFD2C6" cx="139.162877" cy="91.7050068" rx="5.16519481" ry="5.16129905"></ellipse>
                                    <path d="M145.785734,127.6977 L145.72967,127.6977 C140.176903,128.837618 133.205475,123.05521 133.205475,123.05521 C133.39357,122.743875 133.556588,122.418084 133.692987,122.08092 C133.885554,121.77889 134.004995,121.610825 134.004995,121.610825 L145.705295,126.238701 L145.734545,126.701488 L145.785734,127.6977 Z" id="Path" fill="#000000" opacity="0.1"></path>
                                    <path d="M144.328072,100.8341 C144.328072,100.8341 136.913007,96.335318 134.529071,98.1864682 L131.218861,102.419756 C131.218861,102.419756 129.100619,103.082273 129.497942,107.315562 L127.908651,114.990528 L132.676523,116.181597 C132.676523,116.181597 135.457782,118.829229 133.205475,122.665494 C133.205475,122.665494 140.223217,128.486874 145.785734,127.293369 L145.376224,121.079838 C145.376224,121.079838 144.184256,117.640595 146.302498,114.464411 C148.420739,111.288227 146.434126,108.246008 144.447512,107.054939 C144.462138,107.054939 143.533427,102.025169 144.328072,100.8341 Z" id="Path" fill="#50E3C2"></path>
                                    <path d="M144.725395,127.829229 C144.725395,127.829229 147.506653,128.357781 148.83025,130.476861 C149.212606,131.113043 149.679142,131.694748 150.217223,132.206225 C150.461893,132.429212 150.587027,132.754419 150.554884,133.083759 C150.52274,133.413099 150.337082,133.708019 150.053906,133.879567 C149.003317,134.510419 147.28971,134.900135 145.125155,133.122057 C141.415185,130.079838 144.725395,127.829229 144.725395,127.829229 Z" id="Path" fill="#FFD2C6"></path>
                                    <path d="M140.620539,103.350203 C140.620539,103.350203 137.970909,103.084709 137.31033,109.965629 C136.64975,116.846549 135.589411,118.434641 135.589411,118.434641 C135.589411,118.434641 134.926394,122.007848 136.515684,124.124493 C138.104975,126.241137 141.147053,130.739919 141.147053,130.739919 C141.147053,130.739919 144.457263,131.665494 145.12028,128.357781 L141.015425,120.682815 C141.015425,120.682815 140.352408,118.035183 141.941698,116.184032 C143.530989,114.332882 144.725395,102.025169 140.620539,103.350203 Z" id="Path" fill="#000000" opacity="0.1"></path>
                                    <path d="M140.886234,102.95318 C140.886234,102.95318 138.236603,102.687686 137.576024,109.568606 C136.915445,116.449526 135.855105,118.037618 135.855105,118.037618 C135.855105,118.037618 135.192088,121.610825 136.781379,123.72747 C138.370669,125.844114 141.412747,130.342896 141.412747,130.342896 C141.412747,130.342896 144.722957,131.268471 145.385974,127.960758 L141.281119,120.285792 C141.281119,120.285792 140.620539,117.640595 142.207393,115.796752 C143.794246,113.952909 144.991089,101.628146 140.886234,102.95318 Z" id="Path" fill="#50E3C2"></path>
                                    <path d="M143.07029,107.91475 C143.07029,107.91475 143.335984,112.016509 142.144016,114.267118 C140.952048,116.517727 140.952048,119.428417 142.144016,121.016509" id="Path" fill="#000000" opacity="0.1"></path>
                                    <path d="M143.733307,102.887415 C143.733307,102.887415 142.672967,101.827876 139.628452,101.696346 C136.583936,101.564817 135.257902,100.636806 135.257902,100.636806" id="Path" fill="#000000" opacity="0.1"></path>
                                    <path d="M136.357243,85.0359946 C135.552847,85.1358593 134.633886,85.4110961 134.343816,86.1661705 C134.266648,86.4531988 134.205614,86.7443169 134.160999,87.0381597 C133.861179,88.1951286 132.55952,88.7431664 131.755125,89.6151556 C131.045794,90.3945873 130.733786,91.4492558 130.502218,92.479567 C129.842931,95.4289369 129.685538,98.4682083 130.036643,101.469824 C130.295025,103.661976 130.823976,105.824899 130.97023,108.029229 C131.116484,110.233559 130.848352,112.552368 129.641758,114.403518 C129.122557,115.2 128.44004,115.899053 128.071968,116.775913 C128.832488,117.392152 129.878202,117.479838 130.858102,117.506631 C131.995631,117.545602 133.13316,117.545602 134.270689,117.506631 C134.867892,117.487145 135.489471,117.448173 136.008671,117.146143 C136.389888,116.903365 136.703488,116.568216 136.92032,116.171854 C137.571149,115.066035 137.736903,113.73613 137.707652,112.457375 C137.678402,111.17862 137.476084,109.9023 137.463896,108.618674 C137.451708,107.919621 137.505335,107.179161 137.907532,106.606766 C138.197602,106.192693 138.638801,105.91502 139.016623,105.581326 C140.435285,104.326928 140.92036,102.312585 140.966673,100.420027 C141.012987,98.5274696 140.700979,96.6324763 140.861858,94.747226 C140.925235,94.0165088 141.200679,93.1225981 141.927073,92.9788904 C142.159904,92.9693845 142.3915,92.9400495 142.619341,92.8912043 C143.201918,92.6671177 143.145854,91.8462788 143.311608,91.2446549 C143.499301,90.5699594 144.074565,90.0487145 144.237882,89.3667118 C144.618142,87.7664411 142.58034,85.8543978 141.244555,85.2966171 C139.872208,84.7242219 137.80028,84.8630582 136.357243,85.0359946 Z" id="Path" fill="#000000" opacity="0.1"></path>
                                    <path d="M136.235365,84.7705007 C135.430969,84.8703654 134.512008,85.1456022 134.221938,85.9006766 C134.14477,86.1877049 134.083736,86.4788229 134.039121,86.7726658 C133.739301,87.9296346 132.437642,88.4776725 131.633247,89.3496617 C130.923916,90.1290934 130.611908,91.1837618 130.38034,92.2140731 C129.721053,95.163443 129.56366,98.2027144 129.914765,101.20433 C130.173147,103.396482 130.702098,105.559405 130.848352,107.763735 C130.994605,109.968065 130.726474,112.286874 129.51988,114.138024 C129.000679,114.934506 128.318162,115.633559 127.95009,116.510419 C128.710609,117.126658 129.756324,117.214344 130.736224,117.241137 C131.873753,117.280108 133.011282,117.280108 134.148811,117.241137 C134.746014,117.221651 135.367592,117.182679 135.886793,116.88065 C136.26801,116.637871 136.58161,116.302722 136.798442,115.90636 C137.449271,114.800541 137.615025,113.470636 137.585774,112.191881 C137.556523,110.913126 137.354206,109.636806 137.342018,108.35318 C137.32983,107.654127 137.383457,106.913667 137.785654,106.341272 C138.075724,105.927199 138.516923,105.649526 138.894745,105.315832 C140.313407,104.061434 140.798482,102.047091 140.844795,100.154533 C140.891109,98.2619756 140.579101,96.3669824 140.73998,94.4817321 C140.803357,93.7510149 141.078801,92.8571042 141.805195,92.7133965 C142.038026,92.7038906 142.269622,92.6745556 142.497463,92.6257104 C143.08004,92.4016238 143.023976,91.5807848 143.18973,90.979161 C143.377423,90.3044655 143.952687,89.7832206 144.116004,89.1012179 C144.496264,87.5009472 142.458462,85.5889039 141.122677,85.0311231 C139.740579,84.458728 137.668651,84.5951286 136.235365,84.7705007 Z" id="Path" fill="#4A90E2"></path>
                                </g>
                            </g>
                        </g>
                    </g>
                </g>
            </g>
        </g>
    </g>
</svg>