<?xml version="1.0" encoding="UTF-8"?>
<svg width="1440px" height="745px" viewBox="0 0 1440 745" version="1.1" xmlns="http://www.w3.org/2000/svg" xmlns:xlink="http://www.w3.org/1999/xlink">
    <!-- Generator: Sketch 52.5 (67469) - http://www.bohemiancoding.com/sketch -->
    <title>wave_details</title>
    <desc>Created with Sketch.</desc>
    <defs>
        <linearGradient x1="13.8191728%" y1="0%" x2="13.8191728%" y2="100%" id="linearGradient-1">
            <stop stop-color="#EEF2F4" offset="0%"></stop>
            <stop stop-color="#EEF2F4" stop-opacity="0" offset="100%"></stop>
        </linearGradient>
    </defs>
    <g id="•-Homepage" stroke="none" stroke-width="1" fill="none" fill-rule="evenodd">
        <g id="homepage_template-01" transform="translate(0.000000, -743.000000)" fill="url(#linearGradient-1)">
            <g id="basic-details" transform="translate(0.000000, 688.000000)">
                <g id="Group-6">
                    <g id="Group-4">
                        <path d="M102.893924,800 L-8.52651283e-14,800 L-8.52651283e-14,94.0411359 C37.0685495,94.7418124 74.3176109,94.4025817 111.100379,97.2494917 C169.067374,101.694016 226.131036,114.247893 280.620772,134.543595 C357.998428,163.443096 434.466042,215.228597 455.556168,299.771975 C479.062685,393.888759 414.762751,509.312994 322.902179,537.967918 C276.169391,552.513559 227.681813,546.634208 179.927648,552.246779 C132.173484,557.85935 79.0487265,580.491814 58.7135636,627.905866 C39.8644271,671.849622 55.9386919,721.074448 79.3287134,758.765695 C87.3732061,771.725152 96.46872,785.582896 102.893924,800 Z M1440,55.7871073 L1440,800 L1140.84691,800 C1082.33215,769.230561 1031.58616,723.030248 1015.01767,656.612646 C991.511156,562.495861 1055.81109,447.071627 1147.67166,418.416702 C1194.40445,403.871061 1242.89203,409.750412 1290.64619,404.137841 C1338.40036,398.52527 1391.52511,375.892807 1411.86028,328.478755 C1430.70941,284.534999 1414.63515,235.310172 1391.24513,197.618925 C1373.16768,168.496652 1349.78275,134.838182 1363.31963,100.489613 C1375.22393,70.279821 1409.11836,58.4119277 1440,55.7871073 Z" id="wave_details"></path>
                    </g>
                </g>
            </g>
        </g>
    </g>
</svg>