<?xml version="1.0" encoding="UTF-8"?>
<svg width="300px" height="76px" viewBox="0 0 300 76" version="1.1" xmlns="http://www.w3.org/2000/svg" xmlns:xlink="http://www.w3.org/1999/xlink">
    <!-- Generator: Sketch 52.5 (67469) - http://www.bohemiancoding.com/sketch -->
    <title>CS_LOGO_cmyk</title>
    <desc>Created with Sketch.</desc>
    <defs>
        <polygon id="path-1" points="0.387445036 0.214940568 45.3315687 0.214940568 45.3315687 36.1909516 0.387445036 36.1909516"></polygon>
    </defs>
    <g id="•-Homepage" stroke="none" stroke-width="1" fill="none" fill-rule="evenodd">
        <g id="homepage_template-01" transform="translate(-856.000000, -1694.000000)">
            <g id="basic-details" transform="translate(0.000000, 1488.000000)">
                <g id="Group-6">
                    <g id="Group-5" transform="translate(184.000000, 0.000000)">
                        <g id="Group-17" transform="translate(622.000000, 0.000000)">
                            <g id="Group-8" transform="translate(50.000000, 206.000000)">
                                <g id="CS_LOGO_cmyk">
                                    <path d="M75.0809389,30.9684289 C78.7603585,30.9684289 86.7252199,32.3373127 86.7252199,37.1553592 L86.7252199,40.9544755 L82.6995019,40.9544755 L82.6995019,38.5242429 C82.6995019,35.784708 78.0677619,34.7684289 75.2532223,34.7684289 C68.7168415,34.7684289 63.9119523,39.6730801 63.9119523,46.7437313 C63.9119523,54.1236848 68.8467034,59.3818243 75.5138118,59.3818243 C77.6781763,59.3818243 83.1323748,58.5864755 83.1323748,55.7143824 L83.1323748,53.2841499 L87.1580928,53.2841499 L87.1580928,57.0832661 C87.1580928,61.6794987 79.4962425,63.2260103 75.2532223,63.2260103 C66.0763168,63.2260103 59.4524957,56.022801 59.4524957,46.9195917 C59.4524957,37.7730801 66.249466,30.9684289 75.0809389,30.9684289" id="Fill-1" fill="#000000"></path>
                                    <path d="M103.086084,59.5134987 C107.199242,59.5134987 110.618938,56.1562429 110.618938,51.4716382 C110.618938,46.8321034 107.199242,43.5181499 103.086084,43.5181499 C98.9305042,43.5181499 95.5540956,46.8321034 95.5540956,51.4716382 C95.5540956,56.1562429 98.9305042,59.5134987 103.086084,59.5134987 Z M103.086084,39.806522 C109.623331,39.806522 114.90438,44.7102894 114.90438,51.4716382 C114.90438,58.2771731 109.623331,63.2260103 103.086084,63.2260103 C96.5497033,63.2260103 91.2677881,58.2771731 91.2677881,51.4716382 C91.2677881,44.7102894 96.5497033,39.806522 103.086084,39.806522 Z" id="Fill-2" fill="#000000"></path>
                                    <path d="M118.625355,59.3818243 L121.916055,59.3818243 L121.916055,44.622801 C121.916055,43.9600103 121.569757,43.6498243 120.963735,43.6498243 L118.236636,43.6498243 L118.236636,40.3358708 L123.171387,40.3358708 C125.076027,40.3358708 125.985061,41.1321034 125.985061,42.9428475 L125.985061,44.3576848 C125.985061,45.2414057 125.898486,45.9041964 125.898486,45.9041964 L125.985061,45.9041964 C126.980668,42.6344289 129.535484,40.0707545 132.911027,40.0707545 C133.474627,40.0707545 133.994075,40.1591266 133.994075,40.1591266 L133.994075,44.4018708 C133.994075,44.4018708 133.474627,44.2684289 132.782031,44.2684289 C128.106138,44.2684289 126.114922,49.0855917 126.114922,53.4608941 L126.114922,59.3818243 L129.361469,59.3818243 L129.361469,62.6957778 L118.625355,62.6957778 L118.625355,59.3818243" id="Fill-3" fill="#000000"></path>
                                    <path d="M152.650031,49.1739638 C152.519304,45.2414057 150.182656,43.2079638 147.411403,43.2079638 C144.208144,43.2079638 141.610906,45.4181499 141.004884,49.1739638 L152.650031,49.1739638 Z M147.498844,39.806522 C153.732213,39.806522 156.97876,44.4893592 156.97876,50.278615 C156.97876,50.8539173 156.848898,51.9134987 156.848898,51.9134987 L140.831735,51.9134987 C141.092325,56.8623359 144.512021,59.5134987 148.407877,59.5134987 C152.217158,59.5134987 154.944258,56.9957778 154.944258,56.9957778 L156.675749,60.1329871 C156.675749,60.1329871 153.385049,63.2260103 148.148153,63.2260103 C141.264608,63.2260103 136.546294,58.144615 136.546294,51.516708 C136.546294,44.4018708 141.264608,39.806522 147.498844,39.806522 Z" id="Fill-4" fill="#000000"></path>
                                    <path d="M165.071752,53.3274522 L165.071752,55.6251266 C165.071752,57.9236848 167.972866,59.2925685 171.176126,59.2925685 C174.683262,59.2925685 177.237212,57.6143824 177.237212,54.5204755 C177.237212,50.8972196 173.644367,49.7041964 169.877507,48.2018708 C165.851789,46.6553592 161.739496,44.8879173 161.739496,39.3646615 C161.739496,33.4870336 166.371236,30.9684289 171.52329,30.9684289 C176.110877,30.9684289 180.78677,32.7358708 180.78677,36.1381964 L180.78677,39.806522 L176.760186,39.806522 L176.760186,37.640522 C176.760186,35.8297778 174.033952,34.856801 171.52329,34.856801 C168.535601,34.856801 166.1548,36.2716382 166.1548,39.1437313 C166.1548,42.4576848 169.228198,43.5623359 172.647893,44.8879173 C177.150637,46.6111731 181.609228,48.378615 181.609228,54.1678708 C181.609228,60.1329871 176.847626,63.2260103 171.176126,63.2260103 C166.414524,63.2260103 161.090187,61.0600103 161.090187,56.5981034 L161.090187,53.3274522 L165.071752,53.3274522" id="Fill-5" fill="#000000"></path>
                                    <path d="M198.793417,59.5134987 C202.257266,59.5134987 205.113361,56.6414057 205.113361,51.5600103 C205.113361,46.6986615 202.559411,43.5623359 198.879991,43.5623359 C195.632579,43.5623359 192.602468,45.9041964 192.602468,51.6041964 C192.602468,55.5809406 194.723546,59.5134987 198.793417,59.5134987 Z M188.490176,68.2190336 L188.490176,44.622801 C188.490176,43.9600103 188.143878,43.6498243 187.537856,43.6498243 L184.854044,43.6498243 L184.854044,40.3358708 L189.703086,40.3358708 C191.651014,40.3358708 192.386032,41.2195917 192.386032,42.5451731 L192.386032,42.7219173 C192.386032,43.4288941 192.300323,44.0041964 192.300323,44.0041964 L192.386032,44.0041964 C192.386032,44.0041964 194.204964,39.806522 199.745737,39.806522 C205.632809,39.806522 209.356381,44.578615 209.356381,51.516708 C209.356381,58.6297778 205.156648,63.2260103 199.442726,63.2260103 C194.637837,63.2260103 192.645756,59.4260103 192.645756,59.4260103 L192.559181,59.4260103 C192.559181,59.4260103 192.689909,60.2213592 192.689909,61.3701964 L192.689909,68.2190336 L196.152892,68.2190336 L196.152892,71.5338708 L185.07048,71.5338708 L185.07048,68.2190336 L188.490176,68.2190336 Z" id="Fill-6" fill="#000000"></path>
                                    <path d="M213.336215,59.3818243 L216.626914,59.3818243 L216.626914,44.622801 C216.626914,43.9600103 216.280616,43.6498243 215.674594,43.6498243 L212.946629,43.6498243 L212.946629,40.3358708 L217.88138,40.3358708 C219.786887,40.3358708 220.69592,41.1321034 220.69592,42.9428475 L220.69592,44.3576848 C220.69592,45.2414057 220.609345,45.9041964 220.609345,45.9041964 L220.69592,45.9041964 C221.691527,42.6344289 224.245477,40.0707545 227.621886,40.0707545 C228.185487,40.0707545 228.704068,40.1591266 228.704068,40.1591266 L228.704068,44.4018708 C228.704068,44.4018708 228.185487,44.2684289 227.49289,44.2684289 C222.817863,44.2684289 220.825782,49.0855917 220.825782,53.4608941 L220.825782,59.3818243 L224.073194,59.3818243 L224.073194,62.6957778 L213.336215,62.6957778 L213.336215,59.3818243" id="Fill-7" fill="#000000"></path>
                                    <path d="M234.893285,35.8730801 L239.308589,35.8730801 L239.308589,31.4986615 L234.893285,31.4986615 L234.893285,35.8730801 Z M231.560164,59.3818243 L234.97986,59.3818243 L234.97986,43.6498243 L231.343727,43.6498243 L231.343727,40.3358708 L239.179593,40.3358708 L239.179593,59.3818243 L242.642576,59.3818243 L242.642576,62.6957778 L231.560164,62.6957778 L231.560164,59.3818243 Z" id="Fill-8" fill="#000000"></path>
                                    <path d="M246.104693,59.3818243 L249.524389,59.3818243 L249.524389,44.622801 C249.524389,43.9600103 249.178091,43.6498243 248.572069,43.6498243 L245.888257,43.6498243 L245.888257,40.3358708 L250.823008,40.3358708 C252.728514,40.3358708 253.59426,41.1754057 253.59426,42.8111731 L253.59426,43.9600103 C253.59426,44.6669871 253.464398,45.2414057 253.464398,45.2414057 L253.550973,45.2414057 C253.983846,44.0474987 256.538662,39.806522 262.079435,39.806522 C267.099895,39.806522 269.352565,42.678615 269.352565,48.378615 L269.352565,59.3818243 L272.815548,59.3818243 L272.815548,62.6957778 L265.151967,62.6957778 L265.151967,49.350708 C265.151967,46.2134987 264.54681,43.7390801 261.039674,43.7390801 C256.62437,43.7390801 253.723256,47.8483824 253.723256,52.3111731 L253.723256,59.3818243 L257.187971,59.3818243 L257.187971,62.6957778 L246.104693,62.6957778 L246.104693,59.3818243" id="Fill-9" fill="#000000"></path>
                                    <g id="Group-13" transform="translate(8.205505, 39.767442)">
                                        <path d="M283.914443,11.2623359 C283.914443,5.42977778 281.144922,3.75070801 277.724361,3.75070801 C273.958366,3.75070801 271.794002,6.57861499 271.794002,11.1297778 C271.794002,15.7693127 274.174803,18.9515917 278.11308,18.9515917 C281.144922,18.9515917 283.914443,17.0948941 283.914443,11.2623359 Z M276.902768,28.5841499 C280.712049,28.5841499 283.828734,26.816708 283.828734,22.2213592 L283.828734,20.4539173 C283.828734,19.7460568 283.958596,19.0399638 283.958596,19.0399638 L283.872887,19.0399638 C282.572537,21.2492661 280.495613,22.6632196 277.291488,22.6632196 C271.231267,22.6632196 267.507694,17.6701964 267.507694,11.2181499 C267.507694,4.81117313 271.014831,0.0390801034 277.119204,0.0390801034 C279.9753,0.0390801034 283.00541,1.14373127 284.217454,3.70652196 L284.30576,3.70652196 C284.30576,3.70652196 284.217454,3.39633592 284.217454,2.82280103 C284.217454,1.40796382 284.910916,0.568428941 286.728117,0.568428941 L291.40401,0.568428941 L291.40401,3.88238243 L288.979056,3.88238243 C288.418053,3.88238243 288.026736,4.19256848 288.026736,4.76698708 L288.026736,22.0004289 C288.026736,29.3803824 282.530115,32.2082894 276.988477,32.2082894 C274.347952,32.2082894 271.66414,31.4562429 269.499775,30.3515917 L270.884969,27.0818243 C270.884969,27.0818243 273.612068,28.5841499 276.902768,28.5841499 Z" id="Fill-10" fill="#000000"></path>
                                        <path d="M0.176645533,23.6079173 C0.176645533,23.6079173 0.430309053,25.6219173 2.60939124,27.066801 C4.89063142,28.5814987 8.63757925,29.9344755 16.2951009,29.8832196 C20.9242437,29.8540568 24.5344037,28.2174057 26.5005124,28.2421499 C27.9030206,28.2580568 28.5956172,29.3105685 28.541941,31.2671266 C28.4735471,33.7539173 26.0615793,34.5041964 24.8633871,34.8002429 C23.7491722,35.0768475 12.70139,38.1097778 4.06124694,32.1084289 C-0.475261055,28.9535452 0.176645533,23.6079173 0.176645533,23.6079173" id="Fill-12" fill="#444444"></path>
                                    </g>
                                    <path d="M4.70965716,38.5595917 C3.1660324,39.714615 1.83797834,41.3742429 1.53323581,43.2035452 C1.20684965,45.1689406 2.36781477,47.5523359 2.36781477,47.5523359 C2.36781477,47.5523359 1.85962198,45.0699638 5.18754884,42.5495917 C5.92603001,41.9893127 6.67922886,41.4882429 7.44281666,41.0269406 C6.39612998,40.2103824 5.49055987,39.3823359 4.70965716,38.5595917" id="Fill-14" fill="#444444"></path>
                                    <path d="M14.379172,38.0691266 C21.4505837,36.1196382 28.3739529,36.9865685 32.1970864,37.6829406 C41.6189979,39.4000103 42.2172283,42.3648941 42.2172283,42.3648941 C42.2172283,42.3648941 44.4673016,40.7706615 41.6839288,38.3254057 C40.4450466,37.2357778 36.1258408,34.5669406 27.3324607,33.8051731 C23.1578344,33.4419638 16.5244901,33.3739173 10.4963021,35.5319638 C11.6157114,36.3732661 12.9022097,37.2251731 14.379172,38.0691266" id="Fill-15" fill="#444444"></path>
                                    <path d="M2.08991036,22.6499638 C2.08991036,22.6499638 0.848430885,24.3855917 0.685670675,27.3204289 C0.551480076,29.7294522 1.51678664,38.0452661 14.0458599,44.0704755 C29.4197738,51.462801 39.6753986,48.9609871 42.1445056,47.5152196 C46.0308385,45.2396382 44.2742403,40.6725685 44.2742403,40.6725685 C44.2742403,40.6725685 44.431806,43.2539173 41.7445311,44.2171731 C36.9552253,45.9360103 27.2813817,44.7509406 19.8177871,41.6605685 C6.93029514,36.3237778 3.46904343,29.6561034 2.5669363,27.1339638 C1.61115294,24.4598243 2.08991036,22.6499638 2.08991036,22.6499638" id="Fill-16" fill="#444444"></path>
                                    <path d="M11.7221982,61.4930336 C10.9153231,61.1828475 10.145675,60.8541034 9.41411984,60.5094522 C9.29204969,60.8673592 9.20114638,61.2341034 9.1448729,61.608801 C8.8366674,63.6652196 10.4988993,65.0429406 10.4988993,65.0429406 C10.4988993,65.0429406 10.2781342,64.3306615 11.0321987,62.7222894 C11.2295888,62.2998708 11.4633402,61.8924755 11.7221982,61.4930336" id="Fill-17" fill="#444444"></path>
                                    <g id="Group-21" transform="translate(0.000000, 44.186047)" fill="#444444">
                                        <path d="M17.2950039,12.484522 C21.1830683,10.3883359 26.3671541,9.09810336 32.1243637,8.76847545 C42.3358354,8.18610336 42.1315194,10.9530336 42.1315194,10.9530336 C42.1315194,10.9530336 43.4058972,10.0958243 42.8068012,8.65270801 C41.7852211,6.18889406 35.3232944,5.17084755 25.7360254,6.81368475 C21.8254517,7.48177778 16.9184045,9.06275452 13.4433008,11.5044755 C14.6085947,11.8659173 15.8907642,12.1973127 17.2950039,12.484522" id="Fill-18"></path>
                                        <path d="M0.541091126,0.031126615 C0.541091126,0.031126615 -0.0640651893,5.2070801 5.96152559,9.06098708 C8.93709391,10.964522 14.3047179,13.3700103 22.686003,14.1255917 C30.0915926,14.7936848 34.4367707,14.8325685 37.4971822,14.2245685 C45.5209142,12.6294522 44.1305265,9.30312661 44.1305265,9.30312661 C44.1305265,9.30312661 46.4723689,13.4433592 42.5799758,16.3004289 C39.4823373,18.5733592 33.3831581,20.1905685 23.1941958,19.1141964 C10.8495264,17.8142429 3.25087548,12.5207545 1.02504303,8.36991731 C-0.953186127,4.68303359 0.541091126,0.031126615 0.541091126,0.031126615" id="Fill-20"></path>
                                    </g>
                                    <path d="M24.8789371,20.0226615 C30.7694715,20.9956382 36.1111231,23.2738708 39.7005052,25.4301499 C46.5935733,29.5712661 45.2672507,32.0995917 45.2672507,32.0995917 C45.2672507,32.0995917 46.247275,31.9148941 46.7182407,31.3219173 C47.3770732,30.4947545 47.4446014,29.5792196 47.1060948,28.4427545 C46.8169357,27.4741964 44.7824331,23.2553127 35.5856154,19.5498708 C31.8438621,18.0413592 26.7125867,16.5248941 21.1406467,16.1466615 C22.4756268,17.658708 23.7448101,18.950708 24.8789371,20.0226615" id="Fill-22" fill="#444444"></path>
                                    <g id="Group-26" transform="translate(2.597237, 0.000000)">
                                        <mask id="mask-2" fill="white">
                                            <use xlink:href="#path-1"></use>
                                        </mask>
                                        <g id="Clip-24"></g>
                                        <path d="M12.5983329,16.2155917 C11.53866,16.3172196 10.4763899,16.4701034 9.41585134,16.6839638 C4.53823949,17.6640103 1.09776568,19.8273592 0.502998311,22.3715917 C0.0796486137,24.1814522 0.955783365,26.3191731 0.955783365,26.3191731 C0.955783365,26.3191731 1.18607175,23.6494522 5.88187698,21.6248475 C8.80982928,20.3628941 11.8685092,19.742522 14.9124714,19.5825685 C14.069235,18.4390336 13.2987213,17.310522 12.5983329,16.2155917" id="Fill-23" fill="#444444" mask="url(#mask-2)"></path>
                                        <path d="M8.97951545,3.63935917 C8.38821107,2.54442894 7.12162496,0.0320103359 6.72424764,0.224661499 C6.25587916,0.452661499 7.25581556,3.38661499 7.73543874,4.71042894 C8.21419616,6.03512661 11.1568661,14.026615 17.9096834,22.0198708 C26.4052469,32.076615 36.9933181,36.6869871 41.298672,36.148801 C42.4847437,36.0003359 43.3955083,35.5089871 43.927942,34.9416382 C45.3849921,33.3862894 45.3313159,31.3837778 45.3313159,31.3837778 C45.3313159,31.3837778 44.4370005,33.6805685 41.5800394,33.0637313 C38.5940821,32.4168475 29.7920445,28.1281499 22.2029168,21.110522 C13.7324599,13.2789871 9.57168558,4.73428941 8.97951545,3.63935917" id="Fill-25" fill="#444444" mask="url(#mask-2)"></path>
                                    </g>
                                </g>
                            </g>
                        </g>
                    </g>
                </g>
            </g>
        </g>
    </g>
</svg>