<?xml version="1.0" encoding="UTF-8"?>
<svg width="622px" height="466px" viewBox="0 0 622 466" version="1.1" xmlns="http://www.w3.org/2000/svg" xmlns:xlink="http://www.w3.org/1999/xlink">
    <!-- Generator: Sketch 52.5 (67469) - http://www.bohemiancoding.com/sketch -->
    <title>graphic_corespring</title>
    <desc>Created with Sketch.</desc>
    <defs>
        <linearGradient x1="50.0160933%" y1="99.9819644%" x2="50.0160933%" y2="0.000900501915%" id="linearGradient-1">
            <stop stop-color="#808080" stop-opacity="0.25" offset="0%"></stop>
            <stop stop-color="#808080" stop-opacity="0.12" offset="54%"></stop>
            <stop stop-color="#808080" stop-opacity="0.1" offset="100%"></stop>
        </linearGradient>
        <linearGradient x1="50.0283536%" y1="99.9757635%" x2="50.0283536%" y2="-0.106057071%" id="linearGradient-2">
            <stop stop-color="#808080" stop-opacity="0.25" offset="0%"></stop>
            <stop stop-color="#808080" stop-opacity="0.12" offset="54%"></stop>
            <stop stop-color="#808080" stop-opacity="0.1" offset="100%"></stop>
        </linearGradient>
        <linearGradient x1="49.9265533%" y1="99.961291%" x2="49.9265533%" y2="-0.0777286366%" id="linearGradient-3">
            <stop stop-color="#808080" stop-opacity="0.25" offset="0%"></stop>
            <stop stop-color="#808080" stop-opacity="0.12" offset="54%"></stop>
            <stop stop-color="#808080" stop-opacity="0.1" offset="100%"></stop>
        </linearGradient>
        <linearGradient x1="50%" y1="99.9899134%" x2="50%" y2="0%" id="linearGradient-4">
            <stop stop-color="#808080" stop-opacity="0.25" offset="0%"></stop>
            <stop stop-color="#808080" stop-opacity="0.12" offset="54%"></stop>
            <stop stop-color="#808080" stop-opacity="0.1" offset="100%"></stop>
        </linearGradient>
        <linearGradient x1="49.9703264%" y1="100.03535%" x2="49.9703264%" y2="-1.33954094e-12%" id="linearGradient-5">
            <stop stop-color="#808080" stop-opacity="0.25" offset="0%"></stop>
            <stop stop-color="#808080" stop-opacity="0.12" offset="54%"></stop>
            <stop stop-color="#808080" stop-opacity="0.1" offset="100%"></stop>
        </linearGradient>
        <linearGradient x1="50.0206103%" y1="99.9786968%" x2="50.0206103%" y2="-0.045911383%" id="linearGradient-6">
            <stop stop-color="#808080" stop-opacity="0.25" offset="0%"></stop>
            <stop stop-color="#808080" stop-opacity="0.12" offset="54%"></stop>
            <stop stop-color="#808080" stop-opacity="0.1" offset="100%"></stop>
        </linearGradient>
        <linearGradient x1="50.0244375%" y1="78.3480592%" x2="50.0244375%" y2="21.3480592%" id="linearGradient-7">
            <stop stop-color="#808080" stop-opacity="0.25" offset="0%"></stop>
            <stop stop-color="#808080" stop-opacity="0.12" offset="54%"></stop>
            <stop stop-color="#808080" stop-opacity="0.1" offset="100%"></stop>
        </linearGradient>
        <linearGradient x1="50.000587%" y1="99.9273095%" x2="50.000587%" y2="0.101498152%" id="linearGradient-8">
            <stop stop-color="#808080" stop-opacity="0.25" offset="0%"></stop>
            <stop stop-color="#808080" stop-opacity="0.12" offset="54%"></stop>
            <stop stop-color="#808080" stop-opacity="0.1" offset="100%"></stop>
        </linearGradient>
        <linearGradient x1="49.9882812%" y1="99.7820184%" x2="49.9882812%" y2="0%" id="linearGradient-9">
            <stop stop-color="#808080" stop-opacity="0.25" offset="0%"></stop>
            <stop stop-color="#808080" stop-opacity="0.12" offset="54%"></stop>
            <stop stop-color="#808080" stop-opacity="0.1" offset="100%"></stop>
        </linearGradient>
        <linearGradient x1="50.0320718%" y1="100%" x2="50.0320718%" y2="0.0198333994%" id="linearGradient-10">
            <stop stop-color="#808080" stop-opacity="0.25" offset="0%"></stop>
            <stop stop-color="#808080" stop-opacity="0.12" offset="54%"></stop>
            <stop stop-color="#808080" stop-opacity="0.1" offset="100%"></stop>
        </linearGradient>
        <linearGradient x1="50%" y1="100%" x2="50%" y2="1.35924005e-13%" id="linearGradient-11">
            <stop stop-color="#808080" stop-opacity="0.25" offset="0%"></stop>
            <stop stop-color="#808080" stop-opacity="0.12" offset="54%"></stop>
            <stop stop-color="#808080" stop-opacity="0.1" offset="100%"></stop>
        </linearGradient>
        <linearGradient x1="50.0035849%" y1="100%" x2="50.0035849%" y2="-0.00732930327%" id="linearGradient-12">
            <stop stop-color="#808080" stop-opacity="0.25" offset="0%"></stop>
            <stop stop-color="#808080" stop-opacity="0.12" offset="54%"></stop>
            <stop stop-color="#808080" stop-opacity="0.1" offset="100%"></stop>
        </linearGradient>
        <linearGradient x1="49.9940241%" y1="99.8988038%" x2="49.9940241%" y2="-0.123569167%" id="linearGradient-13">
            <stop stop-color="#808080" stop-opacity="0.25" offset="0%"></stop>
            <stop stop-color="#808080" stop-opacity="0.12" offset="54%"></stop>
            <stop stop-color="#808080" stop-opacity="0.1" offset="100%"></stop>
        </linearGradient>
        <linearGradient x1="49.9748567%" y1="99.9866956%" x2="49.9748567%" y2="-0.0291804161%" id="linearGradient-14">
            <stop stop-color="#808080" stop-opacity="0.25" offset="0%"></stop>
            <stop stop-color="#808080" stop-opacity="0.12" offset="54%"></stop>
            <stop stop-color="#808080" stop-opacity="0.1" offset="100%"></stop>
        </linearGradient>
        <linearGradient x1="50.0402248%" y1="99.9972061%" x2="50.0402248%" y2="-0.180464178%" id="linearGradient-15">
            <stop stop-color="#808080" stop-opacity="0.25" offset="0%"></stop>
            <stop stop-color="#808080" stop-opacity="0.12" offset="54%"></stop>
            <stop stop-color="#808080" stop-opacity="0.1" offset="100%"></stop>
        </linearGradient>
        <linearGradient x1="50.0402248%" y1="99.7968609%" x2="50.0402248%" y2="-0.189908394%" id="linearGradient-16">
            <stop stop-color="#808080" stop-opacity="0.25" offset="0%"></stop>
            <stop stop-color="#808080" stop-opacity="0.12" offset="54%"></stop>
            <stop stop-color="#808080" stop-opacity="0.1" offset="100%"></stop>
        </linearGradient>
        <linearGradient x1="49.8280662%" y1="100%" x2="49.8280662%" y2="0%" id="linearGradient-17">
            <stop stop-color="#808080" stop-opacity="0.25" offset="0%"></stop>
            <stop stop-color="#808080" stop-opacity="0.12" offset="54%"></stop>
            <stop stop-color="#808080" stop-opacity="0.1" offset="100%"></stop>
        </linearGradient>
        <linearGradient x1="49.9385796%" y1="99.8888889%" x2="49.9385796%" y2="-0.222222222%" id="linearGradient-18">
            <stop stop-color="#808080" stop-opacity="0.25" offset="0%"></stop>
            <stop stop-color="#808080" stop-opacity="0.12" offset="54%"></stop>
            <stop stop-color="#808080" stop-opacity="0.1" offset="100%"></stop>
        </linearGradient>
        <linearGradient x1="50.0072135%" y1="100.021184%" x2="50.0072135%" y2="0.0947575955%" id="linearGradient-19">
            <stop stop-color="#808080" stop-opacity="0.25" offset="0%"></stop>
            <stop stop-color="#808080" stop-opacity="0.12" offset="54%"></stop>
            <stop stop-color="#808080" stop-opacity="0.1" offset="100%"></stop>
        </linearGradient>
        <linearGradient x1="49.9860339%" y1="100.005102%" x2="49.9860339%" y2="0%" id="linearGradient-20">
            <stop stop-color="#808080" stop-opacity="0.25" offset="0%"></stop>
            <stop stop-color="#808080" stop-opacity="0.12" offset="54%"></stop>
            <stop stop-color="#808080" stop-opacity="0.1" offset="100%"></stop>
        </linearGradient>
        <linearGradient x1="49.783088%" y1="100.11796%" x2="49.783088%" y2="0%" id="linearGradient-21">
            <stop stop-color="#808080" stop-opacity="0.25" offset="0%"></stop>
            <stop stop-color="#808080" stop-opacity="0.12" offset="54%"></stop>
            <stop stop-color="#808080" stop-opacity="0.1" offset="100%"></stop>
        </linearGradient>
        <linearGradient x1="49.7905312%" y1="100.035378%" x2="49.7905312%" y2="0%" id="linearGradient-22">
            <stop stop-color="#808080" stop-opacity="0.25" offset="0%"></stop>
            <stop stop-color="#808080" stop-opacity="0.12" offset="54%"></stop>
            <stop stop-color="#808080" stop-opacity="0.1" offset="100%"></stop>
        </linearGradient>
        <linearGradient x1="51.108148%" y1="100.086812%" x2="51.108148%" y2="0%" id="linearGradient-23">
            <stop stop-color="#808080" stop-opacity="0.25" offset="0%"></stop>
            <stop stop-color="#808080" stop-opacity="0.12" offset="54%"></stop>
            <stop stop-color="#808080" stop-opacity="0.1" offset="100%"></stop>
        </linearGradient>
        <linearGradient x1="49.9813641%" y1="100.109496%" x2="49.9813641%" y2="0.57369339%" id="linearGradient-24">
            <stop stop-color="#808080" stop-opacity="0.25" offset="0%"></stop>
            <stop stop-color="#808080" stop-opacity="0.12" offset="54%"></stop>
            <stop stop-color="#808080" stop-opacity="0.1" offset="100%"></stop>
        </linearGradient>
        <linearGradient x1="50%" y1="100.006316%" x2="50%" y2="0%" id="linearGradient-25">
            <stop stop-color="#808080" stop-opacity="0.25" offset="0%"></stop>
            <stop stop-color="#808080" stop-opacity="0.12" offset="54%"></stop>
            <stop stop-color="#808080" stop-opacity="0.1" offset="100%"></stop>
        </linearGradient>
        <linearGradient x1="49.993395%" y1="66.72%" x2="49.993395%" y2="32.72%" id="linearGradient-26">
            <stop stop-color="#808080" stop-opacity="0.25" offset="0%"></stop>
            <stop stop-color="#808080" stop-opacity="0.12" offset="54%"></stop>
            <stop stop-color="#808080" stop-opacity="0.1" offset="100%"></stop>
        </linearGradient>
        <linearGradient x1="49.997016%" y1="100.024637%" x2="49.997016%" y2="0%" id="linearGradient-27">
            <stop stop-color="#808080" stop-opacity="0.25" offset="0%"></stop>
            <stop stop-color="#808080" stop-opacity="0.12" offset="54%"></stop>
            <stop stop-color="#808080" stop-opacity="0.1" offset="100%"></stop>
        </linearGradient>
        <linearGradient x1="49.9955761%" y1="99.9741892%" x2="49.9955761%" y2="-0.0141859494%" id="linearGradient-28">
            <stop stop-color="#808080" stop-opacity="0.25" offset="0%"></stop>
            <stop stop-color="#808080" stop-opacity="0.12" offset="54%"></stop>
            <stop stop-color="#808080" stop-opacity="0.1" offset="100%"></stop>
        </linearGradient>
        <linearGradient x1="49.7125121%" y1="100%" x2="49.7125121%" y2="0%" id="linearGradient-29">
            <stop stop-color="#808080" stop-opacity="0.25" offset="0%"></stop>
            <stop stop-color="#808080" stop-opacity="0.12" offset="54%"></stop>
            <stop stop-color="#808080" stop-opacity="0.1" offset="100%"></stop>
        </linearGradient>
        <linearGradient x1="49.8882878%" y1="100%" x2="49.8882878%" y2="-0.0358937545%" id="linearGradient-30">
            <stop stop-color="#808080" stop-opacity="0.25" offset="0%"></stop>
            <stop stop-color="#808080" stop-opacity="0.12" offset="54%"></stop>
            <stop stop-color="#808080" stop-opacity="0.1" offset="100%"></stop>
        </linearGradient>
        <linearGradient x1="50.0332566%" y1="99.8580861%" x2="50.0332566%" y2="-0.133902898%" id="linearGradient-31">
            <stop stop-color="#808080" stop-opacity="0.25" offset="0%"></stop>
            <stop stop-color="#808080" stop-opacity="0.12" offset="54%"></stop>
            <stop stop-color="#808080" stop-opacity="0.1" offset="100%"></stop>
        </linearGradient>
        <linearGradient x1="50.0832658%" y1="100%" x2="50.0832658%" y2="0%" id="linearGradient-32">
            <stop stop-color="#808080" stop-opacity="0.25" offset="0%"></stop>
            <stop stop-color="#808080" stop-opacity="0.12" offset="54%"></stop>
            <stop stop-color="#808080" stop-opacity="0.1" offset="100%"></stop>
        </linearGradient>
        <linearGradient x1="50.0735595%" y1="99.959167%" x2="50.0735595%" y2="4.64217386e-13%" id="linearGradient-33">
            <stop stop-color="#808080" stop-opacity="0.25" offset="0%"></stop>
            <stop stop-color="#808080" stop-opacity="0.12" offset="54%"></stop>
            <stop stop-color="#808080" stop-opacity="0.1" offset="100%"></stop>
        </linearGradient>
        <linearGradient x1="50.0087161%" y1="100.128096%" x2="50.0087161%" y2="0.0426985482%" id="linearGradient-34">
            <stop stop-color="#808080" stop-opacity="0.25" offset="0%"></stop>
            <stop stop-color="#808080" stop-opacity="0.12" offset="54%"></stop>
            <stop stop-color="#808080" stop-opacity="0.1" offset="100%"></stop>
        </linearGradient>
        <linearGradient x1="49.9915155%" y1="100.132392%" x2="49.9915155%" y2="0.13239188%" id="linearGradient-35">
            <stop stop-color="#808080" stop-opacity="0.25" offset="0%"></stop>
            <stop stop-color="#808080" stop-opacity="0.12" offset="54%"></stop>
            <stop stop-color="#808080" stop-opacity="0.1" offset="100%"></stop>
        </linearGradient>
    </defs>
    <g id="•-Homepage" stroke="none" stroke-width="1" fill="none" fill-rule="evenodd">
        <g id="homepage_template-01" transform="translate(-184.000000, -1655.000000)">
            <g id="basic-details" transform="translate(0.000000, 1488.000000)">
                <g id="Group-6">
                    <g id="Group-5" transform="translate(184.000000, 0.000000)">
                        <g id="graphic_corespring" transform="translate(0.000000, 167.000000)">
                            <g id="undraw_setup_wizard_r6mr">
                                <path d="M354.850414,65.2986164 C316.944727,63.9856101 280.842957,51.7347925 246.369397,38.3350943 C211.895838,24.9353962 177.750264,10.0702893 140.752392,2.9952956 C116.955913,-1.57677987 89.7390207,-2.22155975 70.5694727,10.5509434 C52.126177,22.8369308 46.1521657,44.0677736 42.9484557,63.7276981 C40.5354237,78.5341887 39.1180603,94.1202767 45.7246139,107.983044 C50.316403,117.607849 58.4574576,125.696906 64.0917702,134.911396 C83.6947269,166.992126 69.8373635,206.54644 48.600339,237.865157 C38.6436535,252.554415 27.0763277,266.58717 19.3862524,282.208428 C11.696177,297.829686 8.14105461,315.766289 14.8706026,331.72166 C21.535725,347.548075 37.4254237,359.412025 54.6387759,367.764855 C89.5984557,384.734289 130.778136,389.587723 170.962147,392.342692 C259.887062,398.427069 349.280527,395.795195 438.439718,393.151597 C471.437345,392.178566 504.575537,391.18795 537.034331,386.082465 C555.061789,383.245434 573.669077,378.743698 586.75919,367.876226 C603.369284,354.083799 607.486667,330.731044 596.35275,313.433358 C577.681036,284.424126 526.070264,277.220176 513.003578,246.089031 C505.823051,228.94961 513.196855,209.864126 523.639661,193.973233 C546.036347,159.876101 583.573051,129.964176 585.546817,90.9960252 C586.905612,64.2317987 568.860584,37.4265409 540.958437,24.7595472 C511.715066,11.4829434 471.156215,13.1535094 449.591205,35.1229182 C427.364369,57.7546918 388.310734,66.4650818 354.850414,65.2986164 Z" id="Path" fill="#2B3DA2" opacity="0.1"></path>
                                <rect id="Rectangle" fill="#D2D5E5" x="0" y="72.3794717" width="151.991733" height="152.115296"></rect>
                                <rect id="Rectangle" fill="#D2D5E5" x="470.008267" y="72.3794717" width="151.991733" height="152.115296"></rect>
                                <path d="M85.1530885,18.7748176 L83.6361582,17.2214843 C83.5751421,17.1531931 83.4875549,17.114709 83.3960264,17.1159748 C83.3041767,17.1130863 83.2159344,17.1518583 83.1558945,17.2214843 L72.6720904,27.7724277 L68.8534087,23.9565031 C68.7913603,23.8897556 68.7043702,23.8518405 68.6132768,23.8518405 C68.5221835,23.8518405 68.4351933,23.8897556 68.373145,23.9565031 L66.8445009,25.4863899 C66.7771795,25.5505577 66.7390772,25.6395353 66.7390772,25.7325786 C66.7390772,25.8256219 66.7771795,25.9145995 66.8445009,25.9787673 L71.6588512,30.7911698 C71.9173344,31.0776493 72.275834,31.2538975 72.6603766,31.2835472 C73.0402355,31.2503394 73.3955937,31.081875 73.6619021,30.8087547 L85.1589454,19.267195 C85.2842245,19.1270148 85.2842245,18.9149978 85.1589454,18.7748176 L85.1530885,18.7748176 Z" id="Path" fill="#FF5D11"></path>
                                <path d="M75.9929379,8.72211321 C83.365651,8.72739695 89.7082512,13.943486 91.1427666,21.1811764 C92.577282,28.4188667 88.7043036,35.6629841 81.8918352,38.4843541 C75.0793668,41.3057241 67.224189,38.9187988 63.1290888,32.7829843 C59.0339886,26.6471697 59.8391557,18.4708474 65.0522976,13.2531572 C67.9485051,10.3415675 71.8878846,8.71008148 75.9929379,8.72211321 Z M75.9929379,6.31298113 C68.7602011,6.31298152 62.2397564,10.6737322 59.4724553,17.361569 C56.7051542,24.0494057 58.2360535,31.7470701 63.3512084,36.8647066 C68.4663633,41.982343 76.158276,43.5119651 82.8397733,40.7402235 C89.5212705,37.9684819 93.8763427,31.4413081 93.8739736,24.2026918 C93.875529,19.4565527 91.9919519,14.9044418 88.6381015,11.5489642 C85.284251,8.19348663 80.7352209,6.30986967 75.9929379,6.31298113 Z" id="Shape" fill="#FFA644" fill-rule="nonzero"></path>
                                <path d="M202.542411,68.7921509 L200.63307,66.8343648 C200.556382,66.7507874 200.447738,66.7038829 200.334369,66.7054088 C200.218675,66.7005711 200.106907,66.7478959 200.029812,66.8343648 L186.834275,80.1402767 L182.025782,75.3337358 C181.948244,75.2513645 181.840156,75.2047006 181.727081,75.2047799 C181.612253,75.2044728 181.502265,75.2510438 181.422524,75.3337358 L179.495612,77.2622138 C179.410678,77.3419907 179.362498,77.4533741 179.362498,77.5699497 C179.362498,77.6865252 179.410678,77.7979087 179.495612,77.8776855 L185.55162,83.9268931 C185.878962,84.2866709 186.331799,84.5069788 186.816704,84.5423648 C187.290661,84.5016561 187.734806,84.2939431 188.070075,83.9562013 L202.536554,69.3958994 C202.67584,69.2253753 202.67584,68.98026 202.536554,68.8097358 L202.542411,68.7921509 Z" id="Path" fill="#FF5D11"></path>
                                <path d="M191.004369,56.1310189 C200.294455,56.1330876 208.289522,62.702318 210.100533,71.8215829 C211.911545,80.9408478 207.034168,90.0705984 198.45095,93.6279328 C189.867732,97.1852672 179.968943,94.1795328 174.807756,86.4487556 C169.64657,78.7179784 170.660282,68.415039 177.229002,61.8402516 C180.87302,58.1698801 185.834426,56.1136142 191.004369,56.1310189 Z M191.004369,53.1005535 C178.573563,53.1005535 168.496403,63.1859054 168.496403,75.6268176 C168.496403,88.0677298 178.573563,98.1530818 191.004369,98.1530818 C203.435176,98.1530818 213.512335,88.0677298 213.512335,75.6268176 C213.513889,69.6520042 211.14302,63.9214571 206.921621,59.6966259 C202.700221,55.4717947 196.974329,53.0989981 191.004369,53.1005535 Z" id="Shape" fill="#FFA644" fill-rule="nonzero"></path>
                                <path d="M546.001205,8.72211321 C553.373918,8.72739695 559.716519,13.943486 561.151034,21.1811764 C562.585549,28.4188667 558.712571,35.6629841 551.900103,38.4843541 C545.087634,41.3057241 537.232456,38.9187988 533.137356,32.7829843 C529.042256,26.6471697 529.847423,18.4708474 535.060565,13.2531572 C537.956773,10.3415675 541.896152,8.71008148 546.001205,8.72211321 Z M546.001205,6.31298113 C538.768469,6.31298152 532.248024,10.6737322 529.480723,17.361569 C526.713422,24.0494057 528.244321,31.7470701 533.359476,36.8647066 C538.474631,41.982343 546.166543,43.5119651 552.848041,40.7402235 C559.529538,37.9684819 563.88461,31.4413081 563.882241,24.2026918 C563.883796,19.4565527 562.000219,14.9044418 558.646369,11.5489642 C555.292518,8.19348663 550.743488,6.30986967 546.001205,6.31298113 Z" id="Shape" fill="#FFA644" fill-rule="nonzero"></path>
                                <path d="M430.169812,56.1310189 C439.462643,56.1190953 447.469144,62.6800791 449.290979,71.7999935 C451.112813,80.919908 446.242317,90.0574419 437.659236,93.6222982 C429.076154,97.1871545 419.172207,94.1859676 414.006579,86.4548485 C408.840951,78.7237294 409.853071,68.4169942 416.423729,61.8402516 C420.069974,58.1732054 425.029927,56.1175414 430.199096,56.1310189 L430.169812,56.1310189 Z M430.199096,53.1005535 C417.76829,53.1005535 407.69113,63.1859054 407.69113,75.6268176 C407.69113,88.0677298 417.76829,98.1530818 430.199096,98.1530818 C442.629902,98.1530818 452.707062,88.0677298 452.707062,75.6268176 C452.708625,69.6469213 450.333737,63.9119255 446.106,59.68625 C441.878264,55.4605745 436.144843,53.0912145 430.169812,53.1005535 L430.199096,53.1005535 Z" id="Shape" fill="#FFA644" fill-rule="nonzero" opacity="0.8"></path>
                                <path d="M310.021902,91.8752704 C322.297813,91.8835038 332.858888,100.568158 335.247775,112.619178 C337.636663,124.670199 331.188211,136.732155 319.845194,141.430011 C308.502177,146.127867 295.422893,142.153572 288.604401,131.937128 C281.78591,121.720685 283.126722,108.106712 291.807024,99.419195 C296.627596,94.5698055 303.187006,91.8531419 310.021902,91.8752704 Z M310.021902,87.8659119 C293.586584,87.8659119 280.263126,101.200201 280.263126,117.648881 C280.263126,134.09756 293.586584,147.431849 310.021902,147.431849 C326.45722,147.431849 339.780678,134.09756 339.780678,117.648881 C339.782232,109.749469 336.64744,102.173151 331.06625,96.5874241 C325.48506,91.0016969 317.914896,87.8643568 310.021902,87.8659119 Z" id="Shape" fill="#FFA644" fill-rule="nonzero"></path>
                                <rect id="Rectangle" fill="#F3F5F7" x="106.313974" y="112.250314" width="169.380791" height="169.518491"></rect>
                                <rect id="Rectangle" fill="#F3F5F7" x="345.479416" y="112.250314" width="169.380791" height="169.518491"></rect>
                                <rect id="Rectangle" fill="#FF5C10" x="15.1868738" y="99.3840252" width="56.4954049" height="6.28367296"></rect>
                                <rect id="Rectangle" fill="#FF5C10" x="497.359868" y="99.3840252" width="56.4954049" height="6.28367296"></rect>
                                <path d="M410.678136,362.489384 C410.678136,362.489384 425.355461,336.469585 447.459303,328.972553 C456.74977,325.887271 464.789509,319.869019 470.371394,311.821409 C472.989798,307.973366 475.25211,303.894361 477.130226,299.635069" id="Path" stroke="#535461" stroke-width="1.17137476"></path>
                                <path d="M491.028588,294.846113 C488.510132,297.290415 476.778814,299.822642 476.778814,299.822642 C476.778814,299.822642 479.660395,288.163849 482.178851,285.713686 C484.698653,283.267912 488.722437,283.329584 491.166224,285.851434 C493.610011,288.373284 493.548389,292.400339 491.028588,294.846113 Z" id="Path" fill="#FFA644"></path>
                                <path d="M484.39275,315.936277 C480.948908,316.622088 469.750565,312.366541 469.750565,312.366541 C469.750565,312.366541 478.494878,304.160252 481.938719,303.462717 C485.340484,302.867644 488.594441,305.10036 489.266185,308.490487 C489.937929,311.880614 487.781552,315.187116 484.41032,315.936277 L484.39275,315.936277 Z" id="Path" fill="#FFA644"></path>
                                <path d="M460.233145,338.767346 C456.918154,337.595019 449.380358,328.275019 449.380358,328.275019 C449.380358,328.275019 461.094105,325.596252 464.391525,326.745132 C466.537343,327.488559 468.123868,329.321224 468.553473,331.552781 C468.983078,333.784337 468.190495,336.075758 466.474283,337.563888 C464.75807,339.052017 462.378962,339.510773 460.233145,338.767346 Z" id="Path" fill="#FFA644"></path>
                                <path d="M438.094162,351.914994 C434.626893,351.32883 425.619021,343.409761 425.619021,343.409761 C425.619021,343.409761 436.700226,338.796654 440.161638,339.365233 C442.419024,339.716103 444.314521,341.252626 445.126331,343.389699 C445.938141,345.526773 445.541323,347.935494 444.086983,349.698629 C442.632644,351.461765 440.344612,352.307963 438.094162,351.914994 Z" id="Path" fill="#FFA644"></path>
                                <path d="M459.952015,303.25756 C459.952015,306.774541 466.300866,316.956201 466.300866,316.956201 C466.300866,316.956201 472.649718,306.774541 472.649718,303.263421 C472.649718,299.75096 469.804618,296.903547 466.295009,296.903547 C462.785401,296.903547 459.940301,299.75096 459.940301,303.263421 L459.952015,303.25756 Z" id="Path" fill="#FFA644"></path>
                                <path d="M434.222768,318.978465 C435.271149,322.331321 444.378588,330.150742 444.378588,330.150742 C444.378588,330.150742 447.400734,318.532981 446.352354,315.180126 C445.674397,313.011622 443.891996,311.369822 441.676564,310.873176 C439.461132,310.376529 437.149246,311.100489 435.611771,312.772346 C434.074296,314.444203 433.544811,316.809962 434.222768,318.978465 Z" id="Path" fill="#FFA644"></path>
                                <path d="M411.310678,337.67122 C411.779228,341.153031 419.428305,350.39683 419.428305,350.39683 C419.428305,350.39683 424.371507,339.459019 423.908814,335.977208 C423.606453,333.724938 422.126465,331.805193 420.026347,330.941123 C417.926228,330.077053 415.525037,330.39993 413.727279,331.788129 C411.929521,333.176329 411.008318,335.41895 411.310678,337.67122 Z" id="Path" fill="#FFA644"></path>
                                <path d="M491.028588,294.846113 C488.510132,297.290415 476.778814,299.822642 476.778814,299.822642 C476.778814,299.822642 479.660395,288.163849 482.178851,285.713686 C484.698653,283.267912 488.722437,283.329584 491.166224,285.851434 C493.610011,288.373284 493.548389,292.400339 491.028588,294.846113 Z" id="Path" fill="#6BA431"></path>
                                <path d="M484.39275,315.936277 C480.948908,316.622088 469.750565,312.366541 469.750565,312.366541 C469.750565,312.366541 478.494878,304.160252 481.938719,303.462717 C485.340484,302.867644 488.594441,305.10036 489.266185,308.490487 C489.937929,311.880614 487.781552,315.187116 484.41032,315.936277 L484.39275,315.936277 Z" id="Path" fill="#6BA431"></path>
                                <path d="M460.233145,338.767346 C456.918154,337.595019 449.380358,328.275019 449.380358,328.275019 C449.380358,328.275019 461.094105,325.596252 464.391525,326.745132 C466.537343,327.488559 468.123868,329.321224 468.553473,331.552781 C468.983078,333.784337 468.190495,336.075758 466.474283,337.563888 C464.75807,339.052017 462.378962,339.510773 460.233145,338.767346 Z" id="Path" fill="#6BA431"></path>
                                <path d="M438.094162,351.914994 C434.626893,351.32883 425.619021,343.409761 425.619021,343.409761 C425.619021,343.409761 436.700226,338.796654 440.161638,339.365233 C442.419024,339.716103 444.314521,341.252626 445.126331,343.389699 C445.938141,345.526773 445.541323,347.935494 444.086983,349.698629 C442.632644,351.461765 440.344612,352.307963 438.094162,351.914994 Z" id="Path" fill="#6BA431"></path>
                                <path d="M459.952015,303.25756 C459.952015,306.774541 466.300866,316.956201 466.300866,316.956201 C466.300866,316.956201 472.649718,306.774541 472.649718,303.263421 C472.649718,299.75096 469.804618,296.903547 466.295009,296.903547 C462.785401,296.903547 459.940301,299.75096 459.940301,303.263421 L459.952015,303.25756 Z" id="Path" fill="#6BA431"></path>
                                <path d="M434.222768,318.978465 C435.271149,322.331321 444.378588,330.150742 444.378588,330.150742 C444.378588,330.150742 447.400734,318.532981 446.352354,315.180126 C445.674397,313.011622 443.891996,311.369822 441.676564,310.873176 C439.461132,310.376529 437.149246,311.100489 435.611771,312.772346 C434.074296,314.444203 433.544811,316.809962 434.222768,318.978465 Z" id="Path" fill="#6BA431"></path>
                                <path d="M411.310678,337.67122 C411.779228,341.153031 419.428305,350.39683 419.428305,350.39683 C419.428305,350.39683 424.371507,339.459019 423.908814,335.977208 C423.606453,333.724938 422.126465,331.805193 420.026347,330.941123 C417.926228,330.077053 415.525037,330.39993 413.727279,331.788129 C411.929521,333.176329 411.008318,335.41895 411.310678,337.67122 Z" id="Path" fill="#6BA431"></path>
                                <path d="M411.521525,361.97356 C411.521525,361.97356 414.408964,332.237484 431.575461,316.416931 C438.820343,309.822114 443.733868,301.054492 445.579247,291.42878 C446.416229,286.853573 446.833802,282.211403 446.826848,277.560151" id="Path" stroke="#535461" stroke-width="1.17137476"></path>
                                <path d="M457.591695,267.542616 C456.279755,270.801686 446.580772,277.870818 446.580772,277.870818 C446.580772,277.870818 444.489868,266.047899 445.801808,262.78883 C446.6503,260.681058 448.557909,259.186429 450.806057,258.867956 C453.054205,258.549483 455.301345,259.455549 456.701001,261.244849 C458.100657,263.034148 458.440187,265.434844 457.591695,267.542616 Z" id="Path" fill="#B8E986"></path>
                                <path d="M460.063296,289.517887 C457.193427,291.540151 445.216121,292.202516 445.216121,292.202516 C445.216121,292.202516 449.90162,281.135748 452.753917,279.119346 C455.621652,277.227568 459.47238,277.958664 461.448614,280.770114 C463.424848,283.581564 462.811315,287.455798 460.063296,289.517887 Z" id="Path" fill="#B8E986"></path>
                                <path d="M447.219171,320.185962 C443.705047,320.479044 433.051394,314.998415 433.051394,314.998415 C433.051394,314.998415 442.656667,307.806189 446.15322,307.513107 C448.438916,307.278914 450.672911,308.29779 451.995917,310.177831 C453.318923,312.057872 453.524862,314.506235 452.534521,316.581175 C451.54418,318.656116 449.51182,320.034431 447.219171,320.185962 Z" id="Path" fill="#B8E986"></path>
                                <path d="M432.284143,341.199925 C428.881299,342.07917 417.436968,338.480126 417.436968,338.480126 C417.436968,338.480126 425.69516,329.769736 429.092147,328.884629 C432.458059,328.081776 435.847142,330.121655 436.716348,333.473612 C437.585554,336.825569 435.615366,340.257437 432.284143,341.194063 L432.284143,341.199925 Z" id="Path" fill="#B8E986"></path>
                                <path d="M432.582844,287.841459 C434.006064,291.053635 443.933465,297.806239 443.933465,297.806239 C443.933465,297.806239 445.626102,285.918843 444.208738,282.706667 C442.787104,279.493655 439.032097,278.042393 435.821695,279.465182 C432.611293,280.887972 431.16121,284.646032 432.582844,287.859044 L432.582844,287.841459 Z" id="Path" fill="#B8E986"></path>
                                <path d="M415.422203,312.636176 C417.764953,315.273912 429.232712,318.732277 429.232712,318.732277 C429.232712,318.732277 427.28823,306.88005 424.974765,304.242314 C422.658746,301.602303 418.642829,301.341181 416.004963,303.659082 C413.367096,305.976983 413.106186,309.996165 415.422203,312.636176 Z" id="Path" fill="#B8E986"></path>
                                <path d="M402.05096,339.025258 C403.884162,342.020553 414.625669,347.372226 414.625669,347.372226 C414.625669,347.372226 414.719379,335.361736 412.868606,332.36644 C411.031318,329.373564 407.117667,328.437986 404.127222,330.276767 C401.136777,332.115549 400.201959,336.032382 402.039247,339.025258 L402.05096,339.025258 Z" id="Path" fill="#FFA644"></path>
                                <rect id="Rectangle" fill="#FF5C10" x="128.177684" y="148.434189" width="56.4954049" height="6.28367296"></rect>
                                <rect id="Rectangle" fill="#000000" opacity="0.1" x="232.283616" y="203.668377" width="33.7297363" height="6.28367296"></rect>
                                <rect id="Rectangle" fill="#000000" opacity="0.1" x="232.283616" y="245.836981" width="49.94742" height="6.28367296"></rect>
                                <rect id="Rectangle" fill="#FFA644" x="128.177684" y="170.579447" width="56.4954049" height="6.28367296"></rect>
                                <rect id="Rectangle" fill="#FF5C10" x="382.407006" y="148.434189" width="56.4954049" height="6.28367296"></rect>
                                <rect id="Rectangle" fill="#FFA644" x="382.407006" y="170.579447" width="56.4954049" height="6.28367296"></rect>
                                <path d="M302.015556,126.406164 L303.596911,124.331145 C305.118243,125.823017 307.159915,126.663895 309.289793,126.675799 C311.960527,126.675799 313.940151,125.368654 313.940151,123.252604 C313.940151,120.954843 312.042524,119.442541 306.783051,119.442541 L306.783051,117.056855 C311.46855,117.056855 313.225612,115.515245 313.225612,113.481258 C313.225612,111.640704 311.650113,110.491824 309.31322,110.491824 C307.492599,110.545558 305.753107,111.257746 304.416874,112.496503 L302.735951,110.491824 C304.582662,108.839444 306.965096,107.912768 309.442072,107.883396 C313.489171,107.883396 316.47032,109.829459 316.47032,113.240931 C316.47032,115.644201 314.713258,117.215119 312.183089,118.082642 L312.183089,118.211597 C314.894821,118.797761 317.167288,120.597283 317.167288,123.405006 C317.167288,127.10956 313.653164,129.331119 309.506497,129.331119 C305.980659,129.325258 303.56177,127.982943 302.015556,126.406164 Z" id="Path" fill="#FFA644"></path>
                                <path d="M432.038154,72.391195 C432.038154,71.265761 432.137721,69.8296604 432.19629,68.7042264 L432.049868,68.7042264 C431.405612,69.7007044 430.673503,70.6913208 430.017533,71.6819371 L425.332034,77.6959748 L437.772034,77.6959748 L437.772034,80.1168302 L422.122467,80.1168302 L422.122467,78.0652579 L431.464181,65.7558239 L434.902166,65.7558239 L434.902166,85.3278239 L432.038154,85.3278239 L432.038154,72.391195 Z" id="Path" fill="#FFA644"></path>
                                <path d="M539.915913,30.4101635 L540.976008,28.9623396 C542.000861,29.9677616 543.377156,30.5334475 544.81226,30.5391195 C546.698173,30.5391195 548.179962,29.4136855 548.179962,27.5672704 C548.179962,25.7208553 546.873879,24.7243774 544.935254,24.7243774 C543.953516,24.7162088 542.991431,24.999765 542.17081,25.5391447 L541.069718,24.8298868 L541.51484,17.9072956 L549.714463,17.9072956 L549.714463,19.812327 L543.447608,19.812327 L543.102053,23.604805 C543.865142,23.2580387 544.694617,23.082007 545.532655,23.0889811 C548.22096,23.0889811 550.411431,24.472327 550.411431,27.5321006 C550.411431,30.5918742 547.846121,32.379673 545.075819,32.379673 C543.162617,32.4358661 541.305834,31.7271415 539.915913,30.4101635 Z" id="Path" fill="#FFA644"></path>
                                <rect id="Rectangle" fill="#F7D8CB" opacity="0.1" x="203.327232" y="166.071849" width="209.377382" height="209.547597"></rect>
                                <rect id="Rectangle" fill="#FFFFFF" x="210.35548" y="156.107069" width="209.377382" height="209.547597"></rect>
                                <rect id="Rectangle" fill="#FF5C10" x="232.283616" y="179.319145" width="165.515254" height="6.28367296"></rect>
                                <rect id="Rectangle" fill="#FFA644" x="232.283616" y="224.752679" width="105.394444" height="6.28367296"></rect>
                                <rect id="Rectangle" fill="#FFA644" x="232.283616" y="266.927145" width="102.261017" height="6.28367296"></rect>
                                <rect id="Rectangle" fill="#FFA644" x="232.283616" y="288.011447" width="139.399454" height="6.28367296"></rect>
                                <path d="M367.530546,225.309535 L366.810151,224.565107 C366.778252,224.535502 366.736513,224.518793 366.693013,224.518214 C366.651182,224.518499 366.611169,224.535361 366.581733,224.565107 L361.585819,229.606113 L359.764331,227.783145 C359.731874,227.754436 359.690481,227.737865 359.647194,227.736252 C359.605614,227.737714 359.566016,227.754401 359.535913,227.783145 L358.803804,228.515849 C358.772323,228.546719 358.754582,228.588972 358.754582,228.633082 C358.754582,228.677191 358.772323,228.719444 358.803804,228.750314 L361.099699,231.042214 C361.224552,231.178136 361.396075,231.261875 361.579962,231.276679 C361.760805,231.261451 361.929699,231.180065 362.054369,231.048075 L367.530546,225.544 C367.585367,225.475474 367.585367,225.378061 367.530546,225.309535 Z" id="Path" fill="#FF5D11"></path>
                                <path d="M363.167175,220.502994 C366.688357,220.50045 369.720828,222.987985 370.409602,226.443952 C371.098376,229.89992 369.251559,233.361478 365.998863,234.711164 C362.746167,236.06085 358.993803,234.922637 357.037122,231.99278 C355.080441,229.062923 355.464579,225.157687 357.954557,222.665937 C359.33351,221.276831 361.210656,220.497921 363.167175,220.502994 Z M363.167175,219.359975 C359.719384,219.357604 356.609876,221.434681 355.289369,224.622161 C353.968862,227.809642 354.697575,231.4794 357.135532,233.919339 C359.573489,236.359278 363.240266,237.088583 366.425158,235.767003 C369.610049,234.445422 371.685438,231.333387 371.68307,227.882792 C371.676607,223.180349 367.865803,219.371694 363.167175,219.371698 L363.167175,219.359975 Z" id="Shape" fill="#FF5D11" fill-rule="nonzero"></path>
                                <path d="M367.530546,267.478138 L366.810151,266.739572 C366.779715,266.707727 366.736997,266.690626 366.693013,266.692679 C366.650759,266.690758 366.609887,266.707981 366.581733,266.739572 L361.585819,271.774717 L359.764331,269.95761 C359.734078,269.924816 359.691783,269.905768 359.647194,269.904855 C359.604334,269.905978 359.563932,269.925131 359.535913,269.95761 L358.803804,270.684453 C358.772323,270.715323 358.754582,270.757576 358.754582,270.801686 C358.754582,270.845795 358.772323,270.888048 358.803804,270.918918 L361.099699,273.216679 C361.224552,273.352602 361.396075,273.43634 361.579962,273.451145 C361.760091,273.433334 361.928128,273.352362 362.054369,273.222541 L367.530546,267.712604 C367.585367,267.644077 367.585367,267.546665 367.530546,267.478138 Z" id="Path" fill="#FF5D11"></path>
                                <path d="M363.167175,262.706767 C366.688357,262.704224 369.720828,265.191758 370.409602,268.647726 C371.098376,272.103693 369.251559,275.565251 365.998863,276.914937 C362.746167,278.264623 358.993803,277.126411 357.037122,274.196554 C355.080441,271.266696 355.464579,267.361461 357.954557,264.869711 C359.33351,263.480605 361.210656,262.701695 363.167175,262.706767 Z M363.167175,261.53444 C359.719916,261.532069 356.61078,263.608511 355.289929,266.795272 C353.969078,269.982032 354.696716,273.65133 357.133459,276.091731 C359.570201,278.532132 363.236018,279.262884 366.421097,277.943151 C369.606177,276.623418 371.683069,273.513181 371.68307,270.063119 C371.684624,267.801712 370.788102,265.632394 369.190894,264.032788 C367.593685,262.433181 365.426746,261.53444 363.167175,261.53444 Z" id="Shape" fill="#FF5D11" fill-rule="nonzero"></path>
                                <ellipse id="Oval" fill="#DBE2EE" cx="300.17064" cy="458.602616" rx="41.823936" ry="7.02223899"></ellipse>
                                <path d="M346.047533,270.684453 C345.655122,269.881409 342.533409,259.547346 342.533409,259.547346 L336.518399,244.266063 C336.518399,244.266063 332.869567,224.154792 327.422674,229.172352 C321.975782,234.189912 330.351111,246.229711 330.351111,246.229711 C330.351111,246.229711 333.789096,255.022164 333.61339,256.780654 C333.437684,258.539145 335.528588,264.986943 335.528588,264.986943 L334.84919,268.691497 C333.964802,268.632881 333.390829,268.632881 333.390829,268.632881 C333.390829,268.632881 332.851996,269.406616 332.336591,269.459371 C332.249093,269.471291 332.160004,269.459132 332.078889,269.424201 C331.493202,269.160428 329.554576,269.213182 328.564765,269.213182 C327.645334,269.089118 326.755057,268.803363 325.935028,268.369107 C325.59533,267.689157 323.674275,267.284704 321.969925,267.056101 C320.675556,263.832201 318.854068,260.696226 318.602222,257.331648 C318.478275,256.415802 318.659423,255.484603 319.117627,254.682189 C319.231253,254.510281 319.360665,254.349365 319.504181,254.201535 C319.978588,253.720881 320.558418,253.298843 321.085537,252.853358 C321.349096,252.630616 321.589228,252.402013 321.817646,252.167547 C326.286441,247.829937 325.577759,241.112503 321.524802,236.464226 C316.839303,231.089107 295.707702,219.524101 289.311996,229.430264 C288.421751,230.81361 288.392467,232.413836 288.140621,233.949585 C287.503231,237.705673 285.742928,241.18009 283.091996,243.914365 C280.971808,246.171094 278.189793,248.251975 276.971563,250.807648 L276.930565,250.713862 C276.640187,251.268242 276.427347,251.859946 276.298023,252.472352 C275.683051,255.584881 277.779812,258.580176 278.880904,261.610642 C279.25559,262.639993 279.526357,263.704303 279.689153,264.787648 L279.759435,264.119421 C280.029159,265.666952 280.121514,267.240236 280.034708,268.80873 C272.362203,270.379648 272.356347,283.61522 272.356347,283.61522 C272.356347,283.61522 271.41339,288.890692 271.571525,290.772277 C271.729661,292.653862 271.729661,296.76873 271.729661,297.771069 C271.729661,298.773409 270.780847,304.928126 270.675424,305.666692 C270.540716,306.481459 269.099925,310.385308 272.578908,311.264553 C272.81904,311.329031 273.076742,311.381786 273.340301,311.428679 C273.486723,314.588101 273.761996,321.21761 273.521864,322.683019 C273.521864,322.683019 274.786949,331.580981 275.83533,333.820126 C276.508619,335.144072 277.292315,336.408808 278.178079,337.600881 C278.103789,338.141227 277.922599,338.661327 277.645104,339.130767 C277.112128,339.910365 277.387401,340.549283 278.283503,340.82478 C278.256171,341.094415 278.22103,341.39922 278.178079,341.739195 C277.797382,345.174113 277.223409,351.991195 278.178079,355.44956 C279.519303,360.185761 279.595443,361.762541 279.595443,361.762541 C279.594721,362.533239 279.783813,363.292236 280.145989,363.972377 C280.731676,364.763698 281.727345,372.102465 281.727345,373.286516 C281.727345,374.470566 284.409793,385.127019 283.619115,387.653384 C282.828437,390.179748 283.460979,393.731899 283.460979,393.731899 C283.460979,393.731899 282.986573,399.968679 282.436026,401.310994 C281.88548,402.653308 281.645348,424.282742 282.512166,429.886465 C283.378983,435.490189 283.935386,440.150189 283.935386,440.150189 C283.935386,440.150189 283.349699,445.279119 283.85339,446.011824 C284.357081,446.744528 285.194614,450.988352 284.562072,451.222818 C283.929529,451.457283 283.619115,453.198189 283.619115,453.198189 C283.952336,453.707167 284.312053,454.198268 284.69678,454.669459 C284.452222,454.58354 284.213534,454.481722 283.982241,454.364654 C284.234087,454.722214 284.608927,455.214591 285.065763,455.753862 L284.638211,461.427925 C284.600191,461.886667 284.896399,462.306636 285.341036,462.424403 C288.162737,463.199056 291.180929,462.343433 293.177533,460.202843 C297.119209,456.175899 298.448719,456.732755 299.174972,454.282591 C299.245254,454.018818 299.315537,453.766767 299.368249,453.520579 C299.58982,452.556848 299.2373,451.55155 298.46255,450.93776 C297.6878,450.32397 296.629222,450.211335 295.742844,450.648377 C295.994689,448.889887 296.193823,446.961409 296.000546,445.85356 C295.608136,443.567522 295.684275,437.565208 295.684275,437.565208 L295.133729,408.843195 C295.133729,408.843195 296.158682,403.16327 297.34177,400.953434 C298.524859,398.743597 298.366723,390.988654 298.366723,390.988654 L299.707947,365.566742 L301.043315,353.257308 C301.043315,353.257308 302.302542,348.995899 303.878041,353.732101 C303.878041,353.732101 303.011224,363.280704 303.409492,365.572604 C303.807759,367.864503 304.352448,378.989887 303.960038,381.44005 C303.567627,383.890214 301.828136,397.307497 302.935085,400.701384 C304.042034,404.09527 305.219266,408.198415 304.984991,409.54073 C304.750716,410.883044 303.960038,440.021233 303.960038,440.021233 C303.960038,440.021233 306.086083,445.624956 304.510584,447.442063 C302.935085,449.25917 304.434444,456.521736 304.434444,456.521736 C304.434444,456.521736 304.621864,456.656553 304.949849,456.849987 L304.902994,457.436151 L304.411017,463.966013 C304.375415,464.424092 304.670639,464.842666 305.113842,464.962491 C307.935531,465.734415 310.952314,464.879191 312.950339,462.740931 C316.892015,458.713987 318.221525,459.264981 318.947778,456.820679 C319.01806,456.556906 319.088343,456.298994 319.146911,456.052805 C319.390891,454.981244 318.926316,453.873108 317.991397,453.296592 C317.056479,452.720076 315.858594,452.80306 315.011959,453.502994 C314.985474,453.531458 314.956022,453.557004 314.924105,453.579195 C314.824539,453.667119 314.719115,453.743321 314.613691,453.819522 L314.461412,453.91917 C314.853823,452.113786 315.427797,449.036428 315.15838,447.582742 C314.76597,445.449107 315.550791,438.977862 315.550791,438.977862 C315.550791,438.977862 317.840829,431.240503 317.89354,428.163145 C317.946252,425.085786 318.526083,403.544277 318.526083,403.544277 C318.526083,403.544277 318.449944,393.520881 318.766215,391.076579 C319.082486,388.632277 321.600942,367.471774 324.125254,361.182239 C326.063879,356.340528 326.930697,344.001786 326.415292,337.735698 C326.386008,337.41917 326.356723,337.149535 326.327439,336.84473 C329.414011,334.523522 329.741996,330.701736 329.741996,330.701736 C329.741996,330.701736 326.901412,325.226969 324.166252,322.911623 C321.431092,320.596277 320.79855,316.598642 320.903974,314.910491 C320.952206,313.880485 320.616119,312.869314 319.961017,312.073459 C319.961017,312.073459 318.695932,307.970314 317.852542,307.548277 C317.78334,307.513832 317.721633,307.466021 317.670979,307.407597 C317.085292,306.786264 317.536271,305.021912 317.536271,305.021912 L317.536271,304.969157 C317.629981,304.558843 318.244953,301.909384 318.045819,301.229434 C317.846685,300.549484 318.151243,297.02078 318.151243,297.02078 C318.151243,297.02078 320.154294,291.024327 319.838023,286.288126 C319.521751,281.551925 323.937834,281.968101 323.937834,281.968101 L337.578493,281.827421 L339.130565,281.827421 C339.785139,281.268403 340.374559,280.637211 340.887627,279.945836 C341.952421,280.146049 343.051758,279.876866 343.903917,279.20727 C346.797213,276.557811 346.439944,271.49922 346.047533,270.684453 Z M282.611733,311.715899 L282.711299,309.312629 L283.244275,309.769836 C283.406946,310.400369 283.406946,311.06192 283.244275,311.692453 C283.076967,312.292906 282.645955,312.78466 282.0729,313.028906 C282.005211,313.062321 281.940543,313.101545 281.879623,313.146138 L281.744915,311.774516 C282.301318,311.739346 282.611733,311.710038 282.611733,311.710038 L282.611733,311.715899 Z" id="Shape" fill="#000000" fill-rule="nonzero" opacity="0.1"></path>
                                <path d="M333.783239,275.344453 C333.783239,275.344453 341.549454,280.344428 344.489605,277.689107 C347.429755,275.033786 347.066629,269.910717 346.668362,269.101811 C346.270094,268.292906 343.107382,257.888503 343.107382,257.888503 L336.998663,242.484126 C336.998663,242.484126 333.285405,222.20873 327.744802,227.243874 C322.2042,232.279019 330.731808,244.43605 330.731808,244.43605 C330.731808,244.43605 334.245932,253.304704 334.046798,255.08078 C333.847665,256.856855 335.991281,263.36327 335.991281,263.36327 L333.783239,275.344453 Z" id="Path" fill="url(#linearGradient-1)"></path>
                                <path d="M319.29919,455.982465 C319.240621,456.234516 319.176196,456.492428 319.0942,456.756201 C318.373804,459.22395 317.009153,458.667094 313.003051,462.723346 C310.964652,464.884314 307.902253,465.745187 305.037702,464.962491 C304.588921,464.844906 304.288239,464.423116 304.323164,463.960151 L304.826855,457.377535 L305.066987,454.20639 C305.066987,454.20639 311.445122,456.00005 314.695687,453.731597 C314.801111,453.655396 314.906535,453.579195 315.006102,453.49127 L315.099812,453.415069 C315.95701,452.712337 317.164466,452.628871 318.11006,453.206983 C319.055653,453.785096 319.532632,454.898384 319.29919,455.982465 Z" id="Path" fill="url(#linearGradient-2)"></path>
                                <path d="M299.286252,453.497132 C299.23354,453.749182 299.163258,454.007094 299.087119,454.270868 C298.366723,456.738616 297.002072,456.181761 292.99597,460.238013 C290.956057,462.396492 287.896229,463.258894 285.030621,462.483019 C284.578056,462.367172 284.275722,461.940583 284.316083,461.474818 L284.813917,454.892201 L285.059906,451.721057 C285.059906,451.721057 291.438041,453.514717 294.68275,451.246264 C294.79403,451.170063 294.893597,451.093862 294.999021,451.005937 L295.092731,450.929736 C295.948564,450.223918 297.157476,450.138948 298.10348,450.718119 C299.049485,451.297291 299.524405,452.413153 299.286252,453.497132 Z" id="Path" fill="url(#linearGradient-3)"></path>
                                <g id="Group" opacity="0.1" transform="translate(283.472693, 454.276730)" fill="url(#linearGradient-4)">
                                    <path d="M9.20700565,0.211018868 L9.47056497,3.6283522 C5.80416196,7.26256604 1.44664783,1.86986164 0.158135593,0.0762012579 C3.51412429,1.79952201 9.20700565,0.211018868 9.20700565,0.211018868 Z" id="Path"></path>
                                </g>
                                <g id="Group" opacity="0.1" transform="translate(304.557439, 453.690566)" fill="url(#linearGradient-5)">
                                    <path d="M9.64627119,2.18638994 L10.1323917,1.86986164 C6.78225989,6.92259119 1.81563089,4.58966038 0.269416196,3.68696855 L0.509548023,0.515823899 C0.509548023,0.515823899 6.88768362,2.30948428 10.1382486,0.0410314465 C9.88054614,1.27783648 9.64627119,2.18638994 9.64627119,2.18638994 Z" id="Path"></path>
                                </g>
                                <path d="M324.388814,360.297132 C321.823503,366.662868 319.258192,387.993358 318.936064,390.461107 C318.613936,392.928855 318.695932,403.034314 318.695932,403.034314 L318.028249,427.864201 C317.952109,430.970868 315.62693,438.766843 315.62693,438.766843 C315.62693,438.766843 314.824539,445.296704 315.222806,447.442063 C315.621073,449.587421 314.180282,455.243899 314.180282,455.243899 L314.666403,454.927371 C310.654444,460.970717 304.323164,456.433811 304.323164,456.433811 C304.323164,456.433811 302.800377,449.112629 304.399303,447.283799 C305.99823,445.454969 303.8429,439.804352 303.8429,439.804352 C303.8429,439.804352 304.639435,410.43756 304.885424,409.083522 C305.131412,407.729484 303.971751,403.59117 302.800377,400.167975 C301.629002,396.74478 303.438776,383.216126 303.8429,380.748377 C304.247024,378.280629 303.678908,367.061459 303.257213,364.751975 C302.835518,362.442491 303.737476,352.811824 303.737476,352.811824 C302.132693,348.040453 300.850038,352.337031 300.850038,352.337031 L299.567382,364.834038 L298.249586,390.490415 C298.249586,390.490415 298.413578,398.28639 297.207062,400.513811 C296.000546,402.741233 294.963879,408.473912 294.963879,408.473912 L295.549567,437.442113 C295.549567,437.442113 295.467571,443.491321 295.871695,445.800805 C296.275819,448.110289 294.987307,454.077434 294.987307,454.077434 C290.500942,464.581484 283.273559,453.20405 283.273559,453.20405 C283.273559,453.20405 283.589831,451.44556 284.234087,451.211094 C284.878343,450.976629 283.993955,446.674189 283.513691,445.935623 C283.033427,445.197057 283.589831,440.073987 283.589831,440.073987 C283.589831,440.073987 283.033427,435.384679 282.14904,429.72234 C281.264652,424.06 281.51064,402.26644 282.067043,400.912403 C282.623446,399.558365 283.109567,393.292277 283.109567,393.292277 C283.109567,393.292277 282.471168,389.710818 283.273559,387.161006 C284.075951,384.611195 281.346648,373.872679 281.346648,372.676906 C281.346648,371.481132 280.304124,364.083748 279.741864,363.298289 C279.364645,362.616092 279.163344,361.850526 279.156177,361.070868 C279.156177,361.070868 279.074181,359.476503 277.709529,354.705132 C276.713861,351.188151 277.299548,344.341761 277.709529,340.883396 C277.850094,339.599698 277.967232,338.784931 277.967232,338.784931 C277.967232,338.784931 323.984689,331.381686 325.829605,333.058113 C326.263013,333.444981 326.55,334.816604 326.713992,336.727497 C327.235254,342.976 326.350866,355.420252 324.388814,360.297132 Z" id="Path" fill="url(#linearGradient-6)"></path>
                                <g id="Group" opacity="0.1" transform="translate(306.900188, 395.660377)" fill="url(#linearGradient-7)">
                                    <path d="M0.0878531073,0.422037736 C0.304557439,0.422037736 5.35903955,0.849937107 7.25080979,0.474792453 C9.14258004,0.0996477987 0.0878531073,0.422037736 0.0878531073,0.422037736 Z" id="Path"></path>
                                </g>
                                <g id="Group" opacity="0.1" transform="translate(306.900188, 398.591195)" fill="url(#linearGradient-8)">
                                    <path d="M0.462693032,0.463069182 C0.462693032,0.463069182 7.49094162,1.68228931 7.84235405,1.0492327 C8.19376648,0.416176101 0.462693032,0.463069182 0.462693032,0.463069182 Z" id="Path"></path>
                                </g>
                                <g id="Group" opacity="0.1" transform="translate(285.815443, 397.418868)" fill="url(#linearGradient-9)">
                                    <path d="M0.117137476,0.363421384 C0.117137476,0.363421384 3.74839925,0.521685535 5.7280226,1.42437736 C7.70764595,2.32706918 0.117137476,0.363421384 0.117137476,0.363421384 Z" id="Path"></path>
                                </g>
                                <path d="M272.731186,308.538893 C272.731186,308.538893 273.316874,319.629107 273.000603,321.586893 C273.000603,321.586893 274.283258,330.555195 275.343352,332.835371 C276.299803,334.654175 277.427481,336.37749 278.711055,337.981887 L281.862053,315.965585 L281.129944,308.427522 L272.731186,308.538893 Z" id="Path" fill="url(#linearGradient-10)"></path>
                                <ellipse id="Oval" fill="url(#linearGradient-11)" cx="305.869379" cy="245.766642" rx="12.34629" ry="12.2566792"></ellipse>
                                <path d="M299.456102,251.499321 C299.456102,251.499321 295.608136,258.978767 291.760169,262.484025 C287.912203,265.989283 314.847966,269.963472 315.486365,269.963472 C316.124765,269.963472 310.677872,254.049132 311.638399,252.138239 C312.598927,250.227346 299.456102,251.499321 299.456102,251.499321 Z" id="Path" fill="url(#linearGradient-12)"></path>
                                <g id="Group" opacity="0.1" transform="translate(277.615819, 332.354717)" fill="url(#linearGradient-13)">
                                    <path d="M49.0981733,4.31416352 C48.4938617,4.77360031 47.8273077,5.14464776 47.1185499,5.41615094 C42.2046328,7.32704403 36.857307,9.98236478 33.2201883,8.93313208 C29.5830697,7.88389937 21.8929944,8.93313208 21.8929944,8.93313208 C21.8929944,8.93313208 6.38984934,7.6552956 3.29156309,8.39972327 C2.2526002,8.71574496 1.14749005,8.74410415 0.0937099812,8.48178616 C0.234274953,7.19808805 0.351412429,6.38332075 0.351412429,6.38332075 C0.351412429,6.38332075 46.3688701,-1.01992453 48.2137853,0.656503145 C48.647194,1.0316478 48.9341808,2.38568553 49.0981733,4.31416352 Z" id="Path"></path>
                                </g>
                                <path d="M330.081695,329.599748 C330.081695,329.599748 329.654143,334.87522 324.734369,336.815421 C319.814595,338.755623 314.473126,341.381635 310.836008,340.332403 C307.198889,339.28317 299.508814,340.332403 299.508814,340.332403 C299.508814,340.332403 284.005669,339.054566 280.907382,339.798994 C277.809096,340.543421 276.221883,339.587975 277.16484,338.204629 C278.107797,336.821283 278.0258,332.266792 278.0258,330.355899 C278.0258,328.445006 276.953992,320.695925 277.91452,319.31844 C278.875047,317.940956 279.730151,312.636176 281.657062,311.786239 C282.241432,311.543136 282.683363,311.046908 282.857721,310.438063 C283.025815,309.802269 283.025815,309.133655 282.857721,308.497862 C282.857721,308.497862 282.535593,308.234088 282.084614,307.835497 C280.954237,306.833157 279.033183,304.969157 279.648154,304.359547 C280.503258,303.50961 279.648154,297.98795 279.648154,297.98795 C279.648154,297.98795 277.615819,293.744126 278.365499,292.155623 C279.115179,290.567119 271.846798,282.190843 271.846798,282.190843 C271.846798,282.190843 271.846798,267.759497 280.632109,267.120579 C280.632109,267.120579 286.828682,267.337459 287.578362,264.576629 C288.328041,261.815799 293.241959,260.221434 293.241959,260.221434 L304.463729,262.665736 C304.463729,262.665736 314.420414,264.787648 316.224331,263.515673 C318.028249,262.243698 319.433898,265.209686 319.433898,265.209686 C319.433898,265.209686 325.630471,265.532075 326.274727,266.80405 C326.918983,268.076025 324.242392,280.490969 324.242392,280.490969 C324.242392,280.490969 319.750169,280.068931 320.072298,284.846164 C320.394426,289.623396 318.36209,295.666742 318.36209,295.666742 C318.36209,295.666742 318.039962,299.183723 318.256667,299.910566 C318.473371,300.637409 317.834972,303.263421 317.735405,303.679597 L317.735405,303.732352 C317.735405,303.732352 317.290282,305.490843 317.870113,306.141484 C317.925985,306.196595 317.989026,306.243914 318.057533,306.282164 C318.912637,306.704201 320.195292,310.842516 320.195292,310.842516 C320.863747,311.643672 321.208478,312.666158 321.161676,313.708855 C321.056252,315.40873 321.694652,319.435673 324.47081,321.774465 C327.246968,324.113258 330.081695,329.599748 330.081695,329.599748 Z" id="Path" fill="url(#linearGradient-14)"></path>
                                <path d="M282.400885,305.033635 L282.400885,305.484981 L282.201751,310.449786 C282.201751,310.449786 275.630339,310.977333 272.045932,310.074642 C268.461525,309.17195 269.978456,305.250516 270.119021,304.429887 C270.119021,304.429887 270.119021,304.429887 270.119021,304.429887 C270.224444,303.685459 271.184972,297.477987 271.184972,296.469786 C271.184972,295.461585 271.184972,291.32327 271.026836,289.435824 C270.868701,287.548377 271.829228,282.220151 271.829228,282.220151 L272.520339,281.370214 L280.058136,284.236553 L282.400885,305.033635 Z" id="Path" fill="url(#linearGradient-15)"></path>
                                <g id="Group" opacity="0.1" transform="translate(269.416196, 304.218868)" fill="url(#linearGradient-16)">
                                    <path d="M12.9729755,1.27783648 L12.7738418,6.24264151 C12.7738418,6.24264151 6.20242938,6.77018868 2.6180226,5.86749686 C-0.966384181,4.96480503 0.550546139,1.04337107 0.691111111,0.222742138 L12.9729755,1.27783648 Z" id="Path"></path>
                                </g>
                                <g id="Group" opacity="0.1" transform="translate(281.715631, 303.632704)" fill="url(#linearGradient-17)">
                                    <path d="M1.17137476,6.79363522 C1.33946845,6.15784161 1.33946845,5.48922757 1.17137476,4.85343396 C1.17137476,4.85343396 0.849246704,4.58966038 0.39826742,4.19106918 C6.06186441,3.4114717 28.4761205,0.351698113 36.0314878,0.0234465409 L36.0314878,0.0762012579 C36.0314878,0.0762012579 35.5863653,1.83469182 36.1661959,2.48533333 L1.17137476,6.79363522 Z" id="Path"></path>
                                </g>
                                <g id="Group" opacity="0.1" transform="translate(314.514124, 314.183648)" fill="url(#linearGradient-18)">
                                    <path d="M4.02367232,0.105509434 C4.02367232,0.105509434 5.41175141,7.90734591 0.228418079,10.6564528 C0.228418079,10.6564528 3.16856874,6.77018868 4.02367232,0.105509434 Z" id="Path"></path>
                                </g>
                                <g id="Group" opacity="0.1" transform="translate(284.058380, 323.562264)" fill="url(#linearGradient-19)">
                                    <path d="M0.538832392,1.47713208 C0.538832392,1.47713208 13.043258,-0.644779874 15.503145,0.996477987 C17.963032,2.63773585 0.538832392,1.47713208 0.538832392,1.47713208 Z" id="Path"></path>
                                </g>
                                <g id="Group" opacity="0.1" transform="translate(312.757062, 276.669182)" fill="url(#linearGradient-20)">
                                    <path d="M1.44664783,0.0351698113 C1.44664783,0.0351698113 -0.47440678,7.88389937 0.966384181,9.68928302 C2.40717514,11.4946667 1.44664783,0.0351698113 1.44664783,0.0351698113 Z" id="Path"></path>
                                </g>
                                <g id="Group" opacity="0.1" transform="translate(277.615819, 270.221384)" fill="url(#linearGradient-21)">
                                    <path d="M0.351412429,0.0586163522 C0.351412429,0.0586163522 2.10847458,2.98943396 1.04838041,6.00231447 C-0.0117137476,9.01519497 0.351412429,0.0586163522 0.351412429,0.0586163522 Z" id="Path"></path>
                                </g>
                                <path d="M274.33597,295.854314 C274.33597,295.854314 276.579153,297.184906 275.829473,299.254063 C275.079793,301.32322 274.33597,295.854314 274.33597,295.854314 Z" id="Path" fill="url(#linearGradient-22)"></path>
                                <g id="Group" opacity="0.1" transform="translate(274.101695, 289.564780)" fill="url(#linearGradient-23)">
                                    <path d="M0,0.240327044 C0,0.240327044 2.08504708,1.35989937 2.34274953,3.00115723 C2.60045198,4.64241509 0,0.240327044 0,0.240327044 Z" id="Path"></path>
                                </g>
                                <g id="Group" opacity="0.1" transform="translate(304.557439, 351.111950)" fill="url(#linearGradient-24)">
                                    <path d="M0.456836158,2.15122013 C0.456836158,2.15122013 13.552806,3.48181132 16.1708286,0.39272956 C16.1708286,0.40445283 4.35751412,2.73738365 0.456836158,2.15122013 Z" id="Path"></path>
                                </g>
                                <g id="Group" opacity="0.1" transform="translate(282.301318, 352.284277)" fill="url(#linearGradient-25)">
                                    <path d="M0.105423729,0.240327044 C0.105423729,0.240327044 14.1619209,3.5287044 16.9380791,0.926138365 C16.9380791,0.926138365 4.86120527,1.82883019 0.105423729,0.240327044 Z" id="Path"></path>
                                </g>
                                <g id="Group" opacity="0.1" transform="translate(305.728814, 356.973585)" fill="url(#linearGradient-26)">
                                    <path d="M0.298700565,0.592025157 C0.298700565,0.592025157 6.15557439,0.592025157 8.90244821,0.750289308 C11.649322,0.908553459 0.298700565,0.592025157 0.298700565,0.592025157 Z" id="Path"></path>
                                </g>
                                <g id="Group" opacity="0.1" transform="translate(282.887006, 359.904403)" fill="url(#linearGradient-27)">
                                    <path d="M0.480263653,0.152402516 C0.480263653,0.152402516 3.36770245,3.38802516 6.62412429,2.80772327 C9.88054614,2.22742138 0.480263653,0.152402516 0.480263653,0.152402516 Z" id="Path"></path>
                                </g>
                                <path d="M289.036723,227.536956 C288.128908,228.932025 288.099623,230.543975 287.865348,232.091447 C287.220065,235.894611 285.430085,239.409997 282.734727,242.167597 C280.169416,244.875673 276.649435,247.325836 275.987608,250.631799 C275.360923,253.773635 277.492825,256.792377 278.611488,259.846289 C281.539925,267.906038 277.440113,276.352654 276.239454,284.670314 C275.911469,286.968075 276.309736,289.904755 279.167891,290.666767 C280.058136,290.907094 281.077232,290.877786 281.873766,291.252931 C282.951431,291.762893 283.279416,292.823849 283.47855,293.779296 C284.19205,297.19431 284.438342,300.690551 284.210659,304.171975 C284.081808,306.129761 283.941243,308.374767 285.797872,309.717082 C286.745006,310.301922 287.787943,310.714674 288.878588,310.936302 C291.807024,311.721761 295.596422,312.348956 297.570188,310.514264 C298.401864,309.74639 298.741563,308.656126 299.743089,308.046516 C301.289303,307.137962 303.485631,307.753434 305.43597,307.84722 C309.189337,308.008228 312.734523,306.118618 314.695687,302.911723 C316.271186,300.092277 316.136478,296.880101 315.550791,293.843774 C314.965104,290.807447 313.957721,287.806289 313.881582,284.734792 C313.790557,283.658572 314.031791,282.580322 314.572693,281.645711 C315.744068,279.816881 318.537797,278.984528 320.429567,277.542566 C323.978832,274.846214 323.943691,270.426541 322.678606,266.727849 C321.413522,263.029157 319.070772,259.494591 318.783785,255.672805 C318.657608,254.747962 318.843092,253.807413 319.310904,252.999899 C319.930922,252.232947 320.656607,251.557984 321.466234,250.99522 C326.649567,246.651748 326.040452,239.512277 321.75322,234.629535 C316.997439,229.195799 295.508569,217.531145 289.036723,227.536956 Z" id="Path" fill="url(#linearGradient-28)"></path>
                                <g id="Group" opacity="0.1" transform="translate(275.273070, 239.740881)">
                                    <path d="M3.99438795,23.4406792 C4.50431656,20.2331372 4.22487326,16.9495242 3.18028249,13.8744906 C2.5945951,12.3328805 1.79220339,10.7971321 1.20065913,9.25552201 C0.902960623,9.8078233 0.685997151,10.4000229 0.556403013,11.0140126 C-0.0761393597,14.1499874 2.06161959,17.1687296 3.18028249,20.2285031 C3.55765317,21.2694866 3.83037068,22.3455348 3.99438795,23.4406792 Z" id="Path" fill="url(#linearGradient-29)"></path>
                                    <path d="M8.78531073,58.2001761 C9.01377356,54.7184793 8.76548525,51.2218677 8.04734463,47.8074969 C7.84821092,46.8520503 7.52022599,45.7910943 6.44841808,45.2811321 C5.64602637,44.9001258 4.62693032,44.929434 3.7366855,44.6949686 C2.63469222,44.430157 1.7150295,43.6739513 1.24165725,42.6433962 C1.08352166,43.4523019 0.937099812,44.2612075 0.819962335,45.0642516 C0.486120527,47.3620126 0.884387947,50.2986918 3.74839925,51.0607044 C4.63864407,51.3010314 5.65774011,51.2717233 6.46013183,51.6468679 C7.53193974,52.1568302 7.85992467,53.2177862 8.05905838,54.1732327 C8.39085238,55.7571837 8.62168834,57.3606442 8.75016949,58.9739119 C8.73845574,58.7218616 8.78531073,58.4580881 8.78531073,58.2001761 Z" id="Path" fill="url(#linearGradient-30)"></path>
                                    <path d="M39.2410546,56.9633711 C37.2818133,60.1693245 33.7387909,62.0589764 29.987194,61.8988679 C28.036855,61.8050818 25.8405273,61.1896101 24.2943126,62.0981635 C23.2635028,62.684327 22.9472316,63.7980377 22.1214124,64.5659119 C20.147646,66.4006038 16.3582486,65.7734088 13.4298117,64.9879497 C12.3387077,64.7678731 11.2955045,64.3550163 10.349096,63.7687296 C9.5404869,63.1840798 8.99530035,62.3034881 8.83216573,61.318566 C8.83216573,62.4088302 8.83216573,63.504956 8.76188324,64.5952201 C8.63303202,66.5471447 8.49246704,68.7921509 10.349096,70.1344654 C11.2955045,70.7207521 12.3387077,71.1336089 13.4298117,71.3536855 C16.3582486,72.1450063 20.147646,72.7663396 22.1214124,70.9316478 C22.9472316,70.1637736 23.2927872,69.0793711 24.2943126,68.469761 C25.8405273,67.5553459 28.036855,68.1708176 29.987194,68.2704654 C33.740567,68.4318948 37.2850788,66.5392033 39.2410546,63.3291069 C40.7579849,60.6210314 40.6935593,57.5495346 40.1664407,54.618717 C39.9636015,55.437998 39.652391,56.2265134 39.2410546,56.9633711 Z" id="Path" fill="url(#linearGradient-31)"></path>
                                    <path d="M46.0291714,5.02928302 C45.2177717,5.59198009 44.4901422,6.26691661 43.8679849,7.03396226 C43.4026205,7.8423331 43.2192345,8.78269265 43.3467232,9.70686792 C43.4462104,10.8684385 43.6922017,12.0127355 44.0788324,13.112478 C44.6768169,12.4832897 45.329498,11.9085419 46.0291714,11.3950189 C49.5432957,8.46420126 50.3866855,4.2438239 49.250452,0.310666667 C48.6488088,2.15905687 47.5310122,3.79643471 46.0291714,5.02928302 Z" id="Path" fill="url(#linearGradient-32)"></path>
                                    <path d="M44.9925047,31.5766289 C43.0948776,33.0127296 40.3070056,33.8450818 39.1356309,35.6797736 C38.5922205,36.613402 38.3508075,37.6924535 38.4445198,38.7688553 C38.4887244,40.0107908 38.6415879,41.2464606 38.9013559,42.4616855 C38.9714672,42.3186095 39.0496862,42.1796579 39.1356309,42.0455094 C40.3070056,40.2225409 43.0948776,39.384327 44.9925047,37.9423648 C48.2313559,35.480478 48.506629,31.5824906 47.5461017,28.1065409 C47.0563217,29.4904163 46.1677014,30.6979641 44.9925047,31.5766289 Z" id="Path" fill="url(#linearGradient-33)"></path>
                                </g>
                                <path d="M344.671168,272.618792 C342.480697,278.134591 339.64597,280.309258 339.64597,280.309258 L338.070471,280.309258 L324.201394,280.449937 L322.59661,276.100604 L324.84565,266.721987 L326.227872,266.809912 C327.061405,267.247829 327.965436,267.535529 328.898606,267.659849 C329.911846,267.659849 331.891469,267.607094 332.477156,267.870868 C332.559679,267.908146 332.651317,267.920375 332.740716,267.906038 C333.261977,267.853283 333.81838,267.073686 333.81838,267.073686 C333.81838,267.073686 346.861638,267.097132 344.671168,272.618792 Z" id="Path" fill="url(#linearGradient-34)"></path>
                                <g id="Group" opacity="0.1" transform="translate(332.670433, 266.704403)" fill="url(#linearGradient-35)">
                                    <path d="M12.0007345,5.91438994 C9.81026365,11.4301887 6.97553672,13.6048553 6.97553672,13.6048553 L5.40003766,13.6048553 C6.22,11.4184654 7.95363465,6.92845283 8.63303202,5.89680503 C9.31242938,4.86515723 3.47312618,2.47361006 0.0761393597,1.15474214 C0.59740113,1.10198742 1.15380414,0.322389937 1.15380414,0.322389937 C1.15380414,0.322389937 14.1912053,0.39272956 12.0007345,5.91438994 Z" id="Path"></path>
                                </g>
                                <path d="M333.373258,276.891925 C333.373258,276.891925 340.987194,281.850868 343.915631,279.201409 C346.844068,276.55195 346.451657,271.487497 346.059247,270.684453 C345.666836,269.881409 342.545122,259.547346 342.545122,259.547346 L336.530113,244.266063 C336.530113,244.266063 332.881281,224.154792 327.434388,229.172352 C321.987495,234.189912 330.362825,246.229711 330.362825,246.229711 C330.362825,246.229711 333.80081,255.022164 333.625104,256.780654 C333.449397,258.539145 335.540301,264.986943 335.540301,264.986943 L333.373258,276.891925 Z" id="Path" fill="#EFB7B9"></path>
                                <path d="M319.123484,456.058667 C319.064915,456.304855 318.994633,456.562767 318.92435,456.826541 C318.209812,459.270843 316.868588,458.719849 312.926911,462.746792 C310.928887,464.885052 307.912104,465.740277 305.090414,464.968352 C304.647211,464.848528 304.351987,464.429954 304.387589,463.971874 L304.879567,457.442013 L305.119699,454.300176 C305.119699,454.300176 311.398267,456.058667 314.590264,453.825384 C314.695687,453.749182 314.801111,453.672981 314.900678,453.585057 C314.932595,453.562866 314.962047,453.53732 314.988531,453.508855 C315.835167,452.808921 317.033051,452.725938 317.96797,453.302454 C318.902888,453.878969 319.367463,454.987106 319.123484,456.058667 Z" id="Path" fill="#4A90E2"></path>
                                <path d="M299.415104,453.59678 C299.362392,453.842969 299.292109,454.095019 299.221827,454.358792 C298.507288,456.808956 297.166064,456.252101 293.224388,460.279044 C291.227784,462.419634 288.209592,463.275258 285.387891,462.500604 C284.943254,462.382838 284.647046,461.962868 284.685066,461.504126 L285.177043,454.974264 L285.417175,451.832428 C285.417175,451.832428 291.695744,453.590918 294.88774,451.357635 C294.995361,451.285141 295.098984,451.206871 295.198154,451.12317 L295.286008,451.041107 C296.133767,450.344248 297.330465,450.264036 298.263503,450.841533 C299.19654,451.419029 299.659385,452.526403 299.415104,453.59678 Z" id="Path" fill="#4A90E2"></path>
                                <path d="M292.931544,454.575673 L293.189247,457.96956 C289.587269,461.568604 285.294181,456.211069 284.029096,454.452579 C287.344087,456.14073 292.931544,454.575673 292.931544,454.575673 Z" id="Path" fill="#000000" opacity="0.1"></path>
                                <path d="M314.11,455.953157 L314.584407,455.642491 C311.292844,460.648327 306.384783,458.338843 304.879567,457.442013 L305.119699,454.300176 C305.119699,454.300176 311.398267,456.058667 314.590264,453.825384 C314.338418,455.050465 314.11,455.953157 314.11,455.953157 Z" id="Path" fill="#000000" opacity="0.1"></path>
                                <path d="M324.125254,361.182239 C321.600942,367.49522 319.076629,388.649862 318.766215,391.076579 C318.4558,393.503296 318.526083,403.544277 318.526083,403.544277 L317.89354,428.163145 C317.817401,431.240503 315.550791,438.977862 315.550791,438.977862 C315.550791,438.977862 314.76597,445.42566 315.15838,447.582742 C315.550791,449.739824 314.133427,455.320101 314.133427,455.320101 L314.607834,455.003572 C310.666158,461.000025 304.434444,456.504151 304.434444,456.504151 C304.434444,456.504151 302.935085,449.241585 304.510584,447.424478 C306.086083,445.607371 303.960038,440.003648 303.960038,440.003648 C303.960038,440.003648 304.750716,410.877182 304.984991,409.523145 C305.219266,408.169107 304.036177,404.077686 302.935085,400.683799 C301.833992,397.289912 303.567627,383.866767 303.960038,381.422465 C304.352448,378.978164 303.801902,367.841057 303.409492,365.555019 C303.017081,363.268981 303.878041,353.714516 303.878041,353.714516 C302.302542,348.978314 301.043315,353.239723 301.043315,353.239723 L299.77823,365.63122 L298.413578,391.076579 C298.413578,391.076579 298.571714,398.808075 297.388625,401.041358 C296.205537,403.274642 295.186441,408.907673 295.186441,408.907673 L295.736987,437.629686 C295.736987,437.629686 295.660847,443.632 296.053258,445.918038 C296.445669,448.204075 295.186441,454.124327 295.186441,454.124327 C290.770358,464.540453 283.671827,453.256805 283.671827,453.256805 C283.671827,453.256805 283.988098,451.498314 284.614783,451.281434 C285.241469,451.064553 284.380508,446.779698 283.906102,446.07044 C283.431695,445.361182 283.988098,440.208805 283.988098,440.208805 C283.988098,440.208805 283.402411,435.548805 282.564878,429.945082 C281.727345,424.341358 281.938192,402.711925 282.488738,401.36961 C283.039284,400.027296 283.513691,393.790516 283.513691,393.790516 C283.513691,393.790516 282.881149,390.238365 283.671827,387.712 C284.462505,385.185635 281.780056,374.529182 281.780056,373.345132 C281.780056,372.161082 280.755104,364.822314 280.198701,364.030994 C279.836525,363.350852 279.647433,362.591856 279.648154,361.821157 C279.648154,361.821157 279.572015,360.244377 278.230791,355.508176 C277.252693,352.049811 277.826667,345.23273 278.230791,341.797811 C278.371356,340.525836 278.488493,339.716931 278.488493,339.716931 C278.488493,339.716931 323.762128,332.378164 325.577759,334.037006 C325.999454,334.423874 326.286441,335.795497 326.444576,337.677082 C326.930697,343.972478 326.063879,356.31122 324.125254,361.182239 Z" id="Path" fill="#BD10E0"></path>
                                <path d="M307.011469,396.645132 C307.222316,396.645132 312.21823,397.06717 314.039718,396.697887 C315.861205,396.328604 307.011469,396.645132 307.011469,396.645132 Z" id="Path" fill="#000000" opacity="0.1"></path>
                                <path d="M307.380452,399.593535 C307.380452,399.593535 314.268136,400.806893 314.637119,400.179698 C315.006102,399.552503 307.380452,399.593535 307.380452,399.593535 Z" id="Path" fill="#000000" opacity="0.1"></path>
                                <path d="M286.295706,398.333283 C286.295706,398.333283 289.868399,398.491547 291.812881,399.382516 C293.757363,400.273484 286.295706,398.333283 286.295706,398.333283 Z" id="Path" fill="#000000" opacity="0.1"></path>
                                <path d="M273.30516,309.81673 C273.30516,309.81673 273.890847,320.813157 273.568719,322.75922 C273.568719,322.75922 274.833804,331.657182 275.882185,333.896327 C276.823983,335.698886 277.933916,337.408316 279.197175,339.001811 L282.301318,317.184805 L281.569209,309.71122 L273.30516,309.81673 Z" id="Path" fill="#EFB7B9"></path>
                                <ellipse id="Oval" fill="#EFB7B9" cx="305.910377" cy="247.560302" rx="12.1471563" ry="12.1570314"></ellipse>
                                <path d="M299.596667,253.246088 C299.596667,253.246088 295.813126,260.661057 292.023729,264.137006 C288.234331,267.612956 314.742542,271.557836 315.375085,271.557836 C316.007627,271.557836 310.642731,255.766591 311.585687,253.873283 C312.528644,251.979975 299.596667,253.246088 299.596667,253.246088 Z" id="Path" fill="#EFB7B9"></path>
                                <path d="M326.415292,337.735698 C325.821955,338.190914 325.167323,338.559937 324.47081,338.831824 C319.633032,340.725132 314.373559,343.357006 310.795009,342.301912 C307.21646,341.246818 299.666949,342.301912 299.666949,342.301912 C299.666949,342.301912 284.439077,341.04166 281.370075,341.774365 C280.339545,342.084777 279.243793,342.107074 278.201507,341.838843 C278.342072,340.566868 278.459209,339.757962 278.459209,339.757962 C278.459209,339.757962 323.732844,332.419195 325.548475,334.078038 C325.970169,334.464906 326.257156,335.80722 326.415292,337.735698 Z" id="Path" fill="#000000" opacity="0.1"></path>
                                <path d="M329.741996,330.701736 C329.741996,330.701736 329.320301,335.977208 324.47081,337.858792 C319.621318,339.740377 314.373559,342.383975 310.795009,341.334742 C307.21646,340.285509 299.666949,341.334742 299.666949,341.334742 C299.666949,341.334742 284.439077,340.068629 281.370075,340.807195 C278.301073,341.545761 276.743145,340.596176 277.686102,339.224553 C278.629058,337.852931 278.529492,333.362918 278.529492,331.440302 C278.529492,329.517686 277.475254,321.86239 278.424068,320.490767 C279.372881,319.119145 280.18113,313.861258 282.108041,313.017182 C282.681096,312.772937 283.112108,312.281183 283.279416,311.68073 C283.442087,311.050197 283.442087,310.388646 283.279416,309.758113 C283.279416,309.758113 282.963145,309.49434 282.518023,309.10161 C281.405217,308.105132 279.519303,306.258717 280.128418,305.654969 C280.965951,304.810893 280.128418,299.336126 280.128418,299.336126 C280.128418,299.336126 278.125367,295.127472 278.863333,293.550692 C279.601299,291.973912 272.420772,283.656252 272.420772,283.656252 C272.420772,283.656252 272.420772,269.342138 281.047947,268.709082 C281.047947,268.709082 287.144953,268.920101 287.882919,266.182717 C288.620885,263.445333 293.458663,261.868553 293.458663,261.868553 L304.49887,264.289409 C304.49887,264.289409 314.279849,266.393736 316.066196,265.133484 C317.852542,263.873233 319.199623,266.809912 319.199623,266.809912 C319.199623,266.809912 325.296629,267.12644 325.929171,268.386692 C326.561714,269.646943 323.931977,281.962239 323.931977,281.962239 C323.931977,281.962239 319.515895,281.546063 319.832166,286.282264 C320.148437,291.018465 318.145386,297.014918 318.145386,297.014918 C318.145386,297.014918 317.829115,300.490868 318.039962,301.223572 C318.25081,301.956277 317.624124,304.552981 317.530414,304.963296 L317.530414,305.01605 C317.530414,305.01605 317.097006,306.774541 317.665122,307.401736 C317.715776,307.460159 317.777483,307.507971 317.846685,307.542415 C318.690075,307.958591 319.95516,312.067597 319.95516,312.067597 C320.610262,312.863452 320.94635,313.874623 320.898117,314.904629 C320.792693,316.59278 321.425235,320.590415 324.160395,322.905761 C326.895556,325.221107 329.741996,330.701736 329.741996,330.701736 Z" id="Path" fill="#B8E986"></path>
                                <path d="M282.82258,306.34078 L282.82258,306.786264 L282.629303,311.710038 C282.629303,311.710038 276.186742,312.237585 272.672618,311.340755 C269.158493,310.443925 270.634426,306.55766 270.769134,305.742893 C270.874557,305.004327 271.823371,298.843748 271.823371,297.84727 C271.823371,296.850792 271.823371,292.741786 271.665235,290.848478 C271.5071,288.95517 272.450056,283.691421 272.450056,283.691421 L273.135311,282.847346 L280.550113,285.690239 L282.82258,306.34078 Z" id="Path" fill="#B8E986"></path>
                                <path d="M282.805009,306.786264 L282.611733,311.710038 C282.611733,311.710038 276.169171,312.237585 272.655047,311.340755 C269.140923,310.443925 270.616855,306.55766 270.751563,305.742893 L282.805009,306.786264 Z" id="Path" fill="#000000" opacity="0.1"></path>
                                <path d="M283.273559,311.686591 C283.43623,311.056058 283.43623,310.394508 283.273559,309.763975 C283.273559,309.763975 282.957288,309.500201 282.512166,309.107472 C288.08791,308.333736 310.13904,305.30327 317.571412,305.004327 L317.571412,305.057082 C317.571412,305.057082 317.138004,306.815572 317.706121,307.442767 L283.273559,311.686591 Z" id="Path" fill="#000000" opacity="0.1"></path>
                                <path d="M318.367947,315.496654 C318.367947,315.496654 319.738456,323.234013 314.637119,325.971396 C314.637119,325.971396 317.530414,322.132025 318.367947,315.496654 Z" id="Path" fill="#000000" opacity="0.1"></path>
                                <path d="M284.97791,326.182415 C284.97791,326.182415 297.277345,324.078088 299.70209,325.707623 C302.126836,327.337157 284.97791,326.182415 284.97791,326.182415 Z" id="Path" fill="#000000" opacity="0.1"></path>
                                <path d="M314.11,278.240101 C314.11,278.240101 312.21823,286.030214 313.635593,287.818013 C315.052957,289.605811 314.11,278.240101 314.11,278.240101 Z" id="Path" fill="#000000" opacity="0.1"></path>
                                <path d="M278.459209,271.874365 C278.459209,271.874365 280.216271,274.764151 279.144463,277.765308 C278.072655,280.766465 278.459209,271.874365 278.459209,271.874365 Z" id="Path" fill="#000000" opacity="0.1"></path>
                                <path d="M274.687382,291.241208 C274.687382,291.241208 276.737288,292.343195 277.000847,293.97273 C277.264407,295.602264 274.687382,291.241208 274.687382,291.241208 Z" id="Path" fill="#000000" opacity="0.1"></path>
                                <path d="M305.066987,354.177585 C305.066987,354.177585 317.952109,355.496453 320.523277,352.419094 C320.523277,352.442541 308.903239,354.73444 305.066987,354.177585 Z" id="Path" fill="#000000" opacity="0.1"></path>
                                <path d="M282.82258,353.439019 C282.82258,353.439019 296.650659,356.70395 299.385819,354.12483 C299.385819,354.148277 287.502222,355.02166 282.82258,353.439019 Z" id="Path" fill="#000000" opacity="0.1"></path>
                                <path d="M306.062655,358.438994 C306.062655,358.438994 311.849247,358.438994 314.531695,358.597258 C317.214143,358.755522 306.062655,358.438994 306.062655,358.438994 Z" id="Path" fill="#000000" opacity="0.1"></path>
                                <path d="M283.771394,360.912604 C283.771394,360.912604 286.611977,364.12478 289.815687,363.544478 C293.019397,362.964176 283.771394,360.912604 283.771394,360.912604 Z" id="Path" fill="#000000" opacity="0.1"></path>
                                <path d="M289.329567,229.447849 C288.439322,230.831195 288.410038,232.431421 288.158192,233.96717 C287.520802,237.723258 285.760499,241.197675 283.109567,243.93195 C280.591111,246.616579 277.129699,249.049157 276.473729,252.325811 C275.858757,255.43834 277.955518,258.433635 279.05661,261.464101 C281.985047,269.453509 277.885235,277.835648 276.713861,286.082969 C276.385876,288.363145 276.778286,291.276377 279.583729,292.032528 C280.46226,292.266994 281.463785,292.237686 282.254463,292.618692 C283.308701,293.122792 283.630829,294.177887 283.824105,295.12161 C284.529665,298.509979 284.773964,301.978303 284.550358,305.432226 C284.421507,307.372428 284.280942,309.599849 286.108286,310.936302 C287.041725,311.512292 288.068398,311.920915 289.142147,312.143799 C292.023729,312.923396 295.748701,313.538868 297.693183,311.721761 C298.507288,310.959748 298.811846,309.881208 299.830942,309.277459 C301.353729,308.374767 303.514915,308.984377 305.430113,309.078164 C309.130843,309.231976 312.621457,307.35607 314.537552,304.183698 C316.089623,301.381836 315.954915,298.20483 315.380942,295.19195 C314.806968,292.179069 313.811299,289.201358 313.741017,286.153308 C313.649124,285.087823 313.886272,284.019787 314.420414,283.093535 C315.591789,281.276428 318.315235,280.449937 320.183578,279.02556 C323.697702,276.352654 323.662561,271.991597 322.397476,268.298767 C321.132392,264.605937 318.842354,261.124126 318.561224,257.331648 C318.437276,256.415802 318.618425,255.484603 319.076629,254.682189 C319.70873,253.938916 320.439866,253.286079 321.249529,252.741987 C326.350866,248.433686 325.747608,241.35283 321.530659,236.511119 C316.856874,231.118415 295.713559,219.553409 289.329567,229.447849 Z" id="Path" fill="#4A90E2"></path>
                                <g id="Group" opacity="0.1" transform="translate(275.858757, 241.499371)" fill="#000000">
                                    <path d="M3.88310734,23.3293082 C4.38005348,20.146954 4.10279891,16.8915913 3.07485876,13.8393208 C2.52431262,12.309434 1.71606403,10.7912704 1.12451977,9.26138365 C0.834141839,9.81576372 0.621301466,10.4074676 0.491977401,11.0198742 C-0.12299435,14.1324025 1.97376648,17.1276981 3.07485876,20.1581635 C3.44916782,21.1856218 3.71992974,22.24795 3.88310734,23.3293082 Z" id="Path"></path>
                                    <path d="M8.58032015,57.8074465 C8.80392638,54.3535229 8.55962691,50.8851995 7.8540678,47.4968302 C7.66079096,46.5531069 7.3386629,45.4980126 6.28442561,44.9939119 C5.49374765,44.6129057 4.49222222,44.6422138 3.61369115,44.4077484 C2.52868039,44.139522 1.62515975,43.3906519 1.15966102,42.373761 C1.00152542,43.1709434 0.860960452,43.9739874 0.743822976,44.7711698 C0.415838041,47.0513459 0.808248588,49.9645786 3.61369115,50.7207296 C4.49222222,50.955195 5.49374765,50.9258868 6.28442561,51.3068931 C7.3386629,51.8168553 7.66079096,52.8660881 7.8540678,53.815673 C8.17912649,55.3865536 8.40603222,56.9761849 8.53346516,58.5753208 C8.54517891,58.3174088 8.56274953,58.0594969 8.58032015,57.8074465 Z" id="Path"></path>
                                    <path d="M38.5675141,56.5589182 C36.6523235,59.7322424 33.1610987,61.6084756 29.4600753,61.4533836 C27.5448776,61.3595975 25.3602637,60.7499874 23.860904,61.6526792 C22.8476648,62.2388428 22.5372505,63.3349686 21.723145,64.0969811 C19.7786629,65.9140881 16.0536911,65.2986164 13.1721092,64.5190189 C12.0987735,64.2977837 11.0734135,63.8869093 10.1441055,63.3056604 C9.35004346,62.7207979 8.81277723,61.8512313 8.64474576,60.8789434 C8.64474576,61.9574843 8.64474576,63.0418868 8.58032015,64.1204277 C8.45146893,66.0606289 8.31090395,68.2880503 10.1441055,69.6245031 C11.0752092,70.2009421 12.1000436,70.609622 13.1721092,70.832 C16.0536911,71.6115975 19.7786629,72.2270692 21.723145,70.4158239 C22.5372505,69.6479497 22.8476648,68.5694088 23.860904,67.9656604 C25.3836911,67.0629686 27.5448776,67.6725786 29.4600753,67.7663648 C33.1610987,67.9214567 36.6523235,66.0452235 38.5675141,62.8718994 C40.0610169,60.1814088 39.9965913,57.1392201 39.4753296,54.2318491 C39.2759842,55.0440203 38.9707611,55.8264207 38.5675141,56.5589182 Z" id="Path"></path>
                                    <path d="M45.2326365,5.07031447 C44.4337627,5.62889124 43.7179713,6.29790099 43.1065913,7.05740881 C42.6483869,7.85982335 42.4672388,8.7910219 42.5911864,9.70686792 C42.6943748,10.8597049 42.9382752,11.995551 43.3174388,13.0890314 C43.9017293,12.462372 44.5428788,11.891344 45.2326365,11.3832956 C48.6823352,8.45247799 49.5198682,4.29071698 48.4012053,0.39272956 C47.81276,2.22263875 46.713272,3.84575278 45.2326365,5.07031447 Z" id="Path"></path>
                                    <path d="M44.2135405,31.4007799 C42.3451977,32.8251572 39.6217514,33.6516478 38.4503766,35.4628931 C37.9182353,36.3920633 37.6812694,37.4613211 37.7709793,38.5285283 C37.816122,39.7603805 37.967004,40.9860679 38.2219586,42.1920503 C38.2865379,42.0491463 38.3629434,41.9118966 38.4503766,41.7817358 C39.6217514,39.9646289 42.3451977,39.1381384 44.2135405,37.713761 C47.3996798,35.2694591 47.669096,31.4066415 46.7261394,27.96 C46.2433833,29.3284488 45.3697011,30.5248786 44.2135405,31.4007799 Z" id="Path"></path>
                                </g>
                                <path d="M344.08548,274.189711 C341.930151,279.664478 339.136422,281.809836 339.136422,281.809836 L337.58435,281.809836 L323.943691,281.950516 L322.368192,277.636352 L324.576234,268.322214 L325.940885,268.374969 C326.760914,268.809225 327.651191,269.09498 328.570621,269.219044 C329.572147,269.219044 331.499058,269.166289 332.084746,269.430063 C332.16586,269.464994 332.25495,269.477152 332.342448,269.465233 C332.857853,269.412478 333.396685,268.638742 333.396685,268.638742 C333.396685,268.638742 346.234953,268.714943 344.08548,274.189711 Z" id="Path" fill="#B8E986"></path>
                                <path d="M344.08548,274.189711 C341.930151,279.664478 339.136422,281.809836 339.136422,281.809836 L337.58435,281.809836 C338.398456,279.641031 340.102806,275.19205 340.77049,274.189711 C341.438173,273.187371 335.69258,270.795824 332.354162,269.500403 C332.869567,269.447648 333.408399,268.673912 333.408399,268.673912 C333.408399,268.673912 346.234953,268.714943 344.08548,274.189711 Z" id="Path" fill="#000000" opacity="0.1"></path>
                            </g>
                        </g>
                    </g>
                </g>
            </g>
        </g>
    </g>
</svg>