<svg height="665" viewBox="0 0 613 665" width="613" xmlns="http://www.w3.org/2000/svg" xmlns:xlink="http://www.w3.org/1999/xlink"><linearGradient id="a" x1="8.286324%" x2="79.217866%" y1="8.03758%" y2="43.300467%"><stop offset="0" stop-color="#3f51b5"/><stop offset=".923094292" stop-color="#3f51b5" stop-opacity=".016446"/><stop offset="1" stop-color="#394baf" stop-opacity="0"/><stop offset="1" stop-color="#3f51b5" stop-opacity="0"/></linearGradient><path d="m806 85.1927775v532.3926175c-74.159873-14.48468-150.365516-44.46536-221.621929-17.837594-28.097147 10.45705-53.032632 29.183379-79.952309 43.010288-75.498735 38.632006-167.089387 35.828693-239.986789-7.392767-22.345885-13.245826-45.438402-35.970558-41.776858-63.815968 3.783145-28.779531 32.684401-43.011365 56.208596-56.146886 30.441475-17.003032 60.248849-44.725614 64.036515-82.128105 4.088512-40.355256-23.806661-76.16756-54.495492-98.22907s-66.260911-36.500145-92.843609-64.315174c-52.228347-54.718232-52.446669-158.598363-.423751-214.3580273 46.713808-50.09754244 119.013015-56.56138554 183.216935-46.94079184 30.127724 4.54201084 122.983833 30.73619744 278.568326 78.58255984 63.004662 13.6370203 112.694784 12.6966593 149.070365-2.8210822z" fill="url(#a)" transform="translate(-156 -5)"/></svg>