<?xml version="1.0" encoding="UTF-8"?>
<svg width="671px" height="430px" viewBox="0 0 671 430" version="1.1" xmlns="http://www.w3.org/2000/svg" xmlns:xlink="http://www.w3.org/1999/xlink">
    <!-- Generator: Sketch 52.5 (67469) - http://www.bohemiancoding.com/sketch -->
    <title>graphic_header</title>
    <desc>Created with Sketch.</desc>
    <g id="•-Homepage" stroke="none" stroke-width="1" fill="none" fill-rule="evenodd">
        <g id="homepage_template-01" transform="translate(-725.000000, -213.000000)">
            <g id="header" transform="translate(0.000000, -156.000000)">
                <g id="graphic_header" transform="translate(725.000000, 369.000000)">
                    <g id="Group" opacity="0.1" transform="translate(352.000000, 2.000000)" fill="#000000">
                        <path d="M3.03416988,0.911877395 L0.548108108,144.858238 C0.548108108,144.858238 90.5422394,144.858238 167.114247,169.67433 L168.601969,24.2559387 C168.601969,24.2559387 45.7931274,-5.04789272 3.03416988,0.911877395 Z" id="Path"></path>
                    </g>
                    <path d="M353.485265,0.801834 L351,145.119837 C351,145.119837 457.25301,156 517.512755,179 L517.512755,30.2451529 C494.889793,20.9903999 435.178252,0.801834 353.485265,0.801834 Z" id="Path" fill="#F7F7FD"></path>
                    <g id="Group" opacity="0.1" transform="translate(144.000000, 6.000000)" fill="#000000">
                        <path d="M166.004981,1.12681992 L168.491042,145.07318 C168.491042,145.07318 78.4969112,145.07318 1.93142857,169.889272 L0.437181467,24.4708812 C0.437181467,24.4708812 123.246023,-4.80038314 166.004981,1.12681992 Z" id="Path"></path>
                    </g>
                    <path d="M311.82233,1.23423521 L314,148.118749 C267.585733,148.118749 190.452496,161.821469 147.493768,173 L146,27.1997866 C163.792788,20.1760064 246.574906,1.23423521 311.82233,1.23423521 Z" id="Path" fill="#F7F7FD"></path>
                    <g id="Group" transform="translate(182.000000, 23.000000)" fill="#FFA644">
                        <path d="M90.9579717,0.87867167 L90.5576419,71.4127586 C64.9635474,73 33.1411597,77.8796908 1.52744105,86 L0.576786026,14.4687949 C12.3306529,10.8786717 61.5105988,0.87867167 90.9579717,0.87867167 Z" id="Path"></path>
                    </g>
                    <g id="Group" opacity="0.1" transform="translate(574.000000, 56.000000)" fill="#000000">
                        <path d="M0.442684564,0.450271903 L0.442684564,143.160363 C0.442684564,143.160363 29.7379866,139.67565 91.2255705,215.75855 L96.6810067,73.0484592 C96.6810067,73.0484592 32.687047,3.92845921 0.442684564,0.450271903 Z" id="Path"></path>
                    </g>
                    <path d="M552,42 L552,192 C552,192 629.855735,239 648.600491,264 L652.395407,112 C639.092862,88 572.243262,47 552,42 Z" id="Path" fill="#F7F7FD"></path>
                    <g id="Group" opacity="0.1" transform="translate(2.000000, 56.000000)" fill="#000000">
                        <path d="M96.5638255,0.450271903 L96.5638255,143.160363 C96.5638255,143.160363 67.2945638,139.67565 5.82,215.75855 L0.332013423,73.0484592 C0.332013423,73.0484592 64.3194631,3.92845921 96.5638255,0.450271903 Z" id="Path"></path>
                    </g>
                    <path d="M98.0113886,42.3000757 L100.804835,185 C67,203 45,223.387628 9.53179543,269 L0.908651349,111 C18.385974,84 71.1926968,47 98.0113886,42.3000757 Z" id="Path" fill="#F7F7FD"></path>
                    <g id="Group" transform="translate(377.000000, 30.000000)" fill="#FFA644">
                        <path d="M60.828932,9.56110519 L60.9646926,18.8770575 C40.925613,13.5328844 21.1820846,9.93161288 0.326416691,8.44783649 L0.326416691,0.245152902 C21.92404,1.31382295 38.3297936,4.42804076 60.828932,9.56110519 Z" id="Path"></path>
                    </g>
                    <path d="M198.887698,125 L198.887698,139 C217.16653,134.309441 240.675346,129 259.693921,128 L259.210291,114 C239.504456,115.935554 219.851715,119.224869 198.887698,125 Z" id="Path" fill="#FF5D11"></path>
                    <path d="M490,70.6791759 L490,80.4167977 C455.500014,68.884379 415.514944,58.6185087 378,55.1047463 L378,47 C411.557294,49.6007244 449.639668,58.894487 490,70.6791759 Z" id="Path" fill="#FF5D11"></path>
                    <path d="M490,87.0834697 L490,96 C453.908229,86 414.846262,75.2119301 378,72.0981997 L378,64 C401.693814,64.2344515 461.80941,79 490,87.0834697 Z" id="Path" fill="#FF5D11" opacity="0.156156994"></path>
                    <g id="Group" transform="translate(598.000000, 100.000000)" fill="#FFA644">
                        <path d="M0.325100495,7.95362319 C8.59352152,13.0097894 16.3802986,20.0366542 24.1419627,27.1662714 L25.2603084,20.5167325 C17.0428007,12.2912046 8.71872503,5.70932551 0.325100495,0.200131752 L0.325100495,7.95362319 Z" id="Path"></path>
                    </g>
                    <polygon id="Path" fill="#FFA644" opacity="0.610328311" points="599 183.763227 622.878748 203 624 196.342112 599 176"></polygon>
                    <path d="M598,120.779935 C612.880146,132.532845 627.890176,146.80038 643,163 L643,154 C623.47549,130.492149 612.390287,124.844565 598.376895,113 L598,120.779935 Z" id="Path" fill="#FF5D11"></path>
                    <path d="M599,135.496338 C617.387841,146.35937 631.382239,160.830641 644,179 L644,169.249518 C624.296356,146.310049 610.483842,137.251598 599,128 L599,135.496338 Z" id="Path" fill="#FF5D11" opacity="0.156156994"></path>
                    <g id="Group" transform="translate(29.000000, 101.000000)" fill="#FFA644">
                        <path d="M45.6855508,8.41086116 C27.763805,20.8042304 13.7043111,35.655913 0.170909974,50.8424523 L0,42 C12.9652829,25.0666521 28.4950766,11.8879118 45.3108636,0.591947692 L45.6855508,8.41086116 Z" id="Path"></path>
                    </g>
                    <g id="Group" opacity="0.6164109" transform="translate(29.000000, 116.000000)" fill="#FFA644">
                        <path d="M45.6855508,7.59124127 C28.6875692,20.328571 14.9973487,36.0687228 0.170909974,50.7774031 L0.170909974,41.0980826 C17.3063537,23.6920296 34.2732393,6.6083963 45.6855508,0.149613153 L45.6855508,7.59124127 Z" id="Path"></path>
                    </g>
                    <ellipse id="Oval" fill="#0A174F" opacity="0.317917597" cx="135.5" cy="341.5" rx="37.5" ry="6.5"></ellipse>
                    <ellipse id="Oval" fill="#0A174F" opacity="0.317917597" cx="394.5" cy="242.5" rx="61.5" ry="10.5"></ellipse>
                    <path d="M381.929783,100.960696 C381.624145,101.61975 381.400362,102.314534 381.263538,103.029197 C381.223563,103.208871 381.183589,103.397529 381.143614,103.595171 C380.743867,105.656934 380.477369,108.250983 380.337458,109.760247 C380.270833,110.514879 380.237521,111 380.237521,111 C380.237521,111 365.786667,110.023021 368.291748,107.570466 C368.937609,106.893383 369.396994,106.05714 369.624238,105.144862 C369.697525,104.882089 369.757487,104.619315 369.810787,104.349803 C369.930215,103.738275 370.008125,103.119198 370.043973,102.496912 C370.043973,102.341943 370.043973,102.186974 370.043973,102.025267 C370.076555,101.014689 370.02977,100.00309 369.904061,99 C369.904061,99 374.601088,99 378.145512,99.3840539 C380.530669,99.6603032 382.389492,100.138686 381.929783,100.960696 Z" id="Path" fill="#F4BD87"></path>
                    <path d="M356.738016,167.998388 C351.953686,167.843008 355.482048,157.879277 356.032343,156.539126 C356.582638,155.198975 355.216612,151.916576 355.216612,151.916576 C355.216612,151.916576 353.598097,142.425458 353.598097,141.803939 C353.515447,140.510033 353.33364,139.224375 353.054276,137.958288 C352.88586,136.665766 353.111503,135.352504 353.701682,134.190327 C354.251977,133.329264 354.167814,129.878537 354.167814,129.878537 L354.167814,125.411367 L355.236034,124 L357.961613,126.589664 L358.719078,127.301821 L360.052734,132.299872 L359.580128,139.460293 L359.327639,146.432963 L360.978524,156.07946 C360.978524,156.07946 361.554716,168.160242 356.738016,167.998388 Z" id="Path" fill="#F4BD87"></path>
                    <polygon id="Path" fill="#000000" opacity="0.1" points="359 128 355 126.199313 355 125.498282 356.04127 124 358.720635 126.735395"></polygon>
                    <path d="M356.428571,117 C355.850074,118.32424 355.430847,119.704171 355.178571,121.114514 C354.946053,122.46762 354.550702,123.791998 354,125.062583 L359,127 L356.428571,117 Z" id="Path" fill="#4C4981"></path>
                    <path d="M356.428571,117 C355.850074,118.32424 355.430847,119.704171 355.178571,121.114514 C354.946053,122.46762 354.550702,123.791998 354,125.062583 L359,127 L356.428571,117 Z" id="Path" fill="#DE4849" opacity="0.844238281"></path>
                    <path d="M393,217.899478 L392.613655,218.713757 C392.613655,218.713757 392.194005,221.412696 392.194005,221.478363 C392.194005,221.544031 390.981682,223.343324 390.981682,223.343324 L387.937552,224 L386.645296,223.842398 C386.576485,223.100536 386.460801,222.363628 386.298918,221.635966 C386.25229,221.432396 386.205662,221.22226 386.145712,221.012123 C385.690783,219.328651 384.97398,217.724843 384.020816,216.257788 C384.020816,216.257788 381.762698,210.767974 380.956703,210.052197 C380.150708,209.33642 377.079933,202.093282 377.406328,200.346523 C377.579517,199.387776 377.439634,196.170062 377.279767,193.490823 C377.146545,191.304092 377,189.465398 377,189.465398 L384.666944,185 L385.559534,186.385587 L386.092423,187.206432 C386.092423,187.206432 386.092423,187.364034 386.059117,187.626705 L386.059117,187.725206 C385.97099,188.841978 385.747357,189.944306 385.393006,191.008587 C385.393006,191.008587 384.82015,195.066846 385.393006,195.782623 C385.965862,196.4984 387.791007,206.066173 388.197336,210.49217 C388.197336,210.630072 388.197336,210.767974 388.197336,210.892743 C388.357202,212.928439 389.636137,214.740865 390.921732,216.067351 C391.001665,216.159286 391.08826,216.244654 391.174854,216.330022 C391.745898,216.893933 392.355728,217.41833 393,217.899478 Z" id="Path" fill="#F4BD87"></path>
                    <path d="M386.494197,222.844436 L387.807544,223 L390.901354,222.351816 C390.901354,222.351816 392.133462,220.569308 392.133462,220.510972 C392.133462,220.452635 392.559961,217.782115 392.559961,217.782115 L392.952611,216.978366 L393,216.881138 C392.243617,216.379468 391.532546,215.817898 390.874275,215.202341 C390.799807,215.137522 390.725338,215.072704 390.65764,215.001403 C390.589942,214.930103 391.097679,217.594141 388.741779,218.754392 C387.597679,219.318312 386.656673,219.752596 386,220.050761 L386.494197,222.844436 Z" id="Path" fill="#000000" opacity="0.1"></path>
                    <path d="M394,217.875101 L393.581031,218.776967 C393.581031,218.776967 393.174954,221.443633 393.174954,221.508516 C393.174954,221.573398 392.001842,223.351176 392.001842,223.351176 L389.056169,224 L387.360958,223.798865 C387.360958,223.454988 387.302947,222.96837 387.219153,222.37794 C387.167587,222.021087 387.096685,221.625304 387,221.19708 C387.644567,220.905109 388.643646,220.42498 389.926335,219.756691 C392.175875,218.595296 391.75046,216 391.75046,216 C392.237121,216.488091 392.751489,216.947364 393.290976,217.375507 C393.600368,217.596107 393.85175,217.77129 394,217.875101 Z" id="Path" fill="#CEDDF9"></path>
                    <path d="M394,217.527914 L393.56749,218.480901 C393.56749,218.480901 393.148289,221.298727 393.148289,221.367287 C393.148289,221.435847 391.937262,223.314398 391.937262,223.314398 L388.896388,224 L387.146388,223.787463 C387.146388,223.424094 387.086502,222.909892 387,222.285994 C387.372108,222.303477 387.741859,222.356264 388.104563,222.443683 C388.104563,222.443683 392.256654,223.355534 392.456274,219.968658 C392.576046,218.048972 392.961977,217.294809 393.268061,217 C393.587452,217.233105 393.846958,217.418217 394,217.527914 Z" id="Path" fill="#000000" opacity="0.1"></path>
                    <path d="M393.576821,217.225933 C393.576821,217.225933 392.554709,217.008035 392.350286,220.16755 C392.145864,223.327065 388.037631,222.481109 388.037631,222.481109 C388.037631,222.481109 386.019783,221.994044 386,222.807956 C386.067356,223.56058 386.249596,224.29927 386.540731,224.999749 C386.540731,224.999749 386.659427,226.883922 387.041895,227.332535 C387.424363,227.781148 387.180375,229.447423 387.180375,229.447423 C387.180375,229.447423 387.338638,230.690721 390.517078,229.447423 C390.517078,229.447423 393.352616,228.877044 395.706772,225.448362 C395.785903,225.333004 395.429813,224.980523 397.487226,224.262743 C399.54464,223.544962 405.400356,218.943478 404.978322,216.694006 C404.885169,215.932999 404.335877,215.298437 403.580336,215.079001 C402.958237,214.917763 402.295602,215.005475 401.740533,215.322533 C401.184608,215.614904 400.609691,215.871797 400.019428,216.091583 C399.235717,216.399951 398.408811,216.59222 397.566357,216.661962 C396.920336,216.715515 396.281714,216.833633 395.660612,217.014444 C394.998189,217.265638 394.278353,217.338695 393.576821,217.225933 Z" id="Path" fill="#DE4849"></path>
                    <path d="M369.802521,195.178068 C369.359725,195.550655 368.977641,195.99205 368.670411,196.485915 C367.538301,198.24497 366.856462,200.703722 366.097434,201.763078 C365.106837,203.136318 364.810945,205.804326 364.810945,205.804326 C364.547215,207.556841 360.893587,216.921026 359.902991,218.581992 C358.912395,220.242958 357.535852,224.761569 357.535852,224.761569 C356.693202,225.834004 356.744661,227.429577 356.828283,228.188129 C356.828283,228.318913 356.828283,228.423541 356.866878,228.495473 C356.905473,228.567404 356.866878,228.619718 356.866878,228.619718 L356.866878,228.665493 L355.516065,231 L351.219193,230.391851 L349,228.86167 C349.181732,228.561592 349.342924,228.24915 349.482433,227.926559 C350.672435,225.232394 351.515085,220.419517 351.515085,220.419517 C351.515085,220.419517 352.71152,214.926559 352.621465,213.644869 C352.651637,211.896084 352.769719,210.15001 352.97525,208.413481 C352.97525,208.413481 356.358715,197.918008 357.439365,196.217807 C357.889766,195.54596 358.168326,194.770573 358.249853,193.961771 C358.270735,193.798979 358.270735,193.63412 358.249853,193.471328 L359.703585,192 C359.703585,192 371.667929,193.667505 369.802521,195.178068 Z" id="Path" fill="#F4BD87"></path>
                    <path d="M357,228.276475 C357,228.276475 357,228.401408 357,228.607546 L357,228.769958 L355.626329,231 L351.256746,230.419065 L349,228.957356 C349.184807,228.670706 349.348727,228.372245 349.490597,228.06409 C350.589534,227.764253 353.10139,228.613793 353.10139,228.613793 C353.10139,228.613793 355.816026,229.107275 356.960752,228.313955 C356.960752,228.307708 356.973835,228.288968 357,228.276475 Z" id="Path" fill="#000000" opacity="0.1"></path>
                    <path d="M355.754873,234.955283 L351.18887,236 L347,233.033518 L347.215505,231.36326 C347.507904,231.191738 347.767552,230.973638 347.98324,230.718373 C348.288902,230.374651 348.497564,229.961707 348.589346,229.518883 C348.831789,228.287148 352.811889,229.634963 352.811889,229.634963 C352.811889,229.634963 355.7212,230.16377 356.852599,229.280274 C356.773151,230.090105 356.846143,230.907017 357.068104,231.692153 C357.175962,232.074723 357.412696,232.412496 357.741555,232.653035 C358.906627,233.420451 355.754873,234.955283 355.754873,234.955283 Z" id="Path" fill="#CEDDF9"></path>
                    <path d="M355.754873,234.010989 L351.18887,235 L347,232.191697 L347.215505,230.610501 C347.507904,230.448124 347.767552,230.241653 347.98324,230 C348.286293,230 348.616284,230 348.899134,230 C349.572586,230.06105 351.256215,232.777778 351.256215,232.777778 C355.391209,233.028083 356.643829,231.800977 357.068104,230.897436 C357.175962,231.259607 357.412696,231.579369 357.741555,231.807082 C358.906627,232.557998 355.754873,234.010989 355.754873,234.010989 Z" id="Path" fill="#000000" opacity="0.1"></path>
                    <path d="M351.992573,233.961469 C351.992573,233.961469 350.396653,231.102793 349.721956,231.044977 C349.151507,231.013252 348.57971,231.013252 348.009261,231.044977 C348.009261,231.044977 346.244667,235.188451 345.59592,235.541771 C344.947172,235.89509 344,237.880103 344,237.880103 C344,237.880103 348.670984,242.376897 353.186269,241.49681 C354.626935,241.517345 356.043373,241.86689 357.32528,242.518225 C359.414247,243.597455 368.139905,242.781608 369.203852,240.886531 C369.995324,239.460405 370.31321,238.426143 369.612563,237.674536 C369.187634,237.238754 368.576334,237.032994 367.971231,237.122072 C366.874847,237.269824 364.409605,237.244128 362.249275,234.616716 C362.249275,234.616716 358.265964,231.006433 357.94159,231.000009 C357.617216,230.993585 358.207577,234.372604 351.992573,233.961469 Z" id="Path" fill="#DE4849"></path>
                    <path d="M386,187.534469 L385.967057,187.57165 C385.690337,187.8567 383.740117,189.870643 383.147145,190.013168 C382.166694,190.361253 381.207663,190.760531 380.274524,191.20914 C380.274524,191.20914 379.075403,192.71495 378.120059,192.789311 C377.831209,192.828537 377.548193,192.899242 377.27672,193 C377.144949,190.936483 377,189.201394 377,189.201394 L384.583455,185 L385.466325,186.307514 C385.663982,186.834237 385.887994,187.32378 385.960469,187.478699 L386,187.534469 Z" id="Path" fill="#000000" opacity="0.1"></path>
                    <path d="M359.315879,156.51674 C359.315879,156.51674 356.355152,160.36794 359.315879,165.478695 C360.908323,168.351755 362.964821,170.943017 365.402552,173.148123 L375.487529,194 C375.487529,194 378.131036,192.562394 379.095916,192.48326 C380.060796,192.404126 381.256982,190.808252 381.256982,190.808252 C382.192601,190.328117 383.154601,189.900993 384.138404,189.528914 C384.799281,189.370646 387,186.891106 387,186.891106 C387,186.891106 385.896336,184.497295 386.14086,183.857626 C386.385385,183.217957 385.420505,181.615489 385.420505,181.615489 C385.120391,180.814501 384.899057,179.986288 384.759628,179.142543 C384.759628,178.483091 383.715443,176.986135 383.715443,176.986135 C383.715443,176.986135 382.677867,175.383666 382.677867,174.506595 C382.677867,173.629523 381.124807,170.167399 381.124807,170.167399 L380.721672,155 L359.315879,156.51674 Z" id="Path" fill="#CEDDF9"></path>
                    <path d="M387,186.891106 C387,186.891106 384.779945,189.364051 384.139036,189.528914 C383.15545,189.900993 382.193662,190.328117 381.258249,190.808252 C381.258249,190.808252 380.055719,192.404126 379.09766,192.48326 C378.407564,192.62638 377.740547,192.863822 377.115467,193.188874 C376.256517,193.577951 375.483462,194 375.483462,194 L365.394103,173.148123 C364.51101,172.379757 363.691264,171.541749 362.942791,170.642205 C361.576408,169.035096 360.360011,167.306741 359.308772,165.478695 C358.152481,163.625093 357.741757,161.403464 358.1591,159.260061 C358.346489,158.277655 358.738135,157.345364 359.308772,156.523334 L366.484309,156.015556 L380.775916,155 L380.894847,159.490869 L381.15914,170.167399 C381.15914,170.167399 381.390395,170.701556 381.681117,171.407169 C382.135258,172.388152 382.470204,173.419829 382.678821,174.480216 C382.678821,175.363882 383.716168,176.959757 383.716168,176.959757 C383.716168,176.959757 384.760123,178.476496 384.760123,179.116165 C384.900237,179.961903 385.121498,180.792237 385.420853,181.595705 C385.420853,181.595705 386.38552,183.191579 386.147657,183.824653 C385.909794,184.457727 387,186.891106 387,186.891106 Z" id="Path" fill="#0075DE"></path>
                    <path d="M370.799147,195.53184 C370.347909,195.940852 369.95854,196.4254 369.645452,196.967547 C365.325654,197.312116 360.304461,194.813986 359,194.153561 C359.02128,193.974854 359.02128,193.793877 359,193.615171 L360.481448,192 C360.481448,192 372.70012,193.873598 370.799147,195.53184 Z" id="Path" fill="#000000" opacity="0.1"></path>
                    <path d="M383,161.631507 C383,161.631507 382.340717,163.835153 382.123154,164.777716 C381.905591,165.720278 381.404536,170.374587 381.404536,170.374587 L381.127637,171.674674 L376.565401,193.126098 L375.569884,197.786907 C373.816192,198.73597 369.425369,196.207302 369.425369,196.207302 C364.309335,196.766339 358,193.535625 358,193.535625 C358,193.535625 359.035074,190.226905 358.797732,188.575796 C358.56039,186.924686 360.234968,185.579097 360.234968,185.579097 C359.839399,184.083997 361.270042,177.544563 361.270042,177.544563 C361.270042,177.544563 361.593091,175.106901 362.792985,174.47636 C363.99288,173.845818 362.634757,172.903255 362.311709,172.344218 C362.198341,171.863217 362.237462,171.359495 362.423787,170.901122 C362.527537,170.537415 362.650776,170.179388 362.792985,169.828551 C359.747099,166.825352 359.279008,162.13204 359.272416,159.525367 C359.264075,158.889399 359.292691,158.253481 359.358122,157.62074 L365.950949,156.483165 L380.356276,154 L381.826477,158.459296 L382.195675,159.57737 L383,161.631507 Z" id="Path" fill="#0D84F0"></path>
                    <path d="M381.93034,100.778319 C381.627126,101.374022 381.405118,102.002022 381.269379,102.64799 C381.229722,102.810394 381.190064,102.980918 381.150406,103.159562 C379.755779,103.99391 378.896531,104 377.111937,104 C376.497243,104 376.153544,102.915956 375.571898,102.781973 C375.571898,102.781973 374.69943,99.8830694 374.454875,102.325213 C372.776035,102.008526 371.328531,103.214373 370.138802,102.16078 C370.138802,102.020706 370.138802,101.880633 370.138802,101.73447 C370.171125,100.821032 370.124712,99.9066708 370,99 C370,99 374.659773,99 378.176083,99.3471376 C380.542323,99.6029233 382.386403,100.035323 381.93034,100.778319 Z" id="Path" fill="#000000" opacity="0.1"></path>
                    <path d="M384.999836,95.9977104 C384.995898,98.7009312 383.778786,101.259727 381.683895,102.968976 C379.589004,104.678226 376.837445,105.357522 374.187459,104.819674 C370.121096,103.982008 367.154718,100.473553 367.005848,96.3256933 C366.856978,92.177834 369.56421,88.4658731 373.560065,87.3390245 C377.55592,86.2121759 381.804501,87.9625668 383.845893,91.5767264 C384.611343,92.9238701 385.009276,94.4484325 384.999836,95.9977104 Z" id="Path" fill="#F4BD87"></path>
                    <path d="M380,109.729574 C379.935198,110.502877 379.902797,111 379.902797,111 C379.902797,111 365.847207,109.998849 368.283768,107.485616 C368.911964,106.791781 369.358783,105.934848 369.579812,105 L375.677695,106.063291 C375.677695,106.063291 377.401433,107.485616 378.736358,108.825086 C379.116506,109.187094 379.541733,109.491462 380,109.729574 Z" id="Path" fill="#000000" opacity="0.1"></path>
                    <path d="M382,159.961041 C381.384962,160.042094 380.75969,159.99637 380.163265,159.826726 C379.904997,159.745079 379.656479,159.6357 379.422127,159.500532 C378.249194,158.803371 374.350161,159.660431 374.350161,159.660431 C374.350161,159.660431 363.729323,160.357591 363.258861,159.660431 C362.994629,159.257485 361.119227,159.315049 359.585392,159.436572 C358.940924,159.48774 358.393126,159.551699 358,159.590075 C358.182776,158.637248 358.564782,157.733028 359.121375,156.935749 L366.120301,156.443259 L380.201933,154 L381.639098,158.387633 C381.732236,158.917877 381.852694,159.443035 382,159.961041 Z" id="Path" fill="#000000" opacity="0.1"></path>
                    <path d="M376.062681,106.261278 L368.369164,105 C368.094053,105.612792 367.56335,106.07395 366.91768,106.261278 C365.895783,106.495329 361.320028,108.86185 359.269725,111.696474 L357.219422,114.537599 C357.219422,114.537599 355.559653,116.585549 356.112909,118.236913 C356.666166,119.888276 357.297529,125.486008 357.297529,125.486008 L358.085105,131.707877 C358.085105,131.707877 359.582152,136.200366 359.113511,138.170299 C358.644871,140.140233 359.347832,148.410053 359.347832,148.410053 L357.772678,158.649806 C357.772678,158.649806 363.129501,157.94115 363.630686,158.649806 C364.131872,159.358462 374.8325,158.649806 374.8325,158.649806 C374.8325,158.649806 378.737838,157.778614 379.955002,158.48727 C380.750928,158.916055 381.662309,159.082192 382.558561,158.961875 C382.558561,158.961875 381.614771,155.711159 382.161519,153.923266 C382.708266,152.135372 382.558561,148.800138 382.558561,148.800138 C382.558561,148.800138 383.346138,143.995581 382.949095,143.130891 C382.552053,142.266201 383.821288,139.113007 383.821288,139.113007 L388,117.138171 C388,117.138171 387.492306,113.198304 385.259754,111.859009 C383.027202,110.519715 380.508259,110.123127 379.167426,108.868351 C377.826593,107.613575 376.062681,106.261278 376.062681,106.261278 Z" id="Path" fill="#DE4849"></path>
                    <path d="M379,128.778949 L379,131.375955 L381.404047,137.907425 L382.274145,143.964941 C382.274145,143.964941 383.84032,148.288956 383.84032,149.808204 C383.84032,151.327453 387.662304,158.540637 387.662304,158.540637 C387.662304,158.540637 388.706421,160.981822 388.184362,161.449283 C387.662304,161.916744 383.137797,172.304768 388.828879,171.993127 C394.519961,171.681487 392.73465,160.826002 392.73465,160.826002 L391.954784,156.105944 C391.954784,156.105944 390.859106,144.302552 390.859106,143.439047 C390.859106,143.439047 389.45406,138.407348 389.299376,137.303621 C389.144692,136.199893 388.126356,130.616331 388.126356,130.616331 L387.269148,127 L379,128.778949 Z" id="Path" fill="#F4BD87"></path>
                    <polygon id="Path" fill="#000000" opacity="0.1" points="376 136 367.606605 140.946064 365 145 368.473349 141.365889"></polygon>
                    <path d="M374,146 C374,146 370.039604,148.574788 368.178218,148.574788 C366.316832,148.574788 362,153 362,153 C362,153 368.118812,149.048918 368.60066,149.174036 C369.082508,149.299153 374,146 374,146 Z" id="Path" fill="#000000" opacity="0.1"></path>
                    <path d="M363.869688,147 C363.869688,147 360.213328,150.587921 361.155019,150.975614 C362.09671,151.363307 367,147 367,147 L363.869688,147 Z" id="Path" fill="#000000" opacity="0.1"></path>
                    <path d="M380.13971,135 C380.13971,135 377.381722,139.061146 378.12815,138.999301 C378.874578,138.937456 381,136.62171 381,136.62171 L380.13971,135 Z" id="Path" fill="#000000" opacity="0.1"></path>
                    <path d="M381,139 C381,139 377.884502,142.118882 378.003314,142.91024 C378.122125,143.701598 381,139 381,139 Z" id="Path" fill="#000000" opacity="0.1"></path>
                    <path d="M381,141 C381,141 379.526601,145.069788 380.156734,145.915272 C380.786867,146.760756 381,141 381,141 Z" id="Path" fill="#000000" opacity="0.1"></path>
                    <path d="M379.00475,131 C379.00475,131 377.132732,133.733485 378.499226,133.917995 C379.86572,134.102506 380,133.917995 380,133.917995 L379.00475,131 Z" id="Path" fill="#000000" opacity="0.1"></path>
                    <path d="M379,122 C378.648618,123.714368 378.1665,125.387835 377.559524,127 C377.333582,126.178427 377.146783,125.342622 377,124.496494 C377.593824,123.587324 378.263873,122.750938 379,122 Z" id="Path" fill="#000000" opacity="0.1"></path>
                    <path d="M384,91.5754826 C383.842193,91.9170525 383.635841,92.2343918 383.387247,92.5178071 C382.969871,92.8913031 382.599123,93.3131251 382.282945,93.7742398 C382.034097,94.4632003 381.899916,95.1877746 381.885666,95.9195317 C381.764462,96.6413122 381.306581,97.4432905 380.538956,97.4633399 C380.161313,97.431684 379.794426,97.3224417 379.461588,97.1425486 C379.123089,96.9683547 378.717757,96.9810056 378.390954,97.1759644 C378.178405,97.3905587 378.055694,97.677129 378.047543,97.9779427 C377.954461,98.6061382 377.918404,99.2413609 377.939806,99.875958 C377.939806,100.129918 377.939806,100.377194 377.980208,100.631154 C378.16832,101.429844 378.119205,102.265525 377.838803,103.037089 C377.487442,103.595726 376.955779,104.019758 376.330488,104.240057 C375.651503,104.518048 374.941807,104.715455 374.216154,104.828174 C372.83364,104.996587 371.438672,105.041322 370.048088,104.961837 C369.919716,104.965288 369.791826,104.944888 369.671009,104.901689 C369.6115,104.8782 369.556753,104.84424 369.509404,104.801441 C369.663394,104.04207 369.746791,103.270266 369.758545,102.495754 C367.205736,100.035919 366.333512,96.3240149 367.526551,92.997106 C368.71959,89.6701972 371.75855,87.3399388 375.303156,87.0340469 C378.847763,86.7281549 382.246336,88.5028679 384,91.5754826 Z" id="Path" fill="#000000" opacity="0.1"></path>
                    <path d="M380.336762,84.0108724 C379.540124,83.9265946 378.788459,84.3544664 378.00467,84.5295048 C376.392122,84.8860646 374.741026,84.1470134 373.083507,84.1534963 C371.658538,84.23514 370.272347,84.6525576 369.036074,85.3722825 C368.036252,85.8489678 367.123864,86.4934456 366.337786,87.2782567 C365.54827,88.0758583 365.088918,89.1466077 365.052887,90.273359 C365.162442,90.9190461 365.142783,91.5803318 364.995067,92.2182306 C364.828328,92.5397751 364.630337,92.8438044 364.404013,93.1258373 C363.988945,93.7983449 363.887921,94.6210045 364.12776,95.3754055 C364.459893,96.1137708 364.909072,96.7925707 365.45763,97.3851062 C366.524097,98.765965 367.192244,100.419106 368.149494,101.884243 C368.567078,102.520335 369.035484,103.120922 369.550034,103.680007 C369.634181,103.779109 369.736766,103.860602 369.851985,103.919875 C369.965313,103.960153 370.08533,103.977768 370.205333,103.971738 C372.235473,104.030084 374.336283,104.075465 376.205811,103.271584 C376.804702,103.062062 377.31321,102.649725 377.644898,102.104661 C377.914565,101.35685 377.963658,100.546197 377.786237,99.7708153 C377.701135,98.9072638 377.720551,98.0364683 377.844058,97.1776532 C377.852171,96.8878302 377.969322,96.6119942 378.171707,96.4061875 C378.483977,96.2107653 378.875873,96.1984072 379.199626,96.3737729 C379.51722,96.5425891 379.864009,96.648232 380.221121,96.6849524 C380.921391,96.6849524 381.364681,95.8810721 381.50602,95.1809183 C381.348819,93.8992533 381.898416,92.6333873 382.938683,91.8811195 C383.914732,90.6311286 384.241663,88.9864311 383.818838,87.4532951 C383.356275,85.9946414 381.942886,84.172945 380.336762,84.0108724 Z" id="Path" fill="#E5732A"></path>
                    <path d="M388.94499,121.029273 C388.76407,122.134475 388.76407,123.260993 388.94499,124.366196 C388.863497,125.260492 388.94499,130.192465 388.94499,130.192465 C386.228565,129.378255 379.322054,131 379.322054,131 L378.500336,128.577394 C378.031301,127.979676 377.681108,127.300435 377.468094,126.575239 C377.210331,125.791093 376.997214,124.993445 376.829734,124.186002 C376.471124,122.50795 376.201383,120.812737 376.021598,119.107205 C375.675254,116.537774 379.566533,113.768127 382.513854,112.233142 C385.461175,110.698157 388.041779,117.245201 388.041779,117.245201 C388.041779,117.245201 389.270961,119.761242 388.94499,121.029273 Z" id="Path" fill="#000000" opacity="0.1"></path>
                    <path d="M388.94499,121.03683 C388.76465,122.14198 388.76465,123.268307 388.94499,124.373458 C388.863497,125.261001 388.94499,130.192536 388.94499,130.192536 C386.228565,129.385072 379.322054,131 379.322054,131 L378.500336,128.577608 C378.029907,127.98081 377.679573,127.301356 377.468094,126.575632 C377.210318,125.793818 376.997199,124.998461 376.829734,124.19328 C376.47165,122.515282 376.201912,120.820246 376.021598,119.114932 C375.675254,116.539056 379.566533,113.776328 382.513854,112.234806 C385.461175,110.693284 388.041779,117.246421 388.041779,117.246421 C388.041779,117.246421 389.270961,119.742218 388.94499,121.03683 Z" id="Path" fill="#DE4849"></path>
                    <path d="M383.822717,87.2771255 C383.68838,86.8271968 383.494901,86.3976334 383.24749,86 C383.28627,86.1113391 383.325049,86.2161289 383.357365,86.3274681 C383.782738,87.8763203 383.453837,89.5378775 382.471903,90.8006821 C381.425365,91.5606613 380.872454,92.8395038 381.030603,94.1343071 C380.920728,94.8416382 380.474766,95.6210122 379.737958,95.6472097 C379.375475,95.6161875 379.023317,95.5091321 378.703842,95.3328403 C378.378932,95.1621336 377.989872,95.1745312 377.676188,95.3655871 C377.472172,95.5758855 377.354387,95.8567189 377.346564,96.1515105 C377.221733,97.0190803 377.202198,97.8988741 377.288395,98.7712552 C377.35949,99.5702773 377.514608,100.428244 377.146204,101.135575 C376.80555,101.679961 376.296404,102.094549 375.698441,102.31446 C373.817642,103.126581 371.704167,103.080735 369.661787,103.021791 C369.540648,103.02562 369.419926,103.005602 369.306309,102.962847 C369.187714,102.907304 369.08366,102.824298 369.002538,102.72052 C368.479521,102.160375 368.007914,101.553145 367.593554,100.906347 C366.630533,99.4261913 365.958358,97.7626535 364.885462,96.3610901 C364.594617,95.9812271 364.239139,95.6079135 364,95.2084025 L364,95.2869948 C364.329503,96.0355288 364.781878,96.7220265 365.337888,97.3172969 C366.40432,98.7123109 367.082959,100.382398 368.039517,101.862554 C368.459808,102.506786 368.933324,103.11369 369.454964,103.676727 C369.537247,103.776661 369.638307,103.859032 369.752272,103.919053 C369.866399,103.959265 369.987047,103.977048 370.10775,103.971448 C372.150129,104.030393 374.270068,104.076238 376.144404,103.264117 C376.746905,103.052447 377.258478,102.635883 377.592167,102.085232 C377.863459,101.329755 377.912848,100.510792 377.734358,99.727462 C377.655301,98.854816 377.674817,97.975877 377.792527,97.1077173 C377.806178,96.816175 377.923225,96.5394241 378.122151,96.3283433 C378.436304,96.1309178 378.830563,96.118433 379.156267,96.2955965 C379.475776,96.4661432 379.824655,96.572869 380.183921,96.6099658 C380.894876,96.6099658 381.334375,95.797845 381.476566,95.0905139 C381.487057,94.3730839 381.615947,93.6624899 381.857896,92.9881689 C382.159434,92.5347656 382.515495,92.1211593 382.917866,91.7568889 C383.906672,90.4950391 384.24275,88.8311771 383.822717,87.2771255 Z" id="Path" fill="#A64D14" opacity="0.2"></path>
                    <path d="M447.095607,88.6203277 L441.541351,100.686307 C441.541351,100.686307 440.724927,102.953607 440.197787,103.374207 C439.670647,103.794808 437.337088,110.958161 437.337088,110.958161 L431.377834,120.342812 L430.972836,121 L428.639277,120.342812 L427,114.086378 L427.096428,112.272538 L427.096428,112.042522 C427.096428,112.042522 430.773551,108.099392 431.596404,107.803657 C431.596404,107.803657 432.239258,107.88252 433.46068,104.826594 C434.682102,101.770667 435.800668,101.113479 435.800668,101.113479 L436.443521,98.9053261 L443.341342,87.6739764 C443.341342,87.6739764 449.127025,79.2028179 450.702017,82.9619356 C452.277008,86.7210532 447.095607,88.6203277 447.095607,88.6203277 Z" id="Path" fill="#FFD2C6"></path>
                    <path d="M423.97759,174.450062 C423.958806,174.65282 423.894434,174.848672 423.78931,175.022902 C423.140067,175.973297 419.48483,195.313172 419.48483,195.313172 C419.776989,196.615083 418.952451,199.218903 418.420071,200.403641 C417.887692,201.58838 416.70607,207.733396 416.70607,207.733396 C416.70607,207.733396 416.413911,220.986841 415.654297,223.056878 C414.894683,225.126915 415.894517,229.566429 415.894517,229.566429 C415.8231,231.603919 417.043677,233.765089 417.770829,234.858694 L417.913662,235.067 C418.147389,235.405496 418.303208,235.600783 418.303208,235.600783 C418.503328,235.995787 418.784289,236.344032 419.127746,236.622782 L419.296549,236.752973 C420.299812,237.425014 421.421221,237.899943 422.601195,238.152527 L422.718059,238.152527 C423.185514,238.25668 423.49715,238.302246 423.49715,238.302246 L423.78931,239.903596 L420.666452,240.554551 L414.706402,240.964653 C414.706402,240.964653 407.681595,241.504945 409.278732,238.360832 C409.389306,238.150951 409.484772,237.933411 409.564399,237.709877 C409.626277,237.556464 409.680448,237.400039 409.72671,237.24119 C410.687589,234.227268 410.038347,230.56239 410.038347,230.56239 L408.681429,219.860689 C406.441541,209.920605 410.440877,198.860878 410.440877,198.860878 C410.440877,198.860878 410.096778,197.975579 410.862885,195.729784 C411.628991,193.483989 410.862885,188.569278 410.862885,188.569278 C410.862885,188.569278 410.453862,182.241994 409.921483,179.1109 C409.711663,177.791893 409.639857,176.454515 409.707233,175.120546 C409.7329,174.340192 409.804441,173.562035 409.921483,172.790126 L423.367302,171 C423.367302,171 424.139901,173.193719 423.97759,174.450062 Z" id="Path" fill="#FFD2C6"></path>
                    <path d="M424,239.974478 L420.823523,240.583349 L414.761139,240.966938 C414.761139,240.966938 407.615716,241.472301 409.240276,238.531453 C409.352749,238.33514 409.449853,238.131664 409.530848,237.922582 C409.593788,237.779087 409.64889,237.632774 409.695946,237.484195 C410.934076,237.521829 412.156913,237.74814 413.314885,238.153953 C415.348887,238.87851 416.880992,236.991009 416.880992,236.991009 L417.871578,235.249637 L418.016864,235 C418.254604,235.316613 418.413098,235.499274 418.413098,235.499274 C418.652716,235.927126 418.998994,236.296471 419.423495,236.576976 L419.251794,236.899678 L418.294228,238.762824 C418.294228,238.762824 419.522554,238.87851 421.199945,239.128147 C421.873663,239.288736 422.566958,238.939835 422.784882,238.330526 L422.903752,238.330526 C423.379233,238.427945 423.69622,238.470566 423.69622,238.470566 L424,239.974478 Z" id="Path" fill="#000000" opacity="0.1"></path>
                    <path d="M425.954557,241.403166 C425.723308,242.483536 419.216243,242.812917 419.216243,242.812917 C419.216243,242.812917 415.593356,242.457185 414.578433,243.320163 C413.563511,244.183142 410.576556,243.978925 410.460932,243.978925 C410.345308,243.978925 408.771536,243.919637 408.154874,241.021084 C407.538213,238.122532 408.957819,237.727274 409.022055,237.681161 C410.28145,237.699919 411.527631,237.947491 412.702754,238.412387 C414.68121,239.196314 416.171476,237.154152 416.171476,237.154152 L417.276328,235 C417.507576,235.342556 417.661742,235.540185 417.661742,235.540185 C417.894816,236.003095 418.231638,236.402703 418.644546,236.706193 L417.546118,239.071149 C417.546118,239.071149 418.7409,239.196314 420.372484,239.459818 C420.768465,239.552766 421.184221,239.458667 421.505274,239.203432 C421.826327,238.948197 422.018824,238.55874 422.029762,238.142295 C422.033003,238.083053 422.033003,238.023671 422.029762,237.964429 C422.029762,237.964429 423.044684,238.267459 424.303702,238.623191 C425.47489,238.968977 426.192452,240.177324 425.954557,241.403166 Z" id="Path" fill="#4046EB"></path>
                    <path d="M438.743978,188.099296 C438.587969,189.042321 438.42546,191.487681 438.42546,191.487681 C438.97799,193.536321 437.560913,198.401027 437.560913,198.401027 L436.852375,201.178072 C437.164392,204.722544 434.902269,213.391867 434.902269,213.391867 C434.902269,213.391867 433.387686,221.430338 432.601144,224.896767 C432.130544,226.823825 432.273727,228.849857 433.010666,230.691491 L433.069169,230.83457 C433.069169,230.899606 433.101671,230.964642 433.114672,231.029679 C433.138139,231.124996 433.168555,231.218465 433.205677,231.309334 C433.38177,231.786627 433.643965,232.227512 433.979219,232.610058 C434.108316,232.76626 434.2496,232.911965 434.401742,233.0458 C435.142692,233.7026 435.991576,234.226267 436.910878,234.593661 L437.307399,234.749748 C437.718313,234.902174 438.137104,235.032433 438.561968,235.139965 L438.704975,235.139965 L438.386458,237 L434.213231,235.926903 L428.622928,234.112394 L425.91228,232.590547 C425.91228,232.590547 425.91228,232.440964 425.996785,232.154805 C425.999963,232.137607 425.999963,232.119973 425.996785,232.102776 C425.996785,231.979207 426.048788,231.836127 426.081289,231.667033 C426.510313,229.228176 427.576371,222.405881 427.043342,217.359074 C426.393306,211.135111 428.993448,202.543832 429.597981,200.501696 C429.973744,199.330584 430.134511,198.101088 430.072506,196.872677 C429.045451,195.376845 428.811438,189.387012 428.811438,189.387012 C428.811438,189.387012 426.919835,185.523863 425.35975,181.426584 C424.839862,180.089211 424.462908,178.700541 424.235189,177.283779 C424.050446,176.286893 423.974163,175.272919 424.007677,174.259597 C424.007677,174.259597 436.689866,162.676653 438.080941,173.888891 C438.126444,174.272604 438.171946,174.630303 438.217449,174.988002 C439.452516,185.296237 438.893486,187.182286 438.743978,188.099296 Z" id="Path" fill="#FFD2C6"></path>
                    <path d="M439,235.208768 L438.677305,237 L434.449341,235.966597 L428.785714,234.219207 L426,232.703549 C426,232.703549 426,232.559499 426.085613,232.283925 C426.088833,232.267364 426.088833,232.250382 426.085613,232.23382 C426.085613,232.114823 426.138298,231.977035 426.171226,231.814196 L426.566363,231.814196 C427.370974,231.739935 428.182713,231.84501 428.937183,232.121086 C429.859169,232.446764 431.070922,232.822547 431.31459,232.665971 C431.74233,232.491884 432.206754,232.414698 432.671226,232.440501 L433.257345,231.187891 L433.349544,231 C433.526431,231.460324 433.792224,231.885154 434.133232,232.25261 C434.274527,232.40994 434.426309,232.558472 434.587639,232.697286 L434.587639,233.129436 L434.554711,233.755741 C435.187341,234.13883 435.871973,234.43804 436.589666,234.645094 C436.775616,234.689118 436.970079,234.689118 437.156028,234.645094 L437.557751,234.795407 C437.974054,234.942194 438.398338,235.067636 438.828774,235.17119 L439,235.208768 Z" id="Path" fill="#000000" opacity="0.1"></path>
                    <path d="M437.28862,239.866687 C436.114868,239.534016 433.282125,238.992611 432.823116,239.41008 C432.364107,239.827549 428.4363,239.41008 428.4363,239.41008 C427.599537,239.397091 426.830731,238.949112 426.410102,238.229425 C425.590442,236.963971 426.252727,232.874076 426.252727,232.874076 L426.541247,232.874076 L427.026486,232.821893 C427.827083,232.744852 428.634767,232.851979 429.387104,233.134995 C430.305123,233.480711 431.511661,233.872089 431.75428,233.709015 C432.179002,233.52336 432.641957,233.440643 433.105079,233.467665 L433.760806,232 C433.938442,232.478712 434.202933,232.920909 434.541122,233.304592 C434.680175,233.467902 434.831422,233.620538 434.993574,233.761199 L434.934558,234.850533 C435.565149,235.249899 436.246585,235.563606 436.960756,235.783315 C437.316568,235.917633 437.718515,235.790656 437.931233,235.476736 C437.961488,235.425313 437.985691,235.370594 438.003363,235.313663 C438.534212,235.562674 439.093485,235.746662 439.66891,235.861591 C441.193859,235.703313 442.598954,236.698505 442.947548,238.183764 C443.570489,240.003669 438.462372,240.199358 437.28862,239.866687 Z" id="Path" fill="#4046EB"></path>
                    <path d="M423.977877,174.187404 L423.271666,174.391879 C422.716998,174.551116 422.148556,174.663813 421.572944,174.728661 C417.921009,175.215793 411.908677,174.921108 410,174.806843 C410.025153,174.085899 410.095259,173.366984 410.209954,172.653842 L423.386187,171 C423.386187,171 424.136933,173.026708 423.977877,174.187404 Z" id="Path" fill="#000000" opacity="0.1"></path>
                    <path d="M435,170.750067 C435,170.750067 430.09694,171.525841 426.103526,172.413379 C424.774539,172.709225 423.522968,173.024794 422.626224,173.32064 C422.063246,173.494035 421.487083,173.619381 420.903702,173.695379 C416.45869,174.352814 408.562183,173.741399 408.562183,173.741399 C406.394514,166.57535 411.194352,157.548757 411.194352,157.548757 C411.084678,156.832153 412.194318,154.629743 412.194318,154.629743 L412.194318,154.557425 L412.878166,152 L431.103357,152 L431.329156,153.097918 L431.793657,155.333199 L434.658076,169.18537 L435,170.750067 Z" id="Path" fill="#BE17E0"></path>
                    <path d="M438,174.776589 L437.891035,174.820555 L435.769416,175.743836 C433.474734,176.780171 426.609918,177 424.23191,177 C424.049742,176.037264 423.974524,175.058027 424.00757,174.079418 C424.00757,174.079418 436.512944,162.893273 437.884625,173.721411 C437.910264,174.085699 437.955132,174.456267 438,174.776589 Z" id="Path" fill="#000000" opacity="0.1"></path>
                    <path d="M439,173.562601 L438.551596,173.762493 L436.400559,174.710371 C434.035067,175.793659 426.847612,176 424.547107,176 L423.942737,176 C422.883465,175.967759 421.817694,174.981193 421.817694,174.710371 C421.817694,174.568512 421.707217,173.872112 421.616237,173.278882 C421.531755,172.80172 421.466769,172.389038 421.466769,172.389038 C418.999556,171.335202 416.610746,170.10913 414.318306,168.720043 C412.518193,167.501343 412.973095,158.841483 413.317521,154.488984 C413.440994,152.986566 413.551471,152 413.551471,152 L432.137475,153.07684 L434.736916,153.225148 L436.225097,153.554003 L436.621511,153.637829 C436.621511,153.637829 437.693781,161.375605 438.220168,162.020419 C438.746554,162.665234 438.402129,164.831811 438.337142,166.069855 C438.336268,166.601192 438.277438,167.130875 438.16168,167.649651 C438.16168,167.649651 438.928515,169.816228 438.753053,171.028479 C438.672652,171.881082 438.756457,172.741078 439,173.562601 Z" id="Path" fill="#BD10E0"></path>
                    <circle id="Oval" fill="#FFD2C6" cx="418.5" cy="101.5" r="7.5"></circle>
                    <path d="M415.402657,105.020651 C415.402657,105.020651 415.940639,112.106785 414.43296,113.734681 C412.710038,115.392459 410.896483,116.960865 409,118.433235 L410.2088,123.246699 L417.029888,124 L425,115.822218 L423.1868,113.709145 C423.1868,113.709145 421.798672,109.182957 422.941054,106.923055 C424.083437,104.663152 415.402657,105.020651 415.402657,105.020651 Z" id="Path" fill="#FFD2C6"></path>
                    <path d="M431,120.373259 L430.629956,121 L428.497797,120.373259 L427,114.406685 L427.088106,112.67688 L427.528634,112 C427.528634,112 429.87812,112.056407 429.778267,114.337744 C429.678414,116.33078 430.74743,119.614903 431,120.373259 Z" id="Path" fill="#000000" opacity="0.1"></path>
                    <path d="M437,154.943586 C437,154.943586 435.104918,155.411054 432.934426,155.725134 C430.763934,156.039214 428.259016,156.20721 427.229508,155.535225 C425.504918,154.395773 416.160656,154.724461 413.459016,154.841328 L413,154.841328 L413.695082,152 L432.219672,152 L432.44918,153.219799 L435.072131,153.387795 L436.57377,153.760309 C436.84918,154.476119 437,154.943586 437,154.943586 Z" id="Path" fill="#000000" opacity="0.1"></path>
                    <path d="M426.564325,112 C426.564325,112 429.160109,112.059314 429.043299,114.458244 C428.926488,116.857174 430.458001,120.982807 430.458001,120.982807 L429.86746,122.360214 C429.86746,122.360214 429.043299,125.714762 429.692245,126.551751 C430.341191,127.388741 432.696865,127.388741 431.340568,134.275779 C431.340568,134.275779 431.048542,139.429524 431.755893,141.103502 C432.463244,142.777481 432.463244,146.791075 433.521026,148.471645 C434.486816,150.260619 435.315588,152.122432 436,154.040589 C436,154.040589 428.335948,155.773882 426.330704,154.581008 C424.325461,153.388133 412.001976,153.981275 412.001976,153.981275 C412.001976,153.981275 412.060381,151.885506 412.001976,151.641659 C411.886353,151.115035 411.992186,150.5633 412.294002,150.119261 C412.709327,149.545891 413.358274,148.590273 413.001353,147.753284 C412.644433,146.916294 413.88392,145.677287 413.234974,144.378965 C412.586028,143.080643 411.800803,142.823614 411.937082,142.111844 C412.007582,141.287306 411.745258,140.469054 411.210262,139.844723 C410.743021,139.244991 407.556696,132.918142 407.556696,132.918142 L407.02456,129.965613 C407.02456,129.965613 402.923222,126.914227 403.001095,125.477505 C403.078969,124.040783 404.552076,122.043872 404.552076,122.043872 L408.497668,118.089592 C408.497668,118.089592 410.684616,120.481931 412.806669,119.644942 C414.928723,118.807952 419.490813,114.794358 419.490813,114.794358 C419.490813,114.794358 421.119668,113.898055 421.236478,113.239008 C421.353288,112.579961 422.359155,113.179694 422.359155,113.179694 C422.359155,113.179694 423.832262,112.355885 424.124288,112.645866 C424.624341,112.910685 425.163541,113.09099 425.720695,113.179694 L426.564325,112 Z" id="Path" fill="#32F0EB"></path>
                    <path d="M404.734578,125 L403.496412,125.995041 C402.555424,128.026542 402.025228,130.23069 401.937478,132.475897 C401.609334,135.852113 401.084484,139.205398 400.365713,142.517952 L397.915042,146.989089 C397.915042,146.989089 393.892607,155.610592 393.366547,157.901804 C392.840487,160.193016 390.45397,164.061891 390.45397,164.061891 C390.45397,164.061891 382.351361,171.491964 388.0033,172.83396 C393.655239,174.175955 393.834869,166.942272 393.834869,166.942272 C393.834869,166.942272 395.117942,165.456257 395.368142,164.441578 C395.618341,163.426898 402.752229,150.49137 402.752229,150.49137 C402.752229,150.49137 405.260638,147.008728 404.734578,145.162665 C404.734578,145.162665 408,137.307081 408,135.343185 C407.939192,133.700266 407.763391,132.063881 407.47394,130.446538 L408,126.341996 L404.734578,125 Z" id="Path" fill="#FFD2C6"></path>
                    <path d="M422,141 C422,141 416.255511,143.828209 415.138885,143.979937 C414.02226,144.131665 420.005565,143.373025 420.005565,143.373025 L422,141 Z" id="Path" fill="#000000" opacity="0.1"></path>
                    <path d="M426,144 C426,144 418.358235,146.109396 415,145.729705 C415,145.719158 423.36,147.02171 426,144 Z" id="Path" fill="#000000" opacity="0.1"></path>
                    <path d="M426.967409,144 C426.967409,144 420.062484,148.511311 416,147.776284 C416,147.776284 425.494272,149.738603 426.967409,148.693382 L422.723217,147.472833 C422.723217,147.472833 427.43466,144.876637 426.967409,144 Z" id="Path" fill="#000000" opacity="0.1"></path>
                    <path d="M418.546506,87.2044237 C416.528727,86.7142301 414.39644,87.1152021 412.697776,88.3042643 C411.507095,89.2414066 410.735115,90.6666438 409.367794,91.3629926 C408.65981,91.658111 407.934473,91.9102145 407.195783,92.1179128 C404.51953,93.2078653 402.938883,95.9763052 403.368594,98.8210833 C403.577944,99.9925112 404.127489,101.072828 404.402262,102.23124 C404.886385,104.294255 404.461142,106.454888 403.931223,108.511395 C402.467605,114.20243 400.247682,119.673921 397.33014,124.781226 C397.095169,125.096026 396.979338,125.483179 397.00303,125.874559 C397.07025,126.138326 397.208178,126.378997 397.402104,126.570908 C400.14983,129.733763 404.598528,130.81408 408.818249,130.957254 C410.366619,131.10946 411.927988,130.853588 413.345454,130.21535 C414.219092,129.710342 414.971486,129.021855 415.550177,128.197891 C417.007284,126.209696 417.730515,123.782441 417.597886,121.325514 C417.480127,119.373134 416.812822,117.336151 417.316572,115.416311 C417.372046,115.150018 417.493478,114.901717 417.669851,114.693931 C418.127805,114.231868 418.873616,114.355518 419.521294,114.283931 C421.26152,114.082185 422.386779,112.246948 422.59613,110.515838 C422.80548,108.784728 422.367153,107.034094 422.360611,105.309492 C422.350763,103.001946 423.076865,100.750746 424.434489,98.8796547 C425.010203,98.079179 425.74293,97.2982271 425.95228,96.2764817 C426.194342,95.0269586 425.468157,94.1158481 424.840106,93.1266423 C423.865317,91.5972782 423.387736,89.8010888 421.902656,88.6296609 C420.910666,87.9012699 419.761468,87.4132464 418.546506,87.2044237 Z" id="Path" fill="#D9509E"></path>
                    <path d="M416,162 C416,162 417.500805,169.079308 420,171 L416,162 Z" id="Path" fill="#000000" opacity="0.1"></path>
                    <g id="Group" opacity="0.1" transform="translate(397.000000, 94.000000)" fill="#000000">
                        <path d="M6.29782609,6.61068966 C6.21956522,6.33551724 6.12826087,6.0537931 6.03043478,5.77862069 C6.13478261,6.06034483 6.2,6.30931034 6.29782609,6.61068966 Z" id="Path"></path>
                        <path d="M27.9173913,1.06793103 C27.7217391,2.07034483 26.9847826,2.85655172 26.4043478,3.65586207 C25.0549006,5.54401265 24.3315635,7.81110884 24.3369565,10.1355172 C24.3369565,11.897931 24.7804348,13.6537931 24.5717391,15.3768966 C24.3630435,17.1 23.2673913,18.9672414 21.5065217,19.1637931 C20.8543478,19.2424138 20.1173913,19.117931 19.6673913,19.5831034 C19.4896845,19.7919108 19.3664246,20.0418156 19.3086957,20.3103448 C18.8065217,22.2431034 19.4782609,24.2413793 19.5891304,26.2593103 C19.7104278,28.7344669 18.977905,31.1758655 17.5152174,33.1713793 C16.9416643,34.0020715 16.1908071,34.6937082 15.3173913,35.1958621 C13.9080153,35.8430847 12.3529408,36.1030786 10.8108696,35.9493103 C6.69565217,35.8117241 3.16115127,34.0596552 0.395933882,31 C0.395933882,33.4830516 5.02726603,36.4865517 9.23378777,36.6306897 C10.7773141,36.7839194 14.4448315,37.0614561 15.8578641,36.4189238 C16.7287689,35.9105178 17.4144235,35.4291633 17.9913043,34.5996552 C19.4438538,32.5980813 20.164822,30.1544941 20.0326087,27.6810345 C19.9152174,25.7155172 19.25,23.6648276 19.7521739,21.732069 C19.8074749,21.4639841 19.9285266,21.2140114 20.1043478,21.0048276 C20.5608696,20.5396552 21.3043478,20.6641379 21.95,20.592069 C23.6847826,20.3889655 24.8065217,18.5413793 25.0152174,16.7986207 C25.223913,15.0558621 24.7869565,13.2934483 24.7804348,11.5572414 C24.7706183,9.23416782 25.4944487,6.96781952 26.8478261,5.08413793 C27.4217391,4.27827586 28.1521739,3.49206897 28.3608696,2.46344828 C28.4690231,1.74835931 28.3111432,1.01830609 27.9173913,0.412758621 C27.9446722,0.630289606 27.9446722,0.85040005 27.9173913,1.06793103 Z" id="Path"></path>
                    </g>
                    <path d="M140.986115,329.050179 L142,332.118877 L138.724372,335.443847 L127.844609,338 L120,337.231183 L120.506942,334.418757 C120.81097,333.186042 121.77227,332.229344 122.99616,331.941458 C126.24579,331.17264 132.368095,329.431302 133.661448,327 L140.986115,329.050179 Z" id="Path" fill="#C6A198"></path>
                    <path d="M122.508414,336.044922 L124.052219,334.024363 L122.508414,331.692948 C122.508414,331.692948 117.890194,333.519223 115.831787,333.266653 C113.77338,333.014083 112.750774,336.550062 116.603689,337.553865 C120.456605,338.557669 142.287593,337.553865 142.287593,337.553865 C142.287593,337.553865 146.140509,335.792352 142.287593,331 L138.962474,333.519223 C138.962474,333.519223 133.308453,336.550062 130.484741,336.044922 L122.508414,336.044922 Z" id="Path" fill="#4300FF"></path>
                    <path d="M116,341.237754 L123.839976,342 L134.713316,339.443847 L138,336.118877 L137.733688,335.304062 L137.356953,334.160693 L136.993209,333.050179 L129.659876,331 C129.287948,331.614717 128.778436,332.132414 128.172424,332.51135 C125.788603,334.154122 121.508119,335.343489 119.000886,335.941458 L118.68261,336.033453 C118.195258,336.194678 117.750872,336.466663 117.383525,336.828554 C116.942822,337.263818 116.630255,337.814338 116.480661,338.418757 L116,341.237754 Z" id="Path" fill="#FFD2C6"></path>
                    <path d="M116,341.20314 L123.839976,342 L134.713316,339.327772 L138,335.851816 L137.733688,335 L134.713316,337.452404 C134.713316,337.452404 129.153233,340.667321 126.366696,340.131501 L118.533215,340.131501 L120.046649,337.988224 L118.68261,335.762512 C118.195258,335.931059 117.750872,336.215395 117.383525,336.593719 C116.942822,337.048748 116.630255,337.624268 116.480661,338.256133 L116,341.20314 Z" id="Path" fill="#000000" opacity="0.1"></path>
                    <path d="M118.516746,340.044922 L120.053829,338.024363 L118.516746,335.692948 C118.516746,335.692948 113.898898,337.519223 111.83406,337.266653 C109.769223,337.014083 108.753296,340.550062 112.605901,341.553865 C116.458505,342.557669 138.287731,341.553865 138.287731,341.553865 C138.287731,341.553865 142.140336,339.792352 138.287731,335 L134.949687,337.493318 C134.949687,337.493318 129.302719,340.524157 126.472638,340.019017 L118.516746,340.044922 Z" id="Path" fill="#4300FF"></path>
                    <path d="M125,192.855792 C125,192.855792 136.974373,194.158129 135.250934,188.935355 C134.765002,187.45159 134.637336,185.864822 134.879338,184.316757 C135.192291,182.398934 135.91747,180.580821 137,179 L125.775227,180.83267 C126.445351,182.010675 126.956356,183.280347 127.293647,184.60542 C128.607048,190.150422 125,192.855792 125,192.855792 Z" id="Path" fill="#DB8B8B"></path>
                    <path d="M145,250 C145,250 144.741836,260.994464 142.166814,266.366909 L141.624007,281.95882 C141.624007,281.95882 142.3985,296.276581 143.940865,299.094159 C145.48323,301.911736 140.59135,325.687102 140.59135,325.687102 L140.59135,329.772261 C140.59135,329.772261 132.349956,332.845982 130,329.266542 L132.356575,298.838015 L131.343778,256.633458 L145,250 Z" id="Path" fill="#474463"></path>
                    <path d="M145,250 C145,250 144.741836,260.994464 142.166814,266.366909 L141.624007,281.95882 C141.624007,281.95882 142.3985,296.276581 143.940865,299.094159 C145.48323,301.911736 140.59135,325.687102 140.59135,325.687102 L140.59135,329.772261 C140.59135,329.772261 132.349956,332.845982 130,329.266542 L132.356575,298.838015 L131.343778,256.633458 L145,250 Z" id="Path" fill="#FF5D11" opacity="0.659384301"></path>
                    <path d="M150.190572,215 L151.678815,219.106136 L152.924341,227.8325 C153.266732,230.2979 152.434096,232.782147 150.688782,234.5025 C147.705907,237.580455 143.726611,244 143.726611,244 L139,229.387955 C139,229.387955 143.726611,228.616818 142.979296,225.281818 C142.23198,221.946818 142.481085,215.784318 142.481085,215.784318 L150.190572,215 Z" id="Path" fill="#FC6681"></path>
                    <path d="M150.190572,215 L151.678815,219.106136 L152.924341,227.8325 C153.266732,230.2979 152.434096,232.782147 150.688782,234.5025 C147.705907,237.580455 143.726611,244 143.726611,244 L139,229.387955 C139,229.387955 143.726611,228.616818 142.979296,225.281818 C142.23198,221.946818 142.481085,215.784318 142.481085,215.784318 L150.190572,215 Z" id="Path" fill="#35BA9C" opacity="0.957761347"></path>
                    <path d="M128,332.338261 C131.182461,336.911624 136.121641,334.316561 137,333.798712 L136.643564,332.815381 L129.457567,331 C129.093112,331.544316 128.593836,332.002724 128,332.338261 Z" id="Path" fill="#000000" opacity="0.1"></path>
                    <path d="M117,260.326862 C117.259331,263.898852 121.65465,276.915314 121.65465,276.915314 L124.759967,287.624729 C126.988367,295.195479 128.136454,303.03518 128.17116,310.918035 C128.105233,313.400884 128.44883,315.877808 129.188534,318.252084 C131.263178,323.862402 127.120539,331.517602 127.120539,331.517602 C130.744517,337.89475 136.95515,333.562484 136.95515,333.562484 L136.95515,329.479274 C136.95515,329.479274 141.875781,307.280504 140.579128,302.941683 C139.282475,298.602863 138.770464,286.864452 138.770464,286.864452 L138.770464,265.688124 C142.906245,261.60649 145.417033,256.196421 145.845532,250.443265 C145.912027,249.610893 145.958574,248.732642 145.991821,247.821621 C146.204605,242.060558 142.208256,235.31638 140.672221,232.904467 C140.299849,232.327705 140.067117,232 140.067117,232 L117.179537,240.939806 L117.126341,240.939806 L117.126341,241.811502 L117.126341,243.744965 L117,260.326862 Z" id="Path" fill="#FF5D11"></path>
                    <path d="M125,180.751801 C125.656705,181.877824 126.157478,183.09147 126.488014,184.358071 C128.89986,185.301221 131.583253,185.20162 133.921804,184.082147 C134.22849,182.248951 134.939148,180.511064 136,179 L125,180.751801 Z" id="Path" fill="#000000" opacity="0.1"></path>
                    <circle id="Oval" fill="#FFD2C6" cx="130" cy="175" r="10"></circle>
                    <path d="M118,243.714643 L118.10384,243.714643 C128.702001,245.902159 142,234.794798 142,234.794798 C141.644662,234.188467 141.336547,233.555349 141.078421,232.901126 C140.714981,232.326495 140.487831,232 140.487831,232 L118.17523,240.919845 L118.11682,241.807911 L118,243.714643 Z" id="Path" fill="#000000" opacity="0.1"></path>
                    <path d="M120.586645,191.934766 C120.586645,191.934766 134.773741,183.305666 139.335739,186.857675 L145.667869,194.978414 C145.667869,194.978414 149.722255,196.242799 148.960838,204.363538 L152,219.079933 L142.889021,221.367557 C142.889021,221.367557 137.507035,226.43813 141.83475,233.809363 C141.83475,233.809363 128.409071,244.97375 117.755734,242.692643 L118.510643,230.765715 C118.510643,230.765715 120.794896,224.170059 116.74051,218.082763 C112.686124,211.995468 116.486704,206.155835 120.287284,203.868212 C120.3003,203.829107 122.076941,194.215873 120.586645,191.934766 Z" id="Path" fill="#35BA9C"></path>
                    <path d="M119.353674,244 C119.353674,244 113.945253,245.041033 111.363509,249.225314 C110.62246,250.483604 109.716047,251.6337 108.669229,252.643932 C108.191579,253.084689 107.947074,253.728374 108.009641,254.38036 C108.072208,255.032346 108.434503,255.616089 108.986982,255.955088 C111.032517,257.197611 114.368923,257.969991 118.579151,254.457344 C125.794792,248.439502 119.353674,244 119.353674,244 Z" id="Path" fill="#FFD2C6"></path>
                    <path d="M127.847207,197.19025 C127.847207,197.19025 133.052625,196.681351 134.348968,209.893131 C135.645311,223.104912 137.730151,226.151777 137.730151,226.151777 C137.730151,226.151777 139.033176,233.008854 135.912598,237.073515 C132.79202,241.138176 126.804787,249.769872 126.804787,249.769872 C126.804787,249.769872 120.303025,251.551016 119,245.202837 L127.065392,230.470887 C127.065392,230.470887 128.368417,225.394954 125.247839,221.83919 C122.12726,218.283427 119.781815,194.652283 127.847207,197.19025 Z" id="Path" fill="#000000" opacity="0.1"></path>
                    <path d="M126.845439,196.193056 C126.845439,196.193056 132.049818,195.684122 133.345902,208.890307 C134.641986,222.096493 136.73309,225.150097 136.73309,225.150097 C136.73309,225.150097 138.029174,232.007657 134.90922,236.072605 C131.789265,240.137552 125.803227,248.769856 125.803227,248.769856 C125.803227,248.769856 119.302765,250.551125 118,244.2025 L126.06378,229.469512 C126.06378,229.469512 127.366545,224.386696 124.24659,220.830683 C121.126636,217.274669 118.781659,193.635336 126.845439,196.193056 Z" id="Path" fill="#50E3C2"></path>
                    <path d="M122,196 C122,196 124.00321,194.120846 129.749599,193.885196 C135.495987,193.649547 138,192 138,192" id="Path" fill="#000000" opacity="0.1"></path>
                    <path d="M136.11751,162.284796 C137.656839,162.474922 139.42446,163.005962 139.978879,164.467962 C140.125619,165.020784 140.24319,165.581015 140.331099,166.146311 C140.905086,168.375369 143.403235,169.424338 144.942565,171.122356 C146.305785,172.623692 146.89934,174.662624 147.342876,176.642552 C148.607128,182.331398 148.909217,188.193624 148.236469,193.983313 C147.740753,198.218523 146.729753,202.388173 146.442759,206.636495 C146.155765,210.884818 146.677572,215.362602 148.993089,218.935651 C149.984522,220.469767 151.295561,221.820314 152,223.524888 C150.545464,224.711534 148.536508,224.881991 146.664527,224.947552 C144.490333,225.017483 142.316138,225.017483 140.141944,224.947552 C138.990895,224.99596 137.845824,224.757212 136.808904,224.25261 C136.075475,223.783464 135.473699,223.133462 135.060851,222.364467 C133.815038,220.233749 133.495431,217.676889 133.547612,215.198701 C133.599793,212.720513 133.991148,210.268549 134.036806,207.796917 C134.036806,206.44637 133.958535,205.01715 133.18887,203.915733 C132.555971,203.179429 131.840225,202.519412 131.055985,201.948917 C128.342591,199.529734 127.409861,195.641994 127.318545,191.996829 C127.227229,188.351663 127.820784,184.693386 127.514223,181.054776 C127.396816,179.632113 126.861964,177.920983 125.472654,177.645628 C125.03421,177.621413 124.598168,177.564436 124.168137,177.475171 C123.046253,177.042472 123.157137,175.455907 122.863621,174.295485 C122.504879,172.984275 121.402562,171.987755 121.089478,170.669988 C120.358949,167.582087 124.265976,163.897585 126.829351,162.802724 C129.392727,161.707863 133.36498,161.943881 136.11751,162.284796 Z" id="Path" fill="#000000" opacity="0.1"></path>
                    <path d="M136.134201,161.274142 C137.671913,161.470857 139.639049,162.04859 140.121827,164.847495 C149.521153,161.792159 151.13693,171.306608 151.58,173.286872 C152.842924,178.976684 148.912465,187.187371 148.240425,192.978044 C147.745229,197.213974 146.735291,201.384332 146.448599,205.633376 C146.161907,209.88242 146.683166,214.360965 148.996249,217.934621 C149.98664,219.468998 151.296301,220.819774 152,222.524637 C150.546993,223.711485 148.540148,223.881971 146.670134,223.947543 C144.498225,224.017486 142.315456,224.017486 140.121827,223.947543 C138.971988,223.99596 137.82812,223.757171 136.79229,223.252483 C136.06138,222.783962 135.460559,222.136454 135.046074,221.370576 C133.795055,219.23294 133.4823,216.675645 133.534425,214.197036 C133.586551,211.718427 133.977495,209.266046 134.023105,206.793994 C134.023105,205.449775 133.944916,204.013756 133.17606,202.912152 C132.542136,202.177377 131.827341,201.517431 131.045417,200.945002 C128.334874,198.525407 127.396609,194.643564 127.305389,190.991222 C127.214169,187.33888 127.813616,183.686539 127.507377,180.047311 C127.390093,178.624406 126.855804,176.912985 125.467954,176.637584 C125.029971,176.613364 124.594386,176.556378 124.164808,176.467098 C123.044103,176.034325 123.15487,174.447491 122.861662,173.286872 C122.503297,171.975439 121.402139,170.978749 121.089384,169.660759 C120.359622,166.57889 124.262544,162.887205 126.823225,161.792159 C129.383906,160.697112 133.384564,160.959398 136.134201,161.274142 Z" id="Path" fill="#FF0000"></path>
                    <ellipse id="Oval" fill="#B8E986" opacity="0.224493118" cx="629.5" cy="388" rx="15.5" ry="2"></ellipse>
                    <ellipse id="Oval" fill="#B8E986" opacity="0.224493118" cx="569.5" cy="394" rx="15.5" ry="2"></ellipse>
                    <ellipse id="Oval" fill="#B8E986" opacity="0.224493118" cx="594" cy="411.5" rx="11" ry="1.5"></ellipse>
                    <ellipse id="Oval" fill="#B8E986" opacity="0.224493118" cx="531" cy="409.5" rx="11" ry="1.5"></ellipse>
                    <path d="M569.125354,393 C569.125354,393 591.23189,320.946604 565.66423,292.083453 C546.539384,270.49486 524.833472,273.074259 515.093724,275.758141 C510.001117,277.108361 505.761072,280.612818 503.495345,285.344364 C500.099897,292.631983 500.710684,304.471099 524.708688,318.282313 C564.882686,341.405485 567.398076,373.135361 567.398076,373.135361 L569.125354,393 Z" id="Path" fill="#B8E986"></path>
                    <path d="M519,286 C519,286 583.301733,306.236715 568.896538,393" id="Path" stroke="#565987" stroke-width="0.6"></path>
                    <path d="M557,294 C557,294 547.595288,300 550.588009,309" id="Path" stroke="#565987" stroke-width="0.6"></path>
                    <path d="M526,299 C526,299 531.416847,294.116373 538,296.810986" id="Path" stroke="#565987" stroke-width="0.6"></path>
                    <path d="M551,326.798174 C551,326.798174 560.534959,322.042012 563,328" id="Path" stroke="#565987" stroke-width="0.6"></path>
                    <path d="M575,337.037225 C575,337.037225 568.131133,336.44332 568,340" id="Path" stroke="#565987" stroke-width="0.6"></path>
                    <path d="M570,394 C570,394 544.152963,341.874658 537.051913,343.018556 C533.6817,343.558007 532.127731,346.846713 531.419593,350.167917 C530.548423,354.439348 531.041151,358.873695 532.829312,362.854783 C536.488025,371.180539 546.323275,387.019624 570,394 Z" id="Path" fill="#B8E986"></path>
                    <path d="M538,353 C538,353 564.815715,392.272031 570,394" id="Path" stroke="#565987" stroke-width="0.6"></path>
                    <path d="M535,358.5 L541,358.5" id="Path" stroke="#565987" stroke-width="0.6"></path>
                    <path d="M543,373.175 L553,373.825" id="Path" stroke="#565987" stroke-width="0.6"></path>
                    <path d="M549,362 L548,367" id="Path" stroke="#565987" stroke-width="0.6"></path>
                    <path d="M559.645,377 L559.355,382" id="Path" stroke="#565987" stroke-width="0.6"></path>
                    <path d="M569,394 C569,394 594.847037,341.874658 601.948087,343.018556 C605.324856,343.558007 606.878826,346.846713 607.580407,350.167917 C608.451577,354.439348 607.958849,358.873695 606.170688,362.854783 C602.479191,371.180539 592.643941,387.019624 569,394 Z" id="Path" fill="#B8E986"></path>
                    <path d="M602,353 C602,353 575.178854,392.272031 570,394" id="Path" stroke="#565987" stroke-width="0.6"></path>
                    <path d="M604,358.5 L598,358.5" id="Path" stroke="#565987" stroke-width="0.6"></path>
                    <path d="M597,373.175 L587,373.825" id="Path" stroke="#565987" stroke-width="0.6"></path>
                    <path d="M591,362 L592,367" id="Path" stroke="#565987" stroke-width="0.6"></path>
                    <path d="M580.355,377 L580.645,382" id="Path" stroke="#565987" stroke-width="0.6"></path>
                    <path d="M523.556126,407.728536 C522.841342,407.18504 522.321368,406.451063 522.065654,405.624639 C521.825147,404.770148 522.261569,403.875659 523.110316,403.483505 C524.068476,403.142165 525.106484,403.762783 525.865028,404.389608 C526.623572,405.016433 527.528502,405.730144 528.526586,405.599814 C527.465251,404.69826 526.985874,403.345126 527.262346,402.031257 C527.308769,401.766191 527.430551,401.517585 527.615002,401.31134 C528.147314,400.777608 529.112129,401.007237 529.750903,401.423051 C531.747071,402.751175 532.339268,405.320536 532.352575,407.629237 C532.452526,406.77947 532.452526,405.922055 532.352575,405.072288 C532.274365,404.206479 532.660516,403.360663 533.383929,402.813237 C533.865187,402.569853 534.407062,402.449924 534.954248,402.46569 C535.868096,402.344553 536.79417,402.590376 537.50269,403.142165 C538.274542,403.911732 538.074925,405.208825 537.402882,406.059072 C536.645946,406.85506 535.745092,407.52095 534.741324,408.026433 C533.988186,408.44784 533.34497,409.020218 532.858271,409.702103 C532.803735,409.797986 532.757025,409.897567 532.71854,410 L527.016152,410 C525.758565,409.391382 524.594732,408.627341 523.556126,407.728536 Z" id="Path" fill="#B8E986"></path>
                    <path d="M623.555805,386.697505 C622.840811,386.154009 622.320683,385.420032 622.064894,384.593608 C621.826795,383.74262 622.259778,382.852343 623.103207,382.45868 C624.06165,382.111134 625.099963,382.731752 625.865387,383.358577 C626.63081,383.985402 627.52935,384.699113 628.527728,384.599814 C627.466081,383.69826 626.986563,382.345126 627.263116,381.031257 C627.309553,380.766191 627.431371,380.517585 627.615876,380.31134 C628.148345,379.777608 629.113444,380.007237 629.752406,380.423051 C631.749162,381.751175 632.341533,384.320536 632.354845,386.629237 C632.454825,385.77947 632.454825,384.922055 632.354845,384.072288 C632.276611,383.206479 632.662876,382.360663 633.386502,381.813237 C633.867902,381.569853 634.409936,381.449924 634.957284,381.46569 C635.869447,381.343172 636.794349,381.589254 637.49982,382.142165 C638.278555,382.911732 638.072224,384.208825 637.399982,385.059072 C636.643301,385.85553 635.742087,386.52149 634.737641,387.026433 C633.984281,387.44784 633.340876,388.020218 632.854034,388.702103 C632.799481,388.797986 632.752758,388.897567 632.714261,389 L627.010194,389 C625.752617,388.381307 624.590612,387.606782 623.555805,386.697505 Z" id="Path" fill="#B8E986"></path>
                    <path d="M587.559538,409.728536 C586.844414,409.185384 586.323278,408.451514 586.065518,407.624639 C585.82551,406.770148 586.261026,405.875659 587.108012,405.483505 C588.064184,405.142165 589.100038,405.762783 589.863648,406.389608 C590.627258,407.016433 591.52367,407.730144 592.519683,407.599814 C591.45598,406.701038 590.976726,405.34544 591.258066,404.031257 C591.301457,403.765364 591.423331,403.516051 591.609991,403.31134 C592.141198,402.777608 593.097371,403.007237 593.734819,403.423051 C595.726846,404.751175 596.324453,407.320536 596.331094,409.629237 C596.444088,408.780828 596.457447,407.923413 596.370934,407.072288 C596.290119,406.207404 596.673114,405.361298 597.393508,404.813237 C597.874107,404.570686 598.414614,404.450811 598.960568,404.46569 C599.872577,404.343754 600.797073,404.589668 601.503722,405.142165 C602.273972,405.911732 602.07477,407.208825 601.404121,408.059072 C600.647815,408.854129 599.749017,409.519881 598.748086,410.026433 C597.993745,410.444439 597.351124,411.017476 596.868941,411.702103 C596.811765,411.796722 596.765044,411.896536 596.729499,412 L591.032303,412 C589.770078,411.393208 588.601823,410.629077 587.559538,409.728536 Z" id="Path" fill="#B8E986"></path>
                    <ellipse id="Oval" fill="#B8E986" opacity="0.897019159" cx="110.5" cy="396.5" rx="22.5" ry="3.5"></ellipse>
                    <ellipse id="Oval" fill="#B8E986" opacity="0.897019159" cx="165.5" cy="426.5" rx="22.5" ry="3.5"></ellipse>
                    <ellipse id="Oval" fill="#B8E986" opacity="0.897019159" cx="408" cy="348.5" rx="15" ry="1.5"></ellipse>
                    <ellipse id="Oval" fill="#B8E986" opacity="0.897019159" cx="338" cy="396.5" rx="15" ry="1.5"></ellipse>
                    <ellipse id="Oval" fill="#B8E986" opacity="0.897019159" cx="306" cy="426.5" rx="15" ry="1.5"></ellipse>
                </g>
            </g>
        </g>
    </g>
</svg>