<svg height="686" viewBox="0 0 654 686" width="654" xmlns="http://www.w3.org/2000/svg" xmlns:xlink="http://www.w3.org/1999/xlink"><linearGradient id="a" x1="32.558791%" x2="86.617594%" y1="59.411905%" y2="59.411905%"><stop offset="0" stop-color="#3f51b5"/><stop offset="1" stop-color="#3f51b5" stop-opacity="0"/></linearGradient><path d="m928.393378 0 751.606622-.00000126v583.62774726c-65.58358-12.594751-130.92032-20.873509-192.13066 4.460448-35.26192 14.539452-66.13652 39.449879-99.75162 58.220588-94.2832 52.457542-210.86752 52.959768-305.47756 1.255566-29.00152-15.845241-59.37328-43.706247-55.95394-79.263872 3.53248-36.750413 39.64923-56.123794 68.97759-73.86494 37.95213-22.964299 74.62201-59.526377 77.77735-107.23788 3.40677-51.4782-33.65281-95.762007-73.65403-122.442782-40.00122-26.680774-85.87314-43.455134-120.908775-77.631637-46.565847-45.480999-63.870177-120.6127289-50.484978-187.12323826z" fill="url(#a)" transform="translate(-924)"/></svg>