<svg class="logo" height="20" title="Renaissance" viewBox="0 0 421.73 37.73" xmlns="http://www.w3.org/2000/svg">
    <defs>
        <style type="text/css">
            .logo-main {
            fill: url(#linear-gradient);
            }

            .logo-legal {
            fill: #78c42a;
            }
        </style>
        <linearGradient id="linear-gradient" x1="101.29" y1="137" x2="322.8" y2="-84.51" gradientUnits="userSpaceOnUse">
            <stop offset="0" stop-color="#005f9e"></stop>
            <stop offset="0.44" stop-color="#005f9e"></stop>
            <stop offset="0.78" stop-color="#62bb46"></stop>
            <stop offset="0.82" stop-color="#62bb46"></stop>
            <stop offset="0.93" stop-color="#62bb46"></stop>
            <stop offset="1" stop-color="#62bb46"></stop>
        </linearGradient>
    </defs>
    <path class="logo-main"
          d="M365.4,45c-11.53,0-20.22-8.14-20.22-18.92,0-10.45,8.76-18.64,19.94-18.64,5.5,0,9.49.93,11.39,1.8l.5.23,1.41,5.92-2.14-1a21.62,21.62,0,0,0-10.66-2.27c-8.82,0-15.72,6.14-15.72,14s7.08,14.2,15.78,14.2c5.64,0,8.6-1.11,10.75-2.2L378.6,37l-1.43,6-.55.22C374.3,44.12,371.34,45,365.4,45Zm-128.62-.06a36.12,36.12,0,0,1-11.62-1.7l-.6-.21-1.3-5.78,2,.85a27.38,27.38,0,0,0,11,2.12c8,0,12.81-2.13,12.81-5.71,0-2.14-.89-4.33-7.31-5.91l-8.62-2.1c-2.52-.62-9.21-2.26-9.21-9,0-3.81,2.13-10.2,16.36-10.2a40.12,40.12,0,0,1,10.46,1.24l.62.19,1.39,5.63-2-.69A28.57,28.57,0,0,0,240.53,12c-7.47,0-11.75,1.94-11.75,5.31,0,2.32,1,3.6,7.07,5L244,24.21c6.17,1.44,10,5.19,10,9.78C254,41.24,248.19,44.92,236.78,44.92Zm-36.34,0a36.12,36.12,0,0,1-11.62-1.7l-.6-.21-1.29-5.78,2,.85a27.38,27.38,0,0,0,11,2.12c8,0,12.81-2.13,12.81-5.71,0-2.14-.89-4.33-7.31-5.91l-8.62-2.1c-2.52-.62-9.21-2.27-9.21-9,0-3.81,2.13-10.2,16.36-10.2a40.12,40.12,0,0,1,10.46,1.24l.62.19,1.39,5.63-2-.69A28.57,28.57,0,0,0,204.19,12c-7.47,0-11.75,1.94-11.75,5.31,0,2.32,1,3.6,7.07,5l8.12,1.93c6.17,1.44,10,5.19,10,9.78C217.64,41.24,211.85,44.92,200.44,44.92ZM29.93,31.1c6.16-1.66,9.92-5.9,9.92-11.33,0-7.71-6.39-11.62-19-11.62-3.18,0-8.22.17-11.26.34l-1.07.06V44.24h4.78V31.68c2.85.14,6.67.16,8.33.16,1,0,2.1,0,3,0a78.65,78.65,0,0,0,6.48,11.74l.34.46h6.18l-1.28-1.81A92.81,92.81,0,0,1,29.93,31.1Zm-8.12-3.92c-2.2,0-6-.17-8.5-.32V13c3-.19,6.65-.21,7.77-.21,14,0,14,5.36,14,7.13,0,3.39-2.89,5.89-7.91,6.86A32,32,0,0,1,21.81,27.18ZM385.72,43.9V8.44h30l.76,4.72h-26V23.61h20.38v4.72H390.5V39.18h26.07l-1,4.72Zm-52.34,0L308,15.8V43.9h-4.78V8.44h4.37l24.91,27.48V8.44h4.72V43.9Zm-159.71,0V8.44h4.78V43.9Zm-57.89,0L90.36,15.8V43.9H85.58V8.44H90l24.91,27.48V8.44h4.72V43.9Zm-68,0V8.44h30l.76,4.72h-26V23.61H72.94v4.72H52.56V39.18H78.63l-1,4.72Zm116.72,0L149.9,8.44h-8.07l-10.42,27h0l-3.27,8.47h5.17l2.07-5.32A24.79,24.79,0,0,1,156.9,38l2.4,5.86ZM146.68,31.11a29.42,29.42,0,0,0-9,1.39l7.46-19.35h1.56l7.78,19A29.58,29.58,0,0,0,146.68,31.11Zm148,12.79L280,8.44H272l-10.42,27h0l-3.27,8.47h5.17l2.07-5.32A24.79,24.79,0,0,1,287,38l2.4,5.86ZM276.81,31.11a29.42,29.42,0,0,0-9,1.39l7.46-19.35h1.56l7.78,19A29.58,29.58,0,0,0,276.81,31.11Z"
          transform="translate(-8.53 -7.25)"></path>
    <path class="logo-legal"
          d="M423,9.68a4.16,4.16,0,0,1,6,0,4.44,4.44,0,0,1,1.24,3.19,4.46,4.46,0,0,1-1.25,3.2,4.15,4.15,0,0,1-6,0,4.46,4.46,0,0,1-1.24-3.2A4.44,4.44,0,0,1,423,9.68Zm.51,5.88a3.42,3.42,0,0,0,5,0,3.76,3.76,0,0,0,1-2.69,3.73,3.73,0,0,0-1-2.67,3.44,3.44,0,0,0-5,0,3.73,3.73,0,0,0-1,2.67A3.77,3.77,0,0,0,423.49,15.56Zm1.64-.21h-.9V10.25h1.68a2.32,2.32,0,0,1,1.43.39,1.35,1.35,0,0,1,.52,1.15,1.11,1.11,0,0,1-.2.66,1.49,1.49,0,0,1-.58.47,1.09,1.09,0,0,1,.57.48,1.57,1.57,0,0,1,.18.77v.34a4.26,4.26,0,0,0,0,.44,1,1,0,0,0,.08.32v.1H427A1.1,1.1,0,0,1,427,15c0-.16,0-.33,0-.5v-.32a.89.89,0,0,0-.2-.64.91.91,0,0,0-.67-.2h-1Zm.91-2.81a1.17,1.17,0,0,0,.66-.2.6.6,0,0,0,.27-.53.72.72,0,0,0-.24-.62,1.43,1.43,0,0,0-.83-.18h-.79v1.52Z"
          transform="translate(-8.53 -7.25)"></path>
</svg>
