<?xml version="1.0" encoding="UTF-8"?>
<svg width="253px" height="25px" viewBox="0 0 253 25" version="1.1" xmlns="http://www.w3.org/2000/svg" xmlns:xlink="http://www.w3.org/1999/xlink">
    <!-- Generator: Sketch 52.5 (67469) - http://www.bohemiancoding.com/sketch -->
    <title>…/Logo/Scond</title>
    <desc>Created with Sketch.</desc>
    <defs>
        <path d="M19.4615385,16.6666667 C19.4615385,10.5301694 14.4825513,5.55555556 8.34065934,5.55555556 L8.34065934,3.33333333 C8.34065934,1.49238417 9.83435549,3.38176876e-16 11.6769231,0 L21.6857143,4.11193713e-16 C23.5282819,7.30168373e-17 25.021978,1.49238417 25.021978,3.33333333 L25.021978,13.3333333 C25.021978,15.1742825 23.5282819,16.6666667 21.6857143,16.6666667 L19.4615385,16.6666667 Z" id="path-1"></path>
    </defs>
    <g id="•-Homepage" stroke="none" stroke-width="1" fill="none" fill-rule="evenodd">
        <g id="homepage_template-01" transform="translate(-201.000000, -30.000000)">
            <g id="header" transform="translate(0.000000, -156.000000)">
                <g id="nav" transform="translate(181.000000, 166.000000)">
                    <g id="…/Logo/Scond" transform="translate(20.000000, 20.000000)">
                        <g id="logo-black">
                            <polygon id="Path" fill="#FFFFFF" points="239.83898 3.11940784 241.195488 3.11940784 241.195488 13.5391248 241.253212 13.5391248 250.633325 3.11940784 252.191867 3.11940784 246.044285 10.0658858 253 21.8805922 251.47032 21.8805922 245.120705 11.0623068 241.195488 15.4180901 241.195488 21.8805922 239.83898 21.8805922"></polygon>
                            <path d="M233.085298,21.8805922 L227.947882,13.2544331 L223.907218,13.2544331 L223.907218,21.8805922 L222.579571,21.8805922 L222.579571,3.11940784 L228.005606,3.11940784 C228.948432,3.11940784 229.80466,3.20955932 230.574314,3.38986497 C231.343968,3.57017063 232.002974,3.85960432 232.551353,4.25817472 C233.099732,4.65674512 233.523035,5.16918509 233.821276,5.79551 C234.119517,6.42183492 234.268635,7.18100525 234.268635,8.07304376 C234.268635,9.57242765 233.830901,10.7443968 232.955419,11.5889865 C232.079938,12.4335762 230.891802,12.9602506 229.390976,13.1690255 L234.64384,21.8805922 L233.085298,21.8805922 Z M227.659263,12.1726045 C229.352502,12.1726045 230.651274,11.8357227 231.555618,11.1619489 C232.459962,10.4881751 232.912127,9.45855039 232.912127,8.07304376 C232.912127,6.66855759 232.459962,5.67689135 231.555618,5.09801529 C230.651274,4.51913923 229.352502,4.22970555 227.659263,4.22970555 L223.907218,4.22970555 L223.907218,12.1726045 L227.659263,12.1726045 Z" id="Combined-Shape" fill="#FFFFFF"></path>
                            <path d="M210.544164,22.2222222 C209.505131,22.2222222 208.552698,21.9897263 207.686837,21.5247275 C206.820976,21.0597287 206.070575,20.4001995 205.43561,19.5461201 C204.800646,18.6920406 204.309998,17.6624159 203.963654,16.4572149 C203.61731,15.2520139 203.44414,13.9092314 203.44414,12.4288271 C203.44414,10.9484227 203.61731,9.61512984 203.963654,8.42890841 C204.309998,7.24268698 204.800646,6.22729667 205.43561,5.38270701 C206.070575,4.53811735 206.820976,3.89282258 207.686837,3.44680332 C208.552698,3.00078406 209.505131,2.77777778 210.544164,2.77777778 C211.583197,2.77777778 212.53563,3.00078406 213.401491,3.44680332 C214.267352,3.89282258 215.017754,4.53811735 215.652718,5.38270701 C216.287683,6.22729667 216.77833,7.24268698 217.124674,8.42890841 C217.471019,9.61512984 217.644188,10.9484227 217.644188,12.4288271 C217.644188,13.9092314 217.471019,15.2520139 217.124674,16.4572149 C216.77833,17.6624159 216.287683,18.6920406 215.652718,19.5461201 C215.017754,20.4001995 214.267352,21.0597287 213.401491,21.5247275 C212.53563,21.9897263 211.583197,22.2222222 210.544164,22.2222222 Z M210.544164,21.026517 C211.390784,21.026517 212.165237,20.82249 212.867546,20.4144298 C213.569856,20.0063696 214.171139,19.4275023 214.671414,18.6778103 C215.171689,17.9281184 215.561321,17.0266036 215.84032,15.973239 C216.11932,14.9198743 216.258818,13.7384155 216.258818,12.4288271 C216.258818,11.1382182 216.11932,9.97099378 215.84032,8.92711892 C215.561321,7.88324406 215.171689,6.99596374 214.671414,6.26525134 C214.171139,5.53453894 213.569856,4.96990601 212.867546,4.57133561 C212.165237,4.17276521 211.390784,3.973483 210.544164,3.973483 C209.697545,3.973483 208.923092,4.17276521 208.220782,4.57133561 C207.518473,4.96990601 206.91719,5.53453894 206.416914,6.26525134 C205.916639,6.99596374 205.527008,7.88324406 205.248008,8.92711892 C204.969008,9.97099378 204.829511,11.1382182 204.829511,12.4288271 C204.829511,13.7384155 204.969008,14.9198743 205.248008,15.973239 C205.527008,17.0266036 205.916639,17.9281184 206.416914,18.6778103 C206.91719,19.4275023 207.518473,20.0063696 208.220782,20.4144298 C208.923092,20.82249 209.697545,21.026517 210.544164,21.026517 Z" id="Combined-Shape" fill="#FFFFFF"></path>
                            <path d="M184.972532,3.09093867 L186.213593,3.09093867 L188.262787,15.9305352 C188.358994,16.6897169 188.46001,17.4393976 188.565837,18.1795998 C188.671665,18.919802 188.77268,19.6789723 188.868887,20.4571336 L188.926611,20.4571336 C189.157507,19.6789723 189.3884,18.919802 189.619296,18.1795998 C189.850192,17.4393976 190.071465,16.6897169 190.28312,15.9305352 L192.649794,7.98763625 L193.861994,7.98763625 L196.286392,15.9305352 C196.498047,16.6897169 196.714509,17.4441424 196.935784,18.1938344 C197.15706,18.9435263 197.373522,19.6979518 197.585177,20.4571336 L197.700624,20.4571336 C197.796831,19.6979518 197.897847,18.9435263 198.003674,18.1938344 C198.109502,17.4441424 198.210517,16.6897169 198.306724,15.9305352 L200.269332,3.09093867 L201.481532,3.09093867 L198.422172,21.8805922 L196.805906,21.8805922 L194.092889,12.8843338 C193.938958,12.3339271 193.80427,11.7882734 193.688822,11.2473564 C193.573374,10.7064395 193.438687,10.1607858 193.284756,9.61037905 L193.19817,9.61037905 C193.044239,10.1607858 192.899931,10.7064395 192.765242,11.2473564 C192.630552,11.7882734 192.486244,12.3339271 192.332314,12.8843338 L189.705882,21.8805922 L188.118478,21.8805922 L184.972532,3.09093867 Z" id="Path" fill="#FFFFFF"></path>
                            <polygon id="Path" fill="#FFFFFF" points="170.916793 3.11940784 182.172929 3.11940784 182.172929 4.25817472 172.24444 4.25817472 172.24444 11.3469985 180.614387 11.3469985 180.614387 12.4857654 172.24444 12.4857654 172.24444 20.7418253 182.461548 20.7418253 182.461548 21.8805922 170.916793 21.8805922"></polygon>
                            <path d="M152.560633,3.11940784 L154.263485,3.11940784 L157.438292,11.8594436 L158.563906,15.1903367 L158.679353,15.1903367 L159.776105,11.8594436 L162.922051,3.11940784 L164.624902,3.11940784 L164.624902,21.8805922 L163.383841,21.8805922 L163.383841,8.75630389 C163.383841,8.12997897 163.398272,7.43249124 163.427134,6.66381975 C163.455996,5.89514826 163.489668,5.1881709 163.52815,4.54286644 L163.441565,4.54286644 L162.344813,7.90222873 L159.054558,16.7561412 L158.130977,16.7561412 L154.81186,7.90222873 L153.657385,4.54286644 L153.599661,4.54286644 C153.638144,5.1881709 153.676626,5.89514826 153.715109,6.66381975 C153.753591,7.43249124 153.772832,8.12997897 153.772832,8.75630389 L153.772832,21.8805922 L152.560633,21.8805922 L152.560633,3.11940784 Z" id="Path" fill="#FFFFFF"></path>
                            <path d="M145.027681,15.4465593 L137.494728,15.4465593 L135.243501,21.8805922 L133.915854,21.8805922 L140.611812,3.11940784 L141.939459,3.11940784 L148.635417,21.8805922 L147.221184,21.8805922 L145.027681,15.4465593 Z M144.652476,14.3362616 L143.440277,10.8345534 C143.05545,9.71476041 142.68987,8.64243232 142.343525,7.61753701 C141.997181,6.5926417 141.660462,5.50133435 141.333359,4.34358224 L141.217912,4.34358224 C140.890809,5.50133435 140.55409,6.5926417 140.207746,7.61753701 C139.861401,8.64243232 139.495821,9.71476041 139.110994,10.8345534 L137.898795,14.3362616 L144.652476,14.3362616 Z" id="Combined-Shape" fill="#FFFFFF"></path>
                            <path d="M129.182505,21.8805922 L124.045089,13.2544331 L120.004425,13.2544331 L120.004425,21.8805922 L118.676778,21.8805922 L118.676778,3.11940784 L124.102813,3.11940784 C125.045639,3.11940784 125.901866,3.20955932 126.671521,3.38986497 C127.441175,3.57017063 128.100181,3.85960432 128.64856,4.25817472 C129.196938,4.65674512 129.620242,5.16918509 129.918483,5.79551 C130.216724,6.42183492 130.365842,7.18100525 130.365842,8.07304376 C130.365842,9.57242765 129.928108,10.7443968 129.052626,11.5889865 C128.177145,12.4335762 126.989009,12.9602506 125.488183,13.1690255 L130.741047,21.8805922 L129.182505,21.8805922 Z M123.75647,12.1726045 C125.449709,12.1726045 126.748481,11.8357227 127.652825,11.1619489 C128.557168,10.4881751 129.009333,9.45855039 129.009333,8.07304376 C129.009333,6.66855759 128.557168,5.67689135 127.652825,5.09801529 C126.748481,4.51913923 125.449709,4.22970555 123.75647,4.22970555 L120.004425,4.22970555 L120.004425,12.1726045 L123.75647,12.1726045 Z" id="Combined-Shape" fill="#FFFFFF"></path>
                            <polygon id="Path" fill="#FFFFFF" points="102.312088 3.11940784 113.423914 3.11940784 113.423914 4.25817472 103.610873 4.25817472 103.610873 11.7170978 111.865373 11.7170978 111.865373 12.8558646 103.610873 12.8558646 103.610873 21.8805922 102.312088 21.8805922"></polygon>
                            <path d="M73.0009108,20.9205021 L73.0009108,4.03881915 C73.0009108,3.68626819 73.1274193,3.38796031 73.3804401,3.14388656 C73.6334609,2.89981282 73.9361777,2.77777778 74.2885995,2.77777778 L89.9170747,2.77777778 C90.2694965,2.77777778 90.5699542,2.90433264 90.8184568,3.15744615 C91.0669594,3.41055966 91.1912088,3.71338736 91.1912088,4.06593832 L91.1912088,5.34053928 C91.1912088,5.69309025 91.0669594,5.99365804 90.8184568,6.24225167 C90.5699542,6.49084529 90.2694965,6.61514024 89.9170747,6.61514024 L78.111002,6.61514024 L78.111002,10.5609794 L88.2769658,10.5609794 C88.6293877,10.5609794 88.9298454,10.6852743 89.1783479,10.933868 C89.4268505,11.1824616 89.5511,11.4830294 89.5511,11.8355804 L89.5511,13.1101813 C89.5511,13.4627323 89.4268505,13.7633001 89.1783479,14.0118937 C88.9298454,14.2604873 88.6293877,14.3847823 88.2769658,14.3847823 L78.111002,14.3847823 L78.111002,18.3848598 L89.8899654,18.3848598 C90.2333508,18.3848598 90.5270313,18.5068948 90.7710156,18.7509685 C91.015,18.9950423 91.1369903,19.2933502 91.1369903,19.6459011 L91.1369903,20.9476213 C91.1369903,21.3001722 91.0104818,21.60074 90.757461,21.8493336 C90.5044402,22.0979273 90.2017234,22.2222222 89.8493016,22.2222222 L74.2885995,22.2222222 C73.9361777,22.2222222 73.6334609,22.0979273 73.3804401,21.8493336 C73.1274193,21.60074 73.0009108,21.2911326 73.0009108,20.9205021 Z" id="Path" fill="#FFFFFF" fill-rule="nonzero"></path>
                            <path d="M64.0006441,20.9747404 L64.0006441,4.06593832 C64.0006441,3.71338736 64.1271526,3.41055966 64.3801734,3.15744615 C64.6331942,2.90433264 64.935911,2.77777778 65.2883329,2.77777778 L67.8094919,2.77777778 C68.1799867,2.77777778 68.4894807,2.90433264 68.7379833,3.15744615 C68.9864859,3.41055966 69.1107353,3.71338736 69.1107353,4.06593832 L69.1107353,20.9476213 C69.1107353,21.3001722 68.9819677,21.60074 68.7244287,21.8493336 C68.4668896,22.0979273 68.1619137,22.2222222 67.8094919,22.2222222 L65.2883329,22.2222222 C64.935911,22.2222222 64.6331942,22.1024471 64.3801734,21.8628932 C64.1271526,21.6233394 64.0006441,21.3272914 64.0006441,20.9747404 Z" id="Path" fill="#FFFFFF" fill-rule="nonzero"></path>
                            <path d="M41.7032967,20.9476213 L41.7032967,4.06593832 C41.7032967,3.71338736 41.825287,3.41055966 42.0692714,3.15744615 C42.3132558,2.90433264 42.6114544,2.77777778 42.9638762,2.77777778 L53.3060501,2.77777778 C58.7731069,2.77777778 61.5065943,5.2975754 61.5065943,10.3372462 C61.5065943,15.3769171 58.7731069,17.8967147 53.3060501,17.8967147 L46.8133879,17.8967147 L46.8133879,20.9476213 C46.8133879,21.3001722 46.6891384,21.60074 46.4406359,21.8493336 C46.1921333,22.0979273 45.8916756,22.2222222 45.5392537,22.2222222 L42.9909855,22.2222222 C42.6385636,22.2222222 42.3358468,22.0979273 42.082826,21.8493336 C41.8298052,21.60074 41.7032967,21.3001722 41.7032967,20.9476213 Z M46.8133879,14.0593522 L51.7608236,14.0593522 C53.2789485,14.0593522 54.4310795,13.8039826 55.2172513,13.2932357 C56.0034231,12.7824888 56.3965031,11.7971688 56.3965031,10.3372462 C56.3965031,8.87732366 56.0034231,7.89200369 55.2172513,7.38125678 C54.4310795,6.87050987 53.2789485,6.61514024 51.7608236,6.61514024 L46.8133879,6.61514024 L46.8133879,14.0593522 Z" id="Combined-Shape" fill="#FFFFFF" fill-rule="nonzero"></path>
                            <path d="M8.34065934,8.33333333 L8.34065934,16.6666667 L16.6813187,16.6666667 L16.6813187,21.6666667 C16.6813187,23.5076158 15.1876225,25 13.3450549,25 L3.33626374,25 C1.49369615,25 1.04391383e-15,23.5076158 0,21.6666667 L0,11.6666667 C-2.25649449e-16,9.8257175 1.49369615,8.33333333 3.33626374,8.33333333 L8.34065934,8.33333333 Z" id="Path" fill="#FFFFFF" fill-rule="nonzero" opacity="0.7"></path>
                            <g id="Path" fill-rule="nonzero">
                                <use fill="#FFA644" xlink:href="#path-1"></use>
                                <use fill="#FFFFFF" xlink:href="#path-1"></use>
                            </g>
                        </g>
                    </g>
                </g>
            </g>
        </g>
    </g>
</svg>