<?xml version="1.0" encoding="UTF-8"?>
<svg width="756px" height="686px" viewBox="0 0 756 686" version="1.1" xmlns="http://www.w3.org/2000/svg" xmlns:xlink="http://www.w3.org/1999/xlink">
    <!-- Generator: Sketch 52.5 (67469) - http://www.bohemiancoding.com/sketch -->
    <title>wave_header</title>
    <desc>Created with Sketch.</desc>
    <defs>
        <linearGradient x1="4.65716752%" y1="22.9978896%" x2="24.523178%" y2="81.6568247%" id="linearGradient-1">
            <stop stop-color="#3F51B5" offset="0%"></stop>
            <stop stop-color="#1D3095" offset="100%"></stop>
        </linearGradient>
    </defs>
    <g id="•-Homepage" stroke="none" stroke-width="1" fill="none" fill-rule="evenodd">
        <g id="homepage_template-01" transform="translate(-684.000000, 0.000000)" fill="url(#linearGradient-1)" fill-rule="nonzero">
            <g id="header" transform="translate(0.000000, -156.000000)">
                <path d="M688.393378,156 L1440,155.999999 L1440,739.627746 C1374.41642,727.032995 1309.07968,718.754237 1247.86934,744.088194 C1212.60742,758.627646 1181.73282,783.538073 1148.11772,802.308782 C1053.83452,854.766324 937.250202,855.26855 842.640156,803.564348 C813.638645,787.719107 783.266884,759.858101 786.686221,724.300476 C790.218699,687.550063 826.335449,668.176682 855.663809,650.435536 C893.615939,627.471237 930.285817,590.909159 933.441161,543.197656 C936.847927,491.719456 899.788345,447.435649 859.787127,420.754874 C819.785909,394.0741 773.913991,377.29974 738.878355,343.123237 C692.312508,297.642238 675.008178,222.510508 688.393377,155.999999 L688.393378,156 Z" id="wave_header"></path>
            </g>
        </g>
    </g>
</svg>