<?xml version="1.0" encoding="UTF-8"?>
<svg width="300px" height="42px" viewBox="0 0 300 42" version="1.1" xmlns="http://www.w3.org/2000/svg" xmlns:xlink="http://www.w3.org/1999/xlink">
    <!-- Generator: Sketch 52.5 (67469) - http://www.bohemiancoding.com/sketch -->
    <title>logo-black</title>
    <desc>Created with Sketch.</desc>
    <defs>
        <path d="M2.10743802,11.0488819 C2.10743802,11.2722361 2.10743802,11.4955903 2.10743802,11.7189444 C0.935072005,11.4097986 -0.32365022,12.3199792 0.107388529,13.8146771 C0.934824566,16.6835208 4.93492354,21.0808368 6.0555748,21.4587639 C6.0555748,21.4587639 10.1934973,17.5251667 10.2796061,11.169434 C10.3657149,5.34620139 6.43465136,1.03467708 6.45197209,0.0382118056 C6.45221953,1.03443056 2.19354679,5.22564931 2.10743802,11.0488819" id="path-1"></path>
        <linearGradient x1="52.6254251%" y1="0.755448965%" x2="46.9702874%" y2="99.2206942%" id="linearGradient-3">
            <stop stop-color="#DBEDD5" offset="0%"></stop>
            <stop stop-color="#FFFFFF" offset="32.03%"></stop>
            <stop stop-color="#FFFFFF" offset="100%"></stop>
        </linearGradient>
        <path d="M4.11367348,9.29976736 C3.97560251,9.55763542 3.83777899,9.798 3.71702875,10.0556215 C2.57905676,8.80153472 0.613648736,8.87006944 0.217004009,10.8802569 C-0.558717276,14.7453194 1.32033454,22.8358681 2.35487702,24.1242222 C2.35487702,24.1242222 9.3719998,22.8703819 13.2513485,15.7415382 C16.8201613,9.21397569 14.9755035,1.31226736 15.5790073,0.213 C14.975751,1.31202083 7.68273371,2.77220486 4.11367348,9.29976736" id="path-4"></path>
        <linearGradient x1="68.8591565%" y1="16.6969137%" x2="31.2204787%" y2="83.3425342%" id="linearGradient-6">
            <stop stop-color="#DCDCDC" offset="0%"></stop>
            <stop stop-color="#FFFFFF" stop-opacity="0" offset="48.83%"></stop>
            <stop stop-color="#FFFFFF" stop-opacity="0" offset="100%"></stop>
        </linearGradient>
        <path d="M1.87632998,9.22359028 C1.87632998,9.41243056 1.87632998,9.60127083 1.87632998,9.77310069 C0.910822982,9.51547917 -0.123719503,10.2713333 0.221210472,11.4909062 L5.13485426,17.8123715 C5.13485426,17.8123715 8.56584352,14.5658472 8.634879,9.30938194 C8.70391449,4.499625 5.4624635,0.926697917 5.47978423,0.119565972 C5.4624635,0.943708333 1.94511803,4.39657639 1.87632998,9.22359028" id="path-7"></path>
        <linearGradient x1="54.2491921%" y1="1.39476917%" x2="45.8829659%" y2="98.8766366%" id="linearGradient-9">
            <stop stop-color="#D1E180" offset="0%"></stop>
            <stop stop-color="#C5D92D" offset="100%"></stop>
        </linearGradient>
        <path d="M3.36640768,1.6374375 C3.24565745,1.84353472 3.14222794,2.04987847 3.03879844,2.27298611 C2.09061216,1.24225347 0.469886673,1.29377778 0.142277429,2.94304861 L5.40085119,5.38244097 C5.43524521,3.40676736 4.90077696,1.65494097 4.28019993,0.211767361 C3.95259069,0.64121875 3.6596229,1.12219444 3.36640768,1.6374375" id="path-10"></path>
        <linearGradient x1="51.4257595%" y1="1.28552159%" x2="48.4568657%" y2="98.3752237%" id="linearGradient-12">
            <stop stop-color="#C5D92D" offset="0%"></stop>
            <stop stop-color="#28A249" offset="100%"></stop>
        </linearGradient>
        <path d="M3.88701935,16.0659687 C3.81798387,16.4268854 3.76626911,16.7702986 3.73187509,17.1309687 C1.95600534,16.254809 -0.250903152,17.2685312 0.0423120701,19.7592014 C0.611174346,24.5517014 8.61112486,30.2206076 10.2662444,31.1995694 C10.2662444,31.1995694 15.0076706,29.0177986 16.7662196,19.0206042 C18.3869451,9.84755208 13.3179096,1.70547917 13.5764834,0.159256944 C13.3005889,1.68822222 5.50774484,6.87615278 3.88701935,16.0659687" id="path-13"></path>
        <linearGradient x1="62.7762769%" y1="7.95886453%" x2="37.1245278%" y2="92.0460631%" id="linearGradient-15">
            <stop stop-color="#F5F5F5" offset="0%"></stop>
            <stop stop-color="#FFFFFF" stop-opacity="0" offset="32.8847543%"></stop>
            <stop stop-color="#FFFFFF" stop-opacity="0" offset="100%"></stop>
        </linearGradient>
        <path d="M3.33424061,2.20519097 C3.28252586,2.49732639 3.23081111,2.78921528 3.17909635,3.08135069 C1.73083585,2.32549653 -0.114069382,3.132875 0.0927896274,5.19409375 L7.02380363,5.57202083 C6.35126441,3.30445833 5.11011036,1.51811806 3.86870886,0.143725694 C3.64452912,0.79653125 3.47231158,1.48385069 3.33424061,2.20519097" id="path-16"></path>
        <linearGradient x1="50.106118%" y1="0.00566001967%" x2="49.6648993%" y2="99.194521%" id="linearGradient-18">
            <stop stop-color="#FED723" offset="0%"></stop>
            <stop stop-color="#F15922" offset="81.64%"></stop>
            <stop stop-color="#F15922" offset="100%"></stop>
        </linearGradient>
        <path d="M2.40956104,24.3507812 C2.59909932,24.7632222 2.78888504,25.1754167 2.99574405,25.5878576 C0.581976543,26.0685868 -0.952392735,28.8688958 1.1164448,31.2392604 C5.09922304,35.8086528 16.2542683,40.2404826 18.6333944,39.9483472 C18.6333944,39.9483472 22.8576731,29.1265174 17.5471371,17.2909653 C12.6678874,6.41761111 1.75409512,1.917 0.94373237,0.0788888889 C1.75434255,1.91675347 -2.45261543,13.4774271 2.40956104,24.3507812" id="path-19"></path>
        <linearGradient x1="33.6755821%" y1="12.2646805%" x2="66.1978481%" y2="87.8463279%" id="linearGradient-21">
            <stop stop-color="#FFFFFF" offset="0%"></stop>
            <stop stop-color="#FFFFFF" stop-opacity="0" offset="34.8785224%"></stop>
            <stop stop-color="#FFFFFF" stop-opacity="0" offset="100%"></stop>
        </linearGradient>
        <path d="M9.74637502,16.1086181 C10.0049488,16.3147153 10.2808433,16.5038021 10.539417,16.6926424 C9.21190676,18.0667882 9.28094225,20.6434965 11.3844212,21.3820937 C15.470629,22.7907535 23.987727,21.3820937 25.3498788,20.1452639 C25.3498788,20.1452639 24.0394418,10.5427604 16.5395655,4.73678472 C9.67733954,-0.605472222 1.35002722,1.02654167 0.194734498,0.133371528 C1.35002722,1.02654167 2.8843965,10.7833715 9.74637502,16.1086181" id="path-22"></path>
        <linearGradient x1="79.3661518%" y1="70.96966%" x2="20.634063%" y2="29.0577945%" id="linearGradient-24">
            <stop stop-color="#092170" stop-opacity="0" offset="0%"></stop>
            <stop stop-color="#091F6E" stop-opacity="0" offset="58.7585802%"></stop>
            <stop stop-color="#EBEBEB" offset="100%"></stop>
        </linearGradient>
    </defs>
    <g id="•-Homepage" stroke="none" stroke-width="1" fill="none" fill-rule="evenodd">
        <g id="homepage_template-01" transform="translate(-395.000000, -3161.000000)">
            <g id="basic-details" transform="translate(0.000000, 2287.000000)">
                <g id="Group-11" transform="translate(0.000000, 801.000000)">
                    <g id="Group-14" transform="translate(395.000000, 60.000000)">
                        <g id="logo-black" transform="translate(0.000000, 13.000000)">
                            <g id="Group" transform="translate(39.342802, 17.503472)" fill="#FFFFFF">
                                <path d="M7.43801653,5.97139583 L4.23120701,21.0021944 L0.0932845054,21.0021944 L3.2657,5.97139583 L7.43801653,5.97139583 Z M3.73088534,3.63529861 L4.48953333,0.233954861 L8.66184985,0.233954861 L7.90320186,3.63529861 L3.73088534,3.63529861 Z" id="Shape" fill-rule="nonzero"></path>
                                <polygon id="Path" points="15.0240016 0.233954861 10.5931113 20.984691 6.47250953 20.984691 10.8690058 0.233954861 15.0240016 0.233954861"></polygon>
                                <polygon id="Path" points="21.4032266 0.233954861 16.9723363 20.984691 12.8517345 20.984691 17.2482308 0.233954861 21.4032266 0.233954861"></polygon>
                                <path d="M29.5412481,20.984691 L30.0066809,18.8889583 L29.9549661,18.8889583 C28.6101351,20.5379826 26.8515861,21.3626181 24.6790716,21.3626181 C21.7479091,21.3626181 20.2825753,20.0227396 20.2825753,17.3602396 C20.2825753,17.2056667 20.2996486,16.9995694 20.3342901,16.7592049 C20.3686841,16.5185938 20.4033256,16.2782292 20.4550403,16.0206076 C20.5067551,15.7629861 20.5584698,15.5396319 20.5928639,15.3162778 C20.6445786,15.0931701 20.6792201,14.9210937 20.7309348,14.7840243 L22.5929133,5.97164236 L26.7308358,5.97164236 L24.8859306,14.7840243 C24.8515366,14.9040833 24.8168951,15.0416458 24.7825011,15.2132292 C24.7478597,15.385059 24.7307864,15.5396319 24.6961449,15.7287187 C24.6617509,15.9003021 24.6444301,16.0723785 24.6444301,16.2439618 C24.6273569,16.4157917 24.6273569,16.5360972 24.6273569,16.6391458 C24.6273569,17.0858542 24.8342159,17.4465243 25.2479339,17.7386597 C25.6616519,18.0307951 26.1100114,18.1681111 26.6098382,18.1681111 C27.2306626,18.1681111 27.7822042,18.0478056 28.2649577,17.8071944 C28.7477112,17.5665833 29.1443559,17.257684 29.4890385,16.8625 C29.833721,16.467316 30.1096155,16.0378646 30.3337952,15.5226215 C30.557975,15.0243889 30.7304399,14.5091458 30.8509427,13.9766458 L32.5407037,5.98914583 L36.6786262,5.98914583 L33.5235314,21.0196979 L29.5407532,21.0196979 L29.5407532,20.984691 L29.5412481,20.984691 Z" id="Path"></path>
                                <path d="M42.9893106,5.97139583 L42.5236304,8.08438542 L42.5753452,8.08438542 C43.1959222,7.20822569 43.9545702,6.57267708 44.8510417,6.16023611 C45.7477607,5.74804167 46.7476617,5.54194444 47.8512397,5.54194444 C48.7823527,5.54194444 49.5753947,5.74804167 50.2476864,6.16023611 C50.9029049,6.57267708 51.3339437,7.24249306 51.5061612,8.16993056 C51.764735,7.77474653 52.0752709,7.43133333 52.4716682,7.10517708 C52.868313,6.77877431 53.282031,6.50389583 53.730143,6.28054167 C54.1785025,6.03993056 54.6439353,5.86810069 55.1437621,5.74804167 C55.6438363,5.62773611 56.1265898,5.55895486 56.6093433,5.55895486 C57.1955263,5.55895486 57.7643886,5.64499306 58.3161776,5.79956597 C58.8677191,5.95413889 59.3677933,6.19475 59.7817588,6.50364931 C60.2125501,6.81304167 60.5577275,7.20797917 60.7987331,7.68920139 C61.0575543,8.16993056 61.1780571,8.73694444 61.1780571,9.37249306 C61.1780571,9.83621181 61.1263424,10.3001771 61.0399861,10.7811528 C60.9365566,11.2621285 60.8504479,11.7088368 60.7467709,12.1552986 L58.8847924,20.9844444 L54.7468699,20.9844444 L56.7295987,11.4852361 C56.7986341,11.0900521 56.8503489,10.7466389 56.8503489,10.4029792 C56.8503489,9.95627083 56.6778839,9.57834375 56.3332014,9.26919792 C55.9882714,8.95980556 55.5574801,8.80523264 55.0400851,8.80523264 C54.4885436,8.80523264 54.0055426,8.94279514 53.5747513,9.20041667 C53.1437126,9.45828472 52.7643886,9.78444097 52.4367793,10.1968819 C52.1091701,10.592066 51.8505963,11.0385278 51.626664,11.5195035 C51.419805,12.0004792 51.2646608,12.4814549 51.1609838,12.9451736 L49.4714703,21.0017014 L45.2991538,21.0017014 L47.2818825,11.5022465 C47.350918,11.1070625 47.4026328,10.7636493 47.4026328,10.4199896 C47.4026328,9.97328125 47.2301678,9.59535417 46.8854852,9.28620833 C46.5408027,8.9770625 46.1097639,8.82248958 45.592369,8.82248958 C45.04058,8.82248958 44.5578265,8.95980556 44.1267877,9.21767361 C43.695749,9.47529514 43.316425,9.80169792 42.9888158,10.2138924 C42.6612065,10.6090764 42.4026328,11.0555382 42.178453,11.5365139 C41.971594,12.0174896 41.8164497,12.4984653 41.7130202,12.962184 L40.0232593,21.0187118 L35.9026575,21.0187118 L39.0233582,5.98815972 L42.9888158,5.98815972 L42.9888158,5.97139583 L42.9893106,5.97139583 Z" id="Path"></path>
                                <path d="M68.5408522,5.97139583 L65.3340427,20.984691 L61.1961202,20.984691 L64.3682882,5.95413889 L68.5406047,5.95413889 L68.5406047,5.97139583 L68.5408522,5.97139583 Z M64.8342159,3.63529861 L65.5926164,0.233954861 L69.7649329,0.233954861 L69.0065324,3.63529861 L64.8342159,3.63529861 Z" id="Shape" fill-rule="nonzero"></path>
                                <path d="M74.6615034,5.97139583 L74.1958232,8.06712847 L74.247538,8.06712847 C75.5926164,6.40084722 77.3511654,5.57621181 79.5234325,5.57621181 C82.4543475,5.57621181 83.9199287,6.91633681 83.9199287,9.61310417 C83.9199287,9.76767708 83.9028554,9.97377431 83.868214,10.2141389 C83.83382,10.45475 83.7821052,10.6951146 83.730143,10.9527361 C83.6784283,11.2106042 83.6267135,11.4337118 83.5923195,11.657066 C83.5406047,11.8801736 83.5059633,12.05225 83.4886425,12.189566 L81.6269115,21.0017014 L77.4887415,21.0017014 L79.3336468,12.189566 C79.3682882,11.9489549 79.420003,11.639809 79.488791,11.2618819 C79.5575791,10.8664514 79.5922205,10.574809 79.5922205,10.3684653 C79.5922205,9.92175694 79.3853615,9.56133333 78.9716435,9.26919792 C78.557678,8.9770625 78.109566,8.83974653 77.6094918,8.83974653 C76.9886673,8.83974653 76.4371257,8.96005208 75.9543722,9.20041667 C75.4716187,9.44102778 75.074974,9.75017361 74.7302915,10.1453576 C74.3856089,10.5405417 74.1097145,10.9870035 73.8855347,11.4852361 C73.661355,11.9834688 73.48889,12.4987118 73.3683872,13.0312118 L71.6786262,21.0187118 L67.5755926,21.0187118 L70.6960459,5.98815972 L74.6615034,5.98815972 L74.6615034,5.97139583 Z" id="Path"></path>
                                <path d="M87.1787005,8.15292014 C87.6270599,7.51737153 88.1786015,7.01913889 88.8164992,6.62420139 C89.454397,6.22926389 90.178651,5.95413889 90.971693,5.79956597 C91.764735,5.62773611 92.5924185,5.55895486 93.454496,5.55895486 C94.1267877,5.55895486 94.8510417,5.61047917 95.5750483,5.69651736 C96.3163755,5.79956597 96.9886673,5.98865278 97.6094918,6.26328472 C98.2303162,6.53816319 98.7474638,6.93334722 99.143861,7.44883681 C99.5405058,7.96407986 99.730044,8.65115278 99.7129708,9.49279861 C99.7129708,10.2143854 99.6095412,11.0560312 99.3853615,12.0179826 L98.0405305,18.0645694 C97.9541743,18.3392014 97.9024595,18.6656042 97.8853863,19.0607882 C97.8507448,19.4559722 97.8336715,19.7993854 97.8336715,20.0915208 C97.8336715,20.3491424 97.8853863,20.6410312 97.9717425,20.9676806 L93.83382,20.9676806 L93.83382,19.5074965 C93.2649577,20.1430451 92.5753452,20.6240208 91.7649824,20.9161562 C90.9548671,21.2082917 90.1098629,21.3628646 89.2304647,21.3628646 C88.4203494,21.3628646 87.6960954,21.259816 87.0925917,21.0364618 C86.4717672,20.8303646 85.9719404,20.5382292 85.5582224,20.1778056 C85.1442569,19.8168889 84.8512892,19.4046944 84.6615034,18.9237187 C84.4719652,18.4427431 84.3682882,17.9445104 84.3682882,17.4292674 C84.3682882,15.9690833 84.8683624,14.8180451 85.8682635,13.9418854 C86.8681645,13.0657257 88.282031,12.5334722 90.1096155,12.3101181 C91.0751225,12.190059 91.9198792,12.1040208 92.6441332,12.0524965 C93.3683872,12.0009722 93.9545702,11.8979236 94.4370763,11.7776181 C94.9198298,11.657559 95.2647597,11.4684722 95.5060128,11.2281076 C95.7472658,10.9877431 95.8509427,10.6270729 95.8509427,10.1458507 C95.8509427,9.75066667 95.7645865,9.44152083 95.592369,9.21816667 C95.4201514,8.97755556 95.1957243,8.80572569 94.9373979,8.66865625 C94.6785767,8.53109375 94.3856089,8.44530208 94.0923937,8.39377778 C93.7821052,8.34225347 93.5064582,8.32524306 93.2305637,8.32524306 C92.4892364,8.32524306 91.8337705,8.49682639 91.2475875,8.85749653 C90.6616519,9.21841319 90.2994012,9.76792361 90.1613302,10.5240243 L86.2819815,10.5240243 C86.4373732,9.57859028 86.730341,8.78846875 87.1787005,8.15292014 Z M93.3510665,14.3543264 C92.7478102,14.4228611 92.1443064,14.4743854 91.5410501,14.5088993 C91.144158,14.5434132 90.7650814,14.6119479 90.4028307,14.6979861 C90.0408274,14.7840243 89.7132182,14.9210938 89.420003,15.0931701 C89.1443559,15.2647535 88.9028554,15.5053646 88.7303905,15.7972535 C88.5581729,16.1066458 88.4718167,16.4843264 88.4718167,16.9482917 C88.4718167,17.515059 88.6959964,17.9275 89.1614292,18.2193889 C89.6097887,18.4940208 90.1442569,18.6488403 90.7475132,18.6488403 C91.385411,18.6488403 91.9374474,18.5455451 92.3682387,18.3394479 C92.7992775,18.1333507 93.1786015,17.8757292 93.4718167,17.5493264 C93.7650319,17.2229236 94.006285,16.8622535 94.1785025,16.4670694 C94.3509675,16.054875 94.5061117,15.659691 94.6095412,15.2474965 L95.0232593,13.7873125 C94.5234325,14.0964583 93.9545702,14.2852986 93.3510665,14.3543264 Z" id="Shape" fill-rule="nonzero"></path>
                                <path d="M111.212946,5.97139583 L110.575048,8.73719097 L107.626812,8.73719097 L106.075122,16.2096944 C106.040728,16.3642674 106.006334,16.5018299 105.989014,16.6388993 C105.971693,16.7592049 105.954372,16.8622535 105.954372,16.9137778 C105.954372,17.1886562 106.006087,17.3947535 106.092443,17.532316 C106.178799,17.6698785 106.299302,17.7899375 106.420052,17.8584722 C106.557876,17.9445104 106.71302,17.9787778 106.868412,17.9960347 C107.040629,18.0132917 107.195774,18.0132917 107.350918,18.0132917 C107.850992,18.0132917 108.351066,17.9787778 108.83382,17.9272535 L108.126887,21.0877396 C107.696095,21.1222535 107.265057,21.1565208 106.851091,21.1910347 C106.4203,21.2253021 105.989261,21.242559 105.540902,21.242559 C105.058148,21.242559 104.575395,21.1910347 104.092394,21.1049965 C103.609393,21.0189583 103.195922,20.8643854 102.816598,20.6410312 C102.437274,20.4179236 102.144059,20.1085312 101.920127,19.7308507 C101.695947,19.3356667 101.592517,18.837434 101.609591,18.2191424 C101.609591,18.0300556 101.626911,17.8067014 101.661553,17.5663368 C101.695947,17.3259722 101.747662,17.0681042 101.799376,16.7934722 L103.489137,8.73694444 L100.782402,8.73694444 L101.4203,5.97114931 L104.07532,5.97114931 L105.006433,1.40200347 L109.144356,1.40200347 L108.213243,5.97114931 L111.212946,5.97114931 L111.212946,5.97139583 Z" id="Path"></path>
                                <path d="M114.006038,14.7320069 C114.006038,14.8180451 114.006038,14.8868264 114.006038,14.9726181 L114.006038,15.3505451 C114.006038,16.2267049 114.281932,16.9307882 114.8164,17.4632882 C115.367942,18.0130451 116.195625,18.2706667 117.316277,18.2706667 C117.730242,18.2706667 118.092245,18.2018854 118.402781,18.0815799 C118.730143,17.9615208 119.006038,17.7894444 119.247538,17.6006042 C119.489038,17.4117639 119.695897,17.1884097 119.885436,16.9305417 C120.075221,16.6729201 120.247439,16.432309 120.402583,16.2092014 L124.540753,16.2092014 C124.213144,17.0678576 123.816499,17.8064549 123.368387,18.44225 C122.920275,19.0780451 122.385559,19.6278021 121.764982,20.0570069 C121.144158,20.4864583 120.420151,20.8128611 119.592715,21.0362153 C118.765032,21.242559 117.816846,21.3626181 116.713268,21.3626181 C115.696046,21.3626181 114.782254,21.2250556 113.954818,20.9504236 C113.127134,20.6755451 112.420448,20.2633507 111.834265,19.7133472 C111.248082,19.1638368 110.799723,18.4765174 110.472114,17.6693854 C110.144504,16.8620069 109.98936,15.899809 109.98936,14.8177986 C109.98936,13.6154826 110.179146,12.4644444 110.575543,11.3479201 C110.97194,10.2313958 111.506656,9.25243403 112.230663,8.37627431 C112.937348,7.51737153 113.816747,6.83029861 114.833968,6.31480903 C115.868511,5.79956597 117.023556,5.54194444 118.299352,5.54194444 C119.351215,5.54194444 120.299401,5.67926042 121.178799,5.95413889 C122.040877,6.22901736 122.782204,6.64121181 123.402781,7.19096875 C124.023606,7.74072569 124.489286,8.42804514 124.833968,9.25243403 C125.178898,10.0768229 125.351116,11.0217639 125.351116,12.1210313 C125.351116,12.8596285 125.26476,13.64975 125.109615,14.4743854 L113.989212,14.4743854 C114.023111,14.577434 114.006038,14.6632257 114.006038,14.7320069 Z M121.281734,10.7123715 C121.212946,10.334691 121.074875,9.99103125 120.885089,9.68163889 C120.695304,9.37249306 120.402336,9.13212847 120.040333,8.94304167 C119.678329,8.75395486 119.178255,8.66840972 118.574751,8.66840972 C117.988568,8.66840972 117.471421,8.75420139 117.023061,8.92603125 C116.574702,9.09761458 116.195625,9.33822569 115.850943,9.63011458 C115.523333,9.92225 115.247439,10.2656632 115.023259,10.6435903 C114.79908,11.0387743 114.609294,11.4337118 114.45415,11.8631632 L121.367843,11.8631632 C121.385164,11.4684722 121.351017,11.0902986 121.281734,10.7123715 Z" id="Shape" fill-rule="nonzero"></path>
                                <path d="M136.523235,14.7320069 C136.523235,14.8180451 136.523235,14.8868264 136.523235,14.9726181 L136.523235,15.3505451 C136.523235,16.2267049 136.798882,16.9307882 137.33335,17.4632882 C137.884891,18.0130451 138.712575,18.2706667 139.833474,18.2706667 C140.247192,18.2706667 140.609442,18.2018854 140.919731,18.0815799 C141.24734,17.9615208 141.522987,17.7894444 141.764488,17.6006042 C142.005988,17.4117639 142.212847,17.1884097 142.402385,16.9305417 C142.592171,16.6729201 142.764636,16.432309 142.91978,16.2092014 L147.057703,16.2092014 C146.730094,17.0678576 146.333449,17.8064549 145.885337,18.44225 C145.437225,19.0780451 144.902509,19.6278021 144.281932,20.0570069 C143.661355,20.4864583 142.937101,20.8128611 142.109665,21.0362153 C141.281981,21.242559 140.333795,21.3626181 139.230465,21.3626181 C138.213243,21.3626181 137.299203,21.2250556 136.471767,20.9504236 C135.644331,20.6755451 134.937398,20.2633507 134.351215,19.7133472 C133.765032,19.1638368 133.316672,18.4765174 132.989311,17.6693854 C132.661701,16.8620069 132.506557,15.899809 132.506557,14.8177986 C132.506557,13.6154826 132.696343,12.4644444 133.09274,11.3479201 C133.489137,10.2313958 134.023853,9.25243403 134.747612,8.37627431 C135.454545,7.51737153 136.333944,6.83029861 137.350918,6.31480903 C138.38546,5.79956597 139.540753,5.54194444 140.816549,5.54194444 C141.868164,5.54194444 142.816598,5.67926042 143.695996,5.95413889 C144.557826,6.22901736 145.299154,6.64121181 145.919978,7.19096875 C146.540803,7.74072569 147.006235,8.42804514 147.350918,9.25243403 C147.695848,10.0768229 147.868313,11.0217639 147.868313,12.1210313 C147.868313,12.8596285 147.781957,13.64975 147.626812,14.4743854 L136.506161,14.4743854 C136.540308,14.577434 136.523235,14.6632257 136.523235,14.7320069 Z M143.798931,10.7123715 C143.729896,10.334691 143.592072,9.99103125 143.402286,9.68163889 C143.212501,9.37249306 142.919533,9.13212847 142.557282,8.94304167 C142.195279,8.75395486 141.695452,8.66840972 141.091948,8.66840972 C140.505765,8.66840972 139.98837,8.75420139 139.540258,8.92603125 C139.091899,9.09761458 138.712575,9.33822569 138.367892,9.63011458 C138.040283,9.92225 137.764636,10.2656632 137.540209,10.6435903 C137.316277,11.0387743 137.126491,11.4337118 136.971347,11.8631632 L143.884792,11.8631632 C143.902361,11.4684722 143.867967,11.0902986 143.798931,10.7123715 Z" id="Shape" fill-rule="nonzero"></path>
                                <path d="M158.402286,19.0780451 C157.936854,19.8854236 157.298956,20.4696944 156.488593,20.8301181 C155.678478,21.1910347 154.816153,21.3626181 153.885287,21.3626181 C152.057703,21.3626181 150.643836,20.8301181 149.643935,19.782375 C148.643787,18.7343854 148.14396,17.2914583 148.14396,15.4708507 C148.14396,14.2337743 148.316425,13.0142014 148.644034,11.8463993 C148.971396,10.6608472 149.47147,9.61310417 150.16133,8.68566667 C150.833622,7.75798264 151.6957,7.00212847 152.730242,6.43536111 C153.764784,5.86834722 154.971545,5.57645833 156.36809,5.57645833 C157.247488,5.57645833 158.092245,5.76554514 158.885287,6.16048264 C159.69565,6.55566667 160.264512,7.15694792 160.592122,7.99859375 L160.643836,7.99859375 L162.298956,0.268715278 L166.436878,0.268715278 L162.040135,21.0194514 L158.040283,21.0194514 L158.454249,19.1643299 L158.402286,19.0780451 Z M154.764438,9.26969097 C154.195328,9.68188542 153.712822,10.197375 153.350572,10.8156667 C152.988568,11.4342049 152.712674,12.1212778 152.540456,12.8428646 C152.367991,13.5814618 152.281883,14.2685347 152.281883,14.9385972 C152.281883,15.3853056 152.350671,15.8147569 152.471421,16.2096944 C152.592171,16.6218889 152.781957,16.9653021 153.02321,17.2744479 C153.264463,17.5838403 153.574751,17.8242049 153.936755,17.9960347 C154.299005,18.1851215 154.729797,18.2709132 155.21255,18.2709132 C155.988519,18.2709132 156.661058,18.064816 157.229673,17.652375 C157.798783,17.2401806 158.264215,16.7076806 158.643539,16.0721319 C159.022863,15.4365833 159.29851,14.7320069 159.488296,13.9934097 C159.678082,13.2548125 159.764191,12.5504826 159.764191,11.914934 C159.764191,10.9187153 159.52269,10.1456042 159.039937,9.54432292 C158.557183,8.96029861 157.798535,8.65115278 156.798634,8.65115278 C156.02316,8.66840972 155.333548,8.87450694 154.764438,9.26969097 Z" id="Shape" fill-rule="nonzero"></path>
                                <path d="M174.470975,20.984691 L174.936656,18.8889583 L174.884941,18.8889583 C173.539862,20.5379826 171.781561,21.3626181 169.609046,21.3626181 C166.678131,21.3626181 165.21255,20.0227396 165.21255,17.3602396 C165.21255,17.2056667 165.229623,16.9995694 165.264265,16.7592049 C165.298906,16.5188403 165.333053,16.2782292 165.384768,16.0206076 C165.436482,15.7629861 165.488197,15.5396319 165.522839,15.3162778 C165.574553,15.0931701 165.609195,14.9210937 165.66091,14.7840243 L167.522888,5.97164236 L171.660811,5.97164236 L169.816153,14.7840243 C169.781511,14.9040833 169.747117,15.0416458 169.712723,15.2132292 C169.678082,15.385059 169.661009,15.5396319 169.626367,15.7287187 C169.591726,15.9003021 169.574652,16.0723785 169.574652,16.2439618 C169.557332,16.4157917 169.557332,16.5360972 169.557332,16.6391458 C169.557332,17.0858542 169.764438,17.4465243 170.178156,17.7386597 C170.591874,18.0307951 171.040234,18.1681111 171.540308,18.1681111 C172.160885,18.1681111 172.712674,18.0478056 173.19518,17.8071944 C173.677933,17.5665833 174.074578,17.257684 174.419261,16.8625 C174.763943,16.467316 175.040085,16.0378646 175.264265,15.5226215 C175.488197,15.0243889 175.66091,14.5091458 175.781412,13.9766458 L177.471173,5.98914583 L181.609096,5.98914583 L178.453754,21.0196979 L174.470975,21.0196979 L174.470975,20.984691 Z" id="Path"></path>
                                <path d="M191.902064,9.25243403 C191.436631,8.85700347 190.747018,8.66840972 189.815905,8.66840972 C189.039937,8.66840972 188.384966,8.87450694 187.833177,9.28670139 C187.281388,9.69914236 186.850101,10.2316424 186.52274,10.8669444 C186.19513,11.5024931 185.95363,12.2070694 185.816054,12.9456667 C185.677983,13.6842639 185.591874,14.3888403 185.591874,15.0243889 C185.591874,15.4710972 185.643589,15.8830451 185.729945,16.2952396 C185.833375,16.6906701 185.988519,17.0340833 186.230019,17.3262187 C186.47152,17.6183542 186.764488,17.8414618 187.126491,18.0303021 C187.488494,18.2018854 187.936854,18.2879236 188.454001,18.2879236 C188.919434,18.2879236 189.333399,18.2193889 189.695403,18.0473125 C190.057653,17.8927396 190.367942,17.6866424 190.66091,17.4290208 C190.936804,17.1711528 191.178305,16.8792639 191.367595,16.5356042 C191.557381,16.1919444 191.695205,15.8485313 191.815955,15.4708507 L195.953877,15.4708507 C195.333053,17.3432292 194.367793,18.8034132 193.07443,19.8166424 C191.781313,20.8301181 190.143267,21.3456076 188.160786,21.3456076 C186.040234,21.3456076 184.384867,20.8301181 183.212501,19.782375 C182.040382,18.7516424 181.454199,17.1196285 181.454199,14.9208472 C181.454199,13.64975 181.643737,12.4299306 182.023061,11.2963958 C182.402385,10.1628611 182.954174,9.16639583 183.678181,8.30749306 C184.402435,7.44883681 185.298906,6.76151736 186.350522,6.28054167 C187.402385,5.78230903 188.609145,5.54194444 189.971297,5.54194444 C190.885089,5.54194444 191.747167,5.64499306 192.574603,5.86810069 C193.384718,6.07444444 194.108972,6.41785764 194.712723,6.86456597 C195.3333,7.31127431 195.816054,7.89529861 196.178305,8.59938194 C196.540308,9.32096875 196.729846,10.1626146 196.747167,11.1590799 L192.608997,11.1590799 C192.574603,10.2831667 192.350423,9.63011458 191.902064,9.25243403 Z" id="Path"></path>
                                <path d="M198.815757,8.15292014 C199.264116,7.51737153 199.815658,7.01913889 200.453556,6.62420139 C201.091453,6.22926389 201.815707,5.95413889 202.608749,5.79956597 C203.402039,5.62773611 204.229475,5.55895486 205.091552,5.55895486 C205.764092,5.55895486 206.488098,5.61047917 207.212105,5.69651736 C207.953432,5.79956597 208.625971,5.98865278 209.246796,6.26328472 C209.867373,6.53816319 210.384768,6.93334722 210.781165,7.44883681 C211.17781,7.96407986 211.367348,8.65115278 211.350027,9.49279861 C211.350027,10.2143854 211.246598,11.0560312 211.022665,12.0179826 L209.677834,18.0645694 C209.591478,18.3392014 209.539516,18.6656042 209.522443,19.0607882 C209.487801,19.4559722 209.470728,19.7993854 209.470728,20.0915208 C209.470728,20.3491424 209.522443,20.6410312 209.608799,20.9676806 L205.470876,20.9676806 L205.470876,19.5074965 C204.901767,20.1430451 204.212154,20.6240208 203.402039,20.9161562 C202.591676,21.2082917 201.746919,21.3628646 200.867521,21.3628646 C200.057406,21.3628646 199.333152,21.259816 198.729648,21.0364618 C198.108824,20.8303646 197.608997,20.5382292 197.195031,20.1778056 C196.781313,19.8168889 196.488346,19.4046944 196.29856,18.9237187 C196.108774,18.4427431 196.005345,17.9445104 196.005345,17.4292674 C196.005345,15.9690833 196.505419,14.8180451 197.50532,13.9418854 C198.505221,13.0657257 199.919087,12.5334722 201.746672,12.3101181 C202.712179,12.190059 203.556936,12.1040208 204.280942,12.0524965 C205.005196,12.0009722 205.591379,11.8979236 206.074133,11.7776181 C206.556886,11.657559 206.901816,11.4684722 207.143069,11.2281076 C207.384322,10.9877431 207.487999,10.6270729 207.487999,10.1458507 C207.487999,9.75066667 207.401643,9.44152083 207.229425,9.21816667 C207.05696,8.97755556 206.832533,8.80572569 206.574207,8.66865625 C206.315633,8.53109375 206.022665,8.44530208 205.72945,8.39377778 C205.436235,8.34225347 205.143267,8.32524306 204.867373,8.32524306 C204.126045,8.32524306 203.470827,8.49682639 202.884644,8.85749653 C202.298461,9.21841319 201.936458,9.76792361 201.798387,10.5240243 L197.919038,10.5240243 C198.09175,9.57859028 198.367645,8.78846875 198.815757,8.15292014 Z M205.005444,14.3543264 C204.402187,14.4228611 203.798684,14.4743854 203.19518,14.5088993 C202.798535,14.5434132 202.419211,14.6119479 202.057208,14.6979861 C201.695205,14.7840243 201.367595,14.9210938 201.07438,15.0931701 C200.798733,15.2647535 200.557233,15.5053646 200.384768,15.7972535 C200.21255,16.1066458 200.126194,16.4843264 200.126194,16.9482917 C200.126194,17.515059 200.350126,17.9275 200.815806,18.2193889 C201.264166,18.4940208 201.798634,18.6488403 202.40189,18.6488403 C203.039788,18.6488403 203.591577,18.5455451 204.022616,18.3394479 C204.453655,18.1333507 204.832979,17.8757292 205.126194,17.5493264 C205.419409,17.2229236 205.660415,16.8622535 205.83288,16.4670694 C206.005345,16.054875 206.160489,15.659691 206.263918,15.2474965 L206.677636,13.7873125 C206.17781,14.0964583 205.6087,14.2852986 205.005444,14.3543264 Z" id="Shape" fill-rule="nonzero"></path>
                                <path d="M222.85025,5.97139583 L222.212352,8.73719097 L219.264116,8.73719097 L217.712426,16.2096944 C217.677785,16.3642674 217.643638,16.5018299 217.62607,16.6388993 C217.608997,16.7592049 217.591676,16.8622535 217.591676,16.9137778 C217.591676,17.1886562 217.643391,17.3947535 217.7295,17.532316 C217.815856,17.6698785 217.936606,17.7899375 218.057109,17.8584722 C218.19518,17.9445104 218.350324,17.9787778 218.505468,17.9960347 C218.677933,18.0132917 218.833078,18.0132917 218.988222,18.0132917 C219.488296,18.0132917 219.98837,17.9787778 220.470876,17.9272535 L219.764191,21.0877396 C219.333152,21.1222535 218.902113,21.1565208 218.488395,21.1910347 C218.057356,21.2253021 217.626318,21.242559 217.177958,21.242559 C216.695205,21.242559 216.212699,21.1910347 215.729698,21.1049965 C215.246697,21.0189583 214.833226,20.8643854 214.453902,20.6410312 C214.074578,20.4179236 213.781363,20.1085312 213.557431,19.7308507 C213.333251,19.3356667 213.229821,18.837434 213.246895,18.2191424 C213.246895,18.0300556 213.263968,17.8067014 213.298609,17.5663368 C213.333251,17.3259722 213.384966,17.0681042 213.43668,16.7934722 L215.126194,8.73694444 L212.419459,8.73694444 L213.057356,5.97114931 L215.712377,5.97114931 L216.643737,1.40200347 L220.78166,1.40200347 L219.850547,5.97114931 L222.85025,5.97114931 L222.85025,5.97139583 Z" id="Path"></path>
                                <path d="M228.419112,5.97139583 L225.212303,21.0021944 L221.074133,21.0021944 L224.246548,5.97139583 L228.419112,5.97139583 Z M224.729549,3.63529861 L225.48795,0.233954861 L229.660266,0.233954861 L228.901866,3.63529861 L224.729549,3.63529861 Z" id="Shape" fill-rule="nonzero"></path>
                                <path d="M228.677686,11.2963958 C229.074331,10.1626146 229.643193,9.16639583 230.401841,8.32475 C231.143416,7.46584722 232.05696,6.79578472 233.126144,6.29755208 C234.195328,5.79931944 235.401841,5.55895486 236.746919,5.55895486 C237.781462,5.55895486 238.729648,5.69651736 239.591726,5.95413889 C240.453556,6.21176042 241.194883,6.60669792 241.815707,7.13944444 C242.436284,7.65493403 242.919038,8.32499653 243.263968,9.11511806 C243.608898,9.90523958 243.781363,10.849934 243.781363,11.932191 C243.781363,13.2548125 243.574504,14.4918889 243.178107,15.6426806 C242.781462,16.7937188 242.195279,17.7899375 241.436631,18.6488403 C240.67823,19.5074965 239.764191,20.177559 238.678181,20.6585347 C237.591924,21.1392639 236.367843,21.379875 234.988618,21.379875 C232.885139,21.379875 231.212699,20.847375 229.953976,19.7651181 C228.695502,18.6828611 228.074677,17.0856076 228.074677,14.9210938 C228.074182,13.6327396 228.281041,12.4301771 228.677686,11.2963958 Z M232.40189,16.192191 C232.522641,16.6046319 232.712179,16.9653021 232.971,17.2744479 C233.229574,17.5838403 233.539862,17.8242049 233.902113,18.0132917 C234.264116,18.2021319 234.695155,18.2879236 235.177909,18.2879236 C235.95363,18.2879236 236.626169,18.0818264 237.177711,17.6696319 C237.7295,17.257191 238.194932,16.724691 238.556936,16.1063993 C238.919186,15.4708507 239.17776,14.8007882 239.367298,14.062191 C239.539763,13.3235938 239.625872,12.6365208 239.625872,12.0009722 C239.625872,10.9874965 239.40194,10.197375 238.93626,9.59609375 C238.470827,8.9948125 237.694858,8.70267708 236.59128,8.70267708 C235.83288,8.70267708 235.177661,8.90877431 234.625872,9.32121528 C234.074331,9.73340972 233.625971,10.2488993 233.263968,10.8844479 C232.919038,11.5027396 232.643143,12.1728021 232.470926,12.9113993 C232.298461,13.6329861 232.212105,14.320059 232.212105,14.9556076 C232.212105,15.3675556 232.28114,15.7799965 232.40189,16.192191 Z" id="Shape" fill-rule="nonzero"></path>
                                <path d="M250.677488,5.97139583 L250.212055,8.06712847 L250.26377,8.06712847 C251.608601,6.40084722 253.36715,5.57621181 255.539417,5.57621181 C258.47058,5.57621181 259.936161,6.91633681 259.936161,9.61310417 C259.936161,9.76767708 259.919087,9.97377431 259.884446,10.2141389 C259.849805,10.4545035 259.79809,10.6951146 259.746375,10.9527361 C259.69466,11.2106042 259.642946,11.4337118 259.608304,11.657066 C259.556589,11.8801736 259.521948,12.05225 259.504875,12.189566 L257.642896,21.0017014 L253.504974,21.0017014 L255.349631,12.189566 C255.384273,11.9489549 255.435988,11.639809 255.504776,11.2618819 C255.573811,10.8664514 255.608453,10.574809 255.608453,10.3684653 C255.608453,9.92175694 255.401346,9.56133333 254.987628,9.26919792 C254.57391,8.9770625 254.125551,8.83974653 253.625476,8.83974653 C253.004899,8.83974653 252.45311,8.96005208 251.970604,9.20041667 C251.487851,9.44102778 251.091206,9.75017361 250.746523,10.1453576 C250.401841,10.5405417 250.125699,10.9870035 249.901519,11.4852361 C249.677587,11.9834688 249.504875,12.4987118 249.384372,13.0312118 L247.694611,21.0187118 L243.574256,21.0187118 L246.69471,5.98815972 L250.677488,5.98815972 L250.677488,5.97139583 Z" id="Path"></path>
                            </g>
                            <g id="Clipped">
                                <g id="Group">
                                    <g id="Clipped" transform="translate(19.052803, 18.489583)">
                                        <mask id="mask-2" fill="white">
                                            <use xlink:href="#path-1"></use>
                                        </mask>
                                        <g id="SVGID_3_"></g>
                                        <polygon id="Path" fill="url(#linearGradient-3)" mask="url(#mask-2)" points="11.0382541 0.0724791667 10.3486416 21.7851667 -0.978868709 21.4417535 -0.30632949 -0.288190972"></polygon>
                                    </g>
                                    <g id="Clipped">
                                        <g id="Group">
                                            <g id="Clipped" transform="translate(23.011828, 16.270833)">
                                                <mask id="mask-5" fill="white">
                                                    <use xlink:href="#path-4"></use>
                                                </mask>
                                                <g id="SVGID_8_"></g>
                                                <polygon id="Path" fill="url(#linearGradient-6)" opacity="0.297107515" mask="url(#mask-5)" points="26.941159 5.74409722 12.7861632 31.4248958 -10.6792201 18.5758681 3.47577572 -7.10493056"></polygon>
                                            </g>
                                            <g id="Clipped">
                                                <g id="Group">
                                                    <g id="Clipped" transform="translate(20.042560, 22.187500)">
                                                        <mask id="mask-8" fill="white">
                                                            <use xlink:href="#path-7"></use>
                                                        </mask>
                                                        <g id="SVGID_13_"></g>
                                                        <polygon id="Path" fill="url(#linearGradient-9)" mask="url(#mask-8)" points="9.56574454 0.17084375 8.66927302 18.2418229 -0.985797001 17.7781042 -0.106646212 -0.310131944"></polygon>
                                                    </g>
                                                    <g id="Clipped">
                                                        <g id="Group">
                                                            <g id="Clipped" transform="translate(23.259267, 20.215278)" fill="#C1C1C1">
                                                                <path d="M3.05611917,8.17239583 C3.15954867,7.96629861 3.26297818,7.75995486 3.38372841,7.53684722 C6.33196417,2.14306597 12.3665067,0.923493056 12.8665809,0.0300763889 C12.3665067,0.940503472 13.8838026,7.46806597 10.9528876,12.8620938 C7.74607809,18.7538611 2.07353887,19.6645347 2.07353887,19.6645347 C1.21146137,18.5995347 -0.460978869,12.0374583 0.176918889,8.84270486 C0.486959964,7.19343403 2.10768546,7.14190972 3.05611917,8.17239583" id="Path"></path>
                                                            </g>
                                                            <g id="Clipped">
                                                                <g id="Group">
                                                                    <g id="Clipped" transform="translate(23.259267, 26.131944)">
                                                                        <mask id="mask-11" fill="white">
                                                                            <use xlink:href="#path-10"></use>
                                                                        </mask>
                                                                        <g id="SVGID_22_"></g>
                                                                        <polygon id="Path" fill="url(#linearGradient-12)" mask="url(#mask-11)" points="5.6077102 0.194510417 5.43524521 5.53676736 -0.0128668283 5.3649375 0.159598159 0.0399375"></polygon>
                                                                    </g>
                                                                    <g id="Clipped">
                                                                        <g id="Group">
                                                                            <g id="Clipped" transform="translate(16.083535, 8.628472)">
                                                                                <mask id="mask-14" fill="white">
                                                                                    <use xlink:href="#path-13"></use>
                                                                                </mask>
                                                                                <g id="SVGID_27_"></g>
                                                                                <polygon id="Path" fill="url(#linearGradient-15)" opacity="0.297107515" mask="url(#mask-14)" points="25.8521799 2.03188194 17.2316524 35.6313993 -7.73370614 29.2756667 0.869748107 -4.32385069"></polygon>
                                                                            </g>
                                                                            <g id="Clipped">
                                                                                <g id="Group">
                                                                                    <g id="Clipped" transform="translate(16.825852, 13.805556)" fill="#EEEEEE">
                                                                                        <path d="M3.19641708,14.066875 C3.23081111,13.7747396 3.28252586,13.4828507 3.35156134,13.1907153 C4.79982184,5.63266667 11.3168704,1.45845833 11.5583709,0.187361111 C11.3168704,1.45845833 15.4033256,8.26089931 13.9550651,15.8189479 C12.3687336,24.064316 8.67917058,25.7821215 8.67917058,25.7821215 C7.31726629,24.9574861 0.524075815,20.1304722 0.110357797,16.1623611 C-0.0967486515,14.1183993 1.74815658,13.3110208 3.19641708,14.066875" id="Path"></path>
                                                                                    </g>
                                                                                    <g id="Clipped">
                                                                                        <g id="Group">
                                                                                            <g id="Clipped" transform="translate(16.825852, 25.392361)">
                                                                                                <mask id="mask-17" fill="white">
                                                                                                    <use xlink:href="#path-16"></use>
                                                                                                </mask>
                                                                                                <g id="SVGID_36_"></g>
                                                                                                <polygon id="Path" fill="url(#linearGradient-18)" mask="url(#mask-17)" points="7.05844509 0.126715278 7.02405107 5.60628819 -0.148463404 5.55476389 -0.113821943 0.0924479167"></polygon>
                                                                                            </g>
                                                                                            <g id="Clipped">
                                                                                                <g id="Group">
                                                                                                    <g id="Clipped" opacity="0.297107515" transform="translate(7.423170, 0.000000)">
                                                                                                        <mask id="mask-20" fill="white">
                                                                                                            <use xlink:href="#path-19"></use>
                                                                                                        </mask>
                                                                                                        <g id="SVGID_41_"></g>
                                                                                                        <polygon id="Path" fill="url(#linearGradient-21)" mask="url(#mask-20)" points="19.4437571 -8.52714931 36.6160242 34.8294444 0.961300539 48.8465208 -16.2282872 5.5069375"></polygon>
                                                                                                    </g>
                                                                                                    <g transform="translate(0.000000, 6.409722)" id="Layer_1_1_-Clipped">
                                                                                                        <g>
                                                                                                            <g id="Layer_1_1_">
                                                                                                                <g id="Clipped" transform="translate(0.000000, 13.805556)">
                                                                                                                    <mask id="mask-23" fill="white">
                                                                                                                        <use xlink:href="#path-22"></use>
                                                                                                                    </mask>
                                                                                                                    <g id="SVGID_46_"></g>
                                                                                                                    <polygon id="Path" fill="url(#linearGradient-24)" opacity="0.297107515" mask="url(#mask-23)" points="16.9015688 34.643316 -10.908596 14.9233125 8.66036522 -12.4407778 36.4532093 7.27922569"></polygon>
                                                                                                                </g>
                                                                                                                <g id="Clipped" transform="translate(4.453902, 0.000000)">
                                                                                                                    <g id="Group">
                                                                                                                        <g id="Clipped" transform="translate(0.000000, 16.763889)" fill="#C1C1C1">
                                                                                                                            <path d="M8.72346217,13.734309 C8.49928243,13.5797361 8.27510269,13.4251632 8.06824368,13.2533333 C2.37863117,8.83876042 1.11990894,0.782232639 0.17172267,0.0436354167 C1.13722967,0.782232639 8.01652893,-0.557399306 13.6888207,3.85717361 C19.8785074,8.66693056 20.9647647,16.396809 20.9647647,16.396809 C19.7750779,17.4793125 12.6372049,18.7331528 9.43039541,17.6163819 C7.68916712,17.0153472 7.63745237,14.8680903 8.72346217,13.734309" id="Path"></path>
                                                                                                                        </g>
                                                                                                                        <g id="Clipped" transform="translate(5.443658, 0.000000)" fill="#FFFFFF">
                                                                                                                            <path d="M2.60751225,21.1535625 C2.43504726,20.8271597 2.279903,20.4835 2.12475875,20.1400868 C-1.89241352,11.1563681 1.59029049,1.60514236 0.917998713,0.0764236111 C1.59029049,1.58813194 10.6074628,5.31563194 14.6419558,14.2995972 C19.0211313,24.090941 15.5384273,33.1606979 15.5384273,33.1606979 C13.5730193,33.401309 4.34874054,29.6050278 1.07314297,25.8257569 C-0.651012026,23.8673403 0.60746276,21.5485 2.60751225,21.1535625" id="Path"></path>
                                                                                                                        </g>
                                                                                                                        <g id="Clipped" transform="translate(5.691097, 17.503472)" fill="#EEEEEE">
                                                                                                                            <path d="M2.36007324,3.65009028 C2.18760825,3.3236875 2.032464,2.98002778 1.87731974,2.63661458 C1.49799574,1.77795833 1.18770723,0.918809028 0.92888603,0.0601527778 C3.17018855,0.472347222 5.68738556,1.31399306 8.01504429,3.11759028 C14.204731,7.92734722 15.2907408,15.6572257 15.2907408,15.6572257 C13.3253328,15.8978368 4.10105409,12.1015556 0.825456525,8.32228472 C-0.898451032,6.36386806 0.360023754,4.04502778 2.36007324,3.65009028" id="Path"></path>
                                                                                                                        </g>
                                                                                                                    </g>
                                                                                                                </g>
                                                                                                            </g>
                                                                                                        </g>
                                                                                                    </g>
                                                                                                </g>
                                                                                            </g>
                                                                                        </g>
                                                                                    </g>
                                                                                </g>
                                                                            </g>
                                                                        </g>
                                                                    </g>
                                                                </g>
                                                            </g>
                                                        </g>
                                                    </g>
                                                </g>
                                            </g>
                                        </g>
                                    </g>
                                </g>
                            </g>
                        </g>
                    </g>
                </g>
            </g>
        </g>
    </g>
</svg>